<svg xmlns="http://www.w3.org/2000/svg" height="512" viewBox="0 0 64 64" width="512"  xmlns:v="https://vecta.io/nano"><path d="M40.081 38.708h-1.566s-.783 4.847-2.349 7.201l-4.697-3.138-4.697 3.138c-1.566-2.353-2.349-7.201-2.349-7.201h-1.566a4.697 4.707 0 0 0-4.697 4.707v2.943l-2.349-6.081H10.13l.009.026-.017-.026 1.775 13.336h19.572 13.309v-7.255-2.943a4.697 4.707 0 0 0-4.697-4.707z" fill="#ffd5d5"/><path d="M15.029 19.096h1.566v7.845h-1.566z" fill="#606060"/><ellipse cx="15.812" cy="15.958" fill="#a8a8a8" rx="3.914" ry="3.922"/><path d="M39.298 8.114a6.263 6.276 0 0 1 6.263 6.276v6.044a31.112 31.175 0 0 0 3.914 15.137l-2.754-2.007a31.104 31.168 0 0 1-6.074-5.837l-6.046-17.487a6.24 6.24 0 0 1 4.697-2.125z" fill="#ab5a32"/><g fill="#914c2a"><path d="M34.601 10.239c.415-.471.901-.876 1.438-1.206 4.112.72 7.174 4.467 7.174 8.781v3.636 4.707c0 1.286-.288 2.503-.792 3.598-.617-.654-1.216-1.325-1.774-2.029z"/><path d="M31.469 9.683a10.19 10.19 0 0 1 10.178 10.198v3.922h-1.566v-.784c-2.944-1.243-5.187-3.821-5.959-6.983-1.373 4.496-5.545 7.767-10.481 7.767h-.783-1.566v-3.922A10.19 10.19 0 0 1 31.469 9.683z"/></g><path d="M31.469 14.389c4.754 0 8.607 3.86 8.612 8.621-2.944-1.236-5.187-3.813-5.959-6.975-1.373 4.496-5.545 7.767-10.481 7.767h-.783c0-2.347.741-4.517 1.992-6.303 1.58-1.9 3.958-3.111 6.619-3.111z" fill="#ab5a32"/><path d="M31.631 35.569a8.565 8.582 0 0 1-4.076-.945v1.872 1.569l3.914 4.707 3.914-4.707v-1.569-1.91a8.25 8.25 0 0 1-3.753.984z" fill="#fce0b9"/><path d="M31.631 35.569a8.565 8.582 0 0 1-4.076-.945v2.351c1.175.602 2.504.949 3.914.949s2.739-.347 3.914-.949v-2.39a8.25 8.25 0 0 1-3.753.984zm8.842-11.766a1.957 1.961 0 1 1 0 3.922h-1.174v-3.922zm-18.006 0h1.174v3.922h-1.174a1.957 1.961 0 1 1 0-3.922z" fill="#fad3ac"/><path d="M31.469 9.683a10.19 10.19 0 0 1 10.178 10.198v1.569a10.19 10.19 0 0 0-10.178-10.198A10.19 10.19 0 0 0 21.292 21.45v-1.569A10.19 10.19 0 0 1 31.469 9.683z" fill="#ab5a32"/><g fill="#a8a8a8"><path d="M15.812 31.648a1.57 1.57 0 0 1 1.566-1.569v-3.138h-1.566-1.566v3.138a1.57 1.57 0 0 1 1.566 1.569z"/><path d="M15.812 31.648a1.57 1.57 0 0 1-1.566 1.569v5.491a1.57 1.57 0 0 0 1.566 1.569 1.57 1.57 0 0 0 1.566-1.569v-5.491a1.57 1.57 0 0 1-1.566-1.569z"/></g><path d="M15.812 31.648a1.566 1.569 0 0 0 1.566 1.569h.783a1.566 1.569 0 1 0 0-3.138h-.783a1.566 1.569 0 0 0-1.566 1.569z" fill="#f55"/><path d="M53.545 40.433a2.145 2.149 0 0 0-2.195-.519l-2.761.923c-.44.147-.916.147-1.357 0l-2.761-.923c-.51-.17-1.05-.122-1.527.085-.243.106-.474.24-.669.434a2.145 2.149 0 0 0-.629 1.52v.486a2.059 2.063 0 0 0 .035.387c.141.758.7 3.521 1.531 4.512 1.314 1.569 1.566 6.276 1.566 6.276l2.432-4.872a.783.784 0 0 1 1.401 0l2.431 4.872s.279-4.791 1.566-6.276c.849-.981 1.397-3.767 1.533-4.519a2.07 2.07 0 0 0 .033-.374v-.493a2.145 2.149 0 0 0-.628-1.52z" fill="#fff"/><ellipse cx="15.812" cy="15.958" fill="#71caf0" rx="3.132" ry="3.138"/><path d="M14.246 30.079h-2.797a2.349 2.353 0 0 0-2.328 2.664l1.002 7.534h4.123v-7.06a1.566 1.569 0 1 0 0-3.138z" fill="#f55"/><path d="M16.706 14.389l-2.153 2.109v.658l2.153-2.157zm.671.784l-2.153 2.109v.658l2.153-2.157z" fill="#fff"/><path d="M14.246 34.786H12.68a1.566 1.569 0 0 1-1.566-1.569h3.132z" fill="#ff8080"/><g fill="#faa"><path d="M27.555 36.495l-3.132 2.213s.783 4.847 2.349 7.201l4.697-3.138-3.914-4.707z"/><path d="M38.515 38.708l-3.132-2.213v1.569l-3.914 4.707 4.697 3.138c1.566-2.353 2.349-7.201 2.349-7.201z"/></g><path d="M43.687 39.913l4.223 1.934c.346.115.714.136 1.069.071a2.15 2.15 0 0 1-.287-.071l-4.223-1.934a2.05 2.05 0 0 0-1.04-.058c.086.016.172.03.257.058zm9.858.52c-.496-.497-1.196-.694-1.874-.579a2.13 2.13 0 0 1 1.091.578c.402.403.628.95.628 1.52v.493a2.08 2.08 0 0 1-.033.375c-.135.751-.683 3.537-1.533 4.518-.708.817-1.106 2.626-1.325 4.094l-1.888-3.785a.783.784 0 0 0-1.401 0l-2.432 4.872v1.094l2.432-4.872a.783.784 0 0 1 1.401 0l1.772 3.551.658 1.321s.279-4.791 1.566-6.276c.849-.981 1.397-3.767 1.533-4.519a2.07 2.07 0 0 0 .033-.374v-.493a2.145 2.149 0 0 0-.628-1.52z" fill="#c4c4c4"/><path d="M34.121 16.036c.773 3.161 3.016 5.74 5.959 6.975v.008 3.636c0 4.752-3.709 8.827-8.45 8.914-4.829.089-8.772-3.808-8.772-8.628v-3.138h.783c4.936 0 9.108-3.271 10.48-7.767z" fill="#fce0b9"/><g transform="matrix(.782885 0 0 .784483 6.416907 5.76016)"><g fill="#5e4c2d"><ellipse cx="27" cy="26.5" rx="1" ry="1.5"/><ellipse cx="37" cy="26.5" rx="1" ry="1.5"/></g><g fill="#fff"><circle cx="27.5" cy="26.5" r=".5"/><circle cx="37.5" cy="26.5" r=".5"/></g></g><path d="M31.469 32.433a2.349 2.353 0 0 0 2.349-2.353h-4.697a2.349 2.353 0 0 0 2.349 2.353z" fill="#ff9575"/><g fill="#fff"><path d="M33.674 30.864c.088-.246.144-.508.144-.784h-4.697c0 .277.056.538.144.784z"/><path d="M31.631 35.569c3.83-.071 6.984-2.745 8.056-6.274H23.191c1.037 3.67 4.429 6.348 8.44 6.274z"/></g><path d="M31.631 34c-3.412.063-6.37-1.869-7.817-4.705h-.622c1.037 3.67 4.429 6.348 8.44 6.274 3.83-.071 6.984-2.745 8.056-6.274h-.648c-1.423 2.724-4.171 4.646-7.408 4.705z" fill="#f7f7f7"/><path d="M31.469 42.771l-4.697 3.138c-1.566-2.353-2.349-7.201-2.349-7.201h-1.566c.427 2.212 1.543 6.935 3.308 9.589l4.521-3.019v8.336h1.566v-8.177l4.556 3.043c1.744-2.623 3.273-9.771 3.273-9.771h-1.566s-.783 4.847-2.349 7.201z" fill="#f55"/><path d="M18.16 49.691h-1.566v1.569h2.349a.783.784 0 0 0 .783-.784v-3.922H18.16zm21.921-.784h1.566v4.707h-1.566z" fill="#ff8080"/></svg>