<svg xmlns="http://www.w3.org/2000/svg" xmlns:xlink="http://www.w3.org/1999/xlink" height="476.222" viewBox="0 0 58 53.947" width="512" xmlns:v="https://vecta.io/nano"><path d="M45.824 42.284c-.805-9.48 4.828-12.245 4.828-12.245a13.607 13.359 0 0 0-8.546 3.286H15.745a13.607 13.359 0 0 0-8.546-3.286s5.633 2.765 4.828 12.245z" fill="#33907c"/><path d="M50.653 45.049h-1.609v-1.58a1.609 1.58 0 0 0-1.609-1.58H10.418a1.609 1.58 0 0 0-1.609 1.58v1.58H7.199a1.609 1.58 0 0 0-1.609 1.58v1.58h46.672v-1.58a1.609 1.58 0 0 0-1.609-1.58z" fill="#a56a43"/><path d="M7.199 45.049h43.453a1.609 1.58 0 0 1 1.609 1.58v1.58H5.59v-1.58a1.609 1.58 0 0 1 1.609-1.58z" fill="#805333"/><path d="M24.17 18.054c1.147-5.34 2.288-7.378 4.306-12.464 2.021 5.088 4.064 7.128 5.214 12.472l-4.764 23.827z" fill="#33907c"/><path d="M20.879 41.889c3.219-18.96-5.633-31.601-5.633-31.601 4.023 1.106 6.912 4.069 8.924 7.766 4.233 7.766 4.756 18.763 4.756 22.523v.103.79.419z" fill="#14a085"/><path d="M23.293 41.889s.805-16.59-12.07-21.33c0 0 5.633 7.11 4.828 21.33z" fill="#26b99a"/><path d="M36.973 41.889c-3.219-18.96 5.633-31.601 5.633-31.601-4.023 1.106-6.92 4.076-8.924 7.774-4.265 7.837-4.732 18.96-4.764 22.618v.79.419z" fill="#14a085"/><path d="M34.559 41.889s-.805-16.59 12.07-21.33c0 0-5.633 7.11-4.828 21.33z" fill="#26b99a"/><path d="M33.757 28.257h-8.465l.224-3.212a1.31 1.31 0 0 1 1.312-1.214h5.394a1.31 1.31 0 0 1 1.312 1.214z" fill="#ef4246"/><path d="M50.875 15.155l-1.799-1.579a.684.672 0 0 0-.97.058.7.687 0 0 0 .059.962l1.799 1.579c.917.804 1.135 2.15.522 3.195L43.92 30.386h-5.912a.694.681 0 0 0 0 1.363h5.1l-5.313 8.915a.68.68 0 0 0 .242.933.69.69 0 0 0 .349.095.684.672 0 0 0 .592-.335l12.693-21.297a4.031 3.958 0 0 0-.797-4.904z" fill="#c6c5ca"/><path d="M18.544 34.429h16.798v6.136H18.544z" fill="#ef4246"/><path d="M18.544 38.041h3.764c.462 0 .837-.371.837-.83v-.566c0-.458.374-.83.837-.83h11.361v-1.389H18.544z" fill="#d8323a"/><path d="M37.7 27.014H21.466c-2.924 0-5.295 2.35-5.295 5.249v3.706c0 .458.374.83.837.83h4.636c.462 0 .837-.371.837-.83v-.566c0-.458.374-.83.837-.83h14.383c.648 0 1.172-.521 1.172-1.163v-5.235c0-.642-.525-1.163-1.172-1.163zM10.868 39.706h32.581v6.091H10.868z" fill="#fc5759"/><path d="M10.868 43.616h32.581v2.182H10.868z" fill="#ef4246"/><g transform="matrix(.090277 0 0 .089494 5.983644 7.632674)" fill="gray"><circle cx="55.08" cy="392.42" r="55.08"/><circle cx="414.02" cy="392.42" r="55.08"/></g><g fill="#ef4246" transform="matrix(.804687 0 0 .790014 5.590015 5.590015)"><use xlink:href="#A"/><use xlink:href="#A" x="3.712"/><use xlink:href="#A" x="7.424"/><use xlink:href="#A" x="11.136"/></g><g transform="matrix(.090277 0 0 .089494 5.983644 7.632674)" fill="#4d4d4d"><circle cx="55.08" cy="392.42" r="24.448"/><circle cx="415" cy="392.42" r="24.448"/></g><defs><path id="A" d="M25.837 29.128a.86.86 0 0 0-.854.863v3.75a.86.86 0 0 0 .854.863.86.86 0 0 0 .854-.863v-3.75a.86.86 0 0 0-.854-.863z"/></defs></svg>