<svg xmlns="http://www.w3.org/2000/svg" xmlns:svgjs="http://svgjs.com/svgjs" xmlns:xlink="http://www.w3.org/1999/xlink" width="1440" height="560" preserveAspectRatio="none" version="1.1" viewBox="0 0 1440 560"><g fill="none" mask="url(&quot;#SvgjsMask1032&quot;)"><rect width="1440" height="560" x="0" y="0" fill="rgba(0, 3, 6, 1)"/><path stroke="rgba(5, 79, 153, 1)" stroke-width="2" d="M357.89 330.45L422.84 367.95L422.84 442.95L357.89 480.45L292.94 442.95L292.94 367.95zM487.8 330.45L552.75 367.95L552.75 442.95L487.8 480.45L422.84 442.95L422.84 367.95zM1007.43 330.45L1072.38 367.95L1072.38 442.95L1007.43 480.45L942.47 442.95L942.47 367.95zM1137.33 330.45L1202.29 367.95L1202.29 442.95L1137.33 480.45L1072.38 442.95L1072.38 367.95zM1202.29 -7.05L1267.24 30.45L1267.24 105.45L1202.29 142.95L1137.33 105.45L1137.33 30.45zM1202.29 442.95L1267.24 480.45L1267.24 555.45L1202.29 592.95L1137.33 555.45L1137.33 480.45zM1397.15 330.45L1462.1 367.95L1462.1 442.95L1397.15 480.45L1332.19 442.95L1332.19 367.95z"/><path fill="rgba(5, 79, 153, 1)" d="M350.39 330.45 a7.5 7.5 0 1 0 15 0 a7.5 7.5 0 1 0 -15 0zM415.34 367.95 a7.5 7.5 0 1 0 15 0 a7.5 7.5 0 1 0 -15 0zM415.34 442.95 a7.5 7.5 0 1 0 15 0 a7.5 7.5 0 1 0 -15 0zM350.39 480.45 a7.5 7.5 0 1 0 15 0 a7.5 7.5 0 1 0 -15 0zM285.44 442.95 a7.5 7.5 0 1 0 15 0 a7.5 7.5 0 1 0 -15 0zM285.44 367.95 a7.5 7.5 0 1 0 15 0 a7.5 7.5 0 1 0 -15 0zM480.3 330.45 a7.5 7.5 0 1 0 15 0 a7.5 7.5 0 1 0 -15 0zM545.25 367.95 a7.5 7.5 0 1 0 15 0 a7.5 7.5 0 1 0 -15 0zM545.25 442.95 a7.5 7.5 0 1 0 15 0 a7.5 7.5 0 1 0 -15 0zM480.3 480.45 a7.5 7.5 0 1 0 15 0 a7.5 7.5 0 1 0 -15 0zM999.93 330.45 a7.5 7.5 0 1 0 15 0 a7.5 7.5 0 1 0 -15 0zM1064.88 367.95 a7.5 7.5 0 1 0 15 0 a7.5 7.5 0 1 0 -15 0zM1064.88 442.95 a7.5 7.5 0 1 0 15 0 a7.5 7.5 0 1 0 -15 0zM999.93 480.45 a7.5 7.5 0 1 0 15 0 a7.5 7.5 0 1 0 -15 0zM934.97 442.95 a7.5 7.5 0 1 0 15 0 a7.5 7.5 0 1 0 -15 0zM934.97 367.95 a7.5 7.5 0 1 0 15 0 a7.5 7.5 0 1 0 -15 0zM1129.83 330.45 a7.5 7.5 0 1 0 15 0 a7.5 7.5 0 1 0 -15 0zM1194.79 367.95 a7.5 7.5 0 1 0 15 0 a7.5 7.5 0 1 0 -15 0zM1194.79 442.95 a7.5 7.5 0 1 0 15 0 a7.5 7.5 0 1 0 -15 0zM1129.83 480.45 a7.5 7.5 0 1 0 15 0 a7.5 7.5 0 1 0 -15 0zM1194.79 -7.05 a7.5 7.5 0 1 0 15 0 a7.5 7.5 0 1 0 -15 0zM1259.74 30.45 a7.5 7.5 0 1 0 15 0 a7.5 7.5 0 1 0 -15 0zM1259.74 105.45 a7.5 7.5 0 1 0 15 0 a7.5 7.5 0 1 0 -15 0zM1194.79 142.95 a7.5 7.5 0 1 0 15 0 a7.5 7.5 0 1 0 -15 0zM1129.83 105.45 a7.5 7.5 0 1 0 15 0 a7.5 7.5 0 1 0 -15 0zM1129.83 30.45 a7.5 7.5 0 1 0 15 0 a7.5 7.5 0 1 0 -15 0zM1259.74 480.45 a7.5 7.5 0 1 0 15 0 a7.5 7.5 0 1 0 -15 0zM1259.74 555.45 a7.5 7.5 0 1 0 15 0 a7.5 7.5 0 1 0 -15 0zM1194.79 592.95 a7.5 7.5 0 1 0 15 0 a7.5 7.5 0 1 0 -15 0zM1129.83 555.45 a7.5 7.5 0 1 0 15 0 a7.5 7.5 0 1 0 -15 0zM1389.65 330.45 a7.5 7.5 0 1 0 15 0 a7.5 7.5 0 1 0 -15 0zM1454.6 367.95 a7.5 7.5 0 1 0 15 0 a7.5 7.5 0 1 0 -15 0zM1454.6 442.95 a7.5 7.5 0 1 0 15 0 a7.5 7.5 0 1 0 -15 0zM1389.65 480.45 a7.5 7.5 0 1 0 15 0 a7.5 7.5 0 1 0 -15 0zM1324.69 442.95 a7.5 7.5 0 1 0 15 0 a7.5 7.5 0 1 0 -15 0zM1324.69 367.95 a7.5 7.5 0 1 0 15 0 a7.5 7.5 0 1 0 -15 0z"/><path stroke="rgba(6, 132, 255, 1)" stroke-width="2" d="M51.94 328.19L95.25 353.19L95.25 403.19L51.94 428.19L8.64 403.19L8.64 353.19zM8.64 403.19L51.94 428.19L51.94 478.19L8.64 503.19L-34.66 478.19L-34.66 428.19zM95.25 -46.81L138.55 -21.81L138.55 28.19L95.25 53.19L51.94 28.19L51.94 -21.81zM138.55 28.19L181.85 53.19L181.85 103.19L138.55 128.19L95.25 103.19L95.25 53.19zM138.55 328.19L181.85 353.19L181.85 403.19L138.55 428.19L95.25 403.19L95.25 353.19zM181.85 403.19L225.15 428.19L225.15 478.19L181.85 503.19L138.55 478.19L138.55 428.19zM355.06 -46.81L398.36 -21.81L398.36 28.19L355.06 53.19L311.76 28.19L311.76 -21.81zM398.36 328.19L441.67 353.19L441.67 403.19L398.36 428.19L355.06 403.19L355.06 353.19zM355.06 403.19L398.36 428.19L398.36 478.19L355.06 503.19L311.76 478.19L311.76 428.19zM398.36 478.19L441.67 503.19L441.67 553.19L398.36 578.19L355.06 553.19L355.06 503.19zM484.97 28.19L528.27 53.19L528.27 103.19L484.97 128.19L441.67 103.19L441.67 53.19zM484.97 178.19L528.27 203.19L528.27 253.19L484.97 278.19L441.67 253.19L441.67 203.19zM484.97 478.19L528.27 503.19L528.27 553.19L484.97 578.19L441.67 553.19L441.67 503.19zM571.57 478.19L614.88 503.19L614.88 553.19L571.57 578.19L528.27 553.19L528.27 503.19zM614.88 -46.81L658.18 -21.81L658.18 28.19L614.88 53.19L571.57 28.19L571.57 -21.81zM658.18 178.19L701.48 203.19L701.48 253.19L658.18 278.19L614.88 253.19L614.88 203.19zM744.78 328.19L788.09 353.19L788.09 403.19L744.78 428.19L701.48 403.19L701.48 353.19zM788.09 253.19L831.39 278.19L831.39 328.19L788.09 353.19L744.78 328.19L744.78 278.19zM874.69 103.19L917.99 128.19L917.99 178.19L874.69 203.19L831.39 178.19L831.39 128.19zM874.69 253.19L917.99 278.19L917.99 328.19L874.69 353.19L831.39 328.19L831.39 278.19zM874.69 403.19L917.99 428.19L917.99 478.19L874.69 503.19L831.39 478.19L831.39 428.19zM1177.81 28.19L1221.11 53.19L1221.11 103.19L1177.81 128.19L1134.51 103.19L1134.51 53.19zM1134.51 253.19L1177.81 278.19L1177.81 328.19L1134.51 353.19L1091.2 328.19L1091.2 278.19zM1134.51 403.19L1177.81 428.19L1177.81 478.19L1134.51 503.19L1091.2 478.19L1091.2 428.19zM1221.11 -46.81L1264.41 -21.81L1264.41 28.19L1221.11 53.19L1177.81 28.19L1177.81 -21.81zM1264.41 328.19L1307.72 353.19L1307.72 403.19L1264.41 428.19L1221.11 403.19L1221.11 353.19zM1351.02 328.19L1394.32 353.19L1394.32 403.19L1351.02 428.19L1307.72 403.19L1307.72 353.19z"/></g><defs><mask id="SvgjsMask1032"><rect width="1440" height="560" fill="#fff"/></mask></defs></svg>