<svg id="Flat" height="512" viewBox="0 0 512 512" width="512" xmlns="http://www.w3.org/2000/svg"><path d="m24 248.03s0-24 24-32 72 40 96 48v-56h168v96s51.716-3.716 80-32c24-24 40-40 64-32s32 28.544 32 48v144h-464z" fill="#fc9495"/><path d="m386.64 276.88c-9.27 56.38-33.93 123.15-98.64 123.15 0 0-32 0-56-32-24 32-56 32-56 32-90.07 0-102.53-129.34-103.96-179.99 24.38 11.21 54.51 38.17 71.96 43.99v-56h168v96s45.67-3.28 74.64-27.15z" fill="#d88080"/><path d="m352 184.03c-18.22 44.756 1.468 69.783-24 136-11.128 28.934-34.371 32.553-48 32-17.562-.712-37.736-27.321-32-56 10.187-50.936-.748-64-16-64s-26.187 13.064-16 64c5.736 28.679-14.438 55.288-32 56-13.629.553-36.872-3.066-48-32-25.468-66.217-5.917-91.189-24-136-14.985-37.135-8.74-101.54 48-104 13.851-.6 27.745 7.9 48 16 0 0 17.881 8.013 24 8 6.119.013 24-8 24-8 17.834-7.134 27.174-15.7 40-16 61.49-1.43 71.832 65.11 56 104z" fill="#e8edf1"/><g fill="#d88080"><path d="m415.6 215.06c-11.314 11.313-39.6 16.97-39.6 16.97s5.657-28.284 16.971-39.6a16 16 0 0 1 22.629 22.63z"/><path d="m479.6 159.06c-11.314 11.313-39.6 16.97-39.6 16.97s5.657-28.284 16.971-39.6a16 16 0 0 1 22.629 22.63z"/><path d="m424 104.03c0 16-16 40-16 40s-16-24-16-40a16 16 0 1 1 32 0z"/></g></svg>