<?xml version="1.0" encoding="UTF-8" standalone="no"?>
<svg
   xmlns:dc="http://purl.org/dc/elements/1.1/"
   xmlns:cc="http://creativecommons.org/ns#"
   xmlns:rdf="http://www.w3.org/1999/02/22-rdf-syntax-ns#"
   xmlns:svg="http://www.w3.org/2000/svg"
   xmlns="http://www.w3.org/2000/svg"
   xmlns:sodipodi="http://sodipodi.sourceforge.net/DTD/sodipodi-0.dtd"
   xmlns:inkscape="http://www.inkscape.org/namespaces/inkscape"
   inkscape:version="1.0 (4035a4fb49, 2020-05-01)"
   sodipodi:docname="JunTechPC-Aruba-Graphic-Design-Services.svg"
   version="1.1"
   viewBox="0 0 731.41339 522.40206"
   height="522.40206"
   width="731.41339"
   data-name="Layer 1"
   id="b0be4804-10ca-4842-b31b-b943f29dadcb">
  <metadata
     id="metadata1804">
    <rdf:RDF>
      <cc:Work
         rdf:about="">
        <dc:format>image/svg+xml</dc:format>
        <dc:type
           rdf:resource="http://purl.org/dc/dcmitype/StillImage" />
        <dc:title></dc:title>
      </cc:Work>
    </rdf:RDF>
  </metadata>
  <defs
     id="defs1802" />
  <sodipodi:namedview
     inkscape:current-layer="b0be4804-10ca-4842-b31b-b943f29dadcb"
     inkscape:window-maximized="1"
     inkscape:window-y="-9"
     inkscape:window-x="-9"
     inkscape:cy="328.83906"
     inkscape:cx="561.62308"
     inkscape:zoom="1"
     showgrid="false"
     id="namedview1800"
     inkscape:window-height="1001"
     inkscape:window-width="1920"
     inkscape:pageshadow="2"
     inkscape:pageopacity="0"
     guidetolerance="10"
     gridtolerance="10"
     objecttolerance="10"
     borderopacity="1"
     bordercolor="#666666"
     pagecolor="#ffffff" />
  <rect
     x="156"
     id="rect1769"
     fill="#e6e6e6"
     height="2"
     width="436"
     y="335" />
  <rect
     x="156"
     id="rect1771"
     fill="#e6e6e6"
     height="2"
     width="436"
     y="257" />
  <rect
     x="156"
     id="rect1773"
     fill="#e6e6e6"
     height="2"
     width="436"
     y="179" />
  <rect
     y="102"
     id="rect1775"
     fill="#e6e6e6"
     height="312"
     width="2"
     x="503.80005" />
  <rect
     y="102"
     id="rect1777"
     fill="#e6e6e6"
     height="312"
     width="2"
     x="416.6001" />
  <rect
     y="102"
     id="rect1779"
     fill="#e6e6e6"
     height="312"
     width="2"
     x="329.40002" />
  <rect
     y="102"
     id="rect1781"
     fill="#e6e6e6"
     height="312"
     width="2"
     x="242.19995" />
  <rect
     style="fill:#2a7fff"
     id="rect1783"
     fill="#00b0ff"
     height="78"
     width="175"
     y="180"
     x="243" />
  <path
     id="path1785"
     fill="#00b0ff"
     d="M 330.92126,252.06303" />
  <polygon
     style="fill:#2a7fff"
     transform="translate(156,102)"
     id="polygon1787"
     fill="#00b0ff"
     points="178,153 87,150 87,234 " />
  <path
     style="fill:#2a7fff"
     id="path1789"
     fill="#00b0ff"
     d="m 418,255.00003 v 3 l -1.14014,1.01 -2.2998,2.04 c -44.73,1.35 -80.85987,33.39 -82.49024,73.12 l -2.0498,1.82 -0.02,0.01 v -84 z" />
  <path
     id="path1791"
     fill="#e6e6e6"
     d="m 417.5,259.00003 c -0.21,0 -0.43018,0 -0.64014,0.01 -47.57959,0.3 -86.25,34.62 -86.83984,76.98 -0.02,0.34 -0.02,0.67 -0.02,1.01 0,43.01 39.25,78 87.5,78 48.25,0 87.5,-34.99 87.5,-78 0,-43.01 -39.25002,-78 -87.50002,-78 z m 0,154 c -47.14014,0 -85.5,-34.09 -85.5,-76 0,-0.95 0.02,-1.89 0.0698,-2.83 1.63037,-39.73 37.76026,-71.77 82.49024,-73.12 0.97021,-0.04 1.9497,-0.05 2.93994,-0.05 47.14013,0 85.5,34.09 85.5,76 0,41.91 -38.35987,76 -85.5,76 z" />
  <path
     id="path1793"
     fill="#e6e6e6"
     d="m 369.5,336.01611 -5,-0.0278 c 0.002,-0.44482 0.803,-44.48047 51.95117,-47.53467 l 0.29785,4.99121 C 370.36096,296.21484 369.5133,334.39258 369.5,336.01611 Z" />
  <path
     id="path1795"
     fill="#e6e6e6"
     d="m 467.97998,335.00003 a 42.53605,42.53605 0 0 0 -13.98,-30.11 53.43668,53.43668 0 0 0 -36.39991,-13.95 h -0.10009 c -27.46973,0 -49.89014,19.67 -50.48,44.06 -0.02,0.33 -0.02,0.67 -0.02,1 0,12.76 5.97021,24.29 15.5498,32.49 a 53.64325,53.64325 0 0 0 34.9502,12.57 h 0.10009 c 27.79981,-0.05 50.39991,-20.24 50.39991,-45.06 2e-5,-0.33 2e-5,-0.67 -0.02,-1 z" />
  <path
     style="fill:#0aabff;fill-opacity:1"
     id="path1797"
     fill="#00b0ff"
     d="m 454,304.89003 -1.5,1.33 -68.4502,60.94 -1.5,1.33 c -9.57959,-8.2 -15.5498,-19.73 -15.5498,-32.49 0,-0.33 0,-0.67 0.02,-1 0.58984,-24.39 23.01025,-44.06 50.48,-44.06 h 0.10009 A 53.43668,53.43668 0 0 1 454,304.89003 Z" />
</svg>
