<svg xmlns="http://www.w3.org/2000/svg" xmlns:xlink="http://www.w3.org/1999/xlink" width="859.399" height="767.784" xmlns:v="https://vecta.io/nano"><style><![CDATA[.B{opacity:.5}.C{fill:#47e6b1}.D{fill:#ffb9b9}.E{fill:#00b0ff}.F{fill:#575a89}]]></style><defs><linearGradient id="A" x1="344.921" y1="369.397" x2="505.399" y2="369.397" gradientUnits="userSpaceOnUse"><stop offset="0" stop-color="gray" stop-opacity=".25"/><stop offset=".535" stop-color="gray" stop-opacity=".12"/><stop offset="1" stop-color="gray" stop-opacity=".1"/></linearGradient><path id="B" d="M165.29 47.956c-1.711-.745-2.592-2.655-2.047-4.441.043-.132.069-.269.08-.408h0c.049-.811-.439-1.559-1.201-1.841s-1.62-.03-2.109.619h0c-.082.112-.15.234-.204.362-.745 1.711-2.655 2.592-4.441 2.047-.132-.043-.269-.069-.408-.08h0c-.811-.049-1.559.439-1.841 1.201s-.03 1.62.619 2.109h0c.112.082.234.15.362.204 1.711.745 2.592 2.655 2.047 4.441-.043.132-.069.269-.08.408h0c-.049.811.439 1.559 1.201 1.841s1.62.03 2.109-.619h0c.082-.112.15-.234.204-.362.745-1.711 2.655-2.592 4.441-2.047.132.043.269.069.408.08h0c.811.049 1.559-.439 1.841-1.201s.03-1.62-.619-2.109h0c-.112-.082-.234-.15-.362-.204z"/></defs><path d="M431.399 10.746l-269.702 165.97s0 342.314 269.702 529.031c269.702-186.717 269.702-529.031 269.702-529.031z" fill="#3f3d56"/><path d="M433.009 10.746l-4.61 2.837V702.51l4.61 3.238c269.702-186.717 269.702-529.031 269.702-529.031z" opacity=".04" class="E"/><path fill="url(#A)" d="M366.106 347.068l50.843 46.606 63.028-90.924 25.422 21.185-88.45 112.109-72.028-80.502 21.185-8.474z" opacity=".7"/><path fill="#3ad29f" d="M378.106 349.868l41.243 37.806 58.428-85.924 20.622 17.185-79.05 103.109-58.428-65.302 17.185-6.874z"/><g fill="#4d8af0"><use xlink:href="#B" class="B"/><use xlink:href="#B" x="-146" y="325" class="B"/></g><g fill="#f55f44"><circle cx="748.399" cy="254" r="6" class="B"/><circle cx="121.399" cy="683" r="6" class="B"/><circle cx="850.399" cy="485" r="6" class="B"/></g><g fill="#4d8af0"><use xlink:href="#B" x="539" y="29" class="B"/><use xlink:href="#B" x="639" y="657" class="B"/><use xlink:href="#B" x="-153" y="135" class="B"/></g><g class="C"><circle cx="79.399" cy="284" r="6" class="B"/><circle cx="853.399" cy="332" r="6" class="B"/><g class="B"><path d="M583.399 0h3v17h-3z"/><path d="M593.399 7v3h-17V7z"/><path d="M594.399 666h3v17h-3z"/><path d="M604.399 673v3h-17v-3z"/><path d="M26.399 702h3v17h-3z"/><path d="M36.399 709v3h-17v-3z"/><path d="M709.399 396h3v17h-3z"/><path d="M719.399 403v3h-17v-3z"/><path d="M795.606 123.018l6.443 5.906 9.128-13.424 3.222 2.685-12.35 16.109-9.128-10.202 2.685-1.074z"/></g></g><path d="M589.444 240.134l22.226-.862 1.108 28.576-22.226.862z" class="E"/><path d="M511.41 339.35s-30.779-14.706-30.286-2.005 31.025 21.056 31.025 21.056z" class="D"/><path d="M528.296 446.811s-14.521 35.542-19.886 61.189-13.536 60.942-3.026 85.974 40.392 98.599 40.7 106.537-2.559 15.999 3.791 15.752 40.907-11.126 42.31-15.95-11.79-17.032-11.79-17.032l-32.577-102.082 33.989-66.505 24.516 99.215 4.802 123.828s23.567-7.274 26.988-1.047c0 0 10.559-14.719 11.9-21.131s-4.987-128.591-4.987-128.591 21.632-139.163 4.169-138.486-85.864-41.188-120.9-1.671z" class="E"/><path d="M549.628 709.912s-16.109 35.603-17.635 37.252-12.023 17.955-4.085 17.648 26.68-8.984 40.476-22.239 31.984-36.219 30.335-37.745-12.947-5.858-12.947-5.858zm64.364 19.763s-.972 15.937-3.901 22.41-2.559 15.999 5.378 15.691 28.453-4.283 28.453-4.283 1.218-9.587-.431-11.113-8.676-18.743-5.686-23.628-23.813.923-23.813.923z"/><path d="M625.735 212.492s16.922 26.373 23.518 32.477-11.962 19.543-11.962 19.543l-33.215 4.468s.418-30.225-1.293-33.338 22.951-23.149 22.951-23.149z" class="D"/><path d="M596.865 247.001s6.843 12.454 13.193 12.208 39.196-14.239 40.599-19.064 10.88 34.557 10.88 34.557l-80.372 141.441-19.605-13.549 9.499-83.045 7.802-44.821z" fill="#2a7fff"/><path d="M653.621 373.584c-3.206 6.707-5.208 13.7-4.931 20.86.012.318.025.635.053.952.761 14.693 6.173 31.686 8.115 44.044 1.409 8.865 1.008 15.336-4.18 16.856-12.577 3.668 1.834 6.289-46.826 22.485s-57.152 2.216-57.275-.959 6.891-27.296 5.242-28.822-23.074 19.974-29.548 17.045-.739-19.051-.739-19.051 14.583-33.954 14.275-41.892 22.089-45.375 22.089-45.375l15.234-99.167s5.858-12.947 13.734-14.842 14.411 2.621 14.411 2.621l-13.18 29.13-13.905 51.417 2.326 18.989s16.17-34.016 26.79-47.147 33.264-44.218 33.264-44.218 5.286-17.837 1.296-23.168c-3.991-5.346 16.647-6.147 25.446 15.771 4.664 11.616 12.236 28.939 16.979 45.068 4.227 14.289 6.223 27.646 2.036 35.281-6.4 11.664-22.5 26.995-30.708 44.119z" class="F"/><path d="M684.329 329.465c-6.4 11.664-22.5 26.995-30.708 44.119-2.144-7.723-4.759-15.715-4.759-15.715s-10.031-53.669 19.64-67.539a19.86 19.86 0 0 1 13.791 3.853c4.227 14.289 6.223 27.646 2.036 35.281z" opacity=".1"/><path d="M566.543 326.083l-25.154 7.335-34.926 1.354-3.593 30.348 57.398 4.134s14.336-40.304 6.276-43.171z" class="F"/><path d="M607.561 428.123s-33.652 5.583-25.971 15.71 37.492-.52 37.492-.52z" class="D"/><path d="M648.743 395.396c.761 14.693 6.173 31.686 8.115 44.044-10.72 10.146-20.914 19.095-24.756 19.244-7.938.308-20.7-.787-25.401.985s-7.458-28.33-7.458-28.33 2.806-9.648 15.321-14.904c8.448-3.555 24.641-13.198 34.179-21.041z" opacity=".1"/><path d="M668.133 280.805s26.865-4.222 25.414 40.353 2.832 73.027-7.973 81.396-45.903 46.298-53.84 46.606-20.7-.787-25.401.985-7.458-28.33-7.458-28.33 2.806-9.648 15.321-14.904 42.002-23.888 41.756-30.238-7.458-28.33-7.458-28.33-10.031-53.669 19.64-67.539z" class="F"/><circle cx="602.045" cy="216.591" r="34.952" class="D"/><path d="M578.511 166.494a6.75 6.75 0 0 1-2.939 1.475 2.1 2.1 0 0 1-2.43-1.683c-.8 1.658-1.702 3.426-3.335 4.277s-4.157.137-4.393-1.689c-.238 1.386-.852 2.681-1.774 3.744-1.013.966-2.85 1.21-3.734.125.715 3.907.274 7.926.498 11.892s1.282 8.17 4.278 10.778c4.37 3.803 10.941 2.865 16.689 2.144.869-.182 1.771-.133 2.615.143 2.152.917 2.055 3.913 2.084 6.252.363 8.476 6.794 15.45 15.212 16.498a8.71 8.71 0 0 0 6.472-1.58c1.632-1.383 2.466-3.638 4.336-4.677 3.042-1.69 6.732.775 8.956 3.452s4.416 5.969 7.862 6.459c4.557.648 8.028-3.996 9.73-8.272 4.746-12.108 4.401-25.62-.958-37.47-9.515-20.741-42.018-24.022-59.171-11.868z" fill="#333"/></svg>