<?xml version="1.0" encoding="UTF-8" standalone="no"?>
<svg
   xmlns:dc="http://purl.org/dc/elements/1.1/"
   xmlns:cc="http://creativecommons.org/ns#"
   xmlns:rdf="http://www.w3.org/1999/02/22-rdf-syntax-ns#"
   xmlns:svg="http://www.w3.org/2000/svg"
   xmlns="http://www.w3.org/2000/svg"
   xmlns:sodipodi="http://sodipodi.sourceforge.net/DTD/sodipodi-0.dtd"
   xmlns:inkscape="http://www.inkscape.org/namespaces/inkscape"
   inkscape:version="1.0 (4035a4fb49, 2020-05-01)"
   sodipodi:docname="JunTechPC-Aruba-Frequently-Asked-Questions.svg"
   version="1.1"
   viewBox="0 0 523 336"
   height="336"
   width="523"
   data-name="Layer 1"
   id="b1a9ffcb-883a-40c3-a838-c4c452e3657e">
  <metadata
     id="metadata296">
    <rdf:RDF>
      <cc:Work
         rdf:about="">
        <dc:format>image/svg+xml</dc:format>
        <dc:type
           rdf:resource="http://purl.org/dc/dcmitype/StillImage" />
        <dc:title></dc:title>
      </cc:Work>
    </rdf:RDF>
  </metadata>
  <defs
     id="defs294" />
  <sodipodi:namedview
     inkscape:current-layer="b1a9ffcb-883a-40c3-a838-c4c452e3657e"
     inkscape:window-maximized="1"
     inkscape:window-y="-9"
     inkscape:window-x="-9"
     inkscape:cy="208.7544"
     inkscape:cx="294.97244"
     inkscape:zoom="1"
     showgrid="false"
     id="namedview292"
     inkscape:window-height="1001"
     inkscape:window-width="1920"
     inkscape:pageshadow="2"
     inkscape:pageopacity="0"
     guidetolerance="10"
     gridtolerance="10"
     objecttolerance="10"
     borderopacity="1"
     bordercolor="#666666"
     pagecolor="#ffffff" />
  <ellipse
     id="ellipse223"
     fill="#2f2e41"
     ry="4.0886798"
     rx="10.90314"
     cy="300.4603"
     cx="171.71402" />
  <ellipse
     id="ellipse225"
     fill="#2f2e41"
     ry="4.0886798"
     rx="10.90314"
     cy="299.91516"
     cx="197.8815" />
  <ellipse
     id="ellipse227"
     fill="#2f2e41"
     transform="rotate(-29.96257)"
     ry="6.7600698"
     rx="21.533689"
     cy="313.2543"
     cx="84.0233" />
  <circle
     id="circle229"
     fill="#2f2e41"
     transform="rotate(-80.78252)"
     r="43.067348"
     cy="217.02235"
     cx="-210.90657" />
  <rect
     id="rect231"
     fill="#2f2e41"
     height="23.44171"
     width="13.08374"
     y="276.746"
     x="160.81087" />
  <rect
     id="rect233"
     fill="#2f2e41"
     height="23.44171"
     width="13.08374"
     y="276.746"
     x="186.97835" />
  <circle
     id="circle235"
     fill="#ffffff"
     r="14.71922"
     cy="232.04321"
     cx="181.52681" />
  <circle
     id="circle237"
     fill="#3f3d56"
     r="4.9064202"
     cy="232.04321"
     cx="181.52681" />
  <path
     id="path239"
     fill="#e6e6e6"
     d="m 138.65975,202.89493 c -3.47748,-15.57379 7.63867,-31.31046 24.82861,-35.14884 17.18994,-3.83838 33.94421,5.67508 37.42169,21.24887 3.47748,15.57379 -7.91491,21.31766 -25.10486,25.156 -17.18995,3.83834 -33.66796,4.31779 -37.14544,-11.25603 z" />
  <ellipse
     id="ellipse241"
     fill="#2f2e41"
     transform="rotate(-64.62574)"
     ry="21.53368"
     rx="6.7600698"
     cy="214.74702"
     cx="-144.91808" />
  <path
     id="path243"
     fill="#ffffff"
     d="m 159.28194,258.48328 c 0,4.21514 10.85327,12.53857 22.89654,12.53857 12.04327,0 23.33515,-11.867 23.33515,-16.08209 0,-4.21509 -11.29193,0.81775 -23.33515,0.81775 -12.04322,0 -22.89654,-1.48938 -22.89654,2.72577 z" />
  <ellipse
     id="ellipse245"
     fill="#2f2e41"
     ry="4.0886798"
     rx="10.90314"
     cy="300.4603"
     cx="330.60883" />
  <ellipse
     id="ellipse247"
     fill="#2f2e41"
     ry="4.0886798"
     rx="10.90314"
     cy="299.91516"
     cx="304.44135" />
  <ellipse
     id="ellipse249"
     fill="#2f2e41"
     transform="rotate(-60.03743)"
     ry="21.533689"
     rx="6.7600698"
     cy="351.16498"
     cx="-62.37711" />
  <circle
     id="circle251"
     fill="#2f2e41"
     r="43.067341"
     cy="242.94632"
     cx="321.88635" />
  <rect
     id="rect253"
     fill="#2f2e41"
     height="23.44171"
     width="13.08374"
     y="276.746"
     x="328.42822" />
  <rect
     id="rect255"
     fill="#2f2e41"
     height="23.44171"
     width="13.08374"
     y="276.746"
     x="302.26074" />
  <circle
     id="circle257"
     fill="#ffffff"
     r="14.71922"
     cy="232.04321"
     cx="311.79602" />
  <ellipse
     id="ellipse259"
     fill="#3f3d56"
     transform="rotate(-44.97427)"
     ry="4.8859301"
     rx="4.9205499"
     cy="378.16464"
     cx="53.028076" />
  <path
     style="fill:#2a7fff"
     id="path261"
     fill="#00b0ff"
     d="m 326.51764,214.15094 c -17.18994,-3.83832 -28.58234,-9.58219 -25.10486,-25.156 3.47748,-15.57381 20.23175,-25.08725 37.42169,-21.24887 17.18994,3.83838 28.3061,19.57505 24.82862,35.14884 -3.47748,15.57379 -19.95551,15.09435 -37.14545,11.25603 z" />
  <ellipse
     id="ellipse263"
     fill="#2f2e41"
     transform="rotate(-14.87459)"
     ry="21.53368"
     rx="6.7600698"
     cy="339.19067"
     cx="283.83411" />
  <path
     id="path265"
     fill="#ffffff"
     d="m 312.12933,255.75815 c -7.90666,0 -15.32008,-5.03284 -15.32008,-0.81775 0,4.21509 7.41338,16.08209 15.32008,16.08209 7.9067,0 15.03213,-8.32343 15.03213,-12.53857 0,-4.21514 -7.12546,-2.72577 -15.03213,-2.72577 z" />
  <path
     id="path267"
     fill="#00b0ff"
     d="M 256.47168,171.53906 H 252.647 a 12.93742,12.93742 0 0 1 -12.92285,-12.92285 v -3.21094 c 0,-7.95312 1.50684,-14.6123 4.479,-19.79248 a 104.11414,104.11414 0 0 1 12.542,-16.85156 74.26915,74.26915 0 0 0 8.52783,-10.27881 17.29,17.29 0 0 0 2.69336,-9.5625 c 0,-7.978 -5.19776,-11.85644 -15.89063,-11.85644 a 64.52587,64.52587 0 0 0 -17.51513,2.6289 14.7451,14.7451 0 0 1 -18.79248,-14.17822 v -6.5 A 14.46343,14.46343 0 0 1 224.30032,55.75781 78.08334,78.08334 0 0 1 256.11035,49.5 c 11.44434,0 21.77539,1.92236 30.707,5.71289 8.94776,3.79932 16.01709,9.15674 21.01123,15.92383 a 38.35194,38.35194 0 0 1 7.53614,23.24414 c 0,8.98 -2.45166,16.80127 -7.28663,23.24658 -4.78222,6.37988 -11.63769,13.36426 -20.376,20.76026 a 145.20407,145.20407 0 0 0 -13.06348,12.30664 22.71817,22.71817 0 0 0 -5.43115,10.11132 12.888,12.888 0 0 1 -12.73578,10.7334 z" />
  <path
     id="path269"
     fill="#00b0ff"
     d="m 254.34521,232.31055 h -0.50439 a 23.95118,23.95118 0 0 1 0,-47.90235 h 0.50439 a 23.95118,23.95118 0 1 1 0,47.90235 z" />
  <path
     id="path273"
     fill="#ccc"
     transform="translate(-338.5 -282)"
     d="M860.5,618h-166a1,1,0,0,1,0-2h166a1,1,0,0,1,0,2Z" />
  <circle
     id="circle285"
     fill="#f2f2f2"
     r="6.4668899"
     cy="137.1701"
     cx="378.22046" />
  <circle
     id="circle287"
     fill="#f2f2f2"
     r="6.4668899"
     cy="129.1701"
     cx="159.22047" />
</svg>
