<svg xmlns="http://www.w3.org/2000/svg" xmlns:v="https://vecta.io/nano" width="995.201" height="654.481"><style>.B{fill:#f5f5f5}.C{fill:#263238}.D{fill:#407bff}</style><path fill="#06f" d="M216.604 414.54l92.542-351.158 580.127 176.035-92.542 351.158z"/><g fill="#fff"><ellipse cx="357.407" cy="104.066" rx="4.805" ry="5.156"/><ellipse cx="372.202" cy="108.556" rx="4.805" ry="5.156"/><ellipse cx="386.997" cy="113.045" rx="4.805" ry="5.156"/><path d="M617.027 286.204a56.13 60.231 0 0 0-23.443.594 56.03 60.123 0 0 0 1.657-25.418 55.702 59.771 0 0 0-20.955 14.51 55.702 59.771 0 0 0-10.77-24.137 56.029 60.122 0 0 0-10.993 22.585 56.13 60.231 0 0 0-19.682-13.68s-3.499 19.095 4.925 34.764c7.498 13.946 21.903 20.472 24.982 21.74l.073.093.038-.047.487.192s.066-.367.157-1.021l.173-.23.035.293c-.242.609-.364.959-.364.959s.181.043.509.11l.011.062.106-.038c3.242.651 18.699 3.186 31.892-4.482 14.823-8.615 21.162-26.848 21.162-26.848z"/><ellipse cx="588.276" cy="224.022" rx="12.492" ry="13.405"/></g><path fill="#f9f9f9" d="M369.714 284.145l375.414 113.917-2.31 8.764-375.414-113.917z"/><path fill="#fff" d="M393.346 338.464l64.727 19.641-18.304 69.455-64.727-19.641zm120.207 36.476l64.727 19.641-18.304 69.455-64.727-19.641zm118.719 36.476l64.727 19.641-18.304 69.455-64.727-19.641zm-252.568 12.919l48.083 14.59-1.569 5.953-48.083-14.59zm120.206 36.476l48.083 14.59-1.569 5.953-48.083-14.59zm120.207 36.476l48.083 14.59-1.569 5.953-48.083-14.59zM222.514 0h72.194v32.397h-42.002v32.397h42.006v32.395h-72.197zm86.634 0h72.195v28.171h-42.004v5.634h42.004v64.794H309.15V69.016h42.004v-5.634h-42.008V0zm86.636 0h72.195v28.171h-42.004v5.634h42.004v64.794h-72.195V69.016h42.004v-5.634h-42.002V0zM161.652 399.219l28.699 8.001-8.393 30.426 26.254 7.319 8.393-30.426 28.701 8.002-25.417 92.136-28.699-8.001 8.511-30.853-26.254-7.319-8.511 30.853-28.699-8.001 25.417-92.136zm112.963 64.398l-25.262-7.043 8.429-30.555 79.243 22.093-8.429 30.555-25.278-7.047-16.988 61.582-28.699-8.001 16.988-61.582zm74.987-11.998l29.925 8.343 9.477 37.506 27.321-27.247 29.937 8.346-25.417 92.136-28.582-7.969 12.598-45.668-28.782 27.255-.495-.138-10.72-38.268-12.598 45.668-28.08-7.829zm110.942 30.93l28.708 8.004-17.016 61.682 40.359 11.252-8.401 30.454-69.069-19.256 25.417-92.136z"/><path d="M979.905 636.415c-8.177-3.624-17.612-2.916-25.163 1.889-2.001-14.061-10.206-26.464-22.331-33.756s-26.876-8.695-40.146-3.818c-2.358-16.122-12.369-30.083-26.838-37.429s-31.587-7.157-45.893.505c-9.517-7.551-21.978-10.242-33.74-7.287s-21.499 11.223-26.364 22.388c-12.764-11.238-30.653-14.479-46.516-8.427s-27.11 20.408-29.245 37.329a41.23 41.23 0 0 0-35.406 4.61c-10.293 6.855-21.021 27.845-22.031 40.204l367.422 1.858c-1.232-8.723-5.788-14.43-13.748-18.066z" class="B"/><g fill="#fff"><path d="M773.471 250.275l39.022 49.588-78.458.294z"/><path d="M755.746 292.159l35.739-.132.53 145.289-35.739.132z"/></g><g class="B"><path d="M834.524 237.662l21.789 27.693-43.82.162z"/><path d="M824.626 261.054l19.96-.074.296 81.129-19.96.074z"/></g><path d="M597.671 643.806c66.519 2.754 131.129-15.195 186.638-52.145 54.972-36.802 86.631-97.581 109.409-159.903l46.093 15.903s-29.224 140.791-109.096 205.845H596.593z" class="D"/><path fill="#fff" d="M598.189 644.463c66.519 2.754 130.611-15.852 186.12-52.802 54.972-36.802 86.631-97.581 109.409-159.903l46.093 15.903s-29.224 147.25-109.096 205.845H596.593z" opacity=".6"/><path d="M888.507 448.26c.343.122.202 1.472-.384 3.94l-1.202 4.519-.849 2.854-1.111 3.209-2.748 7.495-3.697 8.744c-1.344 3.128-3.03 6.398-4.667 9.891s-3.677 7.058-5.728 10.836l-1.566 2.864-1.727 2.864-3.566 5.9-.919 1.513-1.01 1.493-2.02 3.047-4.172 6.184c-3.03 4.062-5.97 8.398-9.405 12.562-1.687 2.102-3.344 4.296-5.152 6.398l-5.515 6.377-1.404 1.625-1.475 1.574-2.94 3.148-3.03 3.209c-1.01 1.076-2.091 2.031-3.152 3.138l-6.485 6.306-6.849 6.174a294.62 294.62 0 0 1-30.537 23.245c-20.657 13.553-42.831 24.611-66.064 32.943l-7.94 2.752-7.829 2.386-3.839 1.158-3.818 1.016-7.455 1.919-7.263 1.574c-2.374.559-4.707 1.016-7.071 1.391l-6.778 1.127c-1.111.173-2.202.386-3.293.528l-3.222.386c-4.263.498-8.303 1.016-12.122 1.259s-7.465.599-10.869.589-6.556.152-9.465.112-5.566-.223-7.95-.345l-3.364-.203-2.96-.345c-1.828-.223-3.364-.447-4.606-.66-2.485-.416-3.778-.823-3.758-1.188s1.354-.67 3.839-.934a109.33 109.33 0 0 1 4.596-.366l2.919-.142 3.323-.284q3.515-.284 7.788-.579l9.223-.955c3.303-.325 6.819-.894 10.546-1.391s7.677-1.31 11.718-1.98l3.121-.559c1.01-.193 2.101-.447 3.162-.68l6.546-1.422c2.232-.437 4.465-1.076 6.758-1.655l7-1.808 7.162-2.122 3.667-1.087 3.687-1.239 7.526-2.529 7.637-2.874a337.08 337.08 0 0 0 63.64-32.639 311.44 311.44 0 0 0 29.597-22.26l6.697-5.87c2.172-1.98 4.253-4.062 6.364-5.992 1.01-1.016 2.111-1.95 3.101-2.975l2.97-3.047 2.95-3.047 1.465-1.483 1.394-1.533 5.495-6.042c1.808-2.031 3.465-4.062 5.162-6.093 3.455-3.93 6.465-8.023 9.536-11.861 1.505-1.94 2.879-3.94 4.283-5.849l2.081-2.843 1.01-1.412 1.01-1.422 3.748-5.575 1.818-2.691 1.677-2.701c2.202-3.564 4.404-6.906 6.233-10.216s3.758-6.327 5.273-9.302 3.03-5.687 4.414-8.205 2.455-4.915 3.536-7.017c.545-1.016 1.01-2.031 1.535-2.975s.889-1.818 1.283-2.64c.808-1.635 1.525-3.047 2.131-4.062 1.202-2.173 2.01-3.27 2.354-3.148zm2.545 21.661a54.45 54.45 0 0 0-10.667 18.401 4.88 4.88 0 0 0 1.682 5.436 4.82 4.82 0 0 0 5.662.108l.101-.071a201.82 201.82 0 0 0-8.273 24.931 6.01 6.01 0 0 0 2.36 6.457c2.06 1.439 4.795 1.427 6.843-.029 18.009-12.833 30.775-31.798 35.931-53.376z" class="D"/><path d="M892.658 478.634c-.87.869-1.557 1.905-2.02 3.047a3.18 3.18 0 0 0 .697 3.382c1.384 1.178 3.758.467 5.051 1.716s.566 3.666-.354 5.372l-2.909 5.413c-.707 1.32-1.404 3.047-.485 4.225s3.091.853 4.576.102c6.95-3.633 11.682-10.466 12.657-18.279z" opacity=".3"/><path d="M972.763 406.015l.273.396c15.684 23.575 19.882 53.03 11.415 80.084l-5.303 16.969-26.213-33.989z" class="D"/><path d="M972.763 406.015l-.091.315-.283.924-1.071 3.514-4.041 13.151-14.142 45.617v-.223l23.9 30.973 2.313 3.047-.455.091q1.596-5.078 3.131-10.003c1.01-3.29 2.091-6.52 2.95-9.718a94.53 94.53 0 0 0 3.273-18.807 91.38 91.38 0 0 0-.384-17.264c-.242-2.701-.768-5.26-1.182-7.728a52.07 52.07 0 0 0-1.697-6.997 92.88 92.88 0 0 0-8.233-20.067c-1.172-2.275-2.293-3.91-2.97-5.078l-1.061-1.757s.101.122.313.416l.828 1.28c.707 1.148 1.869 2.772 3.03 5.078 3.576 6.317 6.381 13.044 8.354 20.036.707 2.194 1.162 4.57 1.748 7.017.424 2.478.96 5.078 1.212 7.759a90.42 90.42 0 0 1 .434 17.325 94.9 94.9 0 0 1-3.253 18.919c-.859 3.229-1.95 6.438-2.95 9.729l-3.121 10.003-.152.487-.313-.406-2.313-3.047-23.88-30.994-.071-.102v-.122l14.445-45.749 4.132-13.029 1.101-3.443.444-.894a1.51 1.51 0 0 1 .051-.254z" class="C"/><path d="M877.031 375.803l-.455.173c-25.914 10.185-45.832 31.64-54.154 58.331l-5.222 16.736 40.275-12.653z" class="D"/><path fill="#fff" d="M877.031 375.803s0 .091-.081.284-.152.508-.263.873l-1.01 3.412-3.98 12.867-13.97 45.201v.132h-.121l-36.709 11.557-3.566 1.117-.475.152.152-.487 3.03-9.861 3.03-9.546a93.88 93.88 0 0 1 7.98-17.162c2.917-4.908 6.3-9.519 10.102-13.77 1.727-2.031 3.596-3.828 5.334-5.595s3.546-3.311 5.344-4.692c5.524-4.526 11.571-8.366 18.011-11.435 2.243-1.158 4.041-1.808 5.303-2.336l1.394-.569.495-.162-1.849.823c-1.202.559-3.03 1.239-5.253 2.417-6.384 3.148-12.381 7.033-17.87 11.577-1.778 1.391-3.475 3.047-5.303 4.702s-3.576 3.544-5.283 5.585a88.48 88.48 0 0 0-9.99 13.74c-3.193 5.397-5.839 11.102-7.899 17.03-1.101 3.047-2.02 6.306-3.03 9.536l-3.03 9.871-.323-.335 3.566-1.117 36.719-11.516-.162.162 14.142-44.906 4.101-12.938 1.101-3.453.293-.904c.017-.086.041-.171.071-.254z"/><path d="M976.753 224.745c-7.576-2.386-27.658 12.907-50.881 41.717-22.86 28.374-32.325 56.453-32.325 56.453l-44.235 141.593 37.113 11.719 21.506 6.784 37.113 11.719 40.143-128.483c3.94-12.552 6.676-25.453 8.172-38.529 1.537-13.107 2.027-26.318 1.465-39.504-1.838-36.884-10.445-61.073-18.031-63.47" class="B"/><path d="M976.753 224.745l.333.122.414.162.535.305a11.5 11.5 0 0 1 2.98 2.843c2.232 2.894 4.626 7.799 6.718 14.441a151.7 151.7 0 0 1 5.303 24.87c.677 4.935 1.222 10.236 1.606 15.893s.616 11.648.545 17.954-.404 12.917-1.01 19.803a215.78 215.78 0 0 1-2.889 21.387c-1.437 7.605-3.292 15.125-5.556 22.524q-3.566 11.435-7.344 23.57l-33.143 106.193-.071.254-.253-.081-47.861-15.111-47.871-15.121-.253-.071.081-.254 33.214-106.193q3.788-12.125 7.364-23.56 1.788-5.707 3.525-11.252c1.242-3.676 2.727-7.18 4.243-10.592 5.667-12.594 12.506-24.62 20.425-35.919a265.18 265.18 0 0 1 21.466-26.16 168.54 168.54 0 0 1 18.506-17.396c5.445-4.306 10.102-7.048 13.607-8.195a11.19 11.19 0 0 1 4.041-.66l.606.051.434.102.333.091-.343-.061-.424-.091-.606-.051a11.53 11.53 0 0 0-4.041.711c-3.435 1.168-8.081 3.93-13.526 8.256a171.19 171.19 0 0 0-18.354 17.386 266.94 266.94 0 0 0-21.324 26.221c-7.887 11.289-14.695 23.302-20.334 35.878-1.505 3.412-3.03 6.916-4.212 10.561l-3.515 11.252q-3.566 11.435-7.344 23.57L849.606 464.59l-.172-.335 47.831 15.131 47.861 15.121-.333.173 33.204-106.182 7.364-23.55c2.256-7.39 4.104-14.899 5.536-22.494 1.404-7.332 2.293-14.471 2.919-21.326s.95-13.476 1.01-19.782-.121-12.278-.505-17.924-.909-10.947-1.576-15.873c-1.043-8.415-2.787-16.728-5.212-24.85-2.02-6.641-4.414-11.546-6.616-14.441-.801-1.121-1.792-2.091-2.929-2.864l-.525-.315-.404-.162z" class="C"/><path d="M856.313 442.065l94.944 29.369" class="B"/><path d="M951.257 471.434c0 .142-21.334-6.327-47.548-14.43l-47.396-14.938c.081-.142 21.334 6.327 47.558 14.43l47.386 14.938z" class="C"/><path d="M854.555 446.229l94.944 29.359" class="B"/><path d="M949.479 475.588c0 .142-21.334-6.317-47.548-14.42l-47.406-14.938c0-.142 21.324 6.317 47.548 14.43l47.406 14.928z" class="C"/><path d="M853.212 450.778l94.944 29.369" class="B"/><path d="M948.156 480.147c0 .132-21.334-6.327-47.548-14.43l-47.396-14.938c.081-.142 21.324 6.317 47.548 14.43l47.396 14.938z" class="C"/><path d="M851.868 455.328l94.944 29.369" class="B"/><path d="M946.812 484.697c0 .142-21.334-6.327-47.548-14.43l-47.396-14.938c.081-.142 21.334 6.327 47.558 14.43l47.386 14.938z" class="C"/><path d="M850.535 459.888l94.944 29.359" class="B"/><path d="M945.439 489.246c-.051.142-21.334-6.317-47.548-14.43l-47.396-14.928c.081-.132 21.365 6.296 47.588 14.42l47.356 14.938z" class="C"/><path fill="#e0e0e0" d="M925.044 391.036c-.005.234-.039.466-.101.691-.061.467-.263 1.107-.485 1.96l-2.071 7.109-7.344 23.255-7.617 23.174-2.374 6.997-.677 1.899a3.34 3.34 0 0 1-.263.65c.029-.235.084-.467.162-.691l.586-1.919 2.212-7.048 7.465-23.225 7.485-23.205 2.243-7.038.576-1.919c.054-.234.122-.464.202-.691z"/><path fill="#ebebeb" d="M972.763 406.015c-.051.132-21.334-6.449-47.548-14.705l-47.396-15.233c.081-.173 21.324 6.438 47.548 14.695l47.396 15.243z"/><path fill="#e0e0e0" d="M918.165 440.177a1.36 1.36 0 0 1 .717-.234 3.18 3.18 0 0 1 2.02.477 3.05 3.05 0 0 1 1.495 2.671 3.25 3.25 0 0 1-2.095 3.093 3.22 3.22 0 0 1-3.603-.94 3.06 3.06 0 0 1-.626-3.047 3.13 3.13 0 0 1 1.202-1.676 1.29 1.29 0 0 1 .697-.305s-.232.152-.566.467a3.19 3.19 0 0 0-1.01 1.615 2.7 2.7 0 0 0 .626 2.569 2.76 2.76 0 0 0 3.061.783c1.083-.407 1.8-1.449 1.798-2.611.034-.942-.426-1.832-1.212-2.346a3.2 3.2 0 0 0-1.788-.579c-.485.03-.717.112-.717.061zm9.02-27.206a1.31 1.31 0 0 1 .717-.234 3.21 3.21 0 0 1 2.02.477 3.05 3.05 0 0 1 1.485 2.671 3.25 3.25 0 0 1-2.095 3.093 3.22 3.22 0 0 1-3.603-.94 3.06 3.06 0 0 1-.626-3.047 3.21 3.21 0 0 1 1.162-1.615 1.32 1.32 0 0 1 .697-.294s-.222.152-.566.457a3.27 3.27 0 0 0-1.01 1.625 2.67 2.67 0 0 0 .616 2.569 3.02 3.02 0 0 0 3.03.782c1.054-.449 1.755-1.47 1.798-2.62.039-.938-.418-1.826-1.202-2.336a3.34 3.34 0 0 0-1.798-.589c-.354-.03-.616.051-.626 0zm-14.384-43.942a1.36 1.36 0 0 1 .717-.234 3.18 3.18 0 0 1 2.02.477 3.05 3.05 0 0 1 1.495 2.671 3.25 3.25 0 0 1-2.095 3.093 3.22 3.22 0 0 1-3.603-.94 3.06 3.06 0 0 1-.626-3.047 3.13 3.13 0 0 1 1.202-1.676 1.29 1.29 0 0 1 .697-.305s-.222.152-.566.457c-.49.428-.842.994-1.01 1.625a2.7 2.7 0 0 0 .626 2.569 2.76 2.76 0 0 0 3.061.783c1.083-.407 1.8-1.449 1.798-2.611.034-.942-.426-1.832-1.212-2.346a3.2 3.2 0 0 0-1.788-.579c-.404.03-.707.112-.717.061z"/><path fill="#ebebeb" d="M911.225 348.648c.131 0-2.212 7.809-5.233 17.345s-5.596 17.264-5.738 17.193 2.202-7.809 5.233-17.355l5.738-17.183z"/><path d="M857.99 436.734s13.768-40.793 19.041-60.931c-6.96 8.368-14.809 17.975-18.9 28.069a45.74 45.74 0 0 0-.141 32.862z" opacity=".3"/><path d="M873.061 545.14a5.15 5.15 0 0 0-3.875 6.071c.57 2.747 3.223 4.53 5.966 4.008s4.565-3.155 4.097-5.922-3.053-4.647-5.814-4.228" class="D"/><path fill="#0af" d="M974.975 280.62c-6.201-6.234-14.445-9.667-23.214-9.667s-17.013 3.433-23.214 9.667-9.616 14.522-9.616 23.338 3.415 17.104 9.616 23.338 14.445 9.667 23.214 9.667 17.013-3.433 23.214-9.667 9.616-14.522 9.616-23.338-3.415-17.104-9.616-23.338zm-23.214 53.712c-16.66 0-30.214-13.626-30.214-30.375s13.554-30.375 30.214-30.375 30.214 13.626 30.214 30.375-13.554 30.375-30.214 30.375z"/><ellipse cx="951.705" cy="304.064" rx="31.906" ry="32.075"/><path fill="#0662ff" stroke="#06f" stroke-width=".177" d="M942.881 300.885h-7.932l-3.944 6.92 3.944 6.911h7.932l3.944-6.911zm5.43-7.762l-3.953 6.911 3.953 6.92h7.889l3.979-6.92-3.979-6.911zm-3.953 22.443l3.953 6.946h7.889l3.979-6.946-3.979-6.911h-7.889zm2.468-23.293l-3.944-6.946h-7.932l-3.944 6.946 3.944 6.911h7.932zm10.86-.035l3.944 6.946h7.932l3.944-6.911-3.944-6.946h-7.932z"/></svg>