<svg xmlns="http://www.w3.org/2000/svg" xmlns:svg="http://www.w3.org/2000/svg" id="b1a9ffcb-883a-40c3-a838-c4c452e3657e" width="523" height="336" data-name="Layer 1" version="1.1" viewBox="0 0 523 336"><metadata id="metadata296"/><ellipse id="ellipse223" cx="171.714" cy="300.46" fill="#2f2e41" rx="10.903" ry="4.089"/><ellipse id="ellipse225" cx="197.881" cy="299.915" fill="#2f2e41" rx="10.903" ry="4.089"/><ellipse id="ellipse227" cx="84.023" cy="313.254" fill="#2f2e41" rx="21.534" ry="6.76" transform="rotate(-29.96257)"/><circle id="circle229" cx="-210.907" cy="217.022" r="43.067" fill="#2f2e41" transform="rotate(-80.78252)"/><rect id="rect231" width="13.084" height="23.442" x="160.811" y="276.746" fill="#2f2e41"/><rect id="rect233" width="13.084" height="23.442" x="186.978" y="276.746" fill="#2f2e41"/><circle id="circle235" cx="181.527" cy="232.043" r="14.719" fill="#fff"/><circle id="circle237" cx="181.527" cy="232.043" r="4.906" fill="#3f3d56"/><path id="path239" fill="#e6e6e6" d="m 138.65975,202.89493 c -3.47748,-15.57379 7.63867,-31.31046 24.82861,-35.14884 17.18994,-3.83838 33.94421,5.67508 37.42169,21.24887 3.47748,15.57379 -7.91491,21.31766 -25.10486,25.156 -17.18995,3.83834 -33.66796,4.31779 -37.14544,-11.25603 z"/><ellipse id="ellipse241" cx="-144.918" cy="214.747" fill="#2f2e41" rx="6.76" ry="21.534" transform="rotate(-64.62574)"/><path id="path243" fill="#fff" d="m 159.28194,258.48328 c 0,4.21514 10.85327,12.53857 22.89654,12.53857 12.04327,0 23.33515,-11.867 23.33515,-16.08209 0,-4.21509 -11.29193,0.81775 -23.33515,0.81775 -12.04322,0 -22.89654,-1.48938 -22.89654,2.72577 z"/><ellipse id="ellipse245" cx="330.609" cy="300.46" fill="#2f2e41" rx="10.903" ry="4.089"/><ellipse id="ellipse247" cx="304.441" cy="299.915" fill="#2f2e41" rx="10.903" ry="4.089"/><ellipse id="ellipse249" cx="-62.377" cy="351.165" fill="#2f2e41" rx="6.76" ry="21.534" transform="rotate(-60.03743)"/><circle id="circle251" cx="321.886" cy="242.946" r="43.067" fill="#2f2e41"/><rect id="rect253" width="13.084" height="23.442" x="328.428" y="276.746" fill="#2f2e41"/><rect id="rect255" width="13.084" height="23.442" x="302.261" y="276.746" fill="#2f2e41"/><circle id="circle257" cx="311.796" cy="232.043" r="14.719" fill="#fff"/><ellipse id="ellipse259" cx="53.028" cy="378.165" fill="#3f3d56" rx="4.921" ry="4.886" transform="rotate(-44.97427)"/><path style="fill:#2a7fff" id="path261" fill="#00b0ff" d="m 326.51764,214.15094 c -17.18994,-3.83832 -28.58234,-9.58219 -25.10486,-25.156 3.47748,-15.57381 20.23175,-25.08725 37.42169,-21.24887 17.18994,3.83838 28.3061,19.57505 24.82862,35.14884 -3.47748,15.57379 -19.95551,15.09435 -37.14545,11.25603 z"/><ellipse id="ellipse263" cx="283.834" cy="339.191" fill="#2f2e41" rx="6.76" ry="21.534" transform="rotate(-14.87459)"/><path id="path265" fill="#fff" d="m 312.12933,255.75815 c -7.90666,0 -15.32008,-5.03284 -15.32008,-0.81775 0,4.21509 7.41338,16.08209 15.32008,16.08209 7.9067,0 15.03213,-8.32343 15.03213,-12.53857 0,-4.21514 -7.12546,-2.72577 -15.03213,-2.72577 z"/><path id="path267" fill="#00b0ff" d="M 256.47168,171.53906 H 252.647 a 12.93742,12.93742 0 0 1 -12.92285,-12.92285 v -3.21094 c 0,-7.95312 1.50684,-14.6123 4.479,-19.79248 a 104.11414,104.11414 0 0 1 12.542,-16.85156 74.26915,74.26915 0 0 0 8.52783,-10.27881 17.29,17.29 0 0 0 2.69336,-9.5625 c 0,-7.978 -5.19776,-11.85644 -15.89063,-11.85644 a 64.52587,64.52587 0 0 0 -17.51513,2.6289 14.7451,14.7451 0 0 1 -18.79248,-14.17822 v -6.5 A 14.46343,14.46343 0 0 1 224.30032,55.75781 78.08334,78.08334 0 0 1 256.11035,49.5 c 11.44434,0 21.77539,1.92236 30.707,5.71289 8.94776,3.79932 16.01709,9.15674 21.01123,15.92383 a 38.35194,38.35194 0 0 1 7.53614,23.24414 c 0,8.98 -2.45166,16.80127 -7.28663,23.24658 -4.78222,6.37988 -11.63769,13.36426 -20.376,20.76026 a 145.20407,145.20407 0 0 0 -13.06348,12.30664 22.71817,22.71817 0 0 0 -5.43115,10.11132 12.888,12.888 0 0 1 -12.73578,10.7334 z"/><path id="path269" fill="#00b0ff" d="m 254.34521,232.31055 h -0.50439 a 23.95118,23.95118 0 0 1 0,-47.90235 h 0.50439 a 23.95118,23.95118 0 1 1 0,47.90235 z"/><path id="path273" fill="#ccc" d="M860.5,618h-166a1,1,0,0,1,0-2h166a1,1,0,0,1,0,2Z" transform="translate(-338.5 -282)"/><circle id="circle285" cx="378.22" cy="137.17" r="6.467" fill="#f2f2f2"/><circle id="circle287" cx="159.22" cy="129.17" r="6.467" fill="#f2f2f2"/></svg>