<?xml version="1.0" encoding="UTF-8" standalone="no"?>
<svg
   xmlns:dc="http://purl.org/dc/elements/1.1/"
   xmlns:cc="http://creativecommons.org/ns#"
   xmlns:rdf="http://www.w3.org/1999/02/22-rdf-syntax-ns#"
   xmlns:svg="http://www.w3.org/2000/svg"
   xmlns="http://www.w3.org/2000/svg"
   xmlns:xlink="http://www.w3.org/1999/xlink"
   xmlns:sodipodi="http://sodipodi.sourceforge.net/DTD/sodipodi-0.dtd"
   xmlns:inkscape="http://www.inkscape.org/namespaces/inkscape"
   inkscape:version="1.0 (4035a4fb49, 2020-05-01)"
   sodipodi:docname="JunTechPC-Modern-Website-Design-Services-Aruba.svg"
   version="1.1"
   viewBox="0 0 762 689.78723"
   height="689.78723"
   width="762"
   data-name="Layer 1"
   id="b6844486-882e-488a-b917-920917943dff"
   inkscape:export-filename="D:\ASUS X555LJ Drivers\JunTechPC 2020\Images\JunTechPC-SEO-Service-Solutions-Aruba.png"
   inkscape:export-xdpi="100"
   inkscape:export-ydpi="100">
  <metadata
     id="metadata6863">
    <rdf:RDF>
      <cc:Work
         rdf:about="">
        <dc:format>image/svg+xml</dc:format>
        <dc:type
           rdf:resource="http://purl.org/dc/dcmitype/StillImage" />
        <dc:title></dc:title>
      </cc:Work>
    </rdf:RDF>
  </metadata>
  <defs
     id="defs6861">
    <linearGradient
       gradientTransform="matrix(0.52041505,0,0,0.44301252,-873.14614,28.627392)"
       id="5a176c23-bf11-4e32-afb4-461b4082aabc-5"
       x1="687.77002"
       y1="477.59"
       x2="687.77002"
       y2="422.25"
       xlink:href="#347a516f-b616-42cd-bca2-6cfbf586638c" />
    <linearGradient
       gradientUnits="userSpaceOnUse"
       y2="525.34003"
       x2="572.90002"
       y1="755.08002"
       x1="572.90002"
       id="347a516f-b616-42cd-bca2-6cfbf586638c">
      <stop
         id="stop9441"
         stop-opacity="0.25"
         stop-color="gray"
         offset="0" />
      <stop
         id="stop9443"
         stop-opacity="0.12"
         stop-color="gray"
         offset="0.54" />
      <stop
         id="stop9445"
         stop-opacity="0.1"
         stop-color="gray"
         offset="1" />
    </linearGradient>
    <linearGradient
       gradientUnits="userSpaceOnUse"
       y2="362.84"
       x2="451.70999"
       y1="269.10001"
       x1="488"
       id="linear-gradient">
      <stop
         id="stop5545"
         stop-opacity="0"
         stop-color="#010101"
         offset="0" />
      <stop
         id="stop5547"
         stop-color="#010101"
         offset="0.95" />
    </linearGradient>
    <linearGradient
       gradientUnits="userSpaceOnUse"
       y2="121.93"
       x2="566.26001"
       y1="295.98001"
       x1="475.54001"
       id="linear-gradient-2">
      <stop
         id="stop5550"
         stop-opacity="0"
         stop-color="#fff"
         offset="0" />
      <stop
         id="stop5552"
         stop-color="#fff"
         offset="0.95" />
    </linearGradient>
    <linearGradient
       xlink:href="#linear-gradient-2"
       y2="169.38"
       x2="502.35999"
       y1="265.76001"
       x1="485.73001"
       id="linear-gradient-3"
       gradientTransform="matrix(0.83769662,0,0,0.73108882,103.56451,165.75335)" />
    <linearGradient
       xlink:href="#linear-gradient"
       y2="200.34"
       x2="505.45001"
       y1="225.57001"
       x1="492.98001"
       id="linear-gradient-4"
       gradientTransform="matrix(0.83769662,0,0,0.73108882,104.9132,163.8379)" />
    <linearGradient
       xlink:href="#linear-gradient-2"
       y2="175.24001"
       x2="522.88"
       y1="175.24001"
       x1="482.56"
       id="linear-gradient-5"
       gradientTransform="matrix(0.83769662,0,0,0.73108882,103.56451,165.75335)" />
    <linearGradient
       xlink:href="#linear-gradient"
       y2="205.77"
       x2="485.73001"
       y1="205.77"
       x1="464.79001"
       id="linear-gradient-6"
       gradientTransform="matrix(0.83769662,0,0,0.73108882,103.56451,165.75335)" />
    <linearGradient
       xlink:href="#linear-gradient"
       gradientTransform="matrix(-0.81256572,-0.17546132,-0.20104719,0.70915616,955.61085,255.07047)"
       y2="205.13"
       x2="468.73001"
       y1="205.13"
       x1="447.78"
       id="linear-gradient-7" />
    <linearGradient
       xlink:href="#linear-gradient-2"
       y2="322.26001"
       x2="281.23001"
       y1="265.17999"
       x1="521.62"
       id="linear-gradient-8"
       gradientTransform="matrix(0.83769662,0,0,0.73108882,103.56451,165.75335)" />
    <linearGradient
       xlink:href="#linear-gradient"
       y2="123.11"
       x2="510.20999"
       y1="123.11"
       x1="498.54999"
       id="linear-gradient-9"
       gradientTransform="matrix(0.83769662,0,0,0.73108882,106.67094,188.59483)" />
  </defs>
  <sodipodi:namedview
     inkscape:current-layer="b6844486-882e-488a-b917-920917943dff"
     inkscape:window-maximized="1"
     inkscape:window-y="-9"
     inkscape:window-x="-9"
     inkscape:cy="369.14846"
     inkscape:cx="375.63894"
     inkscape:zoom="0.5"
     showgrid="false"
     id="namedview6859"
     inkscape:window-height="1001"
     inkscape:window-width="1920"
     inkscape:pageshadow="2"
     inkscape:pageopacity="0"
     guidetolerance="10"
     gridtolerance="10"
     objecttolerance="10"
     borderopacity="1"
     bordercolor="#666666"
     pagecolor="#ffffff"
     inkscape:document-rotation="0" />
  <path
     id="path6730"
     fill="#f2f2f2"
     d="M 671.40377,572.36056 H 61.50803 A 39.533538,30.89423 0 0 1 22.019184,541.50125 V 167.16134 a 28.962922,22.633623 0 0 1 28.9295,-22.60847 H 681.46247 a 29.463737,23.024994 0 0 1 29.43017,22.99928 v 373.9491 a 39.533515,30.894211 0 0 1 -39.48887,30.85931 z"
     style="fill:#cccccc;stroke-width:2.11564" />
  <path
     id="path6732"
     fill="#ffffff"
     d="m 79.29241,554.64375 h 575.37632 a 41.312531,31.999781 0 0 0 41.31256,-31.99978 V 215.55033 a 41.312531,31.999781 0 0 0 -41.31256,-31.9998 H 79.29241 a 41.312531,31.999781 0 0 0 -41.312536,31.9998 v 307.09364 a 41.312531,31.999781 0 0 0 41.312536,31.99978 z"
     style="stroke-width:2.27243" />
  <path
     id="path6734"
     fill="#cccccc"
     d="M 710.49282,167.19249 H 22.301425 V 150.41475 A 39.625859,33.102033 0 0 1 61.89439,117.36056 h 609.00535 a 39.62569,33.101893 0 0 1 39.59308,33.05419 z"
     style="fill:#0066ff;stroke-width:2.18524" />
  <circle
     id="circle6736"
     fill="#ffffff"
     cy="183.79507"
     cx="182.20602"
     rx="7.2572947"
     ry="7.815443"
     style="stroke-width:1.75822" />
  <circle
     id="circle6738"
     fill="#ffffff"
     cy="183.79507"
     cx="209.7529"
     rx="7.2572947"
     ry="7.815443"
     style="stroke-width:1.75822" />
  <circle
     id="circle6740"
     fill="#ffffff"
     cy="183.79507"
     cx="237.29984"
     rx="7.2572947"
     ry="7.815443"
     style="stroke-width:1.75822" />
  <ellipse
     style="stroke-width:1.34069"
     ry="5.8556275"
     rx="5.63201"
     id="circle6736-9-3"
     fill="#ffffff"
     cy="142.3334"
     cx="55.314354" />
  <ellipse
     style="stroke-width:1.34069"
     ry="5.8556275"
     rx="5.63201"
     id="circle6738-1-7"
     fill="#ffffff"
     cy="142.3334"
     cx="76.692093" />
  <ellipse
     style="stroke-width:1.34069"
     ry="5.8556275"
     rx="5.63201"
     id="circle6740-7-8"
     fill="#ffffff"
     cy="142.3334"
     cx="98.069809" />
  <path
     style="fill:#333333;stroke-width:1.41187"
     id="path7671"
     fill="#ccc"
     d="m 322.53362,520.50764 h -61.98669 a 13.71032,13.151223 0 0 1 -13.69476,-13.13628 v -59.45893 a 13.71032,13.151223 0 0 1 13.69476,-13.13628 h 61.98669 a 13.71032,13.151223 0 0 1 13.69475,13.13628 v 59.45893 a 13.71032,13.151223 0 0 1 -13.69475,13.13628 z m -61.98669,-82.96596 a 10.82367,10.382291 0 0 0 -10.81165,10.37075 v 59.45893 a 10.823686,10.382303 0 0 0 10.81165,10.37074 h 61.98669 a 10.823686,10.382303 0 0 0 10.81163,-10.37074 v -59.45893 a 10.82367,10.382291 0 0 0 -10.81163,-10.37075 z" />
  <path
     style="fill:#b3b3b3;stroke-width:1.41187"
     id="path7673"
     fill="#cccccc"
     d="m 310.28042,503.91444 h -37.4803 a 4.3293819,4.1528333 0 0 1 -4.32467,-4.1483 v -44.24851 a 4.3293819,4.1528333 0 0 1 4.32467,-4.14829 h 27.15786 a 4.3351771,4.1583921 0 0 1 2.70926,0.91487 l 10.32174,7.95629 a 4.3021654,4.1267265 0 0 1 1.61611,3.23343 v 36.29221 a 4.3293819,4.1528333 0 0 1 -4.32467,4.1483 z m -37.4803,-49.77957 a 1.4434253,1.3845637 0 0 0 -1.44158,1.38276 v 44.24851 a 1.4434253,1.3845637 0 0 0 1.44158,1.38278 h 37.4803 a 1.4434253,1.3845637 0 0 0 1.44158,-1.38278 v -36.29221 a 1.4337236,1.3752574 0 0 0 -0.53848,-1.07759 l -10.32313,-7.95696 a 1.4445209,1.3856145 0 0 0 -0.90242,-0.30451 z" />
  <path
     id="path7675"
     fill="#cccccc"
     d="m 303.07269,470.72805 h -23.06482 a 1.4415511,1.3827661 0 0 1 0,-2.76552 h 23.06482 a 1.4415511,1.3827661 0 0 1 0,2.76552 z"
     style="stroke-width:1.41187" />
  <path
     id="path7677"
     fill="#cccccc"
     d="m 303.07269,479.02465 h -23.06482 a 1.441559,1.3827733 0 0 1 0,-2.76552 h 23.06482 a 1.441559,1.3827733 0 0 1 0,2.76552 z"
     style="stroke-width:1.41187" />
  <path
     id="path7679"
     fill="#cccccc"
     d="m 303.07269,487.32124 h -23.06482 a 1.4415527,1.3827675 0 0 1 0,-2.76552 h 23.06482 a 1.4415527,1.3827675 0 0 1 0,2.76552 z"
     style="stroke-width:1.41187" />
  <path
     id="path7681"
     fill="#cccccc"
     d="m 469.57186,494.24394 h -61.9867 a 13.71032,13.151223 0 0 1 -13.69474,-13.1363 v -59.45893 a 13.71032,13.151223 0 0 1 13.69474,-13.13627 h 61.9867 a 13.71032,13.151223 0 0 1 13.69474,13.13627 v 59.45893 a 13.71032,13.151223 0 0 1 -13.69474,13.1363 z m -61.9867,-82.96597 a 10.82367,10.382291 0 0 0 -10.81166,10.37074 v 59.45893 a 10.823686,10.382303 0 0 0 10.81166,10.37075 h 61.9867 a 10.823686,10.382303 0 0 0 10.81161,-10.37075 v -59.45893 a 10.82367,10.382291 0 0 0 -10.81161,-10.37074 z"
     style="fill:#999999;stroke-width:1.41187" />
  <path
     style="fill:#80b3ff;stroke-width:1.41187"
     id="path7683"
     fill="#cccccc"
     d="m 458.76021,466.58861 h -40.36343 a 4.3293819,4.1528333 0 0 1 -4.32465,-4.1483 v -22.12426 a 4.3293819,4.1528333 0 0 1 4.32465,-4.1483 h 40.36343 a 4.3293819,4.1528333 0 0 1 4.32467,4.1483 v 22.12426 a 4.3293819,4.1528333 0 0 1 -4.32467,4.1483 z m -40.36343,-27.65532 a 1.4429929,1.3841488 0 0 0 -1.44155,1.38276 v 22.12426 a 1.4429929,1.3841488 0 0 0 1.44155,1.38276 h 40.36343 a 1.4429929,1.3841488 0 0 0 1.44157,-1.38276 v -22.12426 a 1.4429929,1.3841488 0 0 0 -1.44157,-1.38276 z" />
  <path
     style="fill:#80b3ff;stroke-width:1.41187"
     id="path7685"
     fill="#ccc"
     d="m 438.5785,455.02617 a 4.3296271,4.1530683 0 0 1 -2.29185,-0.6259 l -21.53739,-12.91142 a 1.4419441,1.3831427 0 0 1 1.52882,-2.34558 l 21.53741,12.91143 a 1.4495518,1.3904403 0 0 0 1.52741,0 l 21.536,-12.91143 a 1.4419441,1.3831427 0 0 1 1.52883,2.34558 l -21.53598,12.91142 a 4.3308811,4.1542715 0 0 1 -2.29325,0.6259 z" />
  <path
     id="path7687"
     fill="#cccccc"
     d="m 175.49538,494.24394 h -61.9867 a 13.71032,13.151223 0 0 1 -13.69472,-13.1363 v -59.45893 a 13.71032,13.151223 0 0 1 13.69472,-13.13627 h 61.9867 a 13.71032,13.151223 0 0 1 13.69474,13.13627 v 59.45893 a 13.71032,13.151223 0 0 1 -13.69474,13.1363 z m -61.9867,-82.96597 a 10.82367,10.382291 0 0 0 -10.81161,10.37074 v 59.45893 a 10.823686,10.382303 0 0 0 10.81161,10.37075 h 61.9867 a 10.823686,10.382303 0 0 0 10.81167,-10.37075 v -59.45893 a 10.82367,10.382291 0 0 0 -10.81167,-10.37074 z"
     style="fill:#5599ff;stroke-width:1.41187" />
  <path
     style="fill:#999999;stroke-width:1.41187"
     id="path7689"
     fill="#cccccc"
     d="m 164.68377,466.58861 h -40.36343 a 4.3293819,4.1528333 0 0 1 -4.32468,-4.1483 v -22.12426 a 4.3293819,4.1528333 0 0 1 4.32468,-4.1483 h 40.36343 a 4.3293819,4.1528333 0 0 1 4.32464,4.1483 v 22.12426 a 4.3293819,4.1528333 0 0 1 -4.32464,4.1483 z m -40.36343,-27.65532 a 1.4429929,1.3841488 0 0 0 -1.44155,1.38276 v 22.12426 a 1.4429929,1.3841488 0 0 0 1.44155,1.38276 h 40.36343 a 1.4429929,1.3841488 0 0 0 1.44154,-1.38276 v -22.12426 a 1.4429929,1.3841488 0 0 0 -1.44154,-1.38276 z" />
  <path
     style="fill:#999999;stroke-width:1.41187"
     id="path7691"
     fill="#cccccc"
     d="m 158.28616,466.58861 h -29.00977 a 2.882497,2.7649512 0 0 1 -2.49667,-4.1483 l 8.738,-14.51904 a 2.8834196,2.765836 0 0 1 4.99404,0 l 5.64367,9.37689 3.26953,-5.4325 a 2.8834196,2.765836 0 0 1 4.99405,0 l 6.36445,10.57465 a 2.8831027,2.7655319 0 0 1 -2.49739,4.1483 z m 0,-2.76554 v 0 l -6.36444,-10.57463 -4.51752,7.50664 a 1.4413351,1.3825584 0 0 1 -1.24869,0.69137 v 0 a 1.4413351,1.3825584 0 0 1 -1.24867,-0.69137 l -6.89171,-11.45104 -8.7387,14.51903 z" />
  <ellipse
     style="fill:#999999;stroke-width:1.41187"
     id="circle7693"
     fill="#cccccc"
     cy="444.46408"
     cx="160.35892"
     rx="2.8831024"
     ry="2.7655318" />
  <path
     id="path7721"
     fill="#ffffff"
     d="M 726.19647,369.37348 H 264.42084 a 25.09184,24.040026 0 0 1 -25.06347,-24.01286 v -94.59608 a 25.091854,24.04004 0 0 1 25.06347,-24.01287 h 461.77563 a 25.09234,24.040504 0 0 1 25.06347,24.01287 v 94.59608 a 25.09234,24.040504 0 0 1 -25.06347,24.01286 z"
     style="stroke-width:1.48682" />
  <path
     style="fill:#000000;stroke-width:1.48682"
     id="path7723"
     fill="#3f3d56"
     d="M 726.19623,370.10134 H 264.42058 a 25.852098,24.768415 0 0 1 -25.82299,-24.74053 v -94.59607 a 25.852084,24.7684 0 0 1 25.82299,-24.74052 h 461.77565 a 25.852084,24.7684 0 0 1 25.82295,24.74052 v 94.59607 a 25.852098,24.768415 0 0 1 -25.82295,24.74053 z M 264.42058,228.93486 a 22.810804,21.854608 0 0 0 -22.78498,21.82988 v 94.59607 a 22.810804,21.854608 0 0 0 22.78498,21.82989 h 461.77565 a 22.810804,21.854608 0 0 0 22.78498,-21.82989 v -94.59607 a 22.810804,21.854608 0 0 0 -22.78498,-21.82988 z" />
  <path
     id="path7725"
     fill="#f2f2f2"
     d="M 669.99325,346.08848 H 320.62354 a 25.091854,24.04004 0 0 1 -25.06348,-24.01284 v -49.48103 a 25.09184,24.040026 0 0 1 25.06348,-24.01286 h 349.36971 a 25.091825,24.040011 0 0 1 25.0635,24.01286 v 49.48103 a 25.09184,24.040026 0 0 1 -25.0635,24.01284 z"
     style="fill:#e6e6e6;stroke-width:1.48682" />
  <ellipse
     id="circle7727"
     fill="#ff6584"
     cy="290.70181"
     cx="395.80627"
     style="fill:#00aaff;fill-opacity:1;stroke-width:1.48682"
     rx="29.973314"
     ry="28.716871" />
  <path
     id="path7729"
     fill="#3f3d56"
     d="m 648.28223,343.19044 -42.30796,-33.99591 -41.5774,-33.40897 a 6.076466,5.8217492 0 0 0 -7.82716,0.0147 l -41.44316,33.56218 -10.12269,8.19829 -15.26343,-12.26455 -46.38582,-37.27211 a 6.0754484,5.8207742 0 0 0 -7.82642,0.0147 l -46.23529,37.44306 -46.96287,38.03272 a 1.5189077,1.4552371 0 0 0 0.9835,2.5668 l 96.28435,-0.17774 30.47719,-0.0562 -0.29817,0.24159 90.8477,-0.16769 86.68455,-0.16 a 1.5188316,1.4551643 0 0 0 0.97308,-2.5704 z"
     style="fill:#4d4d4d;stroke-width:1.48682" />
  <path
     id="path7761"
     fill="#ffffff"
     d="m 617.69519,520.61971 h -61.9867 A 13.71032,13.151223 0 0 1 542.01374,507.48344 V 448.0245 a 13.71032,13.151223 0 0 1 13.69475,-13.13627 h 61.9867 a 13.71032,13.151223 0 0 1 13.69474,13.13627 v 59.45894 a 13.71032,13.151223 0 0 1 -13.69474,13.13627 z"
     style="stroke-width:1.41187" />
  <path
     style="fill:#cccccc;stroke-width:1.41187"
     id="path7763"
     fill="#3f3d56"
     d="m 617.69519,520.61971 h -61.9867 A 13.71032,13.151223 0 0 1 542.01374,507.48344 V 448.0245 a 13.71032,13.151223 0 0 1 13.69475,-13.13627 h 61.9867 a 13.71032,13.151223 0 0 1 13.69474,13.13627 v 59.45894 a 13.71032,13.151223 0 0 1 -13.69474,13.13627 z m -61.9867,-82.96597 a 10.823686,10.382303 0 0 0 -10.81162,10.37076 v 59.45894 a 10.823686,10.382303 0 0 0 10.81162,10.37074 h 61.9867 a 10.823686,10.382303 0 0 0 10.81164,-10.37074 V 448.0245 a 10.823686,10.382303 0 0 0 -10.81164,-10.37076 z" />
  <path
     id="path7765"
     fill="#00b0ff"
     d="m 606.88357,496.42132 h -40.36345 a 4.3293819,4.1528333 0 0 1 -4.32465,-4.14832 v -29.03808 a 4.3293819,4.1528333 0 0 1 4.32465,-4.14829 h 11.36277 a 4.2975094,4.1222605 0 0 1 3.68342,1.97353 l 3.16888,4.94031 h 22.14838 a 4.3293819,4.1528333 0 0 1 4.32465,4.14828 V 492.273 a 4.3293819,4.1528333 0 0 1 -4.32465,4.14832 z"
     style="fill:#0066ff;stroke-width:1.41187" />
  <path
     style="stroke-width:0.202401"
     d="m 95.3318,255.85376 c -5.87931,0 -10.2297,5.20495 -10.03491,10.84962 0.18699,5.42299 -0.0557,12.44655 -1.80398,18.17425 -1.7543,5.74379 -4.7191,9.38361 -9.56274,9.85075 v 5.2746 c 4.84364,0.46819 7.80844,4.10617 9.56253,9.85077 1.74824,5.72771 1.99097,12.75127 1.80401,18.17425 -0.19482,5.64384 4.15559,10.84964 10.03587,10.84964 h 60.24329 c 5.87932,0 10.22891,-5.20497 10.03409,-10.84964 -0.18693,-5.42298 0.0559,-12.44654 1.80401,-18.17425 1.75427,-5.7446 4.71185,-9.384 9.55569,-9.85077 v -5.2746 c -4.84366,-0.46817 -7.80121,-4.10616 -9.55569,-9.85075 -1.74827,-5.72691 -1.99094,-12.75126 -1.80401,-18.17425 0.19482,-5.64385 -4.15477,-10.84962 -10.03409,-10.84962 H 95.33098 Z m 48.45572,51.10663 c 0,7.77245 -5.73177,12.48624 -15.24381,12.48624 h -16.1921 a 1.7464393,1.7664743 0 0 1 -1.74644,-1.7665 v -40.6287 a 1.7464393,1.7664743 0 0 1 1.74644,-1.76646 h 16.09992 c 7.93145,0 13.13675,4.34555 13.13675,11.01736 0,4.68285 -3.50174,8.87511 -7.96283,9.60957 v 0.24425 c 6.07289,0.67379 10.16207,4.92813 10.16207,10.80424 z m -17.00936,-26.07574 h -9.23249 v 13.19051 h 7.77604 c 6.0113,0 9.32589,-2.44837 9.32589,-6.82468 -4.5e-4,-4.10126 -2.85029,-6.36583 -7.86944,-6.36583 z m -9.23249,18.42419 v 14.53627 h 9.57218 c 6.25886,0 9.57405,-2.54019 9.57405,-7.31403 0,-4.77384 -3.40815,-7.22303 -9.97654,-7.22303 h -9.16969 z"
     fill="#7952b3"
     fill-rule="evenodd"
     id="path46696" />
</svg>
