<?xml version="1.0" encoding="UTF-8" standalone="no"?>
<svg
   xmlns:dc="http://purl.org/dc/elements/1.1/"
   xmlns:cc="http://creativecommons.org/ns#"
   xmlns:rdf="http://www.w3.org/1999/02/22-rdf-syntax-ns#"
   xmlns:svg="http://www.w3.org/2000/svg"
   xmlns="http://www.w3.org/2000/svg"
   xmlns:sodipodi="http://sodipodi.sourceforge.net/DTD/sodipodi-0.dtd"
   xmlns:inkscape="http://www.inkscape.org/namespaces/inkscape"
   height="682.667"
   viewBox="0 0 512 512"
   width="682.667"
   version="1.1"
   id="svg11872"
   sodipodi:docname="Juntechpc-Aruba-link-building.svg"
   inkscape:version="1.0.2-2 (e86c870879, 2021-01-15)">
  <metadata
     id="metadata11876">
    <rdf:RDF>
      <cc:Work
         rdf:about="">
        <dc:format>image/svg+xml</dc:format>
        <dc:type
           rdf:resource="http://purl.org/dc/dcmitype/StillImage" />
        <dc:title></dc:title>
      </cc:Work>
    </rdf:RDF>
  </metadata>
  <sodipodi:namedview
     pagecolor="#ffffff"
     bordercolor="#666666"
     borderopacity="1"
     objecttolerance="10"
     gridtolerance="10"
     guidetolerance="10"
     inkscape:pageopacity="0"
     inkscape:pageshadow="2"
     inkscape:window-width="1920"
     inkscape:window-height="1001"
     id="namedview11874"
     showgrid="false"
     inkscape:zoom="1.1733393"
     inkscape:cx="341.3335"
     inkscape:cy="341.3335"
     inkscape:window-x="-9"
     inkscape:window-y="-9"
     inkscape:window-maximized="1"
     inkscape:current-layer="svg11872" />
  <defs
     id="defs11848">
    <linearGradient
       id="A"
       x1="79.5"
       y1="266.5"
       x2="441.5"
       y2="266.5"
       gradientUnits="userSpaceOnUse">
      <stop
         offset="0"
         stop-color="#59f"
         id="stop11843" />
      <stop
         offset="1"
         stop-color="#59f"
         stop-opacity="0"
         id="stop11845" />
    </linearGradient>
  </defs>
  <path
     d="M225.311 313.532h-45.584c-29.146 0-52.856-23.71-52.856-52.856v-6.645c0-29.146 23.71-52.856 52.856-52.856h58.637c29.146 0 52.856 23.71 52.856 52.856v13.715h-24.039V254.03c0-15.889-12.928-28.817-28.817-28.817h-58.637c-15.889 0-28.817 12.928-28.817 28.817v6.645c0 15.889 12.928 28.817 28.817 28.817h45.584zm0 0"
     fill="#fff"
     id="path11854" />
  <path
     d="M260.365 205.988v29.461a28.68 28.68 0 0 1 6.816 18.582v13.715h24.039V254.03c0-21.297-12.666-39.677-30.855-48.042zm0 0"
     fill="#e9edf5"
     id="path11856" />
  <path
     d="M341.273 331.826h-58.637c-29.146 0-52.856-23.71-52.856-52.856v-13.715h24.039v13.715c0 15.889 12.928 28.817 28.817 28.817h58.637c15.889 0 28.817-12.928 28.817-28.817v-6.645c0-15.889-12.928-28.817-28.817-28.817h-45.584v-24.039h45.584c29.146 0 52.856 23.713 52.856 52.856v6.645c0 29.146-23.71 52.856-52.856 52.856zm0 0"
     fill="#fff"
     id="path11858" />
  <path
     d="M341.273 219.469h-45.584v24.039h45.584c15.889 0 28.817 12.928 28.817 28.817v6.645c0 15.889-12.928 28.817-28.817 28.817h-58.637c-8.962 0-16.983-4.115-22.272-10.55v29.651a52.55 52.55 0 0 0 22.272 4.938h58.637c29.146 0 52.856-23.713 52.856-52.856v-6.645c0-29.146-23.71-52.856-52.856-52.856zm0 0"
     fill="#e9edf5"
     id="path11860" />
  <path
     d="M249.188 127.215h21.211v42.894h-21.211zm0 0"
     fill="#fff"
     id="path11862" />
  <path
     d="M260.365 127.215h10.034v42.894h-10.034zm0 0"
     fill="#ececec"
     id="path11864" />
  <path
     d="M182.649 155.706l15-14.997 30.336 30.344-15.002 14.997zm110.366 15.364l30.336-30.344 15 14.997-30.333 30.344zm-42.413 191.821h21.211v42.894h-21.211zm0 0"
     fill="#fff"
     id="path11866" />
  <path
     d="M260.365 362.891h11.448v42.894h-11.448zm0 0"
     fill="#e6e6e6"
     id="path11868" />
  <path
     d="M293.013 361.925l15-14.994 30.336 30.342-15.002 14.997zM182.644 377.3l30.336-30.344 15 14.997-30.336 30.344zm0 0"
     fill="#fff"
     id="path11870" />
</svg>
