<?xml version="1.0" encoding="UTF-8" standalone="no"?>
<svg
   xmlns:dc="http://purl.org/dc/elements/1.1/"
   xmlns:cc="http://creativecommons.org/ns#"
   xmlns:rdf="http://www.w3.org/1999/02/22-rdf-syntax-ns#"
   xmlns:svg="http://www.w3.org/2000/svg"
   xmlns="http://www.w3.org/2000/svg"
   xmlns:sodipodi="http://sodipodi.sourceforge.net/DTD/sodipodi-0.dtd"
   xmlns:inkscape="http://www.inkscape.org/namespaces/inkscape"
   inkscape:version="1.0 (4035a4fb49, 2020-05-01)"
   sodipodi:docname="JunTechPC Aruba-Website-Redesign-Services.svg"
   xml:space="preserve"
   style="enable-background:new 0 0 512 512;"
   viewBox="0 0 512 512"
   y="0px"
   x="0px"
   id="Layer_1"
   version="1.1"><metadata
   id="metadata179688"><rdf:RDF><cc:Work
       rdf:about=""><dc:format>image/svg+xml</dc:format><dc:type
         rdf:resource="http://purl.org/dc/dcmitype/StillImage" /><dc:title></dc:title></cc:Work></rdf:RDF></metadata><defs
   id="defs179686" /><sodipodi:namedview
   inkscape:current-layer="Layer_1"
   inkscape:window-maximized="1"
   inkscape:window-y="-9"
   inkscape:window-x="-9"
   inkscape:cy="256"
   inkscape:cx="256"
   inkscape:zoom="1.6210938"
   showgrid="false"
   id="namedview179684"
   inkscape:window-height="1001"
   inkscape:window-width="1920"
   inkscape:pageshadow="2"
   inkscape:pageopacity="0"
   guidetolerance="10"
   gridtolerance="10"
   objecttolerance="10"
   borderopacity="1"
   bordercolor="#666666"
   pagecolor="#ffffff" />
<path
   id="path179617"
   d="M449.971,232.474v195.031H71.056H35.534c-9.817,0-18.701-3.975-25.13-10.404  C3.975,410.672,0,401.788,0,391.971c0-19.623,71.056-264.099,71.056-264.099h378.915v38.527V232.474z"
   style="fill:#CCCCCC;" />
<polygon
   id="polygon179619"
   points="143.274,123.657 143.274,80.916 143.274,43.202 198.945,43.202 198.945,127.871   198.945,332.324 143.274,332.324 143.274,294.611 143.274,251.87 143.274,209.128 143.274,166.387 143.274,127.871 "
   style="fill:#F7B239;" />
<g
   id="g179633">
	<rect
   id="rect179621"
   height="17.959"
   width="21.55"
   style="fill:#B27214;"
   y="71.942"
   x="143.274" />
	<rect
   id="rect179623"
   height="17.959"
   width="21.55"
   style="fill:#B27214;"
   y="200.155"
   x="143.274" />
	<rect
   id="rect179625"
   height="17.959"
   width="21.55"
   style="fill:#B27214;"
   y="157.401"
   x="143.274" />
	<rect
   id="rect179627"
   height="17.959"
   width="21.55"
   style="fill:#B27214;"
   y="114.672"
   x="143.274" />
	<rect
   id="rect179629"
   height="17.959"
   width="21.55"
   style="fill:#B27214;"
   y="285.626"
   x="143.274" />
	<rect
   id="rect179631"
   height="17.959"
   width="21.55"
   style="fill:#B27214;"
   y="242.884"
   x="143.274" />
</g>
<g
   id="g179639">
	<path
   id="path179635"
   d="M477.184,199.43h0.419c0,11.326-2.574,22.628-7.722,33.044h-19.91H336.748v-0.012   c4.549-10.536-4.25-21.778-4.25-33.032L477.184,199.43L477.184,199.43z"
   style="fill:#F95428;" />
	<path
   id="path179637"
   d="M332.498,199.43c0-11.242,8.8-22.484,4.25-33.02v-0.012h113.223h19.91   c5.148,10.404,7.722,21.73,7.722,33.032h-0.419H332.498z"
   style="fill:#F95428;" />
</g>
<rect
   id="rect179641"
   height="11.972"
   width="155.773"
   style="fill:#E54728;"
   y="193.438"
   x="332.498" />
<path
   id="path179643"
   d="M504.278,166.399c5.148,10.404,7.722,21.73,7.722,33.032c0,11.326-2.574,22.628-7.722,33.044h-37.988  c5.148-10.416,7.722-21.718,7.722-33.044c0-11.302-2.574-22.628-7.722-33.032H504.278z"
   style="fill:#2BA5F7;" />
<path
   id="path179645"
   d="M313.629,181.903c3.376,5.004,18.868,11.039,18.868,17.528c0,6.501-15.48,12.523-18.868,17.54  l-26.16-17.54L313.629,181.903z"
   style="fill:#F95428;" />
<path
   id="path179647"
   d="M336.748,166.41c4.549,10.536,6.836,21.778,6.836,33.02c0,11.254-2.287,22.496-6.836,33.032v0.012  l-23.119-15.504c3.388-5.016,5.34-11.039,5.34-17.54c0-6.489-1.963-12.523-5.34-17.528l23.119-15.504V166.41z"
   style="fill:#F2F2F2;" />
<path
   id="path179649"
   d="M71.056,127.871v228.565H35.534C15.911,356.437,0,372.348,0,391.971V92.337  c0-4.897,0.994-9.578,2.79-13.828s4.406-8.081,7.614-11.302c6.429-6.429,15.313-10.404,25.13-10.404h35.522V127.871z"
   style="fill:#E6E6E6;" />
<path
   id="path179651"
   d="M442.345,468.798H238.826v-42.544V265.279l160.975,160.975L442.345,468.798z M273.365,434.258h85.594  l-85.594-85.594V434.258z"
   style="fill:#2BA5F7;" />
<g
   id="g179653">
</g>
<g
   id="g179655">
</g>
<g
   id="g179657">
</g>
<g
   id="g179659">
</g>
<g
   id="g179661">
</g>
<g
   id="g179663">
</g>
<g
   id="g179665">
</g>
<g
   id="g179667">
</g>
<g
   id="g179669">
</g>
<g
   id="g179671">
</g>
<g
   id="g179673">
</g>
<g
   id="g179675">
</g>
<g
   id="g179677">
</g>
<g
   id="g179679">
</g>
<g
   id="g179681">
</g>
</svg>
