<?xml version="1.0" encoding="UTF-8" standalone="no"?>
<svg
   xmlns:dc="http://purl.org/dc/elements/1.1/"
   xmlns:cc="http://creativecommons.org/ns#"
   xmlns:rdf="http://www.w3.org/1999/02/22-rdf-syntax-ns#"
   xmlns:svg="http://www.w3.org/2000/svg"
   xmlns="http://www.w3.org/2000/svg"
   xmlns:sodipodi="http://sodipodi.sourceforge.net/DTD/sodipodi-0.dtd"
   xmlns:inkscape="http://www.inkscape.org/namespaces/inkscape"
   id="ae5f5559-570c-4c14-9324-22f1786600a2"
   data-name="Layer 1"
   width="926.92902"
   height="609.00903"
   viewBox="0 0 926.92902 609.00903"
   version="1.1"
   sodipodi:docname="JunTechPC-Aruba-Static-Website-Design-Packages.svg"
   inkscape:version="1.0.2-2 (e86c870879, 2021-01-15)">
  <metadata
     id="metadata211">
    <rdf:RDF>
      <cc:Work
         rdf:about="">
        <dc:format>image/svg+xml</dc:format>
        <dc:type
           rdf:resource="http://purl.org/dc/dcmitype/StillImage" />
        <dc:title>static_website</dc:title>
      </cc:Work>
    </rdf:RDF>
  </metadata>
  <defs
     id="defs209" />
  <sodipodi:namedview
     pagecolor="#ffffff"
     bordercolor="#666666"
     borderopacity="1"
     objecttolerance="10"
     gridtolerance="10"
     guidetolerance="10"
     inkscape:pageopacity="0"
     inkscape:pageshadow="2"
     inkscape:window-width="1920"
     inkscape:window-height="1001"
     id="namedview207"
     showgrid="false"
     inkscape:zoom="0.53839594"
     inkscape:cx="145.33222"
     inkscape:cy="536.41147"
     inkscape:window-x="-9"
     inkscape:window-y="-9"
     inkscape:window-maximized="1"
     inkscape:current-layer="ae5f5559-570c-4c14-9324-22f1786600a2" />
  <title
     id="title136">static_website</title>
  <rect
     x="-255.76509"
     y="341.07016"
     width="357.72186"
     height="599.88898"
     transform="matrix(0.25609771,-0.9666509,0.9573403,0.28896288,0,0)"
     fill="#3f3d56"
     id="rect138"
     style="fill:#0066ff;stroke-width:1.15842" />
  <ellipse
     cx="362.55212"
     cy="14.4629"
     fill="#00b0ff"
     id="circle140"
     style="fill:#ffffff;stroke-width:1.15808"
     rx="4.7563515"
     ry="5.0768437" />
  <ellipse
     cx="377.19812"
     cy="18.883638"
     fill="#00b0ff"
     id="circle142"
     style="fill:#ffffff;stroke-width:1.15808"
     rx="4.7563515"
     ry="5.0768437" />
  <ellipse
     cx="391.84399"
     cy="23.304369"
     fill="#00b0ff"
     id="circle144"
     style="fill:#ffffff;stroke-width:1.15808"
     rx="4.7563515"
     ry="5.0768437" />
  <path
     d="m 657.418,219.41763 a 55.566115,59.310267 0 0 0 -23.2074,0.58465 55.466969,59.20444 0 0 0 1.6405,-25.02978 55.142605,58.85822 0 0 0 -20.7442,14.28879 55.141899,58.857466 0 0 0 -10.6619,-23.76838 55.466341,59.20377 0 0 0 -10.8826,22.24013 55.566384,59.310554 0 0 0 -19.4838,-13.47049 c 0,0 -3.4638,18.80357 4.8754,34.23296 7.4222,13.7328 21.6827,20.15926 24.7311,21.40755 l 0.072,0.0914 0.038,-0.0464 c 0.3094,0.12526 0.4826,0.18915 0.4826,0.18915 0,0 0.065,-0.36117 0.1558,-1.00572 0.055,-0.0723 0.1098,-0.14576 0.1708,-0.22686 0.012,0.1029 0.024,0.19641 0.035,0.28861 -0.2393,0.59962 -0.3608,0.94401 -0.3608,0.94401 0,0 0.179,0.0423 0.5041,0.10864 l 0.011,0.061 0.1054,-0.0379 c 3.2096,0.64067 18.511,3.13712 31.5719,-4.41307 14.6743,-8.48298 20.949,-26.43815 20.949,-26.43815 z"
     fill="#00b0ff"
     id="path146"
     style="fill:#ffffff;stroke-width:1.15808" />
  <ellipse
     cx="628.95618"
     cy="158.18526"
     fill="#00b0ff"
     id="circle148"
     style="fill:#ffffff;stroke-width:1.15808"
     rx="12.366511"
     ry="13.199791" />
  <rect
     x="454.76913"
     y="88.944389"
     width="388.20255"
     height="8.9282122"
     transform="matrix(0.9573403,0.28896288,-0.25609771,0.9666509,0,0)"
     fill="#00b0ff"
     id="rect150"
     style="fill:#f9f9f9;stroke-width:1.15842" />
  <rect
     x="491.10349"
     y="133.41794"
     width="66.931465"
     height="70.753334"
     transform="matrix(0.9573403,0.28896288,-0.25609771,0.9666509,0,0)"
     fill="#00b0ff"
     id="rect152"
     style="fill:#ffffff;stroke-width:1.15842" />
  <rect
     x="615.40485"
     y="133.41794"
     width="66.931465"
     height="70.753334"
     transform="matrix(0.9573403,0.28896288,-0.25609771,0.9666509,0,0)"
     fill="#00b0ff"
     id="rect154"
     style="fill:#ffffff;stroke-width:1.15842" />
  <rect
     x="738.28217"
     y="133.84355"
     width="66.931465"
     height="70.753334"
     transform="matrix(0.9573403,0.28896288,-0.25609771,0.9666509,0,0)"
     fill="#00b0ff"
     id="rect156"
     style="fill:#ffffff;stroke-width:1.15842" />
  <rect
     x="499.70895"
     y="218.32193"
     width="49.720524"
     height="6.0645666"
     transform="matrix(0.9573403,0.28896288,-0.25609771,0.9666509,0,0)"
     fill="#00b0ff"
     id="rect158"
     style="fill:#ffffff;stroke-width:1.15842" />
  <rect
     x="624.01019"
     y="218.32193"
     width="49.720524"
     height="6.0645666"
     transform="matrix(0.9573403,0.28896288,-0.25609771,0.9666509,0,0)"
     fill="#00b0ff"
     id="rect160"
     style="fill:#ffffff;stroke-width:1.15842" />
  <rect
     x="748.31134"
     y="218.32196"
     width="49.720524"
     height="6.0645666"
     transform="matrix(0.9573403,0.28896288,-0.25609771,0.9666509,0,0)"
     fill="#00b0ff"
     id="rect162"
     style="fill:#ffffff;stroke-width:1.15842" />
  <path
     d="m 624.6336,511.91675 h 71.4682 v 31.90195 h -41.5801 v 31.90193 h 41.5838 v 31.90002 h -71.4719 z m 85.7636,0 h 71.47 v 27.74065 h -41.582 v 5.54773 h 41.582 v 63.8039 h -71.4681 v -29.13105 h 41.582 v -5.54773 h -41.5857 v -62.4135 z m 85.7655,0 h 71.47 v 27.74065 h -41.582 v 5.54773 h 41.582 v 63.8039 h -71.47 v -29.13105 h 41.582 v -5.54773 h -41.5801 v -62.4135 z"
     fill="#3f3d56"
     id="path168"
     style="fill:#ffffff;stroke-width:1.15808" />
  <path
     d="m 0,365.9486 h 29.4829 v 31.09153 H 56.4536 V 365.9486 h 29.4848 v 94.15294 H 56.4555 V 428.57372 H 29.4848 v 31.52781 H 0.0018 V 365.9486 Z m 124.7078,31.22338 H 98.7563 V 365.9486 h 81.4079 v 31.22338 h -25.968 v 62.92956 h -29.4829 v -62.92956 z m 68.3758,-31.22338 h 30.742 l 18.9105,33.08286 18.8924,-33.08286 h 30.7546 v 94.15294 H 263.02 V 413.4342 l -20.2839,33.47647 h -0.5087 L 221.9309,413.4342 v 46.66734 h -28.8473 z m 113.972,0 h 29.492 v 63.03233 h 41.4615 v 31.12061 H 307.0537 V 365.9486 Z"
     fill="#3f3d56"
     id="path170"
     style="fill:#ffffff;stroke-width:1.15808" />
</svg>
