<svg xmlns="http://www.w3.org/2000/svg" width="1706.667" height="1314.667" viewBox="0 0 1280 986"  xmlns:v="https://vecta.io/nano"><g transform="matrix(.1 0 0 -.1 0 986)"><g fill="#fff"><path d="M5979 7881.5v-13.455h142.54l-71.058-41.442-71.484-40.904v-36.06h178.71v26.91l-73.186.538h-73.611l23.402 13.993c12.765 7.535 44.252 24.219 69.782 37.136 25.956 13.455 48.932 26.372 51.485 29.063s4.255 12.379 2.979 21.528l-1.702 16.146h-177.86zM4066.7 6116.9c-9.723-4.539-19.202-21.94-23.091-42.367-1.458-8.7-2.917-34.045-2.917-55.985.243-51.446 5.59-72.251 22.119-83.599 18.716-12.862 38.647-1.513 45.939 25.723 5.104 18.914 4.375 24.21-3.403 24.21-5.591 0-7.292-2.27-8.993-12.105-1.458-6.431-5.347-15.131-8.993-19.671-8.264-9.457-17.258-5.674-24.793 10.214-4.618 9.835-5.104 15.888-5.104 60.903 0 41.61.729 51.446 4.375 60.146 9.722 23.453 27.952 21.562 33.786-3.404 2.431-10.592 4.132-12.862 9.723-12.862 4.618 0 6.806 1.891 6.806 6.052 0 10.592-7.535 31.019-13.368 37.071-7.535 7.565-22.362 10.213-32.085 5.674zm316-3c-7.292-5.296-11.91-12.105-15.799-23.831-5.104-14.753-5.59-21.184-5.59-65.442 0-43.88.486-51.067 5.59-65.064 7.535-22.318 15.07-28.749 33.057-29.506 11.91-.378 16.771-2.27 24.549-10.592 11.424-12.105 13.612-12.483 17.501-3.026 2.431 6.431 1.702 8.322-6.806 17.401-6.806 6.809-9.48 12.105-8.75 16.266l5.348 23.453c5.833 24.588 4.375 94.191-2.431 115-9.237 28.749-27.952 38.963-46.668 25.345zm23.82-15.509c8.264-7.187 12.639-26.479 13.855-62.794 1.944-60.903-8.264-94.191-26.98-86.247-13.125 6.052-17.5 24.966-17.5 77.169 0 34.045.972 46.15 4.375 55.607 6.563 18.914 16.042 24.588 26.251 16.266zm-525.22 9.509c0-9.079.729-9.457 13.368-9.457h13.369l.486-82.086.729-82.465h14.584l.729 82.465.486 82.086h13.368c12.639 0 13.369.378 13.369 9.457v9.457H3881.3zm85-83.3v-92.678h60.766v9.457c0 9.457 0 9.457-23.091 9.457h-23.091v67.333l21.633 2.648c19.688 2.27 21.39 3.404 20.417 9.835-1.215 6.052-3.646 7.187-16.285 7.187-25.522 0-25.765.378-25.765 32.532v27.992h21.876c21.633 0 21.876 0 21.876 9.457v9.457H3966.3zm165.3 3.8v-91.543c0-1.891 2.917-3.026 6.806-3.026h6.563l1.458 85.112h18.959c15.313 0 19.445-1.135 20.66-6.053.729-3.404 1.459-22.696 1.459-43.502v-37.449h14.584v185.36h-14.341l-1.458-77.547-12.153-1.135c-6.563-.757-15.799-.378-19.931 1.135l-8.021 2.27v25.723c0 38.963-1.944 49.554-8.75 49.554h-5.833zm94.8-3.8v-92.678h14.584v71.116c.243 56.363.729 69.225 2.917 63.172 1.701-4.161 10.695-35.558 20.417-69.981l17.258-62.416 8.993-1.135 8.75-1.135v185.73h-14.584v-70.738l-.243-71.116-12.153 43.502-20.418 71.116c-8.021 26.101-8.507 27.236-17.015 27.236h-8.507zm97.2 0v-92.678h14.584v185.36H4323.6zm131.8 15.9c.729-83.6 1.702-89.274 15.799-103.65 9.48-9.835 32.328-9.078 41.321 1.135 13.855 15.509 15.313 26.48 15.313 106.67v72.629h-14.341l-1.458-152.068-6.806-9.079c-8.994-11.727-19.688-11.727-27.223.378-5.834 8.7-6.077 10.97-6.077 61.659 0 29.127-.729 63.173-1.458 76.034-1.702 22.318-1.944 23.075-8.75 23.075h-7.049zm96.7-15.9v-93.056l29.897 1.135c28.682 1.135 29.654 1.513 30.383 9.835.729 7.944.243 8.322-22.362 8.322h-23.334v67.333l20.661 2.648c17.987 2.27 20.661 3.783 20.661 9.835 0 6.431-1.944 7.187-15.07 7.187-26.251 0-26.251.378-26.251 32.532v27.992h21.876c21.633 0 21.876 0 21.876 9.457v9.457h-58.336zm1480.1 1682.6c-27.232-6.458-44.677-20.452-51.911-42.518-12.765-38.212 0-75.887 31.487-93.647 16.594-9.15 26.381-10.764 64.676-8.611 37.444 1.615 47.656 3.767 60.421 13.455 37.018 29.601 33.614 97.953-6.808 120.56-20.424 11.302-71.484 17.222-97.865 10.764zm94.461-39.827c29.785-19.914 19.573-59.741-18.296-72.658-25.956-8.611-76.59-5.382-94.886 6.997-20.424 12.917-25.956 46.285-10.638 62.432 17.02 17.761 99.141 19.375 123.82 3.229zM6235.1 7579.1l1.276-24.757 37.444-17.761c20.849-9.688 38.72-18.837 39.571-19.913 1.276-1.615-16.169-10.764-38.295-20.452l-40.848-18.299v-50.053l24.679 9.149c13.19 5.382 28.508 12.379 33.189 15.608 23.828 16.146 76.59 33.369 101.69 33.369 37.444 0 40.422 2.153 40.422 30.139v23.681h-38.72c-37.444 0-40.422 1.077-99.992 32.292l-61.697 31.754zm1731.8-31.8c-5.106-4.306-14.467-19.914-19.998-34.445-11.063-27.987-22.551-39.827-33.614-34.445-13.616 6.458-12.339 31.216 2.127 36.06 5.957 2.153 8.085 7.535 8.085 19.375 0 20.99-11.063 22.605-28.508 3.767-10.212-11.302-11.914-17.223-11.914-40.365 0-35.521 14.041-55.435 39.997-56.511 20.424-.538 30.21 9.688 46.805 48.977 7.659 17.761 14.041 26.372 20.85 27.448 22.126 4.306 31.486-31.754 11.488-43.056-7.659-4.306-10.638-10.226-10.638-22.066 0-15.07.851-15.608 13.616-12.379 18.297 4.306 23.828 11.84 28.934 36.598 8.935 41.442-11.063 79.654-42.124 79.654-8.51 0-19.998-3.767-25.104-8.611zM5979 7504.8v-13.455h178.71v26.91H5979zm0-110.3c0-66.199.426-69.966 8.51-69.966 7.234 0 8.51 3.767 8.51 26.91v26.91h161.69v26.91l-74.462.538-79.568 1.615c-3.404.538-5.957 11.302-6.808 29.063-1.277 23.681-2.553 27.987-9.787 27.987-7.659 0-8.084-4.306-8.084-69.966zm-1944.1 36.6c-22.977-15.608-28.083-32.83-28.083-95.8 0-67.276 5.957-83.96 33.189-95.262 25.104-10.764 45.103.538 57.442 30.678 17.445 44.133 10.212 130.78-13.19 155-9.787 10.764-37.444 13.455-49.358 5.382zm36.167-44.671c7.233-21.528 8.085-74.81 1.277-98.491-8.085-29.601-25.956-27.986-34.04 2.691-5.957 23.681-3.404 94.186 4.255 106.03 9.787 14.531 21.7 10.764 28.508-10.226zM4128 7335.3v-96.877h25.53v53.82c0 29.601 1.702 53.82 3.83 53.82s11.063-23.681 20.424-52.206c16.594-52.206 16.594-52.744 32.338-54.358l15.744-1.615v194.29h-25.53v-57.588c0-31.754-1.702-55.435-3.404-52.206-1.702 2.691-10.637 28.525-19.998 57.588l-16.169 52.206h-32.763zm124.3 1.6l1.276-95.8 78.717-3.229v32.83h-51.06v161.46h-29.785zm97-1.6v-96.877h29.785v193.75H4349.3zm55.3 0v-96.877h25.53l.426 41.98c.426 22.604 1.702 47.362 3.404 54.897 2.553 11.84 4.681 8.073 16.594-29.601l17.871-54.897c2.979-9.688 7.659-12.379 18.722-12.379 18.296 0 18.296 1.077 16.169 109.26l-1.702 84.498h-24.679l-.425-57.588c0-65.661.851-66.199-25.53 16.146l-13.19 41.442h-33.19zm124.3 1.6l1.277-95.8h80.844l1.276 15.07 1.277 14.532h-27.658c-27.657 0-28.083 0-28.083 15.07.426 23.681 13.616 38.751 33.614 38.751 16.594 0 17.445 1.076 17.445 16.146v16.146h-51.06v21.528c0 21.528 0 21.528 16.169 21.528 25.956 0 34.891 5.382 34.891 19.375 0 12.917-.851 12.917-40.422 12.917h-40.422zm156.6 28c0-62.97.426-67.276 8.085-67.276 7.233 0 8.51 4.306 9.786 25.834.851 17.761 2.979 25.296 7.659 25.834 3.404.538 42.124 1.077 86.376 1.077l79.568 1.076v26.91h-174.45v26.91c0 23.143-1.277 26.91-8.51 26.91-8.084 0-8.51-3.767-8.51-67.276zm843.7 53.8c-21.275-11.841-28.508-34.983-28.508-94.186-.426-62.432 7.233-87.727 29.785-96.877 11.488-4.844 17.02-4.844 27.232 1.615 6.808 4.844 12.765 5.92 12.765 3.229s3.83-4.844 8.51-4.844c8.085 0 8.51 3.767 8.51 54.359v53.82l-22.126-1.615c-16.594-1.077-22.552-3.767-22.552-9.688 0-5.382 5.106-8.611 14.042-9.688 15.318-2.153 17.02-9.688 9.361-45.209-4.681-20.452-14.892-29.063-28.934-23.143-13.19 4.844-17.871 26.91-17.871 80.192 0 43.056 1.276 52.206 8.935 64.584 11.914 18.837 28.934 17.222 37.018-3.229 3.404-9.15 8.935-15.07 14.041-15.07 9.361 0 9.361-1.077 3.404 21.528-3.404 11.841-9.361 19.914-19.148 24.757-17.02 9.15-17.445 9.15-34.465-.538zm-577.8-3.8c.851-3.767 7.659-47.362 15.318-96.876 12.765-86.113 14.041-90.418 23.402-90.418 10.637 0 8.935-6.997 25.53 104.95l7.659 48.438 12.34-76.963c11.914-72.119 13.19-76.425 22.551-76.425 5.532 0 10.212.538 10.212 1.615s6.808 44.133 14.892 95.262l14.892 95.262c0 1.077-3.829 1.614-8.51 1.614-5.957 0-8.935-4.844-11.063-19.914-1.276-11.302-6.808-45.747-11.914-76.963l-9.361-56.511-5.106 34.983c-16.594 109.26-18.722 118.94-27.657 117.33-7.659-1.615-10.637-11.84-21.7-76.963l-12.765-75.349-10.638 76.963c-9.786 72.658-10.637 76.425-19.998 76.425-5.957 0-9.361-2.691-8.084-6.458zm163.8-90.4v-96.877h36.167c33.189 0 36.167 1.077 36.167 10.764s-2.978 10.764-27.657 10.764h-27.658v69.966h25.53c22.551 0 25.53 1.077 25.53 10.764s-2.979 10.764-25.53 10.764h-25.955l2.553 61.894 26.806 1.614c19.573 1.077 26.381 3.767 26.381 9.15 0 6.458-7.233 8.073-36.167 8.073H5115.2zm93.6 0v-96.877h28.083c25.104 0 28.934 1.615 40.422 15.608 16.169 20.99 17.445 58.664 2.553 78.04-9.786 12.378-9.786 12.917-2.127 24.757 11.063 17.222 9.786 46.285-2.979 61.893-8.935 11.84-14.041 13.455-38.295 13.455h-27.658zm50.209 72.119c11.063-9.688 12.765-34.983 2.553-47.362-3.404-4.844-13.19-8.611-21.275-8.611h-14.467v32.292c0 31.754 0 32.292 11.914 32.292 6.382 0 16.169-3.767 21.275-8.611zm-4.681-78.04c14.467-6.997 18.296-13.455 18.296-34.983 0-23.681-8.51-34.983-28.934-38.212l-17.871-3.229v41.442c0 45.209 2.127 47.9 28.508 34.983zm56.572 5.921c0-93.109.426-96.877 8.51-96.877 7.659 0 8.51 3.767 8.51 39.827v39.289l21.7 3.767c28.934 4.844 42.124 22.604 42.124 55.435 0 19.375-2.553 26.91-12.34 39.827-11.488 13.993-15.318 15.608-40.422 15.608h-28.083zm58.293 66.199c7.659-12.379 6.808-34.445-1.276-48.976-4.681-8.611-10.637-11.84-23.402-11.84h-16.594v33.907c0 18.837 1.276 36.06 3.404 38.213 5.106 6.997 32.338-1.077 37.87-11.302zm42.107-53.799l-18.296-96.877c-1.702-9.688-.426-12.379 6.382-12.379 7.233 0 9.787 5.382 14.041 29.601l5.106 29.601h39.997l5.532-29.601c4.255-22.605 7.659-29.601 13.616-29.601 4.255 0 7.659 3.767 7.659 8.073 0 4.844-8.085 48.438-17.445 96.877-17.445 87.189-17.871 88.803-28.934 88.803-11.489 0-11.914-1.614-27.658-84.498zm31.487 39.827c0-6.458 2.978-24.757 5.957-39.827l5.957-28.525h-31.912l6.808 42.518c6.382 39.827 13.19 53.282 13.19 25.834zM5613 7324.5v-96.877h36.167c33.189 0 36.167 1.077 36.167 10.764s-2.979 10.764-27.658 10.764h-27.657v69.966h25.53c22.551 0 25.53 1.077 25.53 10.764s-2.979 10.764-25.53 10.764h-25.955l1.276 31.216c.851 22.604 2.978 30.678 7.659 31.216 3.404.538 15.318 1.077 26.806 1.615 14.892.538 19.998 2.691 19.998 8.611 0 6.458-6.808 8.073-36.167 8.073h-36.167zm2309.6 90.4c-8.935-2.691-20.85-12.379-26.806-21.528-9.361-13.993-10.638-20.99-10.638-55.973v-39.827h149.78l-1.702 40.365c-1.276 36.06-2.553 41.98-14.042 56.511-18.722 23.681-60.846 32.292-96.588 20.452zm76.59-45.747c4.68-5.382 9.786-15.07 11.488-21.528 2.553-12.379 2.553-12.379-50.634-12.379-50.634 0-53.613.538-53.613 10.764 0 5.92 3.829 15.608 8.51 21.528 11.914 15.07 71.058 15.608 84.249 1.615zM6234.3 7338v-76.425c0-2.691 6.382-4.844 14.892-5.92 14.041-1.615 14.892-.538 14.892 13.993 0 9.149 3.829 19.913 9.787 26.91 9.361 11.302 13.616 11.84 85.1 11.84h75.313v48.438l-83.823 1.076-84.248 1.615-1.276 25.834c-1.276 24.758-1.702 25.296-16.169 25.296H6234.3zm-157.5-27.5l-81.696-29.601c-14.892-4.844-16.169-6.997-16.169-23.681 0-17.761.851-18.837 22.552-26.372 41.699-15.608 149.35-51.668 152.75-51.668 1.702 0 3.404 5.92 3.404 12.917 0 11.302-3.404 14.532-26.381 23.143l-26.806 10.226v64.046l25.53 8.611c22.551 7.535 25.53 10.226 26.806 22.604 1.702 18.837.426 18.837-79.994-10.226zm5.957-40.904c4.255-19.914 2.979-36.598-2.553-36.598-2.978 0-21.275 5.382-40.422 11.84l-34.891 12.379 32.763 11.302c42.55 15.07 42.124 15.07 45.103 1.077z"/><path d="M4686.3 7258.8c1.276-12.379 1.702-12.379 74.888-12.379l73.186-.538c0-.538-33.614-18.299-74.888-39.827l-74.462-39.289 2.553-33.368 94.886-1.615 94.46-1.077v26.91l-77.441 1.077-77.866 1.614 57.442 28.525 76.59 37.674c16.594 8.073 19.147 11.841 20.424 26.91l1.276 17.222h-192.32zm3209.5-1.6c-9.361-11.841-10.638-17.223-10.638-55.973v-43.056l18.296-3.229c9.786-1.615 42.975-2.691 73.186-1.615l55.315 1.615 1.276 17.761 1.276 17.222h-65.101l2.553 17.223c1.276 9.149 3.404 18.299 4.68 19.375 1.276 1.615 14.042 4.306 28.508 5.921 26.807 3.229 26.807 3.229 28.083 21.528l1.276 18.299-30.21-2.691c-18.296-1.615-32.763-5.92-37.444-11.302-6.382-7.535-8.084-7.535-17.446 2.153-14.467 15.07-40.848 13.455-53.612-3.229zm49.357-38.751c6.383-22.066 2.127-28.525-19.573-28.525-17.446 0-19.147 1.076-19.147 12.917 0 23.681 4.255 30.139 19.573 30.139 11.914 0 15.318-2.691 19.147-14.531zM6233.8 7230.3c0-1.614-.426-11.84-.851-22.604v-20.452l100.42-1.615 100.84-1.076v48.438h-99.992c-54.889 0-99.992-1.076-100.42-2.691zm-1519 603.3c-34.891-26.91-45.954-69.966-43.401-169.53 2.127-79.116 8.51-107.1 29.359-129.71 22.977-24.219 63.399-22.066 77.866 3.767 5.957 10.764 5.957 10.764 7.659-1.615.851-9.688 4.255-13.455 13.19-14.532l11.488-1.615v178.68l-34.891-1.614c-34.891-1.615-35.316-1.615-36.593-16.146s-.851-15.07 19.573-15.07c19.573 0 21.275-1.077 23.402-14.532 2.979-22.066-2.978-68.352-10.637-83.96-8.935-16.146-26.381-22.605-42.124-14.532-19.573 10.226-26.381 37.136-28.508 110.87-2.979 99.029 11.488 147.47 43.826 147.47 17.446 0 31.062-12.917 35.316-33.907 2.979-14.531 5.532-17.761 17.871-18.837 14.042-1.615 14.042-1.615 11.489 17.761-3.404 25.834-12.765 43.594-29.785 56.512-17.445 13.993-47.656 13.993-65.101.538zm-376.1-153.9v-159.31l58.719 1.615 58.293 1.615 1.276 15.07 1.276 14.531h-89.78v60.817c0 40.904 1.276 57.588 4.255 52.206 2.553-5.382 4.255-5.92 4.255-1.077s10.212 6.459 36.167 6.459h36.167v32.292h-30.636c-51.485 0-50.209-1.076-50.209 54.358v47.9h85.1v32.292h-114.88zm149.7 1.6l1.276-157.69h25.53l4.255 235.74 11.914-31.754c6.383-17.222 23.828-70.505 38.295-117.87l26.806-86.112h33.614l1.276 118.4c.851 65.123 0 136.17-1.276 157.69-2.979 38.212-2.979 38.751-15.318 38.751h-12.34l-.425-122.17v-122.71l-36.167 113.02-38.72 122.71c-1.702 6.997-6.808 9.149-20.85 9.149h-18.722zm369.4-1.6v-158.77h12.34c8.935 0 12.765 3.229 14.892 12.379 3.404 16.146 3.404 230.35 0 272.33-2.979 31.754-3.404 32.83-14.892 32.83h-12.34zm76.6 0v-158.77h25.53v250.26l11.914-32.292c6.808-17.761 25.104-74.272 40.848-124.86l28.934-93.109h33.189v317.54h-25.53v-122.17c-.426-141.01 2.127-139.93-36.167-17.761l-34.891 109.26c-10.637 29.601-11.488 30.678-27.232 30.678h-16.594zm188 1.6l1.276-157.69 58.719-1.615 58.293-1.615v32.83h-89.355v51.668c0 65.123 1.276 66.737 45.954 66.737 18.297 0 34.466 1.076 35.742 2.691s1.276 9.149 0 16.146c-1.702 12.917-3.404 13.455-32.338 13.455-50.634 0-49.358-1.076-49.358 54.358v47.9h41.699c22.977 0 42.975 1.077 44.252 2.691s1.276 9.15 0 16.146l-1.702 13.455h-114.03zm1139.1-536.6c-22.977-12.917-27.232-26.372-27.232-87.189v-54.359l16.169-3.767c8.51-1.615 53.613-3.229 99.992-3.229h83.823v48.438h-35.742c-53.613 0-59.144 5.92-37.444 36.598 11.063 15.608 14.892 17.223 36.167 17.223 33.614 0 37.018 2.691 37.018 29.063v22.066l-37.018-2.153c-37.018-1.615-60.846-10.764-60.846-23.143 0-3.767-3.829-1.076-8.935 5.92-16.594 22.604-41.699 27.987-65.952 14.532zm52.762-55.435c2.553-4.844 5.106-17.223 5.106-26.91 0-17.761 0-17.761-20.849-17.761-28.508 0-34.465 3.767-34.465 20.99 0 10.226 3.404 17.222 10.638 22.066 5.957 3.767 10.637 9.688 10.637 12.379 0 7.535 22.551-1.077 28.934-10.764zM5979 7125.9c0-18.299 1.276-20.99 11.914-24.219 6.382-1.614 38.295-12.379 70.633-24.219l59.144-20.452-20.849-6.458-70.633-23.143-50.209-16.684v-41.442h178.71v26.91l-146.797 1.077 65.952 18.837c82.972 23.143 84.674 24.219 82.121 40.904-1.702 12.379-7.659 15.07-66.378 35.522l-68.931 24.757c-2.127 1.076 26.806 2.153 65.101 2.153l68.931.538v26.91h-178.71zm1982.8-8.1l-64.676-20.99c-10.637-3.767-11.914-6.458-11.914-27.448v-23.681l70.207-22.066 74.462-22.066c2.978 0 4.255 7.535 3.404 17.223-1.276 15.07-3.404 18.299-18.297 23.681-11.488 3.767-17.02 8.611-16.594 14.531 1.276 35.522 1.276 34.983 18.722 38.751 16.169 3.229 17.02 4.844 17.02 22.066 0 23.143-1.702 23.143-72.335 0zm8.51-49.515c0-12.378-1.276-13.455-9.361-10.764-5.531 2.153-17.445 5.382-26.806 7.535l-17.02 3.229 21.275 6.459c30.636 9.149 31.912 9.149 31.912-6.459zM4859.9 7058.1v-45.747h-71.484l-2.979 40.365c-2.553 34.983-3.829 40.365-11.063 40.365s-8.085-4.306-8.085-40.365v-40.365h-63.825v43.056c0 39.289-.851 43.056-8.51 43.056-8.084 0-8.51-3.767-8.51-55.973v-55.435l20.424-2.691c11.063-1.615 53.613-2.691 94.461-2.153l74.462.538 1.276 55.973c1.276 54.359-.851 64.584-12.765 65.123-2.127 0-3.404-20.452-3.404-45.748zm3053-77c-21.7-12.917-27.658-29.601-27.658-76.425v-36.598l74.462-1.077 74.462-.538v35.521c0 64.046-16.169 84.498-70.208 87.189-26.806 1.614-37.869 0-51.06-8.073zm89.354-39.289c3.404-4.306 6.808-13.455 7.234-20.99l1.276-13.455-51.911-1.615c-51.911-1.614-52.336-1.076-52.336 10.764 0 16.146 4.255 24.219 17.02 30.678 14.892 8.073 71.484 3.767 78.717-5.382zM6332.6 6948.8l-99.567-30.678v-59.202l18.722-6.997c10.212-3.767 52.336-16.146 93.184-28.525l82.121-24.219c5.957-2.691 7.234.538 7.234 21.528 0 22.604-.851 24.758-11.488 27.987-29.785 8.073-33.189 10.764-34.465 27.448-1.702 20.99 12.765 41.98 32.338 46.824 13.19 3.767 13.616 4.844 13.616 30.678 0 14.531-.426 26.372-.851 25.834-.851-.538-45.954-13.993-100.84-30.678zm18.722-60.817c1.702-9.149 2.127-17.222.851-18.837-.851-1.076-11.488.538-23.828 4.306-23.828 6.997-28.934 18.299-9.787 23.681 6.382 1.615 13.616 3.767 15.743 4.844 10.637 4.306 14.467 1.615 17.02-13.993zM4685.5 6915.5c0-24.219-5.957-20.99 93.61-51.129 65.952-19.914 70.207-15.07-34.891-45.748l-58.719-17.222v-41.98h191.47v26.91l-77.441 1.077-77.866 1.614 57.442 15.07c104.67 27.448 98.716 24.757 97.014 40.904-1.276 13.455-4.255 15.07-69.356 36.06-87.227 27.987-85.95 27.448-51.06 27.448 16.594-.538 50.209 0 75.738.538l45.528 1.076v26.91h-191.47zm1313.5 4.8c-13.616-10.226-19.998-34.983-19.998-79.116v-43.056l52.336-2.153c28.508-1.076 68.505-1.076 89.355 0 35.742 2.153 37.018 2.691 37.018 15.07 0 12.917-.425 12.917-40.422 12.917h-40.422v23.143c0 36.06 8.51 46.824 37.444 46.824 34.891 0 43.401 4.305 43.401 19.914 0 13.455-.425 13.455-33.614 11.84-26.806-1.615-36.593-4.844-46.805-14.532-7.234-6.458-13.19-9.688-13.19-6.997 0 16.684-48.081 28.525-65.101 16.146zm51.911-33.907c2.978-4.306 6.808-19.914 8.085-34.983l2.127-27.448h-65.101v25.834c0 37.674 11.063 51.668 36.167 46.286 6.808-1.077 15.318-5.92 18.722-9.688zM7885.2 6818.6v-16.146h43.826l43.401-.538-32.763-18.299c-18.296-10.226-37.869-19.914-43.826-22.066-8.936-2.691-10.638-6.459-10.638-23.681 0-19.914.426-19.914 19.573-23.681 25.104-4.306 107.23-4.306 119.99 0 7.659 2.691 9.361 6.997 8.51 17.761l-1.276 13.993-97.865 5.382 34.04 12.379c51.06 18.299 63.399 27.986 65.101 51.668l1.276 19.375h-149.35zm226.4-100.7l1.276-95.8 13.616-1.614 13.19-1.615 2.553 33.907c2.979 47.9 2.979 47.362 13.19 47.362 14.042 0 18.722-10.226 19.998-45.747 1.276-32.292 1.276-32.292 15.318-33.907l13.616-1.615v36.598c0 25.296-2.127 40.904-6.808 48.977-5.957 10.764-5.957 13.455-.851 21.528 10.212 15.07 12.34 27.987 7.659 50.053-6.383 28.525-20.424 37.136-61.698 37.136h-31.912zm56.166 61.355c9.361-8.611 10.637-34.983 2.127-41.98-3.404-2.691-11.063-4.844-17.446-4.844-11.488 0-11.914 1.077-11.914 26.91 0 24.757.851 26.91 9.786 26.91 5.532 0 13.191-3.229 17.446-6.997zm57.834-62.955v-97.415l82.972 3.229 1.276 15.07 1.277 14.531h-27.658c-27.657 0-28.082 0-28.082 15.07.425 23.681 13.616 38.751 33.614 38.751 16.594 0 17.445 1.076 17.445 16.146v16.146h-51.06v43.056h51.06v32.292H8225.6zm94.5 90.5c1.276-3.767 10.212-47.362 20.424-96.876l18.297-90.418h35.742l17.446 93.109 17.871 96.877c0 2.153-6.382 3.767-14.041 3.767h-14.467l-7.659-46.824c-4.255-26.372-10.212-57.05-12.765-68.89l-5.106-20.99-12.34 66.737-12.34 67.275-16.594 1.615c-12.34 1.614-15.744 0-14.467-5.382zm125.9-10.3c-1.276-9.149-1.276-52.744 0-97.415l2.128-80.192 26.381 3.229 1.276 56.511c.851 31.216 0 74.272-1.276 95.8-2.979 38.212-2.979 38.75-14.892 38.75-9.786 0-11.914-2.691-13.616-16.684zm56.2-80.2v-96.877h39.997c39.146 0 39.997.538 41.699 13.455 1.277 6.997 1.277 14.532 0 16.146s-13.616 2.691-27.232 2.691h-24.679v19.375c0 24.219 8.936 33.907 31.062 34.445 14.467 0 15.744 1.076 15.744 16.146 0 16.146-.426 16.146-23.402 16.146h-23.403v42.518l24.679 1.615c22.977 1.615 24.254 2.153 25.53 16.684l1.276 14.531h-81.27zm93.6 92.6c0-4.844 23.402-154.46 27.657-177.07 1.702-9.688 5.106-12.379 16.595-12.379 16.169 0 17.445 3.767 28.508 85.574l5.531 39.827 5.106-31.754 10.637-62.97 5.106-31.216 30.636 3.229 13.616 83.422c17.446 108.18 17.446 107.64 1.277 107.64-14.042 0-12.765 4.306-24.253-75.348l-7.234-51.129-3.404 24.219c-1.702 13.455-6.383 41.98-10.212 63.508-6.808 39.289-6.808 39.289-19.998 37.674s-13.19-1.615-22.977-60.279c-10.212-61.893-14.041-74.272-14.041-48.438 0 8.611-2.978 36.598-6.808 62.97l-6.808 46.824h-14.467c-8.084 0-14.467-2.153-14.467-4.306zm-2192.2-68.3l-1.276-43.056-85.1-1.615-85.1-1.076 1.276-20.99c1.702-19.913 2.127-20.99 20.849-24.219 10.637-1.615 55.315-3.229 99.141-3.229 65.101 0 80.419 1.614 82.121 7.535 1.277 4.306 1.277 34.445 0 66.737l-2.553 59.202-28.083 4.305zm-387.6 5.9c-21.275-9.688-31.487-22.066-37.018-44.133-8.935-33.907 3.404-68.352 31.487-86.651 17.02-11.302 68.08-15.07 97.439-6.997 36.167 9.15 50.634 26.91 53.187 66.199 1.702 29.063 1.276 31.216-12.765 48.977-8.085 10.226-22.126 20.99-31.062 24.219-23.402 8.073-81.696 6.997-101.27-1.614zm107.65-32.292c5.532-3.229 13.19-12.379 17.02-20.452 5.532-13.455 5.532-16.684 0-29.601-8.935-19.914-28.934-27.986-71.058-27.986-42.55-.538-66.803 9.688-72.76 30.677-4.255 16.146-.851 32.83 9.361 43.594 14.893 15.608 92.759 18.299 117.44 3.767zM4685.5 6697.5v-13.455h191.47v26.91H4685.5zm3272-21l-70.207-22.604-2.553-48.976 67.229-19.914 74.888-23.143c5.957-1.615 7.234 1.076 7.234 15.608 0 17.223-1.277 18.837-19.573 24.757-18.296 6.458-19.573 7.535-16.594 21.528l3.404 19.913c.425 2.691 7.659 8.073 15.743 11.302 13.191 4.844 14.893 8.073 16.169 25.296.851 11.302 0 19.375-2.127 19.375l-73.611-23.143zm12.765-49.515c0-10.764-1.702-13.455-6.808-10.764-3.83 1.615-14.467 4.844-23.402 6.458-19.147 4.306-18.722 6.997 1.276 12.917 25.104 7.535 28.934 6.458 28.934-8.611zM4719.9 6640.4c-25.956-6.997-32.338-20.452-33.614-74.81l-1.702-48.438 14.467-.538c41.699-2.153 82.972-2.153 128.07 0 48.932 2.153 49.783 2.153 49.783 15.07 0 12.379-.425 12.379-45.103 12.379h-45.103l2.979 25.834c4.255 36.06 8.935 40.366 51.06 43.056 35.742 2.153 36.167 2.691 36.167 16.684v13.993l-37.018-2.691c-37.018-2.691-56.591-10.764-56.591-22.604 0-3.229-4.68-.538-10.212 5.92-12.34 15.07-34.04 21.528-53.187 16.146zm42.124-37.136c5.957-7.535 8.51-17.761 8.51-34.983v-24.219h-68.08v24.219c0 31.754 10.637 45.748 34.04 45.748 11.488 0 19.998-3.767 25.53-10.764zM6233.4 6587.7l-1.276-20.99 18.722-3.229c10.212-1.614 45.954-3.229 79.568-3.229 55.74 0 62.123-1.076 69.782-10.764 10.637-13.455 10.637-22.066.425-38.213-8.084-12.378-10.212-12.917-87.227-14.531l-79.143-2.153v-40.904l32.763-4.306c42.55-4.844 133.61 0 145.52 8.611 25.104 16.684 34.891 81.269 17.445 116.79-14.892 31.216-24.679 33.907-114.03 33.907h-80.845zm1019.9-8.1c-19.573-11.302-28.508-27.448-30.636-55.435-2.553-35.521 8.085-54.897 43.401-79.654 39.571-27.987 50.634-60.279 31.487-90.957-16.594-26.372-50.209-14.531-57.442 20.99-2.127 9.688-5.531 13.455-13.19 13.455-10.212 0-10.637-1.615-8.51-19.914 1.702-11.841 8.084-26.372 15.744-36.598 11.063-13.993 16.169-16.146 35.742-16.146 39.997 0 59.57 24.219 59.144 74.81-.425 33.369-9.361 48.438-45.528 76.425-33.189 25.296-36.593 30.139-36.593 56.511 0 36.06 29.359 50.591 46.379 23.143 5.106-8.073 8.936-17.761 8.936-22.066 0-5.382 3.829-6.997 11.914-5.92 9.361 1.076 11.063 3.767 10.212 15.07-2.127 20.99-12.765 37.674-28.508 46.286-17.871 9.149-25.955 9.149-42.55 0zm497 1.6c-20.849-7.535-31.062-27.987-31.062-61.893 0-33.369 11.914-54.897 39.997-73.196 29.785-18.837 40.848-35.521 40.848-61.893 0-52.206-45.954-62.97-62.123-14.532-4.681 13.993-8.51 18.299-17.02 18.299-10.212 0-10.637-1.615-8.084-17.222 4.255-25.834 13.616-41.98 29.785-50.591 41.273-21.528 82.972 11.302 82.972 65.123 0 33.907-11.914 55.435-45.103 80.73-39.571 30.139-50.634 59.202-31.487 83.422 15.318 19.375 38.72 11.302 45.954-16.146 3.404-12.379 7.233-16.146 15.318-16.146 7.233 0 11.063 3.229 11.063 8.611 0 13.455-11.914 41.98-20.849 48.977-11.914 9.15-34.891 12.379-50.209 6.458z"/><path d="M5979 6522.6v-59.202h178.71v13.455c0 12.917-.425 12.917-41.273 14.532l-41.699 1.614-1.276 41.98c-1.277 37.136-2.127 41.442-9.361 41.442-7.659 0-8.51-3.767-8.51-43.056v-43.594l-57.442 3.229-1.276 44.671c-1.277 39.827-2.127 44.133-9.361 44.133-8.084 0-8.51-3.767-8.51-59.202zm978.6-72.7v-131.86h10.638c10.638 0 10.638.538 10.638 42.518 0 23.143 1.277 50.053 2.553 59.202 2.553 15.608 3.829 16.684 22.977 16.684 26.381 0 31.487-8.073 33.189-55.973 1.702-55.973 3.404-62.432 15.743-62.432 10.212 0 10.638 1.076 10.638 39.827 0 51.129-2.979 69.428-14.041 84.498-6.382 8.611-7.234 12.917-3.83 14.532 9.361 3.767 17.871 32.292 17.871 58.664 0 48.438-19.573 66.199-72.335 66.199h-34.04zm73.186 95.8c10.212-15.07 12.765-37.674 5.957-57.588-4.681-14.532-9.361-19.375-20.85-22.066-8.084-2.153-19.148-2.691-24.679-1.615-9.786 1.615-10.212 3.767-11.488 46.286l-1.277 44.133h22.977c16.594 0 24.679-2.691 29.359-9.15zm67.214-95.8v-131.86h97.865v13.455c0 13.455-.426 13.455-36.167 13.455h-36.167v96.338l33.189 1.615c30.21 1.615 32.763 2.691 34.04 13.993s0 11.84-27.657 11.84c-15.744 0-31.062 2.153-34.04 4.306-2.553 2.153-5.532 20.99-6.382 43.056l-1.276 38.751h34.465c18.722 0 35.316 1.614 36.593 3.229s1.702 7.535.425 13.455c-2.127 9.15-6.382 10.226-48.507 10.226h-46.379zm259.6 26.9c0-111.41 2.553-129.71 20.849-150.16 11.488-12.917 49.358-17.222 64.25-7.535 5.532 3.767 14.892 15.608 19.998 25.296 9.361 17.761 9.786 22.604 9.786 127.55v109.79h-21.275v-95.262c0-101.18-3.829-132.4-17.02-141.55-13.616-9.15-29.785-5.92-40.422 8.073-10.637 12.917-10.637 13.455-10.637 121.1v107.64h-25.53zm153.2-26.9v-132.4l48.081 1.615c45.954 1.614 47.656 2.153 48.932 13.993 1.276 11.302.426 11.84-34.891 11.84h-36.593v236.81h-25.53zm76.5 118.4c0-12.917 1.276-13.455 23.402-13.455h23.402v-236.81h21.275v74.272c0 40.365 1.277 93.647 2.979 118.4l2.553 44.133h20.424c19.573 0 20.849 1.076 20.849 13.455v13.455h-114.88zm297.9-53.8c0-61.355 0-61.894 10.212-61.894 8.51 0 10.212 3.229 12.765 20.99 1.277 11.84 4.681 20.99 7.659 20.452l62.122.538 56.166 1.076v37.674h-127.65v21.528c0 19.375-.851 21.528-10.637 21.528h-10.638zm225.5-102.8v-104.95l20.424 1.614 19.998 1.615 1.276 22.066c.851 14.531 4.681 26.372 10.637 33.907 9.361 10.764 14.893 11.302 107.23 12.378l97.864 1.615 2.553 61.894h-99.141c-54.464 0-103.4 1.615-108.08 3.229-7.659 2.691-9.786 8.611-12.34 37.674l-2.979 34.445h-37.444zm-3251.6 29.1l-1.277-44.671-69.356-3.229-2.979 40.903c-2.553 34.983-3.829 40.365-11.063 40.365s-8.085-4.305-8.085-40.365V6392.9l-61.697 3.229-1.277 41.98c-1.276 37.136-2.127 41.442-9.361 41.442-8.084 0-8.51-3.767-8.51-56.511v-56.511h191.9l-1.276 57.588c-1.276 49.515-2.127 58.126-8.51 59.741s-7.659-4.306-8.51-43.056zm3119.7 2.7c-11.914-5.92-26.381-25.834-36.593-51.129-8.085-19.914-12.765-25.834-20.424-25.834-19.998 0-25.53 29.601-6.808 36.06 6.382 2.153 8.51 7.535 8.51 20.99 0 10.226-1.702 18.299-3.83 18.299-11.488 0-26.381-12.379-32.338-26.372-14.467-35.521-1.702-78.039 25.955-84.498 23.402-5.382 36.593 2.691 48.507 30.678 16.169 37.674 20.85 43.056 35.742 41.442 11.489-1.615 13.19-3.767 13.19-17.761 0-11.84-2.553-17.761-9.361-21.528-7.234-3.767-9.787-9.688-9.787-23.143 0-16.146.851-17.223 11.914-13.993 16.169 4.844 29.359 21.528 32.338 40.903 3.404 23.143-4.255 56.512-15.744 66.199-11.488 9.15-32.338 14.531-41.273 9.688zM6270 6420.3c-6.808-2.691-17.445-11.302-23.402-19.375-8.935-12.379-10.638-19.914-12.34-69.428l-2.127-55.973 12.339-2.691c6.808-1.614 51.911-3.229 100.84-3.229h88.929v47.9l-39.146 1.615-39.571 1.614-2.127 27.448c-2.553 29.063-11.488 51.129-26.806 63.508-12.339 10.764-40.422 14.531-56.591 8.611zm46.805-60.279c3.83-6.458 6.808-18.837 6.808-26.91 0-15.07 0-15.07-29.785-15.07h-29.785v18.837c0 10.226 2.127 18.837 4.68 18.837 2.127 0 2.979 2.153 1.702 5.382-1.276 2.691 0 3.767 3.404 2.153s7.659-.538 9.361 2.691c5.106 10.764 26.806 6.458 33.614-5.92zM4957.8 6304.6v-115.71h14.467c16.594 0 19.573 5.92 19.573 41.98 0 19.914 2.127 26.91 8.935 32.292 5.106 3.767 9.787 5.92 10.637 4.844 1.276-1.076 7.659-18.837 14.467-39.289l12.339-37.136 19.148-1.614 19.573-1.615-11.063 31.216-23.828 70.505-12.34 39.827 10.212 19.375c15.743 29.063 32.763 65.123 32.763 68.352 0 1.614-7.659 2.691-17.02 2.691-16.594 0-17.871-1.614-33.614-33.369-30.636-61.893-28.934-61.355-32.338-10.764l-3.404 44.133h-28.508zm130.6 112c-1.702-1.614-2.979-53.82-2.979-115.71v-111.95h97.865v37.674h-65.101l2.553 22.604c2.978 29.601 14.892 41.98 39.997 41.98 18.722 0 18.722 0 17.445 17.761l-1.276 17.222-29.359 1.615-28.934 1.615 2.978 17.222c1.702 9.688 2.978 19.914 3.404 23.681 0 4.306 11.488 8.073 29.359 10.226 27.657 3.229 29.359 4.306 27.232 15.07-1.276 5.92-2.553 14.532-2.553 18.299 0 4.844-11.488 6.458-43.826 6.458-24.254 0-45.528-1.614-46.805-3.767zm107.6-2.7c0-3.767 8.935-33.369 19.998-66.199 17.871-52.206 20.424-65.123 22.552-107.64l2.127-48.438h34.04l2.553 45.747c2.553 42.518 5.957 58.126 28.508 131.86 16.169 51.668 16.169 51.129-.426 51.129-17.871 0-20.849-4.306-32.338-48.438-5.106-19.375-10.637-37.674-12.34-41.442-2.127-4.306-8.084 9.15-15.318 34.983-6.808 22.605-14.042 44.671-16.169 48.438-5.532 8.611-33.189 8.611-33.189 0zm127.7-8.1c0-8.611 7.233-59.74 16.169-114.64l15.743-99.568 17.871-1.614 17.445-1.615 4.255 25.834c2.553 13.993 6.808 43.594 9.787 65.123 2.553 22.605 6.382 37.674 8.51 34.983s8.085-31.216 13.616-63.508l9.786-59.202 34.891-3.229 4.68 25.834c4.681 27.448 23.402 151.77 28.083 186.22l2.553 20.452-32.338-3.229-9.361-69.428c-5.106-37.674-10.212-69.966-11.063-71.043-.851-1.615-5.957 25.834-11.063 60.279-11.063 73.734-14.041 82.883-28.508 82.883-13.19 0-15.744-7.535-27.658-82.883-11.063-67.276-12.339-66.199-22.551 17.222-3.829 30.678-7.659 58.126-8.935 60.817-1.702 2.691-9.361 4.844-17.446 4.844-13.19 0-14.467-1.614-14.467-14.532zm220.4-1.1c-19.998-22.066-26.381-51.129-23.828-114.64 2.127-57.05 9.361-79.654 30.21-95.8 26.806-20.99 62.974-8.073 77.866 27.986 10.637 25.834 13.19 102.26 4.681 139.39-9.361 39.827-22.126 54.359-51.06 57.588-20.85 2.153-24.254.538-37.87-14.531zm50.634-36.598c5.957-11.302 7.659-25.834 7.659-66.199 0-55.973-7.234-80.73-23.402-80.73-16.594 0-23.402 24.757-23.402 83.421 0 33.369 2.127 58.126 5.532 66.199 7.659 16.684 24.253 15.608 33.614-2.691z"/><path d="M5664.1 6304.6v-115.71h34.04v34.983c0 37.136 7.659 56.512 22.126 56.512 10.637 0 13.616-9.688 16.169-51.129l2.127-37.674 16.169-1.614 15.744-1.615v39.289c0 27.987-2.128 45.209-8.085 59.202-7.659 19.375-7.659 20.452 0 29.063 5.957 6.997 8.085 16.684 8.085 37.674 0 49.515-19.998 65.661-81.696 66.737H5664.1zm64.25 72.658c5.532-3.767 8.085-11.302 8.085-23.143 0-22.605-6.382-30.678-24.254-30.678-13.19 0-14.041 1.077-14.041 18.299 0 10.226 2.978 20.99 6.808 25.296 5.957 6.458 5.957 7.535-1.277 10.764-5.957 3.229-5.106 4.306 4.255 4.306 6.808.538 15.743-2.153 20.424-4.844zM5796 6304.6v-115.71h33.189c56.591 0 76.164 23.681 80.419 98.491 2.978 46.286-5.957 92.033-20.85 109.79-11.488 13.994-39.146 22.605-70.207 23.143H5796zm69.356 61.355c11.063-17.761 11.488-96.877.425-124.32-5.106-11.84-8.935-15.07-20.849-15.07h-14.892v63.508c0 47.362 1.702 66.199 6.382 74.81 5.106 9.149 5.106 12.379 1.276 13.993-2.978 1.077.426 1.615 7.233.538 7.234-1.077 16.169-7.535 20.424-13.455zM5979 6401.5v-13.455l69.782-1.077 69.782-1.614L5979 6305.7v-36.06h178.71v26.91l-73.186 1.076-73.186 1.615 99.567 52.206c22.126 11.302 42.124 23.143 44.677 25.834 2.979 2.691 4.255 12.379 2.979 21.528l-1.702 16.146h-177.86zm-1266.7-75.4c-19.573-10.764-26.806-32.292-26.806-80.73v-40.365l16.169-.538c8.51 0 31.912-1.076 51.911-1.615 19.998-1.077 55.74 0 79.994 1.077 42.124 2.691 43.401 3.229 43.401 15.07 0 12.917-.851 12.917-39.997 12.917h-39.571l-2.553 30.14c-2.978 36.06-11.489 54.358-30.636 64.584-18.296 9.149-34.466 9.149-51.911-.538zm39.571-24.219c12.34 0 22.977-20.99 22.977-45.747v-24.219h-72.334v17.761c0 29.601 4.68 42.518 18.722 50.053 7.234 3.767 15.744 5.92 18.722 4.844 3.404-1.615 8.51-2.691 11.914-2.691zM8122.6 6276.6c-11.063-2.153-11.914-4.306-11.914-29.063v-26.372l73.611-.538h77.441c15.318 2.691-20.85-19.375-80.845-48.438l-70.207-34.445v-72.658h259.98l-2.553 56.512-74.462 1.615-74.462 1.076 17.02 13.455c9.361 6.997 23.828 15.608 31.912 18.837 23.828 9.688 59.995 26.91 82.121 39.289l19.998 10.764v68.352h-99.566c-54.463 0-107.65 1.076-117.86 2.153s-23.828 1.076-30.211-.538zm-1828.8-42.5c-24.253-5.92-37.444-13.993-49.358-29.601-11.063-14.531-12.339-19.914-12.339-51.129 0-33.907.851-36.06 15.744-53.282 19.998-23.143 42.975-31.216 88.503-31.216 44.252 0 68.505 8.073 85.951 27.987 11.488 12.917 13.616 19.375 14.892 46.824 3.404 61.355-24.679 88.804-94.461 91.494-20.849.538-42.975 0-48.932-1.076zm98.716-57.05c11.914-7.535 17.02-24.219 11.914-36.598-5.957-14.532-29.785-21.528-73.611-21.528-48.081 0-66.803 8.611-66.803 31.754 0 10.764 2.127 16.146 5.532 15.608 2.553-1.076 4.68 1.076 4.255 4.306s1.276 5.92 4.255 6.458 14.892 3.229 26.381 5.92c23.402 5.382 76.59 1.615 88.078-5.92zm162.984 47.35c-46.805-22.066-59.144-102.26-22.977-147.47 7.659-9.149 26.381-25.296 42.55-36.06 32.338-21.528 42.124-34.983 42.124-59.202 0-25.834-10.638-40.365-29.359-40.365-17.445 0-26.806 9.15-34.04 33.907-4.255 12.917-6.382 14.531-25.955 14.531h-21.275v-18.299c0-19.914 13.19-47.9 31.062-64.584 9.361-8.611 19.573-11.84 44.677-12.917 54.038-2.691 79.994 20.452 84.674 76.425 4.681 51.668-12.765 85.036-61.697 118.94-35.316 24.757-43.401 33.369-43.401 48.438 0 14.531 22.126 41.98 32.763 39.289 4.255-.538 11.063-10.764 15.318-21.528 7.659-19.376 8.935-20.452 28.934-20.452 20.849 0 20.849 0 20.849 18.299 0 21.528-14.467 50.591-32.763 63.508-18.297 13.993-50.634 17.223-71.484 7.535zm745.9-1.1c-22.551-8.611-35.316-25.834-42.124-57.05-10.638-50.591 8.084-89.88 57.868-122.71 34.04-22.066 44.677-37.674 44.677-64.584 0-24.757-10.212-37.674-31.061-37.674-16.594 0-32.763 18.837-32.763 38.212 0 8.611-3.404 10.226-23.828 10.226h-24.253l2.553-21.528c2.978-27.448 19.147-54.897 39.571-67.276 12.34-6.997 22.977-8.611 48.932-6.997 49.783 3.767 66.803 22.605 70.633 78.578 4.255 58.126-13.19 87.727-74.037 127.02-20.424 12.917-31.062 26.372-31.062 40.365 0 9.688 22.126 38.212 29.359 38.212 8.935 0 20.424-14.531 22.552-29.601 1.276-9.15 4.68-10.764 24.679-10.764h23.402l-1.702 16.146c-2.978 34.983-22.126 62.97-49.358 72.119-21.275 7.535-29.359 6.997-54.038-2.691zm450.6 1.1c-31.487-14.532-45.954-42.518-54.464-103.34-6.808-50.053-2.553-139.93 8.084-170.61 15.743-44.671 42.124-61.355 88.504-56.512 37.444 3.767 53.187 24.219 59.144 75.887l2.979 25.296h-23.828c-18.722 0-23.828-1.614-23.828-8.073 0-16.146-12.765-40.365-22.977-43.595-28.508-8.611-42.975 36.598-39.997 123.79 2.127 60.279 8.084 81.269 28.934 100.11l12.765 11.302 10.637-13.455c5.957-7.535 10.638-18.299 10.638-24.757 0-9.688 2.553-10.764 23.828-10.764h24.253l-2.553 21.528c-2.979 29.063-17.02 56.512-34.466 66.737-21.275 12.917-48.932 15.07-67.654 6.458zm186.4 3.8c-36.167-11.84-53.613-39.289-54.038-83.96-.426-45.747 14.041-71.581 54.464-96.877 37.444-23.681 48.507-38.751 48.507-65.122 0-27.448-9.361-40.904-28.934-40.904-15.318 0-28.934 14.532-33.189 34.983-2.553 12.379-4.681 13.455-25.53 13.455-21.275 0-22.977-1.076-22.977-12.379 0-6.458 4.255-23.142 9.786-36.06 13.19-34.445 34.891-48.438 72.76-48.438 39.997 0 62.974 13.993 72.335 43.594 13.616 42.518 5.532 97.953-17.445 124.86-4.681 4.844-23.828 19.375-42.124 32.292-29.785 19.914-33.615 24.757-34.891 39.289-1.702 22.605 13.19 46.286 28.508 44.133 8.51-1.076 12.339-5.92 15.743-20.452 4.68-18.299 5.531-18.837 27.657-18.837h22.977l-1.277 18.299c-1.702 25.834-15.318 51.668-32.338 61.893-16.169 9.688-46.805 15.07-59.995 10.226zm-1258.6-5.4c-1.702-1.615-2.978-13.994-2.978-26.91v-23.143h23.402c12.765 0 24.679.538 26.381 1.615 6.808 2.691 8.935-34.445 9.361-153.39l.425-122.71h46.805v118.4c0 78.039 1.702 122.71 5.106 131.32 4.681 13.455 24.253 24.757 42.975 24.757 5.957 0 7.234 4.844 7.234 26.91v26.91h-77.866c-42.975 0-79.568-1.615-80.845-3.767zm201.2 1.1c0-1.615-13.19-74.81-29.785-162.54l-29.785-161.46c0-1.076 10.637-1.614 24.253-.538l23.828 1.615 7.659 29.601 8.085 30.678c.425 5.382 28.083 17.761 39.997 17.761 16.169 0 18.296-4.844 26.381-60.279l2.553-20.452h25.104c14.042 0 25.104 2.153 25.104 4.844 0 8.611-54.889 293.86-59.144 308.93-4.255 13.993-5.957 14.532-34.466 14.532-16.169 0-29.785-1.077-29.785-2.691zm44.252-143.16c3.829-20.99 6.808-40.365 6.808-43.056s-8.51-4.844-19.148-4.844-19.147 1.615-19.147 4.306c.851 22.605 16.169 81.807 21.275 81.807 1.702 0 6.382-17.223 10.212-38.212zm62.148 118.96v-26.372l26.806-1.615 26.381-1.615 1.277-135.63.851-136.17h22.977c17.02 0 23.402 2.153 25.53 8.611 1.276 4.844 2.553 59.741 2.553 122.71 0 83.96 1.276 116.79 5.531 123.79 2.979 4.844 14.893 12.379 26.381 16.146 15.318 4.844 21.275 9.15 20.849 15.608 0 4.844-.426 16.684-.851 25.296l-.851 16.146h-157.43zm185.9 23.1c-1.702-1.615-2.978-75.887-2.978-164.15v-160.38h51.06v147.47c0 80.73-1.276 155-2.553 164.15-2.553 15.608-3.829 16.684-22.977 16.684-10.638 0-21.275-1.615-22.552-3.767zm252.4-23.1v-26.91h21.275c11.914 0 22.552 0 23.828.538 8.084 1.076 10.212-25.834 10.212-144.24v-130.78h46.379l1.276 123.25c1.277 140.47 2.127 142.62 35.742 149.08l18.722 3.229v52.744h-157.43zm182.9-137.3v-164.15h51.06v139.39c0 76.425-1.276 150.16-2.553 164.15l-2.979 24.758H7608.6zM5979 6208.3c0-16.684 12.765-19.375 105.52-19.375h73.186v32.292h-178.71zM4822.9 6148l-47.23-29.601-42.975 27.448c-23.402 14.531-43.826 26.91-45.103 26.91s-2.127-5.382-2.127-12.379c0-9.688 6.382-16.146 34.891-33.907l35.316-22.066-35.316-22.604c-29.785-18.837-34.891-24.219-34.891-35.521 0-7.535 1.277-13.455 2.553-13.455 1.702 0 20.849 10.764 43.401 24.219 22.126 13.455 43.401 24.219 47.23 24.219s26.806-12.379 51.06-26.91c24.254-15.07 44.677-26.91 45.528-26.91s1.702 5.92 1.702 13.455c0 11.84-5.106 16.684-39.146 37.674l-39.146 24.219 39.146 22.605c35.742 20.452 39.146 23.681 39.146 37.674 0 8.073-1.276 15.07-2.979 14.532-2.127 0-24.679-13.455-51.06-29.601zm126.4-155.5v-104.95h22.551c48.932 0 68.931 30.678 68.931 107.64 0 36.598-1.702 49.515-8.51 64.585-11.488 24.757-32.338 37.674-60.421 37.674H4949.3zm51.911 77.501c12.34-8.073 20.424-37.674 20.424-73.196 0-61.355-12.765-87.727-41.274-87.727h-14.041v166.84h13.19c7.234 0 16.594-2.691 21.7-5.92zm67.189-77.501v-104.95h37.869c36.167 0 42.975 2.691 42.975 18.837 0 1.076-14.041 2.691-30.636 3.767l-31.062 1.614v37.674c0 26.372 1.702 37.674 5.532 38.212 2.553.538 14.892 1.077 26.381 1.615 18.296.538 21.275 2.153 21.275 11.302 0 9.688-2.978 10.764-27.657 10.764h-27.658v64.584h29.785c26.806 0 29.785 1.076 29.785 10.764 0 10.226-2.978 10.764-38.295 10.764h-38.295zm93.6 98.4c0-3.767 8.935-51.129 19.573-104.95 19.998-96.877 20.424-98.491 31.487-98.491 11.488 0 11.914 1.076 31.487 98.491l19.573 104.95c0 3.767-3.404 6.459-7.659 6.459-6.808 0-10.638-13.455-24.254-79.116-16.594-81.807-22.977-105.49-23.402-85.036 0 5.92-4.681 36.06-10.637 67.275-18.722 96.338-18.722 96.877-27.657 96.877-4.681 0-8.51-3.229-8.51-6.459zm123.4-98.4v-104.95h37.869c36.167 0 42.975 2.691 42.975 18.837 0 1.076-14.041 2.691-30.636 3.767l-31.062 1.614-2.553 71.043 13.616 3.767c7.233 1.614 19.998 3.229 27.658 3.229 11.488 0 14.467 2.153 14.467 10.764 0 5.92-1.276 10.226-2.978 10.226-2.127-.538-14.467-.538-27.657 0l-24.679.538v64.584h29.785c26.806 0 29.785 1.076 29.785 10.764 0 10.226-2.978 10.764-38.295 10.764H5285.4zm102.1 0v-105.49l37.018 1.614c31.487 1.615 37.444 3.229 38.72 11.302s-2.127 9.15-28.508 9.15h-30.21v94.186c0 90.418-.425 94.186-8.51 94.186s-8.51-3.767-8.51-104.95zm105.1 94.1c-14.893-15.07-20.849-41.442-20.849-94.186 0-73.734 14.041-104.95 47.23-104.95 18.722 0 31.912 10.764 41.699 33.907 10.637 24.758 10.637 117.33 0 144.24-12.765 32.292-46.379 42.518-68.08 20.99zm42.55-18.299c11.914-12.917 11.914-13.993 11.914-74.81 0-53.82-1.276-63.508-8.084-73.196-11.914-16.684-32.763-13.455-39.997 5.92-14.467 38.751-11.063 121.1 5.532 142.09 12.765 16.146 15.743 16.146 30.636 0zM5596 5993v-106.03l9.786 1.614c8.51 1.615 9.361 4.844 10.637 46.286l1.277 44.133h17.02c34.891 0 54.889 30.139 48.932 72.119-4.681 30.678-19.147 41.98-55.74 45.209l-31.912 2.691zm58.719 74.272c6.808-5.92 9.361-13.455 9.361-29.063 0-26.372-8.936-37.674-30.21-37.674h-16.594v29.063c0 16.146-1.276 32.83-2.553 37.674-2.127 6.997.426 8.611 14.041 8.611 8.935 0 20.85-3.767 25.956-8.611zM5706.6 5993c0-101.18.426-105.49 8.51-105.49 7.659 0 8.51 4.306 9.361 83.96l1.276 84.498 14.892-82.884c13.19-73.734 15.743-82.883 24.253-84.498 10.637-2.153 9.786-5.382 26.806 93.109l14.892 77.501c1.276 1.077 2.127-36.598 2.127-84.498 0-83.421.426-87.189 8.51-87.189s8.51 3.767 8.51 105.49v104.95l-13.616-1.615-14.041-1.615-13.19-64.584-16.594-80.73c-2.553-13.993-4.68-7.535-13.616 44.671-15.743 93.647-17.871 100.11-34.04 102.26l-14.041 1.615zm153.2-.5v-104.95h37.869c34.04 0 37.869 1.076 39.997 10.764 2.127 10.226 0 10.764-29.359 10.764h-31.912l1.277 39.289c.851 29.601 2.553 38.751 7.659 39.289 3.404.538 15.318 1.077 26.806 1.077 17.02 1.076 19.998 2.691 19.998 11.84 0 9.688-2.979 10.764-27.658 10.764h-27.657v64.584h29.785c26.806 0 29.785 1.076 29.785 10.764 0 10.226-2.979 10.764-38.295 10.764H5859.8zm102.1 5.3v-103.33c0-2.691 3.404-4.306 7.659-4.306 6.382 0 7.659 8.073 9.361 76.425l2.127 76.963 25.956-76.963c22.977-69.428 26.806-76.425 37.018-78.04l11.488-1.614v102.8c0 87.727-.851 102.8-6.382 106.03-3.83 1.615-7.659 2.153-8.51 1.076s-2.127-36.598-2.979-78.578c-.425-41.98-2.553-74.81-4.255-72.657-1.276 2.153-8.935 23.143-16.169 46.824-28.083 89.88-34.465 104.95-45.103 104.95h-10.212zm109.4 95.8c-8.51-10.226-2.128-17.761 16.169-17.761h19.147v-188.91l9.786 1.614c9.361 1.615 9.361 2.691 10.638 94.724l.851 92.571h17.02c14.041 0 17.02 1.615 17.02 10.764 0 10.226-2.979 10.764-43.826 10.764-24.253 0-45.528-1.615-46.804-3.767zm2401.9 415c-15.744-15.07-21.275-43.594-19.573-97.953 2.128-59.202 10.212-75.887 38.72-78.04 22.977-2.153 36.167 9.688 39.997 35.521 2.128 13.455 1.276 17.223-3.83 17.223-3.829 0-9.361-6.459-12.34-14.532-11.488-29.601-28.934-30.139-40.422-1.077-6.382 15.608-7.234 89.88-1.276 109.26 2.128 8.073 8.935 16.684 14.892 20.452 8.936 4.844 11.914 4.306 19.147-3.767 4.681-5.382 8.51-13.993 8.51-19.914s2.979-9.688 8.51-9.688c12.34 0 11.063 24.219-2.127 40.365-12.765 16.684-34.891 17.761-50.209 2.153zm102.2 5.4c-18.722-13.994-28.934-77.501-20.424-128.63 6.808-38.751 17.871-53.82 40.848-53.82 30.21 0 44.677 30.139 44.677 94.186 0 43.056-6.382 69.966-19.998 83.422-11.488 11.302-32.763 13.993-45.103 4.844zm31.062-15.608c21.275-14.531 22.551-123.79 2.128-145.31-10.212-10.764-25.956-2.153-32.338 17.223-7.233 22.604-7.233 94.185.426 111.95 8.935 21.528 16.169 25.296 29.785 16.146zM8666 6425.7c0-87.727.426-94.724 7.659-93.109 5.957 1.614 7.234 8.611 8.51 43.594 1.277 40.365 1.702 41.442 11.914 41.442 21.275 0 25.955-7.535 28.934-48.438 2.553-33.369 4.255-37.674 11.914-37.674 8.51 0 8.936 2.153 6.382 38.212-1.276 22.066-5.105 41.98-8.935 47.362-5.531 7.535-5.106 10.226 2.127 21.528 11.063 17.222 10.212 45.209-2.127 62.97-8.51 12.917-13.616 15.07-38.295 17.222l-28.083 2.153zm55.315 62.432c10.637-25.834-2.553-54.359-25.53-54.359h-12.765v64.584h17.02c12.34 0 17.871-2.691 21.275-10.226z"/><path d="M8766 6513.4c-1.277-4.306-1.702-46.286-1.277-93.109l1.277-86.113 35.316-1.614c32.763-1.615 34.891-1.077 34.891 9.688 0 9.688-2.553 10.764-27.657 10.764h-28.083l1.277 33.907c.851 21.528 2.978 33.369 6.808 33.907 2.553.538 13.616 1.076 24.253 1.615 13.616.538 19.147 2.691 19.147 8.611 0 5.382-6.382 8.073-24.253 9.15l-24.679 1.615-2.553 55.973 26.807 1.615c20.424 1.076 26.806 3.767 26.806 9.688 0 11.302-65.101 15.07-68.08 4.306zm-2495.1-472.5c-30.21-13.455-34.04-22.605-36.593-86.651-1.276-31.216-1.276-58.126-.425-59.202s46.379-2.153 101.27-2.153h99.141v48.438h-80.845v25.834c0 57.588-39.571 93.109-82.547 73.734zm45.954-57.588c3.83-6.458 6.808-18.837 6.808-26.91 0-15.07 0-15.07-29.785-15.07h-29.785v18.837c0 12.379 2.127 18.837 5.957 18.837 2.979 0 8.085 3.767 11.063 8.073 8.085 12.378 28.083 10.226 35.742-3.767zM8327.7 5968.2v-59.202h-71.909l-2.553 104.95-19.998 1.615-20.424 1.614v-108.18h-59.57v31.754c0 17.222-1.276 42.518-2.553 56.511l-2.979 24.757h-37.018v-177.61h259.55v88.265c0 86.651 0 88.265-9.361 91.495-5.532 1.614-14.892 3.229-21.275 3.229h-11.914zm-3468.6-6.4l-1.277-44.671-69.356-3.229-2.979 43.595c-2.553 37.136-4.255 43.056-11.063 43.056-7.234 0-8.085-4.306-8.085-43.056V5913.9l-61.697 3.229-1.277 41.98c-1.276 37.136-2.127 41.442-9.361 41.442-8.084 0-8.51-3.767-8.51-56.511v-56.511h191.47v59.202c0 55.435-.425 59.202-8.51 59.202-7.233 0-8.084-4.306-9.361-44.133zm574.8-162.6c-43.401-14.531-72.76-46.824-92.759-100.11-9.787-25.834-11.063-36.598-11.063-86.113s1.276-60.279 11.063-86.113c19.148-51.129 48.081-81.268 125.52-131.32 71.484-45.747 91.057-75.348 91.057-135.09 0-57.588-22.977-88.804-65.952-88.804-38.295 0-61.697 25.834-72.76 80.73l-4.681 24.219-102.545 3.229 2.127-23.143c3.404-38.212 18.297-89.342 32.763-113.56 31.487-52.744 77.866-76.425 147.22-75.887 115.74 1.077 172.33 69.428 171.05 206.67-.851 109.79-31.912 160.92-145.09 234.12-68.93 45.209-82.121 61.355-84.674 103.34-1.276 25.834 0 34.445 8.51 49.515 15.318 29.063 31.062 40.904 53.187 40.904 16.594 0 20.85-2.691 33.189-19.914 10.637-14.531 15.318-26.91 17.445-46.285 2.553-25.834 3.404-26.91 18.296-30.14 8.51-1.614 31.487-3.229 51.06-3.229h35.316l-1.702 33.907c-3.83 75.348-42.124 138.86-95.737 159.85-31.912 12.379-89.355 13.993-120.84 3.229zm1708-2.1c-62.548-28.525-97.014-86.112-117.44-197.52-7.659-41.442-8.935-65.661-8.51-169.53 0-89.342 1.702-131.86 6.382-161.46 23.828-143.16 76.164-201.83 177.86-201.29 90.206 0 140.41 46.824 159.56 148.54 3.404 18.837 6.383 43.056 6.383 54.358v19.914h-100.84l-2.978-22.604c-7.234-57.588-30.636-90.418-64.25-90.418-35.742 0-55.315 31.216-68.08 106.56-7.659 46.824-8.935 231.43-1.702 285.79 9.361 74.81 40.422 124.32 78.292 124.32 30.21 0 46.805-22.605 55.315-75.348l5.106-29.601 99.142-3.229v20.99c0 53.82-26.381 127.55-56.166 157.69-28.934 29.601-52.336 38.751-101.27 40.903-35.742 1.615-49.358 0-66.803-8.073zM3660 5608.2v-187.29l13.19-3.767c7.233-1.614 19.998-3.229 27.657-3.229h14.467v68.89c0 66.199.426 69.428 10.212 81.269 8.51 10.226 13.616 11.841 25.104 9.15 22.977-5.382 25.53-13.993 28.934-84.498 1.702-35.522 3.83-66.199 5.532-67.814 4.255-5.382 48.081-8.611 50.209-3.767 1.276 2.691.851 34.983-.851 72.119-2.128 48.438-5.106 73.196-11.063 87.727-7.659 20.99-7.659 20.99 2.128 43.056 21.7 47.9 14.893 123.79-13.616 151.24-20.424 19.375-42.124 24.757-99.567 24.757H3660zm112.76 115.18c8.084-9.688 10.637-18.837 10.637-37.674 0-36.06-13.19-51.129-44.677-51.129h-23.402v38.751c0 32.292 1.702 40.904 9.361 51.129 12.765 17.222 34.465 16.684 48.081-1.076zM3877 5608.2v-187.29l13.19-3.767c7.233-1.614 42.124-3.229 77.015-3.229 46.805 0 63.825 1.615 64.676 6.997 1.277 3.229 2.979 16.684 3.829 29.601l2.128 22.605h-36.593c-20.424 0-44.252 1.615-52.762 3.229l-16.169 3.767v31.754c0 33.369 7.659 59.74 19.148 65.661 3.829 1.614 22.126 3.229 40.422 3.229 37.444 0 37.869.538 34.891 39.289l-1.702 25.296h-92.759v24.219c0 27.448 8.51 53.282 19.148 58.664 3.829 1.614 22.977 3.229 42.55 3.229s36.593 2.153 37.869 4.844c1.277 2.153 1.277 16.684-.425 32.292l-2.553 27.448h-151.9zm178.7 181.3c0-3.767 15.743-88.804 34.891-188.37 39.146-202.9 32.763-187.29 76.59-187.29 23.402 0 24.253.538 28.508 17.761 8.936 34.983 63.399 319.15 65.527 341.76l2.127 22.604h-27.232c-24.679 0-27.232-1.076-29.359-11.84l-21.275-125.4c-17.871-106.03-26.381-150.16-27.232-141.55-2.553 25.834-37.444 230.89-43.826 258.88l-4.681 19.914h-27.232c-18.722 0-26.806-2.153-26.806-6.458zm234-180.8v-188.37l9.787-3.229c5.106-1.614 17.445-3.229 27.657-3.229h17.871l-.851 189.99-1.276 189.45-26.381 1.615-26.807 1.614zm106.4-.5v-188.37l18.296-3.23c9.787-1.614 44.677-2.691 77.441-1.614l59.57 1.614 2.127 28.525 2.553 27.987h-36.593c-19.998 0-43.401 1.615-51.911 3.229l-16.169 3.767v37.136c0 32.292 1.276 38.751 10.637 50.053 9.361 12.379 13.616 13.455 46.805 13.455h36.167v64.584h-93.61v29.601c0 24.758 1.702 32.292 10.637 43.056 9.361 12.378 13.616 13.455 48.081 13.455 42.975 0 42.975 0 39.997 39.289l-1.702 25.296h-152.33zm178.7 180.8c0-13.993 54.038-364.36 57.017-368.13 1.276-2.153 13.616-4.844 27.232-5.92l24.679-2.153 4.68 20.452c2.979 11.84 10.212 54.897 16.169 95.8 11.488 75.887 20.424 110.87 25.104 94.724 1.277-4.306 8.936-51.668 17.446-104.41 8.084-53.282 15.743-97.953 17.02-99.568 1.276-1.077 13.616-3.767 27.658-4.844l25.104-2.153 4.255 20.452 11.063 64.046 23.402 145.31c8.935 56.511 17.02 113.56 18.296 128.09l2.127 25.296h-52.762l-12.34-100.64c-6.382-55.973-14.041-113.02-17.02-128.09l-4.681-26.91-3.404 26.91c-5.106 42.518-27.232 182.99-32.338 207.21l-4.681 21.528h-22.977c-12.765 0-23.402-1.076-23.402-1.614 0-1.077-8.935-57.588-19.573-125.4-17.446-111.41-22.977-140.47-22.977-121.1 0 13.455-21.7 198.06-25.956 222.82l-4.68 25.296h-27.232c-19.148 0-27.232-2.153-27.232-6.997zm1182.9-350.9v-357.91h146.37c145.95 0 146.8 0 149.35 11.302 3.829 15.07 9.361 95.8 6.808 99.029-.851 1.614-46.379 2.691-101.27 2.691h-99.141v182.45l11.063 10.764c10.638 10.764 17.02 11.302 91.908 11.302h80.419l-2.553 110.332-178.71 5.382-1.276 72.119c-1.702 102.8-7.234 97.415 104.25 97.415h86.376v113.02h-293.59zm495.7 351.4c-.851-3.767-12.34-66.199-25.53-138.86l-61.697-333.69-40.422-219.05-2.979-17.761h51.485c28.083 0 51.911 2.153 53.613 4.844 1.276 2.691 6.808 34.445 12.765 69.966 16.594 102.26 16.594 102.8 90.206 102.8 62.123 0 54.038 11.302 71.484-100.64l11.914-76.963h54.889c50.634 0 54.889.538 52.762 9.688-1.276 4.844-30.21 158.23-63.825 340.14l-65.527 347.14-3.404 16.146-66.803 1.615c-51.485 1.076-67.229 0-68.931-5.382zm94.035-287.94l18.722-124.32c0-5.92-8.935-6.997-42.124-5.382-23.402.538-43.401 3.229-45.103 4.844-2.978 3.767 29.785 214.21 37.018 237.89 2.979 9.688 5.957 13.455 8.51 10.226s12.765-58.126 22.977-123.25zm244.265-63.46v-358.44l104.247 3.229 2.128 141.01c2.553 165.77.426 158.77 44.677 158.23 36.167 0 56.166-11.84 67.654-40.365 7.234-18.299 8.935-36.598 11.488-131.86 1.277-60.817 4.255-115.18 5.957-120.02 2.553-8.611 9.361-9.688 51.485-9.688h48.507l-2.553 103.87c-3.404 150.16-8.935 185.14-37.869 228.74-5.957 8.611-10.637 17.761-10.637 19.914s9.361 16.684 20.849 32.83c26.806 36.598 36.593 82.345 33.614 150.16-4.255 79.116-31.061 132.94-81.696 162.54l-25.956 15.07-231.9 3.229zm202.11 241.65c17.445-10.226 25.955-26.372 31.912-58.126 8.51-48.976-4.68-96.877-32.763-117.33-14.467-11.302-65.527-18.837-83.823-12.917l-11.063 3.229v85.036c0 108.72 0 108.72 47.656 108.72 22.126 0 38.72-2.691 48.081-8.611zm657.39-241.65v-358.44l104.247 3.229 1.277 147.47c.851 128.09 2.127 149.08 8.084 157.69s14.467 9.688 65.527 9.688h59.144l.851-157.16 1.277-157.69 102.97-3.229 2.979 25.296c3.404 32.83 3.404 588.79-.426 646.92l-2.553 44.133h-52.336c-28.934 0-52.336-1.614-52.336-3.767.425-2.691.425-65.661 0-139.93l-.426-136.17h-131.9v115.18c0 62.97-1.276 125.94-2.553 139.93l-2.979 24.757h-100.84zm528.5 352c-14.041-5.382-31.487-32.83-43.401-69.428-5.957-17.761-19.147-24.757-35.742-19.375-21.275 6.458-19.573 48.438 2.127 58.126 9.786 4.306 12.34 8.611 11.489 17.223-1.702 15.608-19.573 12.917-31.912-5.382-11.488-16.146-13.19-53.282-3.404-77.501 8.935-21.528 30.636-30.139 50.209-19.913 11.488 6.458 17.446 15.608 28.508 43.594 17.446 44.133 20.85 47.362 40.848 45.209 30.21-3.229 36.593-48.438 10.212-67.814-16.169-11.841-18.722-36.06-2.978-30.678 18.722 7.535 28.083 19.376 32.763 40.904 7.659 35.522-3.404 75.887-22.552 82.884-18.296 6.997-22.126 6.997-36.167 2.153zm131.9-46.3l1.276-47.362 53.187-13.993 82.972-22.066 29.785-7.535-72.334-17.222-83.824-20.452c-11.914-3.229-11.914-3.229-11.914-47.9v-44.671l26.806-3.767c14.467-1.615 72.335-2.691 128.5-1.615l102.12 1.615 2.553 56.511-60.846.538c-33.614.538-66.377 2.153-73.611 4.306-12.34 3.767-11.914 3.767 8.51 9.688 11.914 3.767 34.891 9.15 51.06 12.379 16.595 3.229 39.997 8.611 52.337 11.302l22.125 5.382v57.588l-30.636 8.073c-17.02 4.844-51.911 13.993-77.015 20.452-29.359 7.535-44.252 13.455-40.422 16.146 2.978 2.691 37.869 4.844 77.015 4.844h71.484l-2.553 61.894-128.93 1.614-128.93 1.077zm-2973.8 30.1c-21.275-7.535-41.273-37.136-60.421-87.727-19.148-51.668-31.061-67.814-48.081-67.814-13.19 0-28.934 16.684-28.934 30.139 0 4.844 8.51 19.914 19.148 33.368 18.296 23.143 19.147 25.296 19.147 56.512v32.292l-17.871-3.229c-45.528-7.535-72.76-73.196-58.719-142.62 10.638-54.897 37.869-79.116 83.823-75.348 35.316 2.691 45.528 12.917 70.207 71.043 22.126 53.282 29.785 65.661 47.23 76.963 21.7 13.993 41.273-3.229 41.273-36.598 0-24.219-12.765-45.209-31.487-51.129-10.638-3.229-11.063-5.382-11.063-37.674 0-18.837 1.702-34.445 3.829-34.445 16.594 0 50.634 12.917 58.293 22.066 20.424 24.219 28.934 92.571 18.296 142.09-12.765 59.202-57.017 89.342-104.67 72.119zm2883.6-169v-40.365h-148.92v-12.917c0-11.302 2.127-12.917 25.955-16.146 14.467-1.614 51.911-3.229 82.972-3.229h57.017v56.511c0 52.744-.426 56.511-8.51 56.511-7.659 0-8.51-3.767-8.51-40.365zm-93.7-110.3c-41.699-6.458-55.315-23.142-55.315-67.813 0-24.219 1.702-30.678 12.765-44.133 29.785-38.212 117.86-36.598 145.09 2.153 17.445 24.757 12.765 73.734-8.51 93.109-17.02 15.608-57.442 22.605-94.035 16.684zm71.909-31.754c15.318-5.382 27.657-29.063 24.253-46.286-4.255-20.452-27.232-31.216-68.505-31.754-38.295 0-55.74 7.535-65.527 30.139-5.957 13.455-5.957 15.608 2.127 29.601 11.063 18.837 20.85 22.066 63.399 22.066 18.722 0 38.72-1.615 44.252-3.767zM4965 5490.8c-1.702-1.614-2.979-17.222-2.979-34.445v-31.216l18.296-3.229c9.787-1.615 72.335-2.691 139.14-1.615l121.27 1.615v69.967l-136.58 1.615c-74.888.538-137.44-.538-139.14-2.691zm3186.1-19.9c-15.743-8.611-29.785-27.987-35.742-47.9-2.553-8.611-4.681-44.133-4.681-79.116v-64.046l22.551-3.229c11.914-1.614 70.207-2.691 128.5-1.614l106.37 1.614 2.553 61.356-104.672 3.229-2.553 38.212c-2.553 47.9-12.765 71.043-37.869 87.189-21.7 13.455-54.464 15.608-74.462 4.306zm63.825-70.505c8.084-9.688 10.637-18.837 10.637-37.674v-24.757l-74.462 3.229-.851 16.146c-1.276 17.223 6.382 31.216 24.254 47.362 14.467 12.917 28.508 11.302 40.422-4.306zM5142.9 5370.3c-24.253-7.535-42.55-32.83-66.378-92.033-21.275-53.282-28.934-63.508-48.081-63.508-12.34 0-28.083 16.684-28.083 29.601 0 4.844 8.51 19.375 19.148 32.83 18.296 23.143 19.147 25.296 19.147 55.973 0 30.14-.851 32.292-9.361 32.292-15.318-.538-43.401-18.837-53.613-34.445-14.041-23.143-20.424-68.352-14.467-104.95 5.532-33.907 14.467-51.668 34.465-68.89 27.232-23.143 68.08-20.452 93.61 6.458 6.808 7.535 21.275 35.521 32.338 62.432 13.616 33.907 23.828 51.668 33.189 59.202 28.083 21.528 49.783 8.073 49.783-31.216 0-24.219-11.063-41.442-30.636-47.362-11.489-3.767-11.914-5.382-11.914-38.751v-35.521l22.551 3.767c40.422 6.459 58.293 34.983 61.697 96.877 2.128 43.056-3.404 74.272-17.02 100.11-17.02 31.216-53.187 46.824-86.376 37.136zm2756.3-58.1c-21.275-12.379-26.806-24.219-26.806-58.126 0-46.286 19.573-65.661 71.909-69.967 55.74-4.844 90.631 16.146 96.163 57.05 4.255 31.754-6.382 57.588-28.508 70.505-25.53 14.531-87.653 14.531-112.76.538zm102.97-24.219c27.232-14.531 30.21-49.515 5.106-66.199-19.573-12.917-86.376-13.455-102.12 0-25.104 20.99-24.254 51.129 2.553 65.661 17.871 10.226 75.739 10.226 94.46.538zM4200.4 5195.9v-110.33h32.763l2.553 34.983c2.553 34.445 9.361 51.129 20.849 51.129 14.892 0 39.571 12.917 48.507 25.296 13.616 18.299 14.041 58.126 1.276 79.116-14.892 23.681-29.785 30.139-69.782 30.139H4200.4zm71.484 66.199c6.382-6.997 6.808-37.674 0-46.285-2.979-3.767-12.34-6.458-20.85-6.458-13.19 0-15.744 1.614-14.467 9.688.851 5.382 2.127 17.761 2.553 27.986.851 10.226 3.404 20.452 5.957 22.605 4.681 4.306 18.296.538 26.806-7.535zm68.916-66.199v-110.33h34.04v25.834c0 28.525 11.488 61.894 21.7 64.585 12.765 3.229 20.85-13.994 20.85-44.671 0-40.904 2.127-45.747 22.126-45.747h17.445l-2.553 43.056c-1.276 24.219-5.106 48.976-8.51 55.435-5.532 10.764-5.532 13.455 1.702 24.758 10.212 15.608 10.638 52.744 1.276 69.966-11.063 19.375-31.487 27.448-71.909 27.448H4340.8zm65.527 72.658c12.765-5.92 17.871-26.372 11.063-42.518-3.404-8.611-8.51-11.302-22.977-11.302-18.296 0-18.722.538-17.02 15.07 1.277 8.073 2.553 19.375 2.979 25.295 1.276 18.299 8.51 22.066 25.955 13.455zM4510.1 5298.2c-19.147-13.455-28.934-47.362-28.934-102.8 0-58.664 10.212-90.956 34.04-105.49 29.785-18.837 66.803-6.997 82.121 26.91 11.488 25.296 14.467 92.571 5.532 131.32-9.787 42.518-25.104 58.126-57.017 58.126-13.19-.538-29.359-3.767-35.742-8.073zm49.783-34.983c10.638-14.531 14.041-89.88 5.532-121.1-5.106-19.375-6.808-21.528-20.424-21.528-21.7 0-26.381 14.532-24.679 82.883 1.276 47.362 2.553 56.511 9.787 62.97 11.063 10.226 20.849 9.15 29.785-3.229zm78.717-67.317v-111.41l44.252 2.153c42.55 1.614 45.103 2.153 57.442 17.223 18.722 22.604 20.849 45.747 8.084 78.04-9.361 22.066-9.786 26.91-5.106 35.521 10.212 17.761 7.233 48.977-6.382 68.352-12.34 17.761-13.19 17.761-55.315 19.375l-42.975 2.153zm67.229 69.428c10.212-9.149 12.34-28.525 4.255-38.75-2.978-3.767-12.339-6.458-21.275-6.458-14.892 0-16.169 1.076-16.169 15.608 0 9.15 2.127 17.761 4.255 19.375 3.404 2.691 2.978 5.921-.426 11.302-3.829 5.92-2.553 7.535 7.659 7.535 6.808 0 16.594-3.767 21.7-8.611zm6.808-91.494c3.83-4.306 6.808-14.532 6.808-22.066 0-20.99-11.488-33.907-30.636-33.907-15.744 0-16.169.538-16.169 18.837 0 29.063 8.084 45.747 21.7 45.747 6.382 0 14.892-3.767 18.296-8.611zm70.663 22.066v-110.33h102.12v16.146c0 15.608-.851 16.146-17.871 16.146-10.212 0-25.53 1.615-34.04 3.229-14.041 3.229-16.169 5.382-16.169 18.299 0 8.073 3.83 20.99 8.935 29.063 7.659 11.841 11.914 13.993 31.912 13.993h23.402l-1.276 17.761-1.277 17.222-30.636 1.615c-33.189 1.615-36.593 5.382-26.381 29.063 3.829 8.611 3.404 12.379-.851 15.608-3.83 2.691 7.233 4.844 27.232 4.844h32.763v37.674h-97.865zm-829.7 78c0-9.688 3.404-10.764 68.505-11.84l68.505-1.615-67.229-34.983c-62.548-32.292-67.654-36.06-68.931-50.053l-1.276-14.531h87.227c84.674 0 87.653.538 87.653 10.764s-2.979 10.764-71.058 11.302h-71.484l46.805 23.143 66.378 31.754c27.657 12.917 34.04 20.452 31.061 34.983-2.553 11.841-2.978 11.841-89.354 11.841-83.398 0-86.802-.538-86.802-10.764zm4225.6-51.1c-49.783-13.993-72.76-46.286-72.76-101.72 0-73.734 36.593-108.72 119.99-114.64 44.678-3.229 82.972 3.229 113.18 19.913 14.042 8.073 19.998 15.608 26.381 33.369 15.318 41.98 8.936 101.72-13.616 131.86-23.828 32.292-114.03 48.438-173.18 31.216zm109.78-64.046c32.338-3.767 43.826-15.07 42.124-39.289-1.702-28.525-16.169-39.289-60.421-46.285-61.697-9.688-121.69 6.997-121.69 33.369 0 11.84 14.467 36.06 26.807 44.671 10.212 6.997 57.016 13.994 77.441 11.302 7.233-.538 22.977-2.153 35.742-3.767z"/><path d="M7872.4 5109.8c0-63.508.426-67.275 8.51-67.275 7.234 0 8.51 3.767 8.51 26.91v26.91h148.92v26.91h-148.92v26.91c0 23.143-1.276 26.91-8.51 26.91-8.084 0-8.51-3.767-8.51-67.275zm-3892 3.2c-20.849-12.379-26.806-24.219-26.806-53.282s12.339-47.362 39.146-57.588c45.954-17.222 113.18-5.92 130.63 22.604 19.998 31.754 5.106 79.116-28.508 92.033-27.232 10.226-93.61 8.073-114.46-3.767zm117.86-26.372c27.232-16.684 20.849-48.438-11.914-60.279-17.445-5.92-65.101-6.997-85.1-2.153-27.658 6.997-39.571 38.751-22.126 58.664 16.169 18.299 90.631 20.452 119.14 3.767zM4962 5088.3v-34.445l18.296-10.226c9.787-5.382 35.316-18.299 56.166-27.987 21.275-9.688 39.997-19.375 41.699-21.528s-22.977-16.684-55.315-32.83l-58.719-29.063-1.277-39.827c-1.276-36.06-.425-39.289 6.383-35.522 4.255 2.153 16.169 6.997 26.806 10.764s48.081 23.143 82.972 43.595l63.825 37.136 97.864 5.382v69.966l-110.63 5.382-80.419 47.362c-44.252 25.834-82.121 46.824-83.823 46.824-2.127 0-3.83-15.608-3.83-34.983zm3367.8-93.1c-1.276-1.615-2.128-27.987-2.128-58.664v-55.435h-217v-29.063c0-27.987.426-29.063 13.19-32.292 7.233-1.614 65.952-3.229 129.78-3.229h116.59l-.851 87.727-1.277 87.189-18.296 3.229c-9.786 1.614-18.722 1.614-19.998.538zm-2742.3-89.9c0-58.126.426-61.893 8.51-61.893 7.233 0 8.51 3.767 8.51 24.219 0 23.143.425 24.219 12.765 24.219 27.232 0 38.72 37.674 19.148 61.893-7.659 10.226-14.893 13.455-29.785 13.455H5587.5zm36.167 24.219c0-9.688-2.553-13.994-9.361-15.07-8.51-1.615-9.787.538-9.787 15.07s1.276 16.684 9.787 15.069c6.808-1.076 9.361-5.382 9.361-15.069zm42.933 31.181c-7.659-29.601-11.489-49.515-17.02-80.73l-5.957-36.598h10.212c6.808 0 10.212 3.767 11.063 12.379.851 8.073 4.681 12.379 12.34 13.455 8.935 1.077 11.914-1.076 14.041-11.84 2.127-10.226 5.532-13.993 13.19-13.993 8.935 0 10.212 2.153 8.51 12.379l-12.339 60.279c-8.935 45.209-10.212 48.438-20.849 50.053-6.808 1.076-12.34-1.077-13.19-5.382zm15.743-45.747c1.702-17.761.851-23.143-3.829-23.143-6.382 0-7.234 6.458-3.404 31.754 3.404 20.99 4.255 19.914 7.233-8.611zm50.257 41.947c-10.212-12.917-14.892-41.98-11.914-74.81s13.616-44.133 40.422-41.98l19.998 1.077 2.553 72.658-15.743-1.615c-17.871-1.614-24.679-13.993-10.637-18.837 13.616-4.306 10.212-33.907-3.83-33.907-9.786 0-12.765 10.226-12.765 48.438 0 38.751 8.935 52.744 21.275 33.369 8.51-12.917 21.275-16.146 21.275-4.844 0 3.767-2.979 12.379-6.808 18.837-8.51 15.608-32.338 16.146-43.826 1.615zm67.7-51.6v-61.893l11.914-1.077c21.275-1.614 36.593 1.077 39.997 8.073 2.127 4.306-2.127 6.997-14.893 9.149-16.594 2.691-17.871 3.767-19.147 20.452s-1.276 17.222 16.169 17.222c14.467 0 17.445 1.615 16.169 9.688-.851 6.458-5.957 9.688-17.445 10.764-13.616 1.614-15.744 3.767-15.744 15.07s1.702 12.917 17.02 12.917c14.041 0 17.02 1.615 17.02 10.764 0 9.688-2.978 10.764-25.53 10.764h-25.53zm171.4 48.4c-13.19-10.226-20.849-22.066-29.785-44.671-11.488-29.601-11.914-33.907-11.914-111.41 0-91.495 4.255-116.79 24.679-146.39 17.02-24.219 34.891-33.907 62.974-33.907 69.356 0 91.482 47.362 88.078 188.37-1.702 71.581-9.361 105.49-30.21 134.01-22.552 30.677-72.76 37.674-103.82 13.993zm64.676-49.515c11.063-13.993 15.318-33.369 17.871-82.345 4.255-79.654-8.936-144.78-30.21-149.62-31.061-8.073-42.975 24.219-42.975 117.33 0 73.196 3.83 90.418 25.956 112.48 13.616 13.455 19.998 13.993 29.36 2.153zM7675.9 4956.4c-17.445-11.841-34.04-43.594-41.699-79.654-6.382-31.754-5.531-137.78 1.276-171.69 12.34-58.126 40.422-87.727 83.398-87.727 51.911 0 71.058 19.375 83.398 84.498 10.638 55.973 7.659 159.85-5.957 198.06-17.445 50.053-38.295 67.275-79.994 67.275-16.169-.538-30.21-4.306-40.422-10.764zm64.25-55.973c21.275-28.525 22.126-177.61 1.702-212.59-15.318-25.834-38.72-22.066-50.209 8.611-9.787 25.834-13.616 123.79-6.382 157.16 5.106 24.757 28.083 59.741 39.146 59.741 3.404 0 10.638-5.92 15.743-12.917zM3956.6 4958c-1.702-1.615-2.979-8.073-2.979-13.455 0-9.149 5.532-9.688 89.78-9.688 79.994 0 89.355 1.077 87.227 8.611-1.276 4.844-2.553 10.764-2.553 13.455 0 5.382-167.22 6.997-171.48 1.076zm2189.6-164.1l.851-168.46h51.06l2.127 58.126c2.553 67.275 3.83 69.966 38.72 75.887 37.444 6.458 54.889 18.299 63.825 43.056 18.722 52.744 5.532 122.71-28.508 146.93-14.892 10.764-22.551 12.379-72.76 12.379h-55.74zm109.35 92.033c7.234-20.99 2.553-53.82-8.935-65.122-5.532-5.92-16.169-9.688-27.657-9.688h-18.722v39.289c0 40.365 4.255 51.667 21.275 58.664 11.488 4.844 28.934-6.997 34.04-23.143zm73.15 50.567l1.277-25.834 25.53-1.615c14.041-1.076 26.806-4.844 28.508-8.073 1.702-3.767 3.404-67.814 3.404-142.09v-136.17h51.06v128.63c0 121.63.425 129.17 8.935 142.62 6.808 11.302 12.339 13.993 27.232 13.993 22.126 0 25.104 4.306 21.275 32.292l-2.978 21.528h-165.52zm195.8-142.6l1.277-168.46 23.828-1.615c22.126-1.615 24.254-.538 26.806 10.764 3.404 16.684 3.404 251.88 0 294.4l-2.978 32.83h-49.783zm102.1 0l1.276-168.46 21.7-1.615c27.658-2.153 26.806-4.306 27.658 111.95.425 102.8 2.553 100.11 19.998-26.91l11.489-83.422 22.126-1.615c26.806-2.153 27.232-1.615 37.444 71.581 12.339 88.804 19.573 126.48 23.828 123.79 2.127-2.153 3.83-46.285 3.83-100.11v-96.877l24.679 1.615 24.253 1.615 1.277 129.17c.851 71.043 0 146.93-1.277 168.46l-2.979 38.751h-70.633l-4.681-25.296-15.318-93.109c-13.19-80.73-15.318-92.571-17.445-90.418-.851 1.077-6.383 38.212-12.34 82.345-5.957 44.671-13.19 90.956-15.744 103.87l-4.255 22.604h-75.738zm267.2-1.6v-169.53h51.06v339.07h-51.06zm89.3 145.3c0-13.455.426-24.757 1.276-24.757.425-.538 22.551-2.153 48.932-4.306l47.656-3.229-53.187-122.17c-42.975-98.491-53.613-125.94-52.336-139.93l1.276-17.761h161.69l2.127 25.296 2.553 25.296-47.23 1.615c-42.55 1.614-46.805 2.691-45.528 11.302.851 5.382 19.148 50.591 41.273 101.18 45.954 104.95 50.634 120.56 46.805 150.16l-2.978 21.528H6983.1zm240.4 17.7c-.851-3.767-14.467-74.81-29.785-157.69l-30.636-162.54c-2.127-11.84-.851-12.379 23.402-12.379 24.679 0 25.53.538 30.211 16.684 2.553 9.688 4.68 21.528 4.68 26.372s4.681 15.608 10.638 23.681c8.51 11.84 13.616 13.993 33.614 13.993h23.402l4.681-30.678c8.084-52.744 6.382-50.053 34.465-50.053 18.722 0 25.104 2.153 25.104 7.535 0 4.306-8.51 53.282-19.147 109.26l-25.955 136.17c-3.83 19.375-9.361 46.286-13.19 60.817l-6.382 25.296h-31.487c-21.7 0-32.338-2.153-33.614-6.458zm39.146-191.6c-9.361-1.076-18.722.538-20.85 3.229-4.68 5.92 3.83 57.049 12.765 79.116l6.808 16.146 17.871-96.876zm74.554 172.8c.851-15.608 3.404-25.834 6.808-26.372 2.553-.538 15.743-1.077 28.508-1.615l23.402-.538.851-141.01 1.277-141.55 23.828-1.615c22.126-1.615 24.254-.538 26.806 10.764 1.277 6.997 2.553 66.199 2.553 132.4 0 112.48.426 120.02 8.51 130.25 5.957 7.535 14.041 10.764 27.657 10.764h19.148v53.82h-170.62zm199.1-144.2v-169.53h51.06v339.07h-51.06zm311.5 1.6l1.276-168.46 43.826-3.229 1.702 87.727c.851 48.976 3.404 92.033 5.957 97.415 5.106 11.302 11.489-5.382 45.528-120.02l18.297-61.893 57.016-3.229v149.62c0 82.345-1.277 158.77-2.553 170.07-2.979 19.914-2.979 19.914-23.402 19.914h-20.85l-.851-108.72-1.276-109.26-8.084 26.91c-4.255 15.07-19.148 64.046-33.189 109.26l-25.104 81.807h-59.144zm-2536.9 81.2v-80.73l16.169 1.615c14.041 1.614 15.744 3.229 17.02 17.222 2.979 31.754 11.914 34.983 93.61 35.521h73.186v48.438h-77.441c-42.975 0-80.419 2.153-83.823 4.844-2.979 2.691-6.808 15.608-7.659 29.601-2.127 24.219-2.979 24.757-16.594 24.757h-14.467zm-1259.4 13c-7.234-8.611-18.296-26.91-24.679-41.98-10.212-24.219-13.19-26.91-27.657-28.525-19.998-2.153-28.508 5.92-28.508 26.91 0 11.84 2.978 17.761 12.765 24.757 6.808 4.844 12.765 13.455 12.765 18.837 0 13.993-18.296 11.302-31.487-4.844-25.53-32.292-6.808-93.647 28.934-93.647 21.7 0 34.04 9.149 45.528 33.368 20.85 43.595 28.934 52.744 46.379 52.744 20.424 0 30.636-11.841 28.934-34.445-.851-11.841-5.106-19.375-14.892-27.448-7.659-5.92-13.616-15.07-14.041-20.99 0-8.611 2.128-9.15 13.616-6.459 19.148 4.844 28.934 18.837 31.912 45.209 4.681 44.133-14.467 71.043-49.358 71.043-12.765 0-20.85-3.767-30.21-14.532zm1148-51.2l-1.276-66.199-117.86-1.615-118.29-1.077v-68.352l28.934-3.229c36.167-4.844 229.77-4.844 242.53-.538 9.361 3.229 9.361 4.306 9.361 99.568 0 72.658-1.276 97.415-5.106 99.03-2.979 1.076-12.765 3.229-21.275 5.382l-15.744 3.229zm399.5-63.5c-17.871-26.372-19.998-92.033-4.681-130.25 3.83-9.688 11.914-16.684 22.551-20.99 34.466-12.917 55.74 18.837 55.74 82.883 0 40.365-7.659 69.966-20.424 78.578-5.106 3.229-16.594 5.92-25.53 5.92-13.616 0-19.147-3.229-27.657-16.146zm42.55-21.528c8.51-20.99 7.233-82.345-2.127-96.877s-20.849-9.688-25.104 10.226c-4.681 22.066-3.404 77.501 2.553 90.957 6.383 15.608 17.445 13.455 24.679-4.306zm49.75 30.728c-.851-3.767-1.276-40.903-.851-81.807l1.276-75.348 11.488-1.615c11.063-1.615 11.063-.538 14.041 33.368l2.979 35.522h18.722c17.02 0 18.722 1.077 18.722 13.455 0 11.841-2.127 13.455-13.616 13.455-18.722 0-22.977 4.844-25.53 25.834l-2.127 17.223h22.977c21.275 0 22.551.538 22.551 13.455 0 13.455-.425 13.455-34.04 13.455-24.254 0-34.891-2.153-36.593-6.997zm85.1 0c-.851-3.767-1.276-40.903-.851-81.807l1.276-75.348 11.063-1.615c11.063-1.615 11.488-.538 14.467 33.368l2.979 35.522h18.722c17.02 0 18.722 1.077 18.722 13.455 0 11.302-2.127 13.455-13.616 13.993-21.275.538-26.806 5.382-26.806 25.296v17.223h22.126c21.275 0 22.551 1.076 22.551 13.455 0 13.455-.425 13.455-34.04 13.455-24.253 0-34.891-2.153-36.593-6.997zm2553.4-2.7c-1.276-1.614-2.128-29.063-2.128-61.355v-58.126h-72.334v107.64h-42.55v-107.64h-59.57v31.754c0 17.222-1.276 42.518-2.553 56.511l-2.979 24.757h-37.018v-170.61l13.19-3.767c7.233-1.614 65.952-3.229 129.78-3.229h116.59l-.851 90.418-1.277 89.88-18.296 3.229c-9.786 1.615-18.722 1.615-19.998.538zm-2852.9-46.8v-45.748h-55.315v80.73H5391.8v-80.73h-46.805v18.299c0 9.688-1.276 29.063-2.553 43.056-2.553 23.681-3.404 24.757-17.02 24.757h-14.467v-134.01l54.464-1.614c29.785-1.077 74.462-1.077 99.992 0l45.528 1.614v66.199c0 64.584-.426 66.737-9.361 69.966-23.828 8.073-24.679 6.997-24.679-42.518zm-1500.8 16.1c-7.233-3.767-15.318-11.84-17.871-18.299-6.808-15.07-5.957-50.053 1.702-62.97 14.467-26.372 51.911-29.601 68.931-5.92 4.68 6.458 13.616 23.681 19.998 37.674 12.765 27.986 26.806 38.212 45.954 33.369 28.083-8.073 25.955-67.276-2.128-67.276-4.68 0-7.233-4.306-7.233-13.455 0-15.608 4.255-16.684 23.402-4.844 17.445 10.226 25.104 32.83 22.126 62.97-3.404 32.292-17.871 46.824-47.23 46.824-25.53 0-38.72-11.302-51.485-43.594-15.743-38.751-32.763-51.129-53.613-37.136-15.744 10.764-6.808 53.82 11.488 53.82 3.404 0 5.957 5.382 5.957 13.455 0 15.608-1.276 15.608-19.998 5.382zm1247.6-89.3c-6.808-2.691-64.25-22.066-127.65-42.518l-124.25-40.904c-9.361-3.229-9.786-6.458-9.786-47.9v-44.671l20.424-8.611c11.063-4.306 58.293-20.452 105.1-35.522l116.59-38.212c17.445-5.382 33.189-10.226 35.316-10.226 5.532 0 3.829 61.893-1.702 68.89-2.979 3.767-8.084 6.458-11.914 6.458s-17.02 3.767-28.934 8.073l-22.126 8.611v32.292c0 39.289 8.085 51.129 43.401 64.046l22.552 8.611 1.277 33.907c.851 18.837-.426 36.06-2.128 38.213s-8.935 1.614-16.169-.538zm-96.588-138.32l1.276-28.525-11.914 3.767c-28.083 8.073-46.805 13.993-60.421 19.375l-14.041 5.382 11.914 7.535c15.743 9.15 57.442 23.143 65.527 22.066 4.681-1.076 6.808-9.149 7.659-29.601zm345.488 81.22c-17.445-10.764-43.826-25.834-58.293-34.445l-25.955-14.532-36.167 31.754c-19.998 17.222-37.444 31.754-38.72 31.754s-2.553-11.302-2.553-25.834v-25.295l41.273-32.292 40.848-32.292-82.121-3.229v-47.9h199.98v48.438h-34.04c-26.806 0-34.891 1.615-36.593 8.073-3.829 12.917 5.532 23.143 39.571 43.056l31.062 18.299v26.91c0 15.07-1.277 27.448-2.979 26.91-2.127 0-17.871-9.15-35.316-19.375z"/><path d="M3953.6 4595.8c0-10.226 2.979-10.764 88.504-10.764s88.503.538 88.503 10.764-2.978 10.764-88.503 10.764-88.504-.538-88.504-10.764zm4157.1-58.1v-31.754l16.169-5.92c8.51-3.229 48.507-14.531 88.078-25.834 39.996-10.764 74.887-21.528 77.866-23.143 2.978-2.153-36.593-15.608-88.078-30.139l-94.035-26.372v-66.199l31.061 6.997c16.594 3.767 74.462 21.528 128.07 39.827l99.141 32.292c.851 0 1.276 17.223.426 38.751l-1.277 38.212-245.51 81.269-11.914 3.229zm-4154.1 1.1c-1.702-2.153-2.979-10.764-2.979-18.837 0-13.455 2.553-15.608 22.551-23.143 11.914-4.844 41.699-13.993 65.952-20.452 23.828-6.997 43.401-13.455 43.401-15.07s-28.083-10.764-62.974-20.452c-34.465-10.226-63.825-19.375-65.527-20.99-2.127-1.077-3.404-9.15-3.404-17.223 0-13.455 2.128-15.608 16.169-18.837 20.424-4.306 60.846-4.306 116.59 0 40.848 3.229 44.677 4.844 42.975 13.455-2.127 9.688-8.084 10.226-73.186 10.764l-70.633.538 68.931 17.761c73.186 18.837 77.866 20.99 77.866 32.292s-5.532 13.994-74.462 35.522l-63.825 20.452 68.08 1.615c64.676 1.614 68.08 2.153 68.08 12.379s-3.404 10.764-85.525 12.379c-46.805.538-86.376-.538-88.078-2.153zm2623.2-7.6c-8.51-6.997-17.871-20.99-23.402-36.598-8.084-22.066-9.361-34.445-9.361-97.953 0-65.123.851-74.81 9.786-95.262 12.34-30.139 26.806-41.442 51.911-41.442 31.912 0 53.613 23.681 56.166 61.355 1.276 16.684 0 18.837-8.936 18.837-7.659 0-11.488-4.306-14.467-16.146-6.808-26.372-15.743-35.522-32.338-33.907-11.488 1.077-17.445 5.92-24.254 19.375-17.445 32.292-19.147 136.17-2.978 178.15 14.467 36.598 49.358 34.983 57.868-3.229 4.255-18.299 22.977-28.525 27.232-14.532 3.829 12.379-7.234 44.671-20.424 58.664-16.594 17.223-46.379 18.299-66.803 2.691zm159.1 5.9c-2.127-4.306-53.613-265.87-53.613-272.33 0-1.615 5.532-2.691 11.914-2.691 11.914 0 12.34 1.614 19.998 43.056l7.659 43.056h57.442l8.085-41.442c7.659-40.904 8.51-41.98 21.7-43.595 7.659-1.076 13.616 0 13.616 1.615 0 9.149-51.911 258.34-55.74 266.95-4.255 10.764-26.807 14.532-31.062 5.382zm27.657-103.34l11.063-53.282h-23.402c-21.7 0-22.977.538-20.849 12.379 1.276 6.458 5.957 31.754 9.786 55.973 4.255 24.219 8.936 42.518 10.212 41.442 1.276-1.615 7.233-26.91 13.19-56.511zM6849.1 4535c-1.276-3.767-1.702-66.199-1.276-138.32l1.276-131.86 50.209-1.615c29.359-.538 49.783.538 49.783 3.767 0 2.691 1.276 8.611 2.553 13.455 2.127 6.997-1.276 8.611-22.126 8.611-14.041 0-31.912 1.615-39.997 3.229l-14.892 3.229 1.276 67.814c.851 37.674.426 93.109-1.276 123.79-2.979 53.82-2.979 54.897-13.19 54.897-5.957 0-11.488-3.229-12.339-6.997zm145.5-3.8c-6.382-6.458-16.169-22.066-21.275-33.907-8.51-20.452-9.361-30.678-9.361-97.953 0-83.421 5.106-106.56 28.508-128.63 15.318-13.993 48.932-14.532 65.101-1.076 12.765 10.226 29.785 53.282 25.955 65.661-5.106 16.146-19.148 8.073-27.657-16.684-5.957-16.684-11.488-24.757-19.147-27.448-31.487-9.688-45.103 16.684-48.507 92.033-3.404 83.422 10.638 131.86 38.295 131.86 13.616 0 27.658-15.07 31.487-34.445 2.553-14.531 22.126-23.142 25.955-10.764 3.404 11.302-6.382 42.518-17.871 55.973-15.744 18.837-54.889 21.528-71.484 5.382zM7115 4429c0-124.32 2.553-142.09 23.828-159.85 15.743-12.917 55.315-12.917 71.058 0 22.126 18.299 25.955 36.598 27.657 129.71.851 47.362.426 99.029-1.276 114.64-2.553 25.834-3.83 28.525-13.19 28.525h-10.212v-104.95c0-133.47-3.829-149.08-37.018-149.08-9.787 0-18.296 4.306-24.254 11.302-8.51 10.764-8.935 18.299-11.063 125.94l-2.127 114.1-11.488 1.615-11.914 1.615zm163.9 106c-1.277-3.767-1.702-66.199-1.277-138.32l1.277-131.86 99.141-3.229 1.702 13.993c2.127 12.917 1.702 13.455-21.7 13.455-13.19 0-31.061 1.615-39.571 3.229l-16.169 3.767v245.96h-10.638c-5.957 0-11.914-3.229-12.765-6.997zm170.2.5c-2.553-9.149-53.187-266.95-53.187-270.72 0-1.615 5.532-2.691 12.34-2.691 11.914 0 12.765 1.614 20.424 41.98l8.084 41.442 56.591 3.229 4.681-23.143 8.935-43.056c3.829-17.761 5.957-20.452 16.594-20.452 7.233 0 12.765 1.076 12.765 2.691 0 4.844-42.124 217.43-49.358 249.19-6.383 26.91-7.234 27.987-21.275 27.987-8.084 0-15.743-3.229-16.594-6.459zm28.083-98.491l11.488-56.511h-23.402c-22.126 0-23.402.538-20.849 12.379 1.276 6.458 5.532 31.754 9.786 56.512 3.829 24.219 8.51 44.133 9.787 44.133s7.233-25.296 13.19-56.512zm46.317 92.091c0-15.07 6.808-19.376 30.21-19.376h16.594l.851-122.17 1.276-122.71 11.914-1.615 11.489-1.614.851 113.02.851 123.25c.426 6.997 5.532 9.688 23.828 11.84 21.7 2.691 23.402 3.767 23.402 16.146v13.455l-121.267 3.229zm147.7 9.7c-1.702-2.153-2.979-65.123-2.979-140.47v-136.17h25.53l-.851 138.86c-1.276 134.55-1.702 138.32-9.786 139.93-5.106 1.077-10.212 0-11.914-2.153zm92.3-7c-27.232-20.99-40.848-95.262-32.338-173.84 7.659-67.814 26.381-97.415 61.272-97.415 26.806 0 43.401 12.917 54.889 43.056 9.361 23.143 10.212 32.83 10.212 98.491 0 64.046-1.277 75.348-9.361 96.876-5.532 13.455-15.318 28.525-22.126 33.907-16.169 12.379-45.954 11.841-62.548-1.076zm52.336-28.525c12.339-17.222 18.296-48.438 18.296-96.877 0-83.422-12.765-119.48-41.699-116.25-14.041 1.615-17.02 4.306-25.104 25.834-8.51 20.452-9.786 32.292-9.786 83.421 0 62.97 3.83 89.342 15.318 105.49 10.212 13.993 31.912 13.455 42.975-1.615zM7895.8 4535c-1.276-3.767-1.702-66.199-1.276-138.32l1.276-131.86 11.488-1.615 11.914-1.614.851 107.64 1.276 108.18 69.782-212.59 15.318-1.615 14.893-1.614-.851 138.86-1.277 138.86h-21.275l-4.255-209.9-27.232 86.113c-39.146 123.25-40.423 126.48-56.166 126.48-6.808 0-13.616-3.229-14.467-6.997zm-1640.3-89.9v-91.494h19.148c19.147 0 19.147 0 19.147 19.375 0 13.455 2.979 22.066 9.786 29.601 8.51 8.611 17.445 9.688 88.929 10.226 43.401 0 82.121 1.615 85.95 3.229 5.106 2.153 6.808 10.764 6.808 29.601v26.372h-191.47v23.681c0 35.522-2.553 40.904-21.7 40.904h-16.594zm-676.5-13.4c0-95.8.426-99.568 8.51-99.568 7.659 0 8.51 3.767 8.51 45.747v45.747h16.594c21.7 0 27.657-10.226 30.21-53.282 1.702-30.678 3.404-35.521 10.637-37.136 8.51-1.614 8.51.538 7.233 37.674-.851 22.066-4.255 44.671-8.084 51.668-5.532 11.302-5.532 13.993 0 21.528 10.212 14.531 12.339 32.292 7.233 52.206-7.233 27.448-18.296 34.983-51.911 34.983h-28.934zm58.719 71.581c6.383-6.997 6.808-33.369.851-47.9-3.404-7.535-8.935-10.226-23.402-10.226h-19.147v31.216c0 17.222.851 32.83 2.127 33.907 2.978 4.306 33.614-1.614 39.571-6.997zm51.481-.081c-.425-15.608-.425-59.741 0-98.491l.426-69.966 34.891-1.615c24.253-1.076 35.742.538 37.869 5.382 5.957 11.84-.426 15.07-28.508 15.07h-27.232v75.348h25.53c18.722 0 25.53 2.153 25.53 7.535 0 4.844-8.084 8.611-25.53 10.764l-25.53 3.767v58.664h27.657c24.679 0 27.657 1.077 27.657 10.764s-2.979 10.764-36.167 10.764h-36.167zm94-72.1v-99.568l9.786 1.614c8.51 1.615 9.361 4.844 10.637 42.518l1.277 41.442 21.7 2.153c28.934 3.767 41.699 20.99 41.699 55.973 0 19.914-2.553 27.448-12.34 40.365-11.488 14.532-14.892 15.608-42.55 15.608h-30.21zm61.697 66.199c14.893-26.91 2.553-57.588-23.402-57.588h-16.169l-1.702 35.522-.426 36.598c.426.538 8.51 0 18.297-1.077 11.488-1.614 19.147-5.92 23.402-13.455zm59.603 21.001c-14.467-18.299-20.424-52.744-17.871-100.64 3.404-64.046 15.744-85.574 48.932-85.574 30.636 0 43.401 29.601 43.401 102.26 0 51.667-3.404 68.89-17.02 86.113-12.765 16.146-43.826 15.069-57.442-2.153zm40.423-8.611c22.977-15.608 22.551-140.47-.426-156.08-11.914-8.611-24.253-1.615-31.912 17.222-10.212 24.219-7.233 117.33 4.255 132.94 8.935 12.379 16.169 13.993 28.083 5.92zm60.377-76.389c1.276-97.415 1.276-98.491 11.063-100.11 8.935-1.614 9.361-.538 9.361 44.133v46.286h14.467c20.85 0 28.083-11.302 28.083-45.747 0-36.06 2.979-45.747 13.616-45.747 8.084 0 8.51 2.691 6.808 40.365-1.702 29.063-4.255 43.594-10.212 51.668-5.106 6.997-6.382 12.379-3.404 14.532 17.871 14.531 19.147 55.435 2.127 76.963-11.488 14.532-14.892 15.608-42.55 15.608h-30.21zm59.995 64.584c15.743-23.681 3.404-52.744-22.977-52.744h-16.594v69.428l16.169-3.229c8.51-1.615 19.148-7.535 23.402-13.455zm37.105 22.616c0-9.15 2.979-10.764 17.02-10.764h17.02v-88.803c0-85.036.425-88.804 8.51-88.804s8.51 3.767 9.361 75.348l.851 87.727c.425 9.688 3.404 12.379 17.445 14.531 11.488 1.615 17.445 5.382 18.296 12.379 1.276 8.073-2.979 9.149-43.401 9.149-42.124 0-45.103-.538-45.103-10.764zm-759.6-109.8c-25.955-14.531-29.785-25.296-31.062-89.342l-1.702-58.126 31.487-3.767c17.02-1.614 61.697-2.691 99.141-1.614l68.08 1.614v48.438l-41.273 1.615c-36.593 1.076-41.699 2.691-41.699 10.764 0 5.382 5.957 16.684 13.19 25.834 11.063 13.455 17.02 16.146 41.273 18.299l28.508 2.691 2.553 46.824-40.422-2.153c-34.891-1.615-41.699-3.229-50.634-13.993-9.361-11.302-10.637-11.302-16.169-3.229-6.808 10.764-29.785 23.681-40.848 23.681-4.255-.538-13.19-3.767-20.424-7.535zm46.379-58.126c3.83-6.458 6.808-18.837 6.808-26.91 0-15.07-.426-15.07-27.657-15.07s-27.658 0-27.232 15.07c0 15.07 7.234 41.442 7.659 29.063.425-5.382 2.553-5.382 9.786 1.076 13.19 11.84 22.977 10.764 30.636-3.229zM4056.6 4346.1c-7.659-4.844-14.892-11.841-16.169-16.146-2.128-7.535-4.255-6.997-13.19 2.153-15.743 15.608-44.252 14.531-59.57-2.153-10.638-11.302-11.914-17.222-13.19-53.282l-1.702-39.827 18.297-2.153c10.212-1.614 50.209-2.153 88.929-2.153l70.207.538 1.276 30.139c2.127 51.668-14.041 82.345-46.379 88.265-8.085 1.077-20.85-1.076-28.508-5.382zm45.954-29.063c6.382-6.458 10.212-17.761 11.488-34.983l2.553-25.834-71.484 3.229.851 24.219c.851 17.223 3.404 26.91 10.212 33.907 11.488 11.84 34.465 11.84 46.379-.538zm-85.951-4.306c7.233-6.458 9.361-13.455 9.361-32.292v-23.681h-55.315v21.528c0 36.598 23.402 54.359 45.954 34.445zM4962 4324.6c0-25.295 1.276-29.063 9.786-32.292 5.106-1.614 43.826-3.229 85.951-3.229 60.846-.538 74.888-1.614 68.08-6.458-4.681-3.767-42.975-24.757-85.1-47.362l-76.59-40.904-1.277-38.212c-1.276-35.521-.425-38.212 8.51-41.442 5.531-1.615 68.505-3.229 140.84-3.229h130.63v64.584l-71.058.538c-39.571.538-76.164 2.153-82.121 4.306-9.786 3.767-8.935 4.844 12.765 17.761 12.765 7.535 44.252 24.219 69.782 36.598 25.955 12.379 52.336 26.91 58.719 32.83 11.063 10.226 11.914 13.455 11.914 48.438v37.136h-280.83zm1293.5-22.1c0-13.455.426-24.757 1.277-25.296.426 0 31.487-2.153 68.931-3.767l68.08-3.23-68.931-34.983-69.356-34.983v-61.893h229.77v48.438h-54.038c-90.206 0-92.759 8.611-13.19 41.98 69.356 29.601 68.08 27.987 66.378 64.584l-1.276 30.678-113.61 1.614-114.03 1.076zm2072.2-53.8v-61.893h-30.636c-17.02 0-33.189 2.153-36.167 4.306-3.404 2.691-5.531 22.604-6.382 54.897l-1.276 51.129-19.998 1.615-20.424 1.615v-113.56h-22.977c-34.891 0-36.593 1.615-36.593 37.674 0 16.684-1.276 41.98-2.553 55.973l-2.979 24.757h-37.018v-177.61h259.55v86.113c0 64.584-1.276 87.189-5.106 88.804-2.978 1.076-12.765 3.229-21.275 5.382l-16.169 3.229zm-2919.8-39.9l-97.014-30.139v-61.355l18.296-6.458c39.571-13.455 170.2-53.282 175.73-53.282 7.659 0 8.51 42.518.851 45.209-2.978 1.614-14.041 5.382-24.679 9.688-18.296 6.997-19.147 8.073-17.871 25.834 1.276 23.143 10.638 36.06 31.487 44.133 15.743 5.92 16.169 6.458 16.169 32.292 0 13.993-1.277 25.296-2.979 25.296-2.127-.538-46.805-14.532-99.992-31.216zm19.148-60.817c.851-9.688 1.276-18.837.851-19.375-.851-1.077-12.765 1.077-26.381 4.844-13.616 3.229-22.126 7.535-19.147 8.611 2.553 1.615 4.255 4.844 2.978 6.997-1.702 3.767 15.743 11.302 36.593 15.608 1.702.538 3.83-7.535 5.106-16.684zM3954.4 4180.3c1.276-12.379 2.553-12.379 74.037-15.07 52.762-2.153 74.888-4.844 79.994-10.226 8.51-9.149 8.935-32.292.851-46.824-5.532-9.15-12.765-10.226-81.27-11.84-74.462-1.615-74.888-1.615-73.611-13.455s2.553-11.841 74.037-11.841c78.292 0 90.206 3.229 99.141 27.987 5.957 16.684 5.957 45.747 0 62.97-9.361 25.296-25.955 30.139-103.82 30.139h-70.633zm3943.6-42.5c-37.018-9.149-51.06-32.292-51.06-83.422 0-30.139.851-33.369 9.786-36.598 13.616-4.306 163.82-3.767 165.94 1.077 1.276 2.153.851 21.528-.851 43.594-2.553 36.598-4.255 40.904-17.02 54.897-9.786 9.688-22.552 16.684-40.422 20.452-30.211 6.459-39.572 6.459-66.378 0zm88.929-34.445c14.041-8.611 17.445-17.761 17.445-43.594v-18.299h-140.41v21.528c0 24.757 10.212 40.904 28.508 46.286 6.808 1.615 14.041 4.306 16.169 5.382 9.361 4.305 66.803-3.767 78.292-11.302zM6447 4052.8v-54.358h-63.825v97.415l-17.871-1.615-18.296-1.615-2.553-94.186h-50.209l-2.553 99.568-17.871 1.615-18.297 1.614v-155.54l35.316-3.767c19.148-1.615 70.207-2.691 113.61-1.615l78.717 1.615 1.276 79.654c.851 65.122 0 79.116-4.681 79.116-3.404 0-12.34 1.615-19.573 3.229l-13.19 3.767zM5225.4 4077c-.851-1.077-47.656-17.222-103.82-35.522l-129.78-42.518-27.657-9.149-2.553-91.494 18.296-6.458c54.464-19.375 249.77-81.807 256.15-81.807 5.957 0 7.233 4.844 5.957 33.907l-1.277 33.368-32.763 10.226-33.189 9.688v32.83c0 40.904 8.51 53.82 43.401 66.199l24.679 9.149v36.598c0 32.292-.851 37.136-7.659 37.136-4.255 0-8.935-1.076-9.786-2.153zm-98.29-138.86c.851-16.146-.426-25.834-3.404-25.834-8.084 0-65.527 17.222-71.909 21.528-11.914 8.073 39.146 32.83 63.399 30.678 9.361-1.076 10.637-3.767 11.914-26.372zM8178.8 4072.1c-30.21-10.764-49.358-28.525-59.144-54.358-7.659-18.837-8.935-32.83-8.935-85.036v-62.432l31.061-3.767c16.594-1.615 74.888-2.691 128.5-1.615l97.864 1.615 1.277 52.744c.425 28.525-.851 61.893-3.404 74.272-6.382 29.601-30.21 61.355-54.464 72.119-26.381 12.379-106.37 16.146-132.76 6.458zm124.67-70.505c19.148-9.688 24.679-20.452 25.53-47.362l.851-23.143-72.334-1.615c-76.59-1.615-108.5 1.615-108.5 10.764 0 12.917 14.892 43.056 26.807 53.82 7.233 6.459 19.573 13.455 28.083 15.608 21.275 5.92 82.972 1.077 99.566-8.073z"/><path d="M8442.6 3964v-87.727l20.424-3.229c31.062-4.844 53.613 2.153 55.315 16.684 1.277 11.302 0 11.84-24.253 11.84h-25.956v47.9l22.551 1.615c20.424 1.615 22.126 2.691 22.126 15.07s-1.702 13.455-22.126 15.07l-22.551 1.615v18.837c0 17.223.851 18.299 14.041 18.299 23.828 0 32.763 5.382 32.763 19.375 0 12.379-.851 12.917-36.167 12.917H8442.6zm93.6-.6v-88.804h10.637c11.488 0 14.042 10.226 16.169 65.661l.851 31.216 15.743-46.824c14.042-41.98 17.02-47.9 28.508-50.591 7.233-2.153 14.042-2.153 15.318-.538s2.128 42.518 2.128 90.956v87.727h-25.53v-54.897l-.426-55.435-17.445 55.435c-17.02 54.359-17.446 54.897-31.487 54.897h-14.467zm127.7 74.3c-28.508-32.831-25.53-142.62 3.829-163.08 12.339-8.073 32.763-6.458 38.72 2.691 4.681 7.535 5.957 6.997 10.638-1.077 2.978-4.844 8.085-7.535 12.34-5.382 5.531 2.691 6.808 11.84 6.808 52.206v48.438h-23.403c-22.126 0-23.402-.538-23.402-13.455 0-10.764 2.127-13.455 11.063-13.455 10.638 0 11.063-1.077 8.935-19.914-3.829-26.91-12.34-33.907-26.806-20.99-6.808 6.458-8.085 14.531-8.085 55.973 0 50.591 4.681 65.661 19.573 65.661 4.255 0 9.786-4.844 12.339-10.764 2.979-6.997 8.936-10.764 17.02-10.764 13.616 0 15.318 4.844 7.659 23.143-7.659 18.837-17.02 24.758-36.168 25.296-14.041 0-21.275-3.229-31.061-14.531zm93.6-74.3v-88.804h29.785v68.89c0 37.674-1.276 77.501-2.553 88.804-2.553 17.761-4.255 19.914-14.893 19.914H8757.5zm51 .6v-89.342h25.104l2.553 108.179 17.02-53.82c16.169-51.129 17.446-53.82 31.062-55.435 7.659-1.077 14.892-1.077 15.743.538 2.978 3.767 2.553 116.79-.425 150.16-2.553 24.757-3.83 27.987-12.765 27.987-9.786 0-9.786-1.615-11.063-54.359l-1.277-54.897-17.02 53.282c-17.02 53.282-17.02 53.282-32.763 54.897l-16.169 1.615zm114.9 0v-87.727l20.424-3.229c11.488-1.615 28.508-1.615 38.295 0 15.318 2.691 17.871 4.844 17.871 15.608 0 11.84-1.702 12.917-23.402 12.917h-23.402v48.438h21.275c20.85 0 21.275.538 21.275 16.146s-.425 16.146-21.275 16.146h-21.275v18.837c0 17.761.851 18.837 14.041 18.837 23.828 0 32.763 5.382 32.763 19.375 0 12.917-.851 12.917-38.295 12.917H8923.4zM4060 4032.3c-9.361-5.92-18.722-18.837-25.53-34.983-14.892-33.907-25.104-47.362-37.018-47.362-18.296 0-26.806 9.688-26.806 30.139 0 16.684 1.702 19.914 12.765 25.296 9.361 4.306 12.765 9.688 12.765 18.837 0 11.302-1.276 12.379-11.488 9.688-41.273-12.379-41.699-90.957-.851-106.56 24.254-9.149 44.252 4.844 59.995 41.442 18.722 44.133 39.997 57.05 62.123 37.136 17.02-15.07 6.808-61.355-14.041-61.355-3.83 0-6.383-4.844-6.383-13.455 0-11.84 1.277-13.455 11.914-10.226 19.573 5.382 34.891 30.678 34.891 58.664 0 47.362-38.295 74.81-72.335 52.744zm1250.9-35.5v-33.907l54.464-14.532c29.785-8.073 56.591-14.531 59.995-14.531s4.681-1.615 2.978-3.767c-1.702-2.691-28.508-10.226-59.144-17.761l-56.166-13.993-2.553-72.12h200.41v43.056l-34.891.538c-19.573.538-45.954 2.153-58.719 4.306l-23.402 3.229 48.932 9.688c73.186 14.532 68.931 12.379 67.229 37.674-1.276 21.528-1.702 22.066-22.551 28.525-11.488 3.767-32.763 9.688-46.379 12.917-29.785 7.535-25.104 16.146 8.51 16.146 11.914 0 30.636 1.615 41.699 3.229 19.573 3.767 19.573 3.767 19.573 24.219v20.99h-199.98zm2536-59.7v-50.591l26.806-3.767c14.467-1.615 54.038-2.691 88.078-1.615 60.846 1.615 61.698 1.615 61.272 13.993 0 6.459-.425 30.139-.851 52.206-.851 36.598-1.702 40.365-9.361 40.365s-8.51-3.767-8.51-40.365v-40.365h-63.825v17.761c0 36.598-5.106 57.588-13.19 57.588-7.234 0-8.085-4.306-8.085-37.674v-37.674h-55.315v40.365c0 36.598-.851 40.365-8.51 40.365-8.085 0-8.51-3.767-8.51-50.591zm-1591.4-85.6v-39.289l54.464-14.532 68.08-17.761c7.233-2.153 13.616-5.382 13.616-6.997 0-2.153-30.21-11.302-66.803-19.913l-67.229-15.608-2.553-83.422h230.62l-1.276 25.834c-.851 15.07-3.404 25.296-6.383 25.834s-34.891 1.076-70.207 2.153c-64.25 1.077-64.676 1.077-39.571 7.535 14.041 3.767 41.699 10.226 61.697 13.993 53.613 10.226 55.315 11.302 55.315 39.827 0 26.91 1.277 25.296-40.422 35.522-99.992 24.219-103.82 32.292-15.744 32.292h56.166v53.82H6255.5zm1591.4-49v-50.053l16.169-3.767c22.551-4.306 157.43-3.767 159.56 1.077.851 2.153.851 26.372-.426 53.82-1.702 44.133-2.979 49.515-9.786 49.515-7.234 0-8.085-4.306-8.085-40.365v-40.365h-63.825v17.761c0 36.598-5.106 57.588-13.19 57.588-7.234 0-8.085-4.306-8.085-37.674v-37.674h-55.315v40.365c0 36.598-.851 40.365-8.51 40.365-8.085 0-8.51-3.767-8.51-50.591zm272.3-134.5v-110.87h10.637c10.637 0 10.637.538 10.637 48.438v48.438h20.85c28.083 0 34.465-11.302 34.465-60.279v-36.598h13.191c10.212 0 12.765 1.615 10.637 8.611-1.276 4.844-2.553 24.219-2.553 43.056 0 29.601-1.702 37.136-10.212 47.9-7.659 9.688-8.936 13.455-4.255 15.608 3.404 1.615 9.361 11.302 13.19 21.528 5.957 16.146 6.382 22.066 1.702 40.904-7.233 30.677-19.998 39.289-62.548 41.98l-35.742 2.691zm68.08 77.501c10.212-12.917 11.488-44.133 1.702-55.973-4.255-5.382-14.041-8.611-27.657-8.611h-20.85v75.348h19.147c13.616 0 21.701-3.229 27.657-10.764zm96.22 4.299l-39.146-182.987c-1.702-7.535.426-9.688 8.51-9.688 9.787 0 11.914 3.767 17.871 31.754l7.234 31.754 23.402 3.767c26.807 4.305 28.083 3.229 35.317-38.751 4.68-26.372 5.957-28.525 17.445-28.525 6.382 0 11.914.538 11.914 1.615 0 4.844-42.55 191.6-46.379 204.52-3.404 11.302-7.234 14.532-17.02 14.532-11.488 0-13.19-2.153-19.147-27.987zm31.913-62.97l8.084-36.06c0-1.076-8.51-2.153-19.147-2.153-21.7 0-21.7-.538-12.765 45.209 9.361 45.209 11.489 51.668 13.616 38.212 1.276-5.92 5.531-26.372 10.212-45.209zm76.087-19.43v-110.33h21.7l-1.276 86.113c-.851 46.824 0 83.96 1.276 81.807s15.743-40.365 31.487-85.574c26.806-75.349 29.785-81.807 41.273-83.422 7.659-1.615 13.616 0 14.467 3.767 1.276 3.767 1.702 53.282.851 110.87-1.276 103.87-1.276 104.41-10.638 106.03l-9.786 1.615-.851-175.454-12.765 34.983c-52.336 143.7-50.634 139.93-63.824 139.93H8391.5zm151.9 106.6c-1.702-1.615-2.978-51.668-2.978-110.33v-106.56h10.212c8.51 0 10.212 3.229 12.765 24.757 1.276 13.993 2.553 32.83 2.553 42.518 0 15.07 14.041 40.903 18.722 34.445.851-1.076 11.489-24.757 23.828-51.668 20.424-45.747 23.402-50.053 34.891-50.053h12.765l-10.637 23.143-28.508 64.584-17.871 41.98 25.955 41.98c14.467 23.681 25.956 44.133 25.956 45.747s-4.68 3.229-10.212 3.229c-8.084 0-17.445-11.841-41.699-51.129-17.02-27.986-31.912-50.591-33.189-51.129-1.277 0-2.128 8.073-2.128 17.222-.851 75.349-2.127 85.036-9.787 85.036-4.255 0-9.361-1.615-10.638-3.767zm133.2-106v-110.87h21.275l-.851 109.26c-1.276 108.18-1.276 108.72-10.637 110.33l-9.786 1.615zm63.4 107.6c-.851-1.077-1.276-51.129-.425-110.33 1.276-103.33 1.702-108.18 9.361-108.18 8.084 0 8.51 4.306 8.51 90.418v89.88l32.338-89.88c29.785-82.883 33.189-89.342 44.677-91.495 6.808-1.615 13.191-1.076 14.467 0 2.978 4.306 2.553 149.62-.425 188.91-2.553 26.91-4.255 32.83-10.638 32.83-7.659 0-8.084-5.92-8.51-87.189v-87.727l-13.616 35.522c-7.659 19.375-22.126 58.664-32.338 87.189-16.594 47.362-19.573 52.206-30.21 52.206-5.957 0-12.34-1.077-13.191-2.153zm172.3-8.1c-19.148-15.07-29.36-51.129-28.934-105.49 0-51.668 6.383-78.578 23.402-96.876 16.594-17.222 40.422-18.299 56.591-2.153 8.936 9.149 11.063 9.688 11.063 2.691 0-5.382 3.829-8.611 10.637-8.611h10.637v118.4h-27.657c-24.679 0-27.657-1.076-27.657-10.764 0-8.611 2.978-10.764 14.892-10.764h14.892v-26.372c0-69.428-53.613-72.658-61.698-3.229-5.106 40.903 0 98.491 9.361 114.64 15.318 26.372 52.336 18.837 52.336-10.764 0-6.997 3.404-9.688 12.765-9.688 7.234 0 12.765 1.077 12.765 2.691 0 10.764-13.616 40.365-21.701 47.9-13.616 11.841-45.102 11.302-61.697-1.615zM7846.9 3662c0-58.126.425-61.893 8.51-61.893 7.233 0 8.51 3.767 8.51 24.219v24.219h157.43v26.91h-157.43v24.219c0 20.452-1.276 24.219-8.51 24.219-8.085 0-8.51-3.767-8.51-61.894zm-1591.4-82.3v-26.372l19.573-3.767c11.063-1.615 51.911-3.229 91.057-3.229 62.123 0 71.909-1.076 77.866-9.149 8.085-12.379 9.787-22.066 5.957-40.365-4.681-22.066-20.849-25.834-111.91-25.834h-82.547v-53.82h94.886c81.27 0 96.588 1.076 109.35 9.688 20.849 12.917 27.657 33.368 27.657 82.883 0 44.671-5.106 59.202-29.359 81.807-10.638 10.764-18.722 11.302-107.23 12.917l-95.312 1.615zm1591.4-11.9c0-10.226 2.979-10.764 69.356-10.764l68.93-.538-68.93-34.983c-67.229-34.445-69.356-36.06-69.356-51.129v-15.608h87.227c84.249 0 87.227.538 87.227 10.764s-2.979 10.764-51.911 11.841c-28.934.538-60.846 0-71.483-.538-10.638-1.077-18.297 0-17.02 1.615 2.127 2.153 62.123 32.292 120.42 59.202 17.445 8.611 19.998 11.302 19.998 25.296v15.608h-87.227c-84.248 0-87.227-.538-87.227-10.764zm87.2-164.1l-85.1-27.448-2.553-33.368 86.376-26.372c82.546-25.834 86.376-26.372 87.652-16.146 2.127 13.455-2.553 16.684-31.487 24.757l-22.977 6.458 3.404 55.974 25.955 7.535c24.254 7.535 25.956 8.611 25.956 23.143 0 8.073-.426 14.532-.851 14.532-.851-.538-39.572-13.455-86.376-29.063zm14.892-46.286c0-20.452-.851-22.066-9.361-18.837-5.531 1.615-22.976 6.997-39.146 12.379l-29.785 9.149 29.785 9.15c46.805 14.532 48.507 13.993 48.507-11.841zM5003.7 3386.5l-28.934-2.153v-80.192c0-68.352.851-80.731 6.382-80.731 5.106 0 6.382 7.535 6.382 37.136v37.674l22.126 1.615c30.21 2.153 31.061 12.917 1.276 17.761l-23.402 3.229v47.9h23.402c20.424 0 23.402 1.076 23.402 10.764 0 5.92-.426 10.226-.851 9.688-.851-.538-14.042-1.615-29.785-2.691zm60.4-11.3c-24.253-31.216-19.998-135.63 6.382-148.54 10.212-4.844 27.232-3.767 35.742 2.153 19.573 12.917 28.083 88.265 15.318 127.55-12.34 37.136-36.593 45.209-57.442 18.837zm40.422-17.222c7.659-19.375 8.51-83.422.851-102.26-3.404-8.611-9.786-13.993-17.02-15.07-9.787-1.615-12.765 1.076-17.871 17.222-11.489 33.907-6.808 100.64 7.659 111.95 10.212 8.073 19.998 3.767 26.381-11.84zM5308.8 3377.3c-12.34-15.608-16.594-40.904-14.041-86.651 2.127-45.209 12.34-64.046 35.742-66.199 13.616-1.077 18.722 1.077 27.232 12.379 9.787 13.455 10.638 18.299 10.638 71.043 0 54.897-.426 56.511-11.914 69.428-15.318 16.684-34.465 16.684-47.656 0zm39.146-17.761c11.063-20.99 10.637-93.109-.425-108.72-20.424-28.525-38.295-2.153-38.295 55.973 0 59.741 20.849 87.727 38.72 52.744zM5149.2 3304.1v-80.731h29.359c21.7 0 29.785 2.153 31.487 8.073 2.127 5.92-2.553 8.073-21.7 9.15l-24.254 1.615-1.276 71.581c-.851 58.126-2.127 71.043-7.233 71.043-5.532 0-6.382-13.455-6.382-80.73zm76.6 0v-80.731h29.359c21.7 0 29.785 2.153 31.487 8.073 2.127 5.92-2.553 8.073-21.7 9.15l-24.253 1.615-1.276 71.581c-.851 58.126-2.127 71.043-7.234 71.043-5.532 0-6.382-13.455-6.382-80.73zm159.6 68.9l23.402-145.32c0-2.691 3.83-4.306 8.084-4.306 9.787 0 10.212 2.153 19.998 67.276 6.808 45.747 14.467 71.581 14.467 48.438 0-5.92 4.255-34.445 9.361-62.97 7.233-43.056 10.637-52.744 16.594-52.744 8.51 0 9.361 3.229 24.679 94.186 10.638 63.508 10.638 67.275 2.979 67.275-5.532 0-15.318-43.056-22.551-98.491-3.404-26.91-7.659-19.913-13.616 23.143-9.361 62.432-12.765 75.348-21.275 75.348-6.382 0-9.361-10.226-17.871-62.432l-10.212-62.97-4.681 29.063-10.212 62.97c-4.255 26.91-6.808 33.368-13.616 33.368-5.957 0-7.234-2.691-5.532-11.84zm912.7-5.4c-46.805-15.608-61.697-95.8-27.232-144.24 23.402-32.292 45.103-40.365 110.2-40.365 49.783.538 57.442 1.615 76.59 13.455 25.53 16.146 34.465 39.827 29.785 83.422-1.276 15.07-2.979 41.442-3.404 59.202l-.851 32.292-125.522 3.229v-97.415h17.02c11.914 0 17.02 2.153 17.02 7.535 0 10.764 20.424 30.139 31.487 30.139 16.169 0 28.083-15.07 28.083-34.983 0-27.987-13.19-36.06-63.825-39.289-58.719-3.767-97.864 10.764-97.864 35.521 0 4.306 6.808 15.608 14.893 25.834 12.765 15.07 14.892 20.99 14.892 41.98 0 13.455-1.276 25.296-2.978 26.372-2.127 1.076-10.212 0-18.297-2.691zm1561.1-116.8c-11.488-14.531-12.339-18.837-12.339-55.973v-40.365l50.209-2.153c27.232-1.077 66.378-1.077 87.227 0 32.763 2.153 37.019 3.229 37.019 12.378s-3.404 10.226-27.232 10.226c-14.892 0-33.189 1.615-40.422 3.229-13.191 3.767-13.616 4.306-11.063 25.834 3.83 30.139 11.063 35.521 47.656 35.521 30.21 0 31.062.538 31.062 13.455s-.851 13.455-27.658 13.455c-29.785 0-57.442-10.764-57.442-22.605-.425-4.844-1.702-4.306-5.531 1.615-8.51 13.994-22.552 20.99-41.273 20.99-14.041 0-20.424-3.229-30.21-15.608zm57.442-19.914c4.255-4.844 6.808-17.761 6.808-32.292v-23.681h-59.57v23.681c0 14.532 2.553 27.448 6.808 32.292 8.51 11.302 37.444 11.302 45.954 0zM6280.6 3135.7c-19.573-16.684-24.679-38.75-24.679-107.1l-.426-58.126h229.77v52.744l-46.379 2.153c-25.53.538-48.081 3.229-49.783 5.382-5.106 6.458 7.233 36.06 19.573 47.362 8.51 7.535 19.147 10.764 34.891 10.764 38.72 0 41.699 2.691 41.699 33.907v26.91l-42.124-3.229c-41.273-2.691-65.101-11.84-70.207-26.372-1.276-5.382-3.404-4.305-6.808 2.691-13.616 26.91-60.421 34.445-85.525 12.917zm67.654-56.511c2.553-4.844 5.106-18.837 5.106-31.754v-23.143h-22.126c-36.593 0-42.975 3.767-39.997 23.143 3.404 20.452 9.787 30.678 25.53 38.751 14.041 7.535 23.402 5.382 31.487-6.997zM7940.5 3102.8l-81.696-26.372c-9.787-3.229-11.914-6.997-11.914-19.913 0-17.761-6.383-15.07 95.737-45.747l71.484-22.066c5.531-2.153 7.234 0 7.234 10.226s-2.979 13.994-11.488 16.684l-28.083 9.149-15.744 5.382 1.702 27.987 1.702 27.448 25.955 7.535c22.977 6.458 25.956 8.611 25.956 20.452 0 6.997-2.553 12.917-5.106 12.379-2.979 0-37.018-10.764-75.739-23.143zm8.51-46.285c0-24.758.851-24.758-42.55-11.302-33.614 10.764-33.189 11.841 4.255 24.219 37.018 12.379 38.295 11.841 38.295-12.917zM7846.9 2954.8c0-10.226 3.404-10.764 71.909-12.379 63.399-1.615 72.76-2.691 80.844-11.841 5.106-5.92 8.935-16.684 8.935-24.757s-3.829-18.837-8.935-24.757c-8.085-9.149-17.446-10.226-80.844-11.84-65.952-1.615-71.909-2.691-71.909-11.302 0-12.379 22.126-16.684 82.547-16.684 54.038.538 74.037 5.92 87.227 24.757 8.51 12.917 9.786 19.375 8.085 43.595-1.276 20.452-4.681 32.83-11.488 40.903-8.51 11.302-13.616 11.841-87.653 13.455-76.164 1.615-78.717 1.615-78.717-9.149zm-1470.1-40.9l-106.37-33.907c-12.34-3.767-12.765-5.382-14.041-40.365-.851-19.914-.426-36.06 0-36.06.851 0 48.507-14.531 105.52-32.292l114.03-34.983c9.361-2.691 9.786-1.615 8.51 25.296l-1.276 28.525-26.381 6.997-26.806 7.535v21.528c0 26.372 17.02 50.053 39.571 55.435l15.744 3.767v29.063c0 24.219-1.276 29.063-7.234 28.525-4.255 0-49.783-13.455-101.27-29.063zm14.041-79.654c1.276-17.761.426-20.452-6.382-18.299-4.255 1.615-17.871 5.92-30.21 9.149-20.424 5.92-22.126 7.535-16.594 14.532 6.808 9.149 30.21 17.222 43.401 16.146 6.808-1.077 8.935-5.382 9.786-21.528zM7868.2 2799.3c-10.637-6.459-16.594-15.07-20.85-31.216-5.531-19.914-5.106-23.681 2.127-43.056 12.765-33.369 31.912-42.518 88.929-42.518 50.209 0 67.229 6.458 80.419 30.678 9.361 16.684 8.51 43.056-2.128 60.279-7.234 11.302-7.659 13.993-2.127 13.993 3.83 0 6.808 4.306 6.808 10.764 0 10.226-2.979 10.764-46.805 10.764h-46.805v-32.292c0-28.525.851-32.292 8.51-32.292 6.808 0 8.51 3.767 8.51 19.375v19.376l24.253-2.153c18.296-2.153 25.956-5.382 31.912-15.07 10.637-16.684 8.51-31.216-6.382-45.209-10.638-9.688-17.871-11.302-55.315-11.302-48.081 0-69.356 7.535-75.313 26.91s-.426 33.907 15.743 41.442c10.638 4.844 14.042 9.149 13.19 17.222-1.702 14.532-7.233 15.608-24.679 4.306z"/></g><text transform="scale(.95584 -1.0462)" x="8478.754" y="-6619.488" fill="#06f" font-family="Bahnschrift" font-size="334.12" xml:space="preserve"><tspan x="8478.754" y="-6619.488">Aruba</tspan></text><text transform="scale(.88846 -1.1255)" x="5086.476" y="-3085.765" fill="#06f" font-family="Eras Demi ITC" font-size="320.96" xml:space="preserve"><tspan x="5086.476" y="-3085.765">JunTechPC</tspan></text></g></svg>