<svg xmlns="http://www.w3.org/2000/svg" xmlns:svg="http://www.w3.org/2000/svg" id="a76d04cf-4eac-47e3-b05a-1f8f938c71e5" width="856" height="495.158" data-name="Layer 1" version="1.1" viewBox="0 0 856 495.158"><metadata id="metadata126"/><path style="fill:#5d5b80;fill-opacity:1" id="path71" fill="#2f2e41" d="M790.98251,682.84065H220.29076a19.1356,19.1356,0,0,1-19.1356-19.1356v0q310.31347-36.06437,608.963,0v0A19.1356,19.1356,0,0,1,790.98251,682.84065Z" transform="translate(-172 -202.42116)"/><path id="path73" fill="#3f3d56" d="M810.11811,664.83065,201.15516,663.705l70.57668-118.7534.33768-.56282v-261.719a24.18764,24.18764,0,0,1,24.18966-24.18966h415.378a24.18764,24.18764,0,0,1,24.18966,24.18966v263.52Z" transform="translate(-172 -202.42116)"/><path id="path75" fill="#fff" d="M295.70764,275.36452a7.88822,7.88822,0,0,0-7.87938,7.87937V521.87632a7.88858,7.88858,0,0,0,7.87938,7.87937h419.858a7.88892,7.88892,0,0,0,7.87937-7.87937V283.24389a7.88857,7.88857,0,0,0-7.87937-7.87937Z" transform="translate(-172 -202.42116)"/><path style="fill:#565577;fill-opacity:1" id="path77" fill="#2f2e41" d="M297.467,561.27318a3.38619,3.38619,0,0,0-3.068,1.96545l-21.74687,47.27624a3.37672,3.37672,0,0,0,3.06743,4.7883H733.0447a3.37649,3.37649,0,0,0,3.01962-4.88723L712.4262,563.1397a3.35975,3.35975,0,0,0-3.01962-1.86652Z" transform="translate(-172 -202.42116)"/><circle id="circle79" cx="331.948" cy="63.938" r="5.065" fill="#fff"/><path style="fill:#585578;fill-opacity:1" id="path81" fill="#2f2e41" d="M458.99686,624.30817a3.382,3.382,0,0,0-3.26035,2.49858l-5.455,20.26124a3.37655,3.37655,0,0,0,3.26035,4.25517H557.28346a3.3761,3.3761,0,0,0,3.19-4.48161L553.4603,626.5803a3.37866,3.37866,0,0,0-3.19111-2.27213Z" transform="translate(-172 -202.42116)"/><polygon id="polygon83" fill="#2f2e41" points="563.827 338.028 563.827 342.53 99.732 342.53 100.081 341.968 100.081 338.028 563.827 338.028"/><path id="path85" fill="#e6e6e6" d="M347.2859,324.91224a6.20636,6.20636,0,0,0-6.11,6.28545V473.66794a6.20636,6.20636,0,0,0,6.11,6.28545H663.98737a6.20637,6.20637,0,0,0,6.11-6.28545V331.19769a6.20637,6.20637,0,0,0-6.11-6.28545Z" transform="translate(-172 -202.42116)"/><path id="path87" fill="#00b0ff" d="M529.22387,480.208h115.2864a3.71131,3.71131,0,0,0,2.62439-6.33524l-73.78487-73.78487a3.71534,3.71534,0,0,0-5.24829,0l-18.34838,18.34839a7.783,7.783,0,0,1-11.00824,0l-57.46966-57.46967a3.71594,3.71594,0,0,0-5.24879,0l-112.397,112.397a3.71131,3.71131,0,0,0,2.62439,6.33525H529.37155Z" transform="translate(-172 -202.42116)"/><path id="path91" fill="#3f3d56" d="M354.88666,376.48591a1.01839,1.01839,0,0,1-1.01834-1.01833V307.23929a1.0184,1.0184,0,0,1,1.01834-1.01834h78.41161a1.01834,1.01834,0,1,1,0,2.03667H355.905v67.21A1.01838,1.01838,0,0,1,354.88666,376.48591Z" transform="translate(-172 -202.42116)"/><path id="path93" fill="#3f3d56" d="M656.31313,377.50424a1.01806,1.01806,0,0,1-1.01833-1.01833v-67.21H577.90151a1.01833,1.01833,0,1,1,0-2.03666h78.41162a1.01806,1.01806,0,0,1,1.01833,1.01833v68.22829A1.01806,1.01806,0,0,1,656.31313,377.50424Z" transform="translate(-172 -202.42116)"/><path id="path95" fill="#3f3d56" d="M433.29827,497.6675H354.88666a1.01807,1.01807,0,0,1-1.01834-1.01833V428.42088a1.01834,1.01834,0,1,1,2.03667,0v67.20995h77.39328a1.01834,1.01834,0,1,1,0,2.03667Z" transform="translate(-172 -202.42116)"/><path id="path97" fill="#3f3d56" d="M656.31313,498.68583H577.90151a1.01833,1.01833,0,1,1,0-2.03666H655.2948v-67.21a1.01833,1.01833,0,0,1,2.03666,0V497.6675A1.01774,1.01774,0,0,1,656.31313,498.68583Z" transform="translate(-172 -202.42116)"/><path id="path99" fill="#ffb8b8" d="m 783.59269,280.95807 v 0 a 11.48805,11.48805 0 0 0 12.60354,-11.43377 v -24.47891 l -16.00961,-1.92115 -6.539,23.29533 a 11.48806,11.48806 0 0 0 9.94507,14.5385 z"/><path id="path101" fill="#ffb8b8" d="m 645.12522,292.34035 v 0 a 11.48807,11.48807 0 0 0 10.13706,-13.66823 l -4.76453,-24.01075 -16.07735,1.23166 -1.87983,24.12256 a 11.48806,11.48806 0 0 0 12.58465,12.32476 z"/><path id="path103" fill="#2f2e41" d="m 690.53285,473.66259 18.70945,0.79974 c -4.00176,-75.62 -2.75489,-139.58654 8.18669,-182.0285 13.61706,48.45584 18.29985,112.04412 18.65979,182.95425 l 20.40365,-1.72549 c 8.721,-83.96891 13.14375,-161.60319 3.84231,-219.01143 -29.1846,-16.95559 -61.50247,-17.0073 -97.33841,1.92115 -0.80375,64.31133 10.22592,138.16768 27.53652,217.09028 z"/><path style="fill:#000" id="path105" fill="#2f2e41" d="m 693.949,469.77136 -7.9385,2.64617 c 0,0 -16.75906,-4.41028 -12.34878,7.05644 4.41028,11.46672 16.75905,9.70261 16.75905,9.70261 0,0 14.995,11.46672 21.16933,2.64617 l -3.52822,-18.52317 z"/><path style="fill:#000" id="path107" fill="#2f2e41" d="m 749.87439,469.77136 7.9385,2.64617 c 0,0 16.75905,-4.41028 12.34877,7.05644 -4.41028,11.46672 -16.75905,9.70261 -16.75905,9.70261 0,0 -14.99494,11.46672 -21.16933,2.64617 l 3.52822,-18.52317 z"/><circle id="circle109" cx="686.05" cy="33.078" r="26.256" fill="#ffb8b8"/><path id="path111" fill="#ffb8b8" d="m 682.84824,85.5897 39.70383,-10.88653 c -10.046,-12.31618 -13.68751,-26.24162 -11.52692,-41.625 h -28.17691 z"/><path style="fill:#2a7fff" id="path113" fill="#00b0ff" d="m 660.43479,262.33577 c 35.47578,-13.08012 70.22316,-15.51513 103.74226,0 -9.68933,-63.72639 -12.759,-121.22835 -2.39542,-161.22037 a 16.85692,16.85692 0 0 0 -9.46516,-19.69 l -35.52786,-15.68756 -33.94037,5.123 -28.65132,20.79531 A 16.80513,16.80513 0 0 0 648.44,111.45523 c 15.09684,38.03003 17.86476,89.68303 11.99479,150.88054 z"/><path style="fill:#2a7fff" id="path115" fill="#00b0ff" d="m 779.54627,245.04539 18.57114,1.92116 -18.9337,-133.61786 A 39.42944,39.42944 0 0 0 752.06158,81.29525 l -2.61337,-0.82862 3.8423,71.723 z"/><path style="fill:#2a7fff" id="path117" fill="#00b0ff" d="m 651.62546,257.73848 -18.03186,4.84046 -2.48452,-134.92978 a 39.42941,39.42941 0 0 1 21.6987,-35.94717 l 2.449,-1.23238 7.5746,71.42537 z"/><path style="fill:#1a1a1a" id="path119" fill="#2f2e41" d="m 711.90039,52.93215 c 0,0 21.52733,-26.09706 1.51061,-45.17682 C 699.52454,-5.48113 679.83063,1.11605 669.07029,6.39841 a 19.86526,19.86526 0 0 0 -11.09272,14.79467 c -0.71674,4.94 0.46637,9.373 8.06573,7.3448 15.19874,-4.05637 10.64164,9.37086 10.64164,9.37086 0,0 10.80855,-0.17112 10.64164,9.37087 -0.16691,9.54199 24.57381,5.65254 24.57381,5.65254 z"/><g id="g1130" transform="matrix(0.10050203,0,0,0.09906359,196.7989,132.05757)"><ellipse style="stroke-width:.780446" id="circle151" cx="225.583" cy="231.52" rx="177.583" ry="177.52"/><g id="g935" transform="matrix(0.69368242,0,0,0.69343915,48.588603,54.145154)" style="fill:#06f"><g id="g933" style="fill:#06f"><path id="path931" d="M 437.02,74.98 C 388.667,26.628 324.38,0 256,0 187.62,0 123.333,26.628 74.98,74.98 26.628,123.333 0,187.62 0,256 0,324.38 26.628,388.667 74.98,437.02 123.333,485.372 187.62,512 256,512 324.38,512 388.667,485.372 437.02,437.02 485.372,388.667 512,324.38 512,256 512,187.62 485.372,123.333 437.02,74.98 Z M 256,491.602 C 126.089,491.602 20.398,385.912 20.398,256 20.398,126.088 126.089,20.398 256,20.398 385.911,20.398 491.602,126.089 491.602,256 491.602,385.911 385.911,491.602 256,491.602 Z" style="fill:#06f"/></g></g><g style="fill:#06f" id="g263" transform="matrix(0.47420482,0,0,0.4740566,110.69361,115.68089)"><g style="fill:#06f" id="g261"><g style="fill:#06f" id="g259"><polygon style="fill:#06f" id="polygon249" points="45.4 367.7 136.7 367.7 182.1 288.9 136.7 210 45.4 210 0 288.9"/><polygon style="fill:#06f" id="polygon251" points="290 279.2 335.8 200.3 290 121.5 199.2 121.5 153.7 200.3 199.2 279.2"/><polygon style="fill:#06f" id="polygon253" points="335.8 377.4 290 298.6 199.2 298.6 153.7 377.4 199.2 456.6 290 456.6"/><polygon style="fill:#06f" id="polygon255" points="0 111.8 45.4 190.6 136.7 190.6 182.1 111.8 136.7 32.6 45.4 32.6"/><polygon style="fill:#06f" id="polygon257" points="489.2 111.8 443.8 32.6 352.5 32.6 307.1 111.4 352.5 190.6 443.8 190.6"/></g></g></g></g></svg>