<svg xmlns="http://www.w3.org/2000/svg" xmlns:svg="http://www.w3.org/2000/svg" id="b0be4804-10ca-4842-b31b-b943f29dadcb" width="731.413" height="522.402" data-name="Layer 1" version="1.1" viewBox="0 0 731.413 522.402"><metadata id="metadata1804"/><rect id="rect1769" width="436" height="2" x="156" y="335" fill="#e6e6e6"/><rect id="rect1771" width="436" height="2" x="156" y="257" fill="#e6e6e6"/><rect id="rect1773" width="436" height="2" x="156" y="179" fill="#e6e6e6"/><rect id="rect1775" width="2" height="312" x="503.8" y="102" fill="#e6e6e6"/><rect id="rect1777" width="2" height="312" x="416.6" y="102" fill="#e6e6e6"/><rect id="rect1779" width="2" height="312" x="329.4" y="102" fill="#e6e6e6"/><rect id="rect1781" width="2" height="312" x="242.2" y="102" fill="#e6e6e6"/><rect style="fill:#2a7fff" id="rect1783" width="175" height="78" x="243" y="180" fill="#00b0ff"/><path id="path1785" fill="#00b0ff" d="M 330.92126,252.06303"/><polygon style="fill:#2a7fff" id="polygon1787" fill="#00b0ff" points="178 153 87 150 87 234" transform="translate(156,102)"/><path style="fill:#2a7fff" id="path1789" fill="#00b0ff" d="m 418,255.00003 v 3 l -1.14014,1.01 -2.2998,2.04 c -44.73,1.35 -80.85987,33.39 -82.49024,73.12 l -2.0498,1.82 -0.02,0.01 v -84 z"/><path id="path1791" fill="#e6e6e6" d="m 417.5,259.00003 c -0.21,0 -0.43018,0 -0.64014,0.01 -47.57959,0.3 -86.25,34.62 -86.83984,76.98 -0.02,0.34 -0.02,0.67 -0.02,1.01 0,43.01 39.25,78 87.5,78 48.25,0 87.5,-34.99 87.5,-78 0,-43.01 -39.25002,-78 -87.50002,-78 z m 0,154 c -47.14014,0 -85.5,-34.09 -85.5,-76 0,-0.95 0.02,-1.89 0.0698,-2.83 1.63037,-39.73 37.76026,-71.77 82.49024,-73.12 0.97021,-0.04 1.9497,-0.05 2.93994,-0.05 47.14013,0 85.5,34.09 85.5,76 0,41.91 -38.35987,76 -85.5,76 z"/><path id="path1793" fill="#e6e6e6" d="m 369.5,336.01611 -5,-0.0278 c 0.002,-0.44482 0.803,-44.48047 51.95117,-47.53467 l 0.29785,4.99121 C 370.36096,296.21484 369.5133,334.39258 369.5,336.01611 Z"/><path id="path1795" fill="#e6e6e6" d="m 467.97998,335.00003 a 42.53605,42.53605 0 0 0 -13.98,-30.11 53.43668,53.43668 0 0 0 -36.39991,-13.95 h -0.10009 c -27.46973,0 -49.89014,19.67 -50.48,44.06 -0.02,0.33 -0.02,0.67 -0.02,1 0,12.76 5.97021,24.29 15.5498,32.49 a 53.64325,53.64325 0 0 0 34.9502,12.57 h 0.10009 c 27.79981,-0.05 50.39991,-20.24 50.39991,-45.06 2e-5,-0.33 2e-5,-0.67 -0.02,-1 z"/><path style="fill:#0aabff;fill-opacity:1" id="path1797" fill="#00b0ff" d="m 454,304.89003 -1.5,1.33 -68.4502,60.94 -1.5,1.33 c -9.57959,-8.2 -15.5498,-19.73 -15.5498,-32.49 0,-0.33 0,-0.67 0.02,-1 0.58984,-24.39 23.01025,-44.06 50.48,-44.06 h 0.10009 A 53.43668,53.43668 0 0 1 454,304.89003 Z"/></svg>