<svg xmlns="http://www.w3.org/2000/svg" xmlns:xlink="http://www.w3.org/1999/xlink" width="859.399" height="767.784" xmlns:v="https://vecta.io/nano"><defs><linearGradient id="A" x1="214.068" y1="364.927" x2="627.941" y2="364.927" gradientUnits="userSpaceOnUse"><stop offset="0" stop-color="#06f"/><stop offset="1" stop-color="#06f" stop-opacity="0"/></linearGradient><path id="B" d="M216.824 135.464a2.819 2.717 0 0 1-1.571-3.284 1.355 1.306 0 0 0 .061-.301h0a1.414 1.363 0 0 0-2.54-.903h0a1.355 1.306 0 0 0-.156.268 2.819 2.717 0 0 1-3.407 1.514 1.355 1.306 0 0 0-.313-.059h0a1.414 1.363 0 0 0-.937 2.448h0a1.355 1.306 0 0 0 .278.151 2.819 2.717 0 0 1 1.571 3.284 1.355 1.306 0 0 0-.061.301h0a1.414 1.363 0 0 0 2.54.903h0a1.355 1.306 0 0 0 .156-.268 2.819 2.717 0 0 1 3.407-1.514 1.355 1.306 0 0 0 .313.059h0a1.414 1.363 0 0 0 .937-2.448h0a1.355 1.306 0 0 0-.278-.151z"/><path id="C" d="M362.749 121.297l-7.004-7.544 2.06-.794 4.944 4.368 7.004-9.927 2.472 1.986z"/></defs><path d="M421.004 107.947L214.068 230.684s0 253.145 206.937 391.224c206.937-138.079 206.937-391.224 206.937-391.224z" fill="url(#A)"/><path d="M422.24 107.947l-3.537 2.098v509.468l3.537 2.394c206.937-138.079 206.937-391.224 206.937-391.224z" fill="#59f"/><path fill="#f9f9f9" d="M477.783 339.553l-67.866 82.906-55.266-59.532 16.255-6.267 39.011 34.466 48.36-67.239z" opacity=".7"/><path fill="#fff" d="M472.412 335.856l-60.653 76.25-44.831-48.292 13.186-5.083 31.645 27.958 44.831-63.542z"/><use xlink:href="#B" fill="#06f" opacity=".5"/><g fill="#59f"><use xlink:href="#B" x="-112.022" y="240.341"/><ellipse cx="664.232" cy="287.836" rx="4.604" ry="4.437"/><ellipse cx="208.604" cy="593.065" rx="4.604" ry="4.437"/></g><ellipse cx="742.494" cy="458.662" fill="#80b3ff" rx="4.604" ry="4.437"/><use xlink:href="#B" x="523.872" y="222.264" fill="#59f"/><use xlink:href="#B" x="490.291" y="485.858" fill="#2a7fff"/><g fill="#59f"><use xlink:href="#B" x="-117.393" y="99.834"/><ellipse cx="150.922" cy="310.021" rx="4.604" ry="4.437"/></g><g fill="#2a7fff"><path d="M560.381 105h2.302v12.572h-2.302z"/><path d="M568.054 110.177v2.219H555.01v-2.219z"/></g><g opacity=".5" fill="#fff"><path d="M546.071 592.514h2.302v12.572h-2.302z"/><path d="M553.744 597.691v2.219H540.7v-2.219z"/></g><g fill="#59f"><path d="M110.257 619.136h2.302v12.572h-2.302z"/><path d="M117.929 624.313v2.219h-13.044v-2.219z"/></g><g fill="#80b3ff"><path d="M663.3 496.084h2.302v12.572H663.3z"/><path d="M670.972 501.261v2.219h-13.044v-2.219z"/></g><path fill="#06f" opacity=".5" d="M714.872 187.399l-9.476 11.913-7.004-7.544 2.06-.794 4.944 4.368 7.004-9.927z"/><path fill="#00b0ff" d="M542.269 277.581l17.053-.637.85 21.132-17.053.637z"/><path d="M482.395 350.953s-23.616-10.875-23.238-1.483 23.805 15.571 23.805 15.571z" fill="#ffb9b9"/><path d="M495.351 430.421s-11.142 26.283-15.258 45.25-10.386 45.067-2.322 63.578 30.992 72.915 31.228 78.785-1.964 11.831 2.909 11.649 31.387-8.228 32.463-11.795-9.046-12.595-9.046-12.595l-24.996-75.491 26.079-49.181 18.811 73.371 3.684 91.572s18.082-5.379 20.707-.774c0 0 8.101-10.885 9.131-15.626s-3.826-95.094-3.826-95.094 16.598-102.912 3.199-102.412-65.881-30.459-92.764-1.236z" fill="#2c5aa0"/><path d="M511.719 624.987s-12.36 26.329-13.531 27.548-9.225 13.278-3.135 13.051 20.471-6.644 31.056-16.446 24.541-26.784 23.275-27.913-9.934-4.332-9.934-4.332zm49.385 14.615s-.746 11.786-2.993 16.573-1.964 11.831 4.127 11.603 21.831-3.167 21.831-3.167.935-7.09-.331-8.218-6.657-13.86-4.363-17.473-18.271.683-18.271.683z" fill="#b3b3b3"/><path d="M570.114 257.14s12.984 19.503 18.045 24.017-9.178 14.452-9.178 14.452l-25.485 3.304s.321-22.352-.992-24.654 17.61-17.119 17.61-17.119z" fill="#ffb9b9"/><path d="M547.963 282.659s5.25 9.21 10.123 9.028 30.074-10.53 31.151-14.098 8.348 25.555 8.348 25.555l-61.667 104.597-15.042-10.02 7.288-61.412 5.986-33.145z" fill="#fff"/><path d="M591.51 376.269c-2.46 4.96-3.996 10.132-3.783 15.426.009.235.019.47.04.704.584 10.866 4.737 23.432 6.227 32.571 1.081 6.556.773 11.341-3.207 12.465-9.65 2.712 1.407 4.65-35.929 16.628s-43.851 1.639-43.946-.709 5.287-20.186 4.022-21.314-17.705 14.771-22.671 12.605-.567-14.088-.567-14.088 11.189-25.109 10.953-30.979 16.949-33.555 16.949-33.555l11.688-73.335s4.494-9.574 10.538-10.976 11.057 1.938 11.057 1.938l-10.113 21.542-10.669 38.023 1.785 14.043s12.407-25.155 20.556-34.866 25.523-32.7 25.523-32.7 4.056-13.191.994-17.133c-3.062-3.954 12.773-4.545 19.524 11.663 3.578 8.59 9.388 21.401 13.028 33.328 3.243 10.567 4.775 20.445 1.562 26.091-4.911 8.626-17.264 19.963-23.561 32.626z" fill="#214478"/><path d="M615.072 343.643c-4.911 8.626-17.264 19.963-23.561 32.626-1.645-5.712-3.652-11.621-3.652-11.621s-7.696-39.689 15.069-49.946a15.236 14.685 0 0 1 10.582 2.85c3.243 10.567 4.775 20.445 1.562 26.091z" opacity=".15"/><path d="M524.697 341.142l-19.3 5.424-26.798 1.002-2.757 22.443 44.04 3.057s11-29.805 4.815-31.926z" fill="#214478"/><path d="M556.169 416.601s-25.82 4.129-19.927 11.618 28.767-.384 28.767-.384z" fill="#ffb9b9"/><path d="M587.768 392.4c.584 10.866 4.737 23.432 6.227 32.571-8.225 7.503-16.047 14.121-18.995 14.231-6.09.228-15.882-.582-19.489.728s-5.723-20.95-5.723-20.95 2.153-7.135 11.756-11.021c6.482-2.629 18.907-9.76 26.224-15.56z" opacity=".154"/><path d="M602.645 307.658s20.613-3.122 19.499 29.841 2.173 54.004-6.118 60.193-35.22 34.238-41.311 34.466-15.882-.582-19.489.728-5.723-20.95-5.723-20.95 2.153-7.135 11.756-11.021 32.227-17.665 32.038-22.361-5.723-20.95-5.723-20.95-7.696-39.689 15.069-49.946z" fill="#214478"/><ellipse cx="551.937" cy="260.171" fill="#ffb9b9" rx="26.818" ry="25.848"/><path d="M533.88 223.124a5.178 4.991 0 0 1-2.255 1.091 1.609 1.551 0 0 1-1.865-1.245c-.614 1.226-1.306 2.534-2.559 3.163s-3.19.102-3.37-1.249a5.913 5.699 0 0 1-1.361 2.769c-.777.714-2.187.895-2.865.092.549 2.89.21 5.861.382 8.794s.984 6.042 3.283 7.971c3.353 2.813 8.395 2.118 12.805 1.586a3.887 3.746 0 0 1 2.007.106c1.651.678 1.577 2.894 1.599 4.624a13.33 12.847 0 0 0 11.672 12.2 6.682 6.44 0 0 0 4.966-1.168c1.252-1.023 1.892-2.69 3.327-3.459 2.334-1.25 5.165.573 6.871 2.552s3.388 4.414 6.032 4.777c3.496.479 6.159-2.955 7.466-6.117a37 35.661 0 0 0-.735-27.709c-7.301-15.338-32.24-17.764-45.4-8.776z" fill="#333"/><g fill="#2a7fff"><use xlink:href="#B" x="70.916" y="-56.569"/><use xlink:href="#C"/><path d="M406.587 53.87h2.302v12.572h-2.302z"/><path d="M414.259 59.047v2.219h-13.044v-2.219z"/><use xlink:href="#B" x="263.719" y="-38.88"/></g><use xlink:href="#C" x="-216.907" y="368.606" fill="#59f"/><g opacity=".5" fill="#2a7fff"><path d="M322.704 650.616h2.302v12.572h-2.302z"/><path d="M330.377 655.793v2.219h-13.044v-2.219z"/></g><ellipse cx="649.937" cy="120.33" fill="#80b3ff" opacity=".5" rx="4.604" ry="4.437"/></svg>