<svg xmlns="http://www.w3.org/2000/svg" xmlns:xlink="http://www.w3.org/1999/xlink" height="488.674" viewBox="0 0 646.024 474.358" width="665.522" xmlns:v="https://vecta.io/nano"><defs><path id="A" d="M142.806 254.967h-41.037c-3.333 0-6.035-2.603-6.035-5.814s2.702-5.814 6.035-5.814h41.037c3.333 0 6.035 2.603 6.035 5.814s-2.702 5.814-6.035 5.814z"/><linearGradient id="B" x1="-506.288" y1="135.105" x2="490.369" y2="244.6" gradientUnits="userSpaceOnUse"><stop offset="0" stop-color="#0684ff"/><stop offset="1" stop-color="#0684ff" stop-opacity="0"/></linearGradient></defs><path d="M494.399 101.401v239.266H213.686l-46.002-4.295-45.73 4.294h-16.057c-6.311.001-11.428-4.929-11.428-11.01V101.401l202.282-10.366z" fill="#ddeafb"/><path d="M475.288 94.269v246.398h19.111V101.401z" fill="#cbe2ff"/><path d="M456.176 71.299l6.914 15.051-6.914 15.051H94.469V82.309c0-6.081 5.117-11.01 11.428-11.01z" fill="#2a7fff"/><path d="M494.399 82.309v19.092h-38.223V71.299h26.794c6.311 0 11.428 4.929 11.428 11.01z" fill="#59f"/><path d="M482.971 71.299H463.86c6.312 0 11.428 4.93 11.428 11.011v19.092h19.111V82.309c0-6.081-5.117-11.01-11.428-11.01z" fill="#80b3ff"/><path d="M213.684 131.891v88.539l-46 5.603-45.734-5.603v-88.539c0-2.636 2.229-4.775 4.965-4.775h81.813c2.736 0 4.957 2.14 4.957 4.775z" fill="#59f"/><path d="M213.684 220.429v35.281c0 3.132-2.631 5.675-5.882 5.675H127.84c-3.251 0-5.89-2.543-5.89-5.675v-35.281z" fill="#fff9df"/><path d="M213.55 340.667h-91.733v-51.414c0-2.64 2.221-4.779 4.961-4.779h81.81c2.74 0 4.961 2.14 4.961 4.779v51.414zm127.178-208.776v38.04l-45.863 6.642-45.863-6.642v-38.04c0-2.636 2.221-4.775 4.957-4.775h81.813c2.736 0 4.957 2.14 4.957 4.775z" fill="#2a7fff"/><path d="M340.728 240.058v38.04l-43.977 4.483-47.749-4.483v-38.04c0-2.644 2.221-4.783 4.957-4.783h81.813c2.736 0 4.957 2.14 4.957 4.783z" fill="#80b3ff"/><path d="M467.788 131.891v38.04l-45.919 6.642-45.816-6.642v-38.04c0-2.636 2.221-4.775 4.965-4.775h81.805c2.744 0 4.965 2.14 4.965 4.775z" fill="#59f"/><path d="M340.728 169.931v35.281c0 3.132-2.631 5.675-5.882 5.675h-79.962c-3.251 0-5.882-2.543-5.882-5.675v-35.281zm127.06 0v35.281c0 3.132-2.639 5.675-5.89 5.675h-79.962c-3.251 0-5.882-2.543-5.882-5.675v-35.281zm-127.06 108.167v35.281c0 3.132-2.631 5.667-5.882 5.667h-79.962c-3.251 0-5.882-2.535-5.882-5.667v-35.281z" fill="#fff9df"/><path d="M290.716 304.385h-15.967c-3.333 0-6.035-2.603-6.035-5.814s2.702-5.814 6.035-5.814h15.967c3.333 0 6.035 2.603 6.035 5.814s-2.702 5.814-6.035 5.814z" fill="#2a7fff"/><g transform="translate(45.934 -7.865)" fill="#2a7fff"><use xlink:href="#A"/><use xlink:href="#A" x="127.046" y="-50.88"/><path d="M396.906 204.087H355.87c-3.333 0-6.035-2.603-6.035-5.814s2.702-5.814 6.035-5.814h41.037c3.333 0 6.035 2.603 6.035 5.814s-2.703 5.814-6.036 5.814z"/></g><g stroke="#06f" transform="matrix(.456118 0 0 .437403 373.00559 213.89106)" stroke-width="2.026"><path d="M136.7 367.7l45.4-78.8-45.4-78.9H45.4L0 288.9l45.4 78.8z" fill="url(#B)"/><path d="M335.8 200.3L290 121.5h-90.8l-45.5 78.8 45.5 78.9H290z" fill="url(#B)"/><path d="M290 298.6h-90.8l-45.5 78.8 45.5 79.2H290l45.8-79.2z" fill="url(#B)"/><path d="M45.4 190.6h91.3l45.4-78.8-45.4-79.2H45.4L0 111.8z" fill="url(#B)"/><path d="M443.8 32.6h-91.3l-45.4 78.8 45.4 79.2h91.3l45.4-78.8z" fill="url(#B)"/></g></svg>