<?xml version="1.0" encoding="UTF-8" standalone="no"?>
<svg
   xmlns:dc="http://purl.org/dc/elements/1.1/"
   xmlns:cc="http://creativecommons.org/ns#"
   xmlns:rdf="http://www.w3.org/1999/02/22-rdf-syntax-ns#"
   xmlns:svg="http://www.w3.org/2000/svg"
   xmlns="http://www.w3.org/2000/svg"
   xmlns:sodipodi="http://sodipodi.sourceforge.net/DTD/sodipodi-0.dtd"
   xmlns:inkscape="http://www.inkscape.org/namespaces/inkscape"
   inkscape:version="1.0 (4035a4fb49, 2020-05-01)"
   sodipodi:docname="JunTechPC-Aruba-Responsive-Website-Design.svg"
   xml:space="preserve"
   viewBox="0 0 500 500"
   version="1.1"
   id="Layer_1"
   enable-background="new 0 0 500 500"><metadata
     id="metadata114"><rdf:RDF><cc:Work
         rdf:about=""><dc:format>image/svg+xml</dc:format><dc:type
           rdf:resource="http://purl.org/dc/dcmitype/StillImage" /><dc:title></dc:title></cc:Work></rdf:RDF></metadata><defs
     id="defs112" /><sodipodi:namedview
     inkscape:current-layer="Layer_1"
     inkscape:window-maximized="1"
     inkscape:window-y="-9"
     inkscape:window-x="-9"
     inkscape:cy="250"
     inkscape:cx="250"
     inkscape:zoom="1.602"
     showgrid="false"
     id="namedview110"
     inkscape:window-height="1001"
     inkscape:window-width="1920"
     inkscape:pageshadow="2"
     inkscape:pageopacity="0"
     guidetolerance="10"
     gridtolerance="10"
     objecttolerance="10"
     borderopacity="1"
     bordercolor="#666666"
     pagecolor="#ffffff" /><g
     id="g107"><path
       id="path63"
       fill="#E0DEDE"
       d="M307.747,430.261H127.394h0c27.085-3.315,47.44-26.315,47.44-53.601v-52.988h85.473v52.988   C260.307,403.946,280.663,426.946,307.747,430.261L307.747,430.261z" /><path
       id="path65"
       fill="#E8E6E6"
       d="M383.492,340.766H38.576c-12.493,0-22.621-10.128-22.621-22.621V79.818   c0-12.493,10.128-22.621,22.621-22.621h344.916c12.493,0,22.621,10.128,22.621,22.621v238.326   C406.114,330.638,395.986,340.766,383.492,340.766z" /><path
       id="path67"
       fill="#E8E6E6"
       d="M369.287,442.328H60.826c-3.123,0-5.654-2.531-5.654-5.654v-0.759c0-3.123,2.531-5.654,5.654-5.654h308.461   c3.123,0,5.654,2.531,5.654,5.654v0.759C374.941,439.796,372.41,442.328,369.287,442.328z" /><path
       id="path69"
       fill="#4384EC"
       d="M16,80.726V295h391V80.726c0-0.705-0.908-1.726-0.944-2.726H16.012C15.977,79,16,80.021,16,80.726z" /><path
       id="path71"
       fill="#2666CE"
       d="M16,80.726v213.992L406.562,80.678c0-0.705-0.47-1.678-0.505-2.678H16.012C15.977,79,16,80.021,16,80.726z" /><rect
       id="rect73"
       y="340.766"
       x="174.834"
       width="85.473"
       height="17.428"
       fill="#D3CDCD" /><path
       id="path75"
       fill="#2666CE"
       d="M407,295v-72H281.26c-6.305,0-11.26,5.215-11.26,11.52V295H407z" /><path
       id="path77"
       fill="#D3CDCD"
       d="M270,295v46h111.975C395.306,341,407,329.958,407,316.626V295H270z" /><path
       id="path79"
       fill="#D3CDCD"
       d="M287,423.066c-7-3.959-13-9.298-17-15.594V430h17V423.066z" /><rect
       id="rect81"
       y="430.24"
       x="269.974"
       width="22.322"
       height="12.088"
       fill="#E0DEDE" /><g
       id="g105"><path
         id="path83"
         fill="#D3CDCD"
         d="M426.915,442.328H291.578c-5.909,0-10.699-4.79-10.699-10.699V233.802c0-5.909,4.79-10.699,10.699-10.699    h135.337c5.909,0,10.699,4.79,10.699,10.699v197.827C437.614,437.538,432.824,442.328,426.915,442.328z" /><rect
         id="rect85"
         y="241.977"
         x="280.879"
         width="156.735"
         height="170.122"
         fill="#4384EC" /><polygon
         id="polygon87"
         points="280.879,412.099 280.879,241.977 437.614,241.977   "
         fill="#2666CE" /><path
         id="path89"
         fill="#E8E6E6"
         d="M366.762,430.261h-15.03c-1.944,0-3.521-1.576-3.521-3.521v-0.473c0-1.944,1.576-3.521,3.521-3.521h15.03    c1.944,0,3.521,1.576,3.521,3.521v0.473C370.282,428.685,368.706,430.261,366.762,430.261z" /><path
         id="path91"
         fill="#1D5EBC"
         d="M406.619,412.427v-73.808c0-6.305,5.112-11.417,11.417-11.417h39.158c6.305,0,11.417,5.112,11.417,11.417    v73.808H406.619z" /><path
         id="path93"
         fill="#C4BCBC"
         d="M407,430.911c0,6.305,4.73,11.089,11.036,11.089h39.157c3.822,0,6.807-1.558,8.807-4.442V412h-59V430.911z    " /><g
         id="g103"><path
           id="path95"
           fill="#E8E6E6"
           d="M468.076,442.328h-40.593c-5.909,0-10.699-4.79-10.699-10.699v-93.728c0-5.909,4.79-10.699,10.699-10.699     h40.593c5.909,0,10.699,4.79,10.699,10.699v93.728C478.775,437.538,473.985,442.328,468.076,442.328z" /><rect
           id="rect97"
           y="337.114"
           x="416.783"
           width="61.992"
           height="89.511"
           fill="#4384EC" /><polygon
           id="polygon99"
           points="416.783,426.625 416.783,337.114 478.775,337.114    "
           fill="#2666CE" /><path
           id="path101"
           fill="#FFFFFF"
           d="M450.678,437.775h-5.797c-1.944,0-3.521-1.576-3.521-3.521v-0.473c0-1.944,1.576-3.521,3.521-3.521h5.797     c1.944,0,3.521,1.576,3.521,3.521v0.473C454.198,436.199,452.622,437.775,450.678,437.775z" /></g></g></g></svg>
