<svg xmlns="http://www.w3.org/2000/svg" xmlns:xlink="http://www.w3.org/1999/xlink" viewBox="0 0 1329.835 845.45" xmlns:v="https://vecta.io/nano"><style><![CDATA[.B{stroke-width:2.026}.C{stroke-width:2.017}]]></style><defs><linearGradient id="A" gradientUnits="userSpaceOnUse"><stop offset="0" stop-color="#0684ff"/><stop offset="1" stop-color="#0684ff" stop-opacity="0"/></linearGradient><linearGradient id="B" x1="-506.288" x2="490.369" y1="135.105" y2="244.6" xlink:href="#A"/><linearGradient id="C" x1="0" x2="489.2" y1="244.6" y2="244.6" xlink:href="#A"/><linearGradient  x1="0" x2="489.2" y1="244.6" y2="244.6" xlink:href="#A"/><linearGradient xlink:href="#A" id="E" x1="0" y1="244.6" x2="489.2" y2="244.6"/><path id="F" d="M136.7 367.7l45.4-78.8-45.4-78.9H45.4L0 288.9l45.4 78.8z"/><path id="G" d="M335.8 200.3L290 121.5h-90.8l-45.5 78.8 45.5 78.9H290z"/><path id="H" d="M290 298.6h-90.8l-45.5 78.8 45.5 79.2H290l45.8-79.2z"/><path id="I" d="M45.4 190.6h91.3l45.4-78.8-45.4-79.2H45.4L0 111.8z"/><path id="J" d="M443.8 32.6h-91.3l-45.4 78.8 45.4 79.2h91.3l45.4-78.8z"/><path id="K" d="M182.1 288.9L136.7 210H45.4L0 288.9l45.4 78.8h91.3z"/><path id="L" d="M290 121.5h-90.8l-45.5 78.8 45.5 78.9H290l45.8-78.9z"/><path id="M" d="M199.2 298.6l-45.5 78.8 45.5 79.2H290l45.8-79.2-45.8-78.8z"/><path id="N" d="M136.7 190.6l45.4-78.8-45.4-79.2H45.4L0 111.8l45.4 78.8z"/><path id="O" d="M352.5 32.6l-45.4 78.8 45.4 79.2h91.3l45.4-78.8-45.4-79.2z"/><path id="P" d="M136.7 210H45.4L0 288.9l45.4 78.8h91.3l45.4-78.8z"/><path id="Q" d="M199.2 121.5l-45.5 78.8 45.5 78.9H290l45.8-78.9-45.8-78.8z"/><path id="R" d="M153.7 377.4l45.5 79.2H290l45.8-79.2-45.8-78.8h-90.8z"/><path id="S" d="M182.1 111.8l-45.4-79.2H45.4L0 111.8l45.4 78.8h91.3z"/><path id="T" d="M307.1 111.4l45.4 79.2h91.3l45.4-78.8-45.4-79.2h-91.3z"/><path id="U" d="M45.4 210L0 288.9l45.4 78.8h91.3l45.4-78.8-45.4-78.9z"/><path id="V" d="M153.7 200.3l45.5 78.9H290l45.8-78.9-45.8-78.8h-90.8z"/><path id="W" d="M199.2 456.6H290l45.8-79.2-45.8-78.8h-90.8l-45.5 78.8z"/><path id="X" d="M136.7 32.6H45.4L0 111.8l45.4 78.8h91.3l45.4-78.8z"/><path id="Y" d="M352.5 190.6h91.3l45.4-78.8-45.4-79.2h-91.3l-45.4 78.8z"/><path id="Z" d="M45.4 367.7h91.3l45.4-78.8-45.4-78.9H45.4L0 288.9z"/><path id="a" d="M290 279.2l45.8-78.9-45.8-78.8h-90.8l-45.5 78.8 45.5 78.9z"/><path id="b" d="M335.8 377.4L290 298.6h-90.8l-45.5 78.8 45.5 79.2H290z"/><path id="c" d="M0 111.8l45.4 78.8h91.3l45.4-78.8-45.4-79.2H45.4z"/><path id="d" d="M489.2 111.8l-45.4-79.2h-91.3l-45.4 78.8 45.4 79.2h91.3z"/><path id="e" d="M0 288.9l45.4 78.8h91.3l45.4-78.8-45.4-78.9H45.4z"/><path id="f" d="M199.2 279.2H290l45.8-78.9-45.8-78.8h-90.8l-45.5 78.8z"/><path id="g" d="M290 456.6l45.8-79.2-45.8-78.8h-90.8l-45.5 78.8 45.5 79.2z"/><path id="h" d="M45.4 32.6L0 111.8l45.4 78.8h91.3l45.4-78.8-45.4-79.2z"/><path id="i" d="M443.8 190.6l45.4-78.8-45.4-79.2h-91.3l-45.4 78.8 45.4 79.2z"/></defs><g stroke="#06f"><path stroke-width="1.326" d="M-32.171.663h1361.343v844.124H-32.171z"/><g transform="matrix(.41354 0 0 .39713 45.405 61.873)" class="B"><use xlink:href="#F" fill="url(#B)"/><use xlink:href="#G" fill="url(#B)"/><use xlink:href="#H" fill="url(#B)"/><use xlink:href="#I" fill="url(#B)"/><use xlink:href="#J" fill="url(#B)"/></g><g transform="matrix(.41354 0 0 .39713 172.402 -8.578)" class="B"><use xlink:href="#K" fill="url(#B)"/><use xlink:href="#L" fill="url(#B)"/><use xlink:href="#M" fill="url(#B)"/><use xlink:href="#N" fill="url(#B)"/><use xlink:href="#O" fill="url(#B)"/></g><g transform="matrix(.41354 0 0 .39713 45.087 556.177)" class="B"><use xlink:href="#K" fill="url(#B)"/><use xlink:href="#L" fill="url(#B)"/><use xlink:href="#M" fill="url(#B)"/><use xlink:href="#N" fill="url(#B)"/><use xlink:href="#O" fill="url(#B)"/></g><g transform="matrix(.41354 0 0 .39713 -18.032 167.509)" class="B"><use xlink:href="#F" fill="url(#B)"/><use xlink:href="#G" fill="url(#B)"/><use xlink:href="#H" fill="url(#B)"/><use xlink:href="#I" fill="url(#B)"/><use xlink:href="#J" fill="url(#B)"/></g><g transform="matrix(.41354 0 0 .39713 1159.9618 -34.760979)" class="B"><use xlink:href="#K" fill="url(#B)"/><use xlink:href="#L" fill="url(#B)"/><use xlink:href="#M" fill="url(#B)"/><use xlink:href="#N" fill="url(#B)"/><use xlink:href="#O" fill="url(#B)"/></g><g transform="matrix(.41354 0 0 .39713 1096.5661 70.875601)" class="B"><use xlink:href="#K" fill="url(#B)"/><use xlink:href="#L" fill="url(#B)"/><use xlink:href="#M" fill="url(#B)"/><use xlink:href="#N" fill="url(#B)"/><use xlink:href="#O" fill="url(#B)"/></g><g transform="matrix(.41354 0 0 .39713 1159.9611 176.5116)" class="B"><use xlink:href="#P" fill="url(#B)"/><use xlink:href="#Q" fill="url(#B)"/><use xlink:href="#R" fill="url(#B)"/><use xlink:href="#S" fill="url(#B)"/><use xlink:href="#T" fill="url(#B)"/></g><g transform="matrix(.41354 0 0 .39713 1032.9651 247.0016)" class="B"><use xlink:href="#U" fill="url(#B)"/><use xlink:href="#V" fill="url(#B)"/><use xlink:href="#W" fill="url(#B)"/><use xlink:href="#X" fill="url(#B)"/><use xlink:href="#Y" fill="url(#B)"/></g><g transform="matrix(.41354 0 0 .39713 778.97009 598.9366)" class="B"><use xlink:href="#K" fill="url(#B)"/><use xlink:href="#L" fill="url(#B)"/><use xlink:href="#M" fill="url(#B)"/><use xlink:href="#N" fill="url(#B)"/><use xlink:href="#O" fill="url(#B)"/></g><g transform="matrix(.41354 0 0 .39713 905.96709 528.6046)" class="B"><use xlink:href="#K" fill="url(#B)"/><use xlink:href="#L" fill="url(#B)"/><use xlink:href="#M" fill="url(#B)"/><use xlink:href="#N" fill="url(#B)"/><use xlink:href="#O" fill="url(#B)"/></g><g transform="matrix(.41354 0 0 .39713 1159.9611 387.8226)" class="B"><use xlink:href="#Z" fill="url(#B)"/><use xlink:href="#a" fill="url(#B)"/><use xlink:href="#b" fill="url(#B)"/><use xlink:href="#c" fill="url(#B)"/><use xlink:href="#d" fill="url(#B)"/></g><g transform="matrix(.41354 0 0 .39713 1096.3601 563.9096)" class="B"><use xlink:href="#U" fill="url(#B)"/><use xlink:href="#V" fill="url(#B)"/><use xlink:href="#W" fill="url(#B)"/><use xlink:href="#X" fill="url(#B)"/><use xlink:href="#Y" fill="url(#B)"/></g><g transform="matrix(.41354 0 0 .39713 1032.9651 458.2736)" class="B"><use xlink:href="#U" fill="url(#B)"/><use xlink:href="#V" fill="url(#B)"/><use xlink:href="#W" fill="url(#B)"/><use xlink:href="#X" fill="url(#B)"/><use xlink:href="#Y" fill="url(#B)"/></g><g transform="matrix(.41354 0 0 .39713 1159.7551 669.5456)" class="B"><use xlink:href="#P" fill="url(#B)"/><use xlink:href="#Q" fill="url(#B)"/><use xlink:href="#R" fill="url(#B)"/><use xlink:href="#S" fill="url(#B)"/><use xlink:href="#T" fill="url(#B)"/></g><g transform="matrix(.41354 0 0 .39713 969.36209 634.2416)" class="B"><use xlink:href="#F" fill="url(#B)"/><use xlink:href="#G" fill="url(#B)"/><use xlink:href="#H" fill="url(#B)"/><use xlink:href="#I" fill="url(#B)"/><use xlink:href="#J" fill="url(#B)"/></g><g transform="matrix(.41354 0 0 .39713 299.399 61.873)" class="B"><use xlink:href="#P" fill="url(#B)"/><use xlink:href="#Q" fill="url(#B)"/><use xlink:href="#R" fill="url(#B)"/><use xlink:href="#S" fill="url(#B)"/><use xlink:href="#T" fill="url(#B)"/></g><g transform="matrix(.41354 0 0 .39713 651.97309 669.4266)" class="B"><use xlink:href="#U" fill="url(#B)"/><use xlink:href="#V" fill="url(#B)"/><use xlink:href="#W" fill="url(#B)"/><use xlink:href="#X" fill="url(#B)"/><use xlink:href="#Y" fill="url(#B)"/></g><g transform="matrix(.41354 0 0 .39713 426.396 -8.459)" class="B"><use xlink:href="#K" fill="url(#B)"/><use xlink:href="#L" fill="url(#B)"/><use xlink:href="#M" fill="url(#B)"/><use xlink:href="#N" fill="url(#B)"/><use xlink:href="#O" fill="url(#B)"/></g><g transform="matrix(.41354 0 0 .39713 -81.91 626.508)" class="B"><use xlink:href="#P" fill="url(#B)"/><use xlink:href="#Q" fill="url(#B)"/><use xlink:href="#R" fill="url(#B)"/><use xlink:href="#S" fill="url(#B)"/><use xlink:href="#T" fill="url(#B)"/></g><g transform="matrix(.41354 0 0 .39713 172.084 556.177)" class="B"><use xlink:href="#P" fill="url(#B)"/><use xlink:href="#Q" fill="url(#B)"/><use xlink:href="#R" fill="url(#B)"/><use xlink:href="#S" fill="url(#B)"/><use xlink:href="#T" fill="url(#B)"/></g><g transform="matrix(.41354 0 0 .39713 -18.515 450.541)" class="B"><use xlink:href="#K" fill="url(#B)"/><use xlink:href="#L" fill="url(#B)"/><use xlink:href="#M" fill="url(#B)"/><use xlink:href="#N" fill="url(#B)"/><use xlink:href="#O" fill="url(#B)"/></g><g transform="matrix(.41354 0 0 .39713 553.393 -78.79)" class="B"><use xlink:href="#P" fill="url(#B)"/><use xlink:href="#Q" fill="url(#B)"/><use xlink:href="#R" fill="url(#B)"/><use xlink:href="#S" fill="url(#B)"/><use xlink:href="#T" fill="url(#B)"/></g><g transform="matrix(.41354 0 0 .39713 299.363 626.92)" class="B"><use xlink:href="#U" fill="url(#B)"/><use xlink:href="#V" fill="url(#B)"/><use xlink:href="#W" fill="url(#B)"/><use xlink:href="#X" fill="url(#B)"/><use xlink:href="#Y" fill="url(#B)"/></g><g transform="matrix(.41354 0 0 .39713 -18.197 -43.764)" class="B"><use xlink:href="#Z" fill="url(#B)"/><use xlink:href="#a" fill="url(#B)"/><use xlink:href="#b" fill="url(#B)"/><use xlink:href="#c" fill="url(#B)"/><use xlink:href="#d" fill="url(#B)"/></g><g opacity=".725" transform="matrix(.41551 0 0 .39903 -82.51 344.338)" class="C"><use xlink:href="#e" fill="url(#C)"/><use xlink:href="#f" fill="url(#C)"/><use xlink:href="#g" fill="url(#C)"/><use xlink:href="#h" fill="url(#C)"/><use xlink:href="#i" fill="url(#C)"/></g><g opacity=".725" transform="matrix(.41551 0 0 .39903 1223.1635 281.77691)" class="C"><use xlink:href="#e" fill="url(#E)"/><use xlink:href="#f" fill="url(#E)"/><use xlink:href="#g" fill="url(#E)"/><use xlink:href="#h" fill="url(#E)"/><use xlink:href="#i" fill="url(#E)"/></g></g></svg>