<svg xmlns="http://www.w3.org/2000/svg" xmlns:xlink="http://www.w3.org/1999/xlink" height="512" viewBox="0 0 497 497" width="512" xmlns:v="https://vecta.io/nano"><path d="M448.465 109.266v239.266H167.752l-46.002-4.295-45.73 4.294H59.963c-6.311.001-11.428-4.929-11.428-11.01V109.266l202.282-10.366z" fill="#ddeafb"/><path d="M429.354 102.134v246.398h19.111V109.266z" fill="#cbe2ff"/><path d="M410.242 79.164l6.914 15.051-6.914 15.051H48.535V90.174c0-6.081 5.117-11.01 11.428-11.01z" fill="#2a7fff"/><path d="M448.465 90.174v19.092h-38.223V79.164h26.794c6.311 0 11.428 4.929 11.428 11.01z" fill="#59f"/><path d="M437.037 79.164h-19.111c6.312 0 11.428 4.93 11.428 11.011v19.092h19.111V90.174c0-6.081-5.117-11.01-11.428-11.01z" fill="#80b3ff"/><path d="M167.75 139.756v88.539l-46 5.603-45.734-5.603v-88.539c0-2.636 2.229-4.775 4.965-4.775h81.813c2.736 0 4.957 2.14 4.957 4.775z" fill="#59f"/><path d="M167.75 228.294v35.281c0 3.132-2.631 5.675-5.882 5.675H81.906c-3.251 0-5.89-2.543-5.89-5.675v-35.281z" fill="#fff9df"/><path d="M167.616 348.532H75.883v-51.414c0-2.64 2.221-4.779 4.961-4.779h81.81c2.74 0 4.961 2.14 4.961 4.779v51.414zm127.178-208.776v38.04l-45.863 6.642-45.863-6.642v-38.04c0-2.636 2.221-4.775 4.957-4.775h81.813c2.736 0 4.957 2.14 4.957 4.775z" fill="#06f"/><path d="M294.794 247.923v38.04l-43.977 4.483-47.749-4.483v-38.04c0-2.644 2.221-4.783 4.957-4.783h81.813c2.736 0 4.957 2.14 4.957 4.783z" fill="#80b3ff"/><path d="M421.854 139.756v38.04l-45.919 6.642-45.816-6.642v-38.04c0-2.636 2.221-4.775 4.965-4.775h81.805c2.744 0 4.965 2.14 4.965 4.775z" fill="#59f"/><path d="M294.794 177.796v35.281c0 3.132-2.631 5.675-5.882 5.675H208.95c-3.251 0-5.882-2.543-5.882-5.675v-35.281zm127.06 0v35.281c0 3.132-2.639 5.675-5.89 5.675h-79.962c-3.251 0-5.882-2.543-5.882-5.675v-35.281zm-127.06 108.167v35.281c0 3.132-2.631 5.667-5.882 5.667H208.95c-3.251 0-5.882-2.535-5.882-5.667v-35.281z" fill="#fff9df"/><g fill="#ffd15b"><path d="M244.782 312.25h-15.967c-3.333 0-6.035-2.603-6.035-5.814s2.702-5.814 6.035-5.814h15.967c3.333 0 6.035 2.603 6.035 5.814s-2.702 5.814-6.035 5.814z"/><path d="M448.465 277.816v118.641c0 9.667-8.127 17.497-18.162 17.497H262.944c-10.034 0-18.162-7.83-18.162-17.497v-92.989c0-9.659 8.127-17.497 18.162-17.497h78.57c7.628 0 14.436-4.582 17.059-11.481l1.014-2.682c2.623-6.9 9.431-11.489 17.059-11.489h53.657c10.034 0 18.162 7.83 18.162 17.497z"/></g><path d="M344.686 389.874h-70.112c-2.164 0-3.918-1.69-3.918-3.775v-16.747c0-2.085 1.754-3.775 3.918-3.775h70.112c2.164 0 3.918 1.69 3.918 3.775V386.1c0 2.085-1.754 3.775-3.918 3.775z" fill="#fff9df"/><path d="M344.686 365.578h-19.84c2.164 0 3.918 1.69 3.918 3.775V386.1c0 2.085-1.754 3.775-3.918 3.775h19.84c2.164 0 3.918-1.69 3.918-3.775v-16.747c0-2.085-1.754-3.775-3.918-3.775z" fill="#fff0ad"/><path d="M430.303 260.319h-21.369c6.664 0 12.067 5.205 12.067 11.625v130.384c0 6.42-5.403 11.625-12.067 11.625h21.369c10.034 0 18.162-7.83 18.162-17.497V277.816c0-9.667-8.127-17.497-18.162-17.497z" fill="#ffc344"/><g fill="#ffd15b"><use xlink:href="#B"/><use xlink:href="#B" x="127.046" y="-50.88"/><path d="M396.906 204.087H355.87c-3.333 0-6.035-2.603-6.035-5.814s2.702-5.814 6.035-5.814h41.037c3.333 0 6.035 2.603 6.035 5.814s-2.703 5.814-6.036 5.814z"/></g><path d="M420.997 289.867h-39.027c-3.333 0-6.035-2.603-6.035-5.814s2.702-5.814 6.035-5.814h39.027c3.333 0 6.035 2.603 6.035 5.814s-2.702 5.814-6.035 5.814z" fill="#528fd8"/><defs ><path id="B" d="M142.806 254.967h-41.037c-3.333 0-6.035-2.603-6.035-5.814s2.702-5.814 6.035-5.814h41.037c3.333 0 6.035 2.603 6.035 5.814s-2.702 5.814-6.035 5.814z"/></defs></svg>