<svg xmlns="http://www.w3.org/2000/svg" xmlns:svg="http://www.w3.org/2000/svg" id="ae5f5559-570c-4c14-9324-22f1786600a2" width="926.929" height="609.009" data-name="Layer 1" version="1.1" viewBox="0 0 926.929 609.009"><metadata id="metadata211"/><title id="title136">static_website</title><rect id="rect138" width="357.722" height="599.889" x="-255.765" y="341.07" fill="#3f3d56" transform="matrix(0.25609771,-0.9666509,0.9573403,0.28896288,0,0)" style="fill:#06f;stroke-width:1.15842"/><ellipse id="circle140" cx="362.552" cy="14.463" fill="#00b0ff" rx="4.756" ry="5.077" style="fill:#fff;stroke-width:1.15808"/><ellipse id="circle142" cx="377.198" cy="18.884" fill="#00b0ff" rx="4.756" ry="5.077" style="fill:#fff;stroke-width:1.15808"/><ellipse id="circle144" cx="391.844" cy="23.304" fill="#00b0ff" rx="4.756" ry="5.077" style="fill:#fff;stroke-width:1.15808"/><path id="path146" fill="#00b0ff" d="m 657.418,219.41763 a 55.566115,59.310267 0 0 0 -23.2074,0.58465 55.466969,59.20444 0 0 0 1.6405,-25.02978 55.142605,58.85822 0 0 0 -20.7442,14.28879 55.141899,58.857466 0 0 0 -10.6619,-23.76838 55.466341,59.20377 0 0 0 -10.8826,22.24013 55.566384,59.310554 0 0 0 -19.4838,-13.47049 c 0,0 -3.4638,18.80357 4.8754,34.23296 7.4222,13.7328 21.6827,20.15926 24.7311,21.40755 l 0.072,0.0914 0.038,-0.0464 c 0.3094,0.12526 0.4826,0.18915 0.4826,0.18915 0,0 0.065,-0.36117 0.1558,-1.00572 0.055,-0.0723 0.1098,-0.14576 0.1708,-0.22686 0.012,0.1029 0.024,0.19641 0.035,0.28861 -0.2393,0.59962 -0.3608,0.94401 -0.3608,0.94401 0,0 0.179,0.0423 0.5041,0.10864 l 0.011,0.061 0.1054,-0.0379 c 3.2096,0.64067 18.511,3.13712 31.5719,-4.41307 14.6743,-8.48298 20.949,-26.43815 20.949,-26.43815 z" style="fill:#fff;stroke-width:1.15808"/><ellipse id="circle148" cx="628.956" cy="158.185" fill="#00b0ff" rx="12.367" ry="13.2" style="fill:#fff;stroke-width:1.15808"/><rect id="rect150" width="388.203" height="8.928" x="454.769" y="88.944" fill="#00b0ff" transform="matrix(0.9573403,0.28896288,-0.25609771,0.9666509,0,0)" style="fill:#f9f9f9;stroke-width:1.15842"/><rect id="rect152" width="66.931" height="70.753" x="491.103" y="133.418" fill="#00b0ff" transform="matrix(0.9573403,0.28896288,-0.25609771,0.9666509,0,0)" style="fill:#fff;stroke-width:1.15842"/><rect id="rect154" width="66.931" height="70.753" x="615.405" y="133.418" fill="#00b0ff" transform="matrix(0.9573403,0.28896288,-0.25609771,0.9666509,0,0)" style="fill:#fff;stroke-width:1.15842"/><rect id="rect156" width="66.931" height="70.753" x="738.282" y="133.844" fill="#00b0ff" transform="matrix(0.9573403,0.28896288,-0.25609771,0.9666509,0,0)" style="fill:#fff;stroke-width:1.15842"/><rect id="rect158" width="49.721" height="6.065" x="499.709" y="218.322" fill="#00b0ff" transform="matrix(0.9573403,0.28896288,-0.25609771,0.9666509,0,0)" style="fill:#fff;stroke-width:1.15842"/><rect id="rect160" width="49.721" height="6.065" x="624.01" y="218.322" fill="#00b0ff" transform="matrix(0.9573403,0.28896288,-0.25609771,0.9666509,0,0)" style="fill:#fff;stroke-width:1.15842"/><rect id="rect162" width="49.721" height="6.065" x="748.311" y="218.322" fill="#00b0ff" transform="matrix(0.9573403,0.28896288,-0.25609771,0.9666509,0,0)" style="fill:#fff;stroke-width:1.15842"/><path id="path168" fill="#3f3d56" d="m 624.6336,511.91675 h 71.4682 v 31.90195 h -41.5801 v 31.90193 h 41.5838 v 31.90002 h -71.4719 z m 85.7636,0 h 71.47 v 27.74065 h -41.582 v 5.54773 h 41.582 v 63.8039 h -71.4681 v -29.13105 h 41.582 v -5.54773 h -41.5857 v -62.4135 z m 85.7655,0 h 71.47 v 27.74065 h -41.582 v 5.54773 h 41.582 v 63.8039 h -71.47 v -29.13105 h 41.582 v -5.54773 h -41.5801 v -62.4135 z" style="fill:#fff;stroke-width:1.15808"/><path id="path170" fill="#3f3d56" d="m 0,365.9486 h 29.4829 v 31.09153 H 56.4536 V 365.9486 h 29.4848 v 94.15294 H 56.4555 V 428.57372 H 29.4848 v 31.52781 H 0.0018 V 365.9486 Z m 124.7078,31.22338 H 98.7563 V 365.9486 h 81.4079 v 31.22338 h -25.968 v 62.92956 h -29.4829 v -62.92956 z m 68.3758,-31.22338 h 30.742 l 18.9105,33.08286 18.8924,-33.08286 h 30.7546 v 94.15294 H 263.02 V 413.4342 l -20.2839,33.47647 h -0.5087 L 221.9309,413.4342 v 46.66734 h -28.8473 z m 113.972,0 h 29.492 v 63.03233 h 41.4615 v 31.12061 H 307.0537 V 365.9486 Z" style="fill:#fff;stroke-width:1.15808"/></svg>