<svg xmlns="http://www.w3.org/2000/svg" xmlns:xlink="http://www.w3.org/1999/xlink" height="512" width="512" xmlns:v="https://vecta.io/nano"><path d="M173.574 288.031h-50.355v62.079a2.647 2.51 0 0 0 2.647 2.51h47.708zm227.327-51.344c0-4.622 3.966-8.382 8.84-8.382h22.184a9.18 9.18 0 0 1 3.7.78v-72.247a2.647 2.51 0 0 0-2.647-2.51h-72.157v95.924h40.08z" fill="#eaf6ff"/><path d="M173.574 288.031h-28.293v41.163a2.647 2.51 0 0 0 2.647 2.51h25.645zm227.327-51.344c0-4.622 3.966-8.382 8.84-8.382h3.822v-50.55a2.647 2.51 0 0 0-2.647-2.51h-50.094v75.008h40.08v-13.566z" fill="#46cc8d"/><path d="M407.528 228.582c.709-.174 1.448-.277 2.213-.277h9.857v-50.55c0-4.539-3.896-8.232-8.683-8.232h-50.094v11.443h46.707zm-233.954 97.4h-22.258v-37.951h-12.07v41.163c0 4.539 3.895 8.232 8.683 8.232h25.645z" fill="#c4e2ff"/><path d="M173.574 252.234c0-7.143 6.129-12.954 13.663-12.954h49.192c6.473 0 12.103 4.358 13.389 10.362l.131.611h27.684l16.94-28.352c2.421-4.053 6.976-6.569 11.888-6.569h55.163V93.012a2.647 2.51 0 0 0-2.647-2.51H51.866a2.647 2.51 0 0 0-2.647 2.51v193.272a2.647 2.51 0 0 0 2.647 2.51h121.708z" fill="#80b3ff"/><path d="M173.574 252.234c0-7.143 6.129-12.954 13.663-12.954h49.192c6.473 0 12.103 4.358 13.389 10.362l.131.611h27.684l16.94-28.352c2.421-4.053 6.976-6.569 11.888-6.569h33.101V113.929a2.647 2.51 0 0 0-2.647-2.51H73.929a2.647 2.51 0 0 0-2.647 2.51v151.438a2.647 2.51 0 0 0 2.647 2.51h99.645z" fill="#c4e2ff"/><path d="M77.317 231.855l28.686-33.411v-81.302H77.317z" fill="#b3dafe"/><g fill="#46cc8d" transform="matrix(.804688 0 0 .762899 49.218477 56.08101)"><use xlink:href="#A"/><use xlink:href="#A"/></g><path d="M97.262 265.367v-26.483l54.785-63.808-9.568-11.144c-1.765-2.057-5.078-2.057-6.845 0l-64.353 74.952v26.483a2.647 2.51 0 0 0 2.647 2.51h25.98a2.647 2.51 0 0 1-2.647-2.51z" fill="#08b865"/><path d="M173.574 262.156H77.317V117.141h256.211v98.191h12.07V113.929c0-4.539-3.895-8.232-8.683-8.232H73.929c-4.787 0-8.683 3.692-8.683 8.232v151.438c0 4.539 3.895 8.232 8.683 8.232h99.645z" fill="#59f"/><path d="M236.429 239.28c6.473 0 12.103 4.358 13.389 10.362l.131.611h27.684l16.94-28.352c1.581-2.646 4.076-4.632 6.983-5.696l-30.912-36.003c-1.765-2.057-5.078-2.057-6.844 0l-50.723 59.077z" fill="#08b865"/><ellipse cx="210.276" cy="155.344" fill="#fe9901" rx="18.974" ry="17.988"/><path d="M208.152 155.344c0-7.065 4.298-13.175 10.549-16.118-2.539-1.195-5.398-1.871-8.425-1.871-10.479 0-18.974 8.054-18.974 17.988s8.495 17.988 18.974 17.988c3.027 0 5.886-.675 8.425-1.871-6.251-2.942-10.549-9.053-10.549-16.118z" fill="#fb8801"/><path d="M441.571 250.212v-13.525a9.648 9.147 0 0 0-9.646-9.145h-22.184a9.648 9.147 0 0 0-9.646 9.145v13.525z" fill="#647fa0"/><path d="M426.514 227.543h-16.773a9.648 9.147 0 0 0-9.646 9.145v13.525h16.773v-13.525a9.648 9.147 0 0 1 9.646-9.145z" fill="#5e6f90"/><path d="M398.413 250.212l-17.041-28.661a14.468 13.717 0 0 0-12.604-6.981h-62.306a14.468 13.717 0 0 0-12.589 6.956l-17.141 28.687h121.68z" fill="#799fca"/><path d="M340.668 214.57h-34.206a14.468 13.717 0 0 0-12.589 6.956l-17.141 28.687h34.206l17.141-28.687a14.468 13.717 0 0 1 12.589-6.956z" fill="#647fa0"/><path d="M446.75 249.491H249.822a13.672 12.962 0 0 1 .314 2.743V403.12h186.969c13.318 0 24.114-10.235 24.114-22.862V263.207c-.001-7.576-6.479-13.717-14.469-13.717z" fill="#a2c7f8"/><path d="M446.75 249.491H249.822a13.672 12.962 0 0 1 .314 2.743v45.723h211.083v-34.749c0-7.576-6.478-13.717-14.468-13.717z" fill="#8db3df"/><path d="M236.43 238.517h-49.192c-7.991 0-14.468 6.141-14.468 13.717v38.407l1.304.722h75.584l1.241-.722v-38.407c0-7.576-6.478-13.717-14.468-13.717z" fill="#799fca"/><g fill="#647fa0"><path d="M198.643 252.234c0-7.576 6.478-13.717 14.468-13.717h-25.874c-7.991 0-14.468 6.141-14.468 13.717v38.407l1.304.722h25.874l-1.304-.722v-38.407z"/><path d="M172.769 290.64v27.916l.805.763h12.433c5.318 0 9.646 4.102 9.646 9.145v50.203c0 5.043-4.328 9.146-9.646 9.146h-12.433l-.805.763v.827c0 12.626 10.796 22.862 24.114 22.862h44.37c5.327-.001 9.644-4.095 9.646-9.145V290.64z"/></g><path d="M198.643 389.402v-98.761h-25.874v27.915h13.238a10.453 9.91 0 0 1 10.451 9.909v50.202a10.453 9.91 0 0 1-10.451 9.909h-13.238v.827c0 12.626 10.797 22.862 24.114 22.862h25.874c-13.318 0-24.114-10.235-24.114-22.862z" fill="#5e6f90"/><path d="M186.007 318.557h-13.238v70.019h13.238a10.453 9.91 0 0 0 10.451-9.909v-50.202a10.453 9.91 0 0 0-10.451-9.909z" fill="#0593fc"/><path d="M413.985 317.16c-1.498 0-2.96.134-4.384.377a67.803 64.282 0 0 1 0 45.884 24.744 23.459 0 0 0 4.384.377c13.584 0 24.596-10.44 24.596-23.319s-11.011-23.319-24.596-23.319z" fill="#799fca"/><ellipse cx="345.894" cy="340.479" fill="#647fa0" rx="68.966" ry="65.384"/><ellipse cx="345.894" cy="340.479" fill="#799fca" rx="47.502" ry="45.035"/><path d="M345.895 391.236c-29.521 0-53.537-22.769-53.537-50.756s24.017-50.756 53.537-50.756 53.536 22.769 53.536 50.756-24.017 50.756-53.536 50.756zm0-90.069c-22.864 0-41.466 17.636-41.466 39.313s18.602 39.313 41.466 39.313 41.466-17.636 41.466-39.313-18.601-39.313-41.466-39.313z" fill="#5e6f90"/><ellipse cx="345.894" cy="340.479" fill="#647fa0" rx="26.161" ry="24.803"/><path d="M336.458 340.479c0-10.904 7.463-20.18 17.799-23.496a26.04 24.687 0 0 0-8.362-1.307c-14.426 0-26.161 11.127-26.161 24.803s11.736 24.803 26.161 24.803c2.924 0 5.735-.464 8.362-1.307-10.335-3.316-17.799-12.592-17.799-23.496z" fill="#5e6f90"/><defs><path id="A" d="M154.539 257.115c0-9.363 7.617-16.98 16.979-16.98h24.772l-80.395-98.765c-2.194-2.696-6.311-2.696-8.505 0l-79.973 98.246v34.714a3.29 3.29 0 0 0 3.29 3.29h123.831v-20.505z"/></defs></svg>