<svg xmlns="http://www.w3.org/2000/svg" xmlns:svg="http://www.w3.org/2000/svg" id="Layer_1" enable-background="new 0 0 500 500" version="1.1" viewBox="0 0 500 500" xml:space="preserve"><metadata id="metadata114"/><g id="g107" transform="matrix(0.95678666,0,0,0.94806962,16.294962,4.2187016)"><path id="path63" fill="#e0dede" d="M 307.747,430.261 H 127.394 v 0 c 27.085,-3.315 47.44,-26.315 47.44,-53.601 v -52.988 h 85.473 v 52.988 c 0,27.286 20.356,50.286 47.44,53.601 z"/><path id="path65" fill="#e8e6e6" d="M 383.492,340.766 H 38.576 c -12.493,0 -22.621,-10.128 -22.621,-22.621 V 79.818 c 0,-12.493 10.128,-22.621 22.621,-22.621 h 344.916 c 12.493,0 22.621,10.128 22.621,22.621 v 238.326 c 10e-4,12.494 -10.127,22.622 -22.621,22.622 z"/><path id="path67" fill="#e8e6e6" d="M 369.287,442.328 H 60.826 c -3.123,0 -5.654,-2.531 -5.654,-5.654 v -0.759 c 0,-3.123 2.531,-5.654 5.654,-5.654 h 308.461 c 3.123,0 5.654,2.531 5.654,5.654 v 0.759 c 0,3.122 -2.531,5.654 -5.654,5.654 z"/><path id="path69" fill="#4384ec" d="M 16,80.726 V 295 H 407 V 80.726 C 407,80.021 406.092,79 406.056,78 H 16.012 C 15.977,79 16,80.021 16,80.726 Z"/><path id="path71" fill="#2666ce" d="M 16,80.726 V 294.718 L 406.562,80.678 c 0,-0.705 -0.47,-1.678 -0.505,-2.678 H 16.012 C 15.977,79 16,80.021 16,80.726 Z"/><rect id="rect73" width="85.473" height="17.428" x="174.834" y="340.766" fill="#d3cdcd"/><path id="path75" fill="#2666ce" d="M 407,295 V 223 H 281.26 C 274.955,223 270,228.215 270,234.52 V 295 Z"/><path id="path77" fill="#d3cdcd" d="m 270,295 v 46 H 381.975 C 395.306,341 407,329.958 407,316.626 V 295 Z"/><path id="path79" fill="#d3cdcd" d="m 287,423.066 c -7,-3.959 -13,-9.298 -17,-15.594 V 430 h 17 z"/><rect id="rect81" width="22.322" height="12.088" x="269.974" y="430.24" fill="#e0dede"/><g id="g105"><path id="path83" fill="#d3cdcd" d="M 426.915,442.328 H 291.578 c -5.909,0 -10.699,-4.79 -10.699,-10.699 V 233.802 c 0,-5.909 4.79,-10.699 10.699,-10.699 h 135.337 c 5.909,0 10.699,4.79 10.699,10.699 v 197.827 c 0,5.909 -4.79,10.699 -10.699,10.699 z"/><rect id="rect85" width="156.735" height="170.122" x="280.879" y="241.977" fill="#4384ec"/><polygon id="polygon87" fill="#2666ce" points="280.879 412.099 280.879 241.977 437.614 241.977"/><path id="path89" fill="#e8e6e6" d="m 366.762,430.261 h -15.03 c -1.944,0 -3.521,-1.576 -3.521,-3.521 v -0.473 c 0,-1.944 1.576,-3.521 3.521,-3.521 h 15.03 c 1.944,0 3.521,1.576 3.521,3.521 v 0.473 c -0.001,1.945 -1.577,3.521 -3.521,3.521 z"/><path id="path91" fill="#1d5ebc" d="m 406.619,412.427 v -73.808 c 0,-6.305 5.112,-11.417 11.417,-11.417 h 39.158 c 6.305,0 11.417,5.112 11.417,11.417 v 73.808 z"/><path id="path93" fill="#c4bcbc" d="m 407,430.911 c 0,6.305 4.73,11.089 11.036,11.089 h 39.157 c 3.822,0 6.807,-1.558 8.807,-4.442 V 412 h -59 z"/><g id="g103"><path id="path95" fill="#e8e6e6" d="m 468.076,442.328 h -40.593 c -5.909,0 -10.699,-4.79 -10.699,-10.699 v -93.728 c 0,-5.909 4.79,-10.699 10.699,-10.699 h 40.593 c 5.909,0 10.699,4.79 10.699,10.699 v 93.728 c 0,5.909 -4.79,10.699 -10.699,10.699 z"/><rect id="rect97" width="61.992" height="89.511" x="416.783" y="337.114" fill="#4384ec"/><polygon id="polygon99" fill="#2666ce" points="416.783 426.625 416.783 337.114 478.775 337.114"/><path id="path101" fill="#fff" d="m 450.678,437.775 h -5.797 c -1.944,0 -3.521,-1.576 -3.521,-3.521 v -0.473 c 0,-1.944 1.576,-3.521 3.521,-3.521 h 5.797 c 1.944,0 3.521,1.576 3.521,3.521 v 0.473 c -0.001,1.945 -1.577,3.521 -3.521,3.521 z"/></g></g></g></svg>