<svg xmlns="http://www.w3.org/2000/svg" xmlns:xlink="http://www.w3.org/1999/xlink" viewBox="0 0 681.51 520.94" width="406" height="306" xmlns:v="https://vecta.io/nano"><style><![CDATA[.B{fill:#4fbefb}.C{opacity:.24}.D{fill:#fff}]]></style><defs><linearGradient id="A" x1="486.03" y1="221.36" x2="449.74" y2="315.1" gradientUnits="userSpaceOnUse"><stop offset="0" stop-color="#010101" stop-opacity="0"/><stop offset=".95" stop-color="#010101"/></linearGradient><linearGradient id="B" x1="475.54" y1="295.98" x2="566.26" y2="121.93" gradientUnits="userSpaceOnUse"><stop offset="0" stop-color="#fff" stop-opacity="0"/><stop offset=".95" stop-color="#fff"/></linearGradient><linearGradient id="C" x1="485.73" y1="265.76" x2="502.36" y2="169.38" xlink:href="#B"/><linearGradient id="D" x1="492.98" y1="225.57" x2="505.45" y2="200.34" xlink:href="#A"/><linearGradient id="E" x1="482.56" y1="175.24" x2="522.88" y2="175.24" xlink:href="#B"/><linearGradient id="F" x1="462.82" y1="158.03" x2="483.76" y2="158.03" xlink:href="#A"/><linearGradient id="G" x1="447.78" y1="205.13" x2="468.73" y2="205.13" gradientTransform="matrix(-0.97, -0.24, -0.24, 0.97, 1017.13, 122.17)" xlink:href="#A"/><linearGradient id="H" x1="521.62" y1="265.18" x2="281.23" y2="322.26" xlink:href="#B"/><linearGradient id="I" x1="498.55" y1="123.11" x2="510.21" y2="123.11" xlink:href="#A"/><path id="J" d="M510.03 232.73q-1.28 15.9-7 23-7.37 9.12-20.82 9.14-13 0-20.66-9.34c-5-6.2-7.53-16.27-7.57-30.33a79.16 79.16 0 0 1 2.17-7.73 27.88 27.88 0 0 0 9.18-8.5c3.51-5.19 5.32-11.55 9.71-16 1.49-1.49 3.22-2.78 4.31-4.56a9.14 9.14 0 0 0 1.25-3.78c.36-2.66-.08-5.56-.12-8.3a26.72 26.72 0 0 1 3.94-14.21c8.34.12 16.55 3.9 24.73 5.39 3.58 6-2.66 13.74-.93 20.54.61 2.42 2.22 4.47 2.9 6.89 1.13 4.11-.6 8.13-2.29 12.24a41.35 41.35 0 0 0-1.94 5.68c-1.6 6.62.5 13.4 3.14 19.87z"/><path id="K" d="M477.73 140.52c-5.55 5.27-11.31 10.86-13.62 18.16-1.73 5.43-1.36 11.27-1 17 .11 1.53.43 3.37 1.86 3.92 1.62.62 3.2-.94 4.19-2.36 3.36-4.82 6.19-10.19 10.84-13.77a8.74 8.74 0 0 0 2.14-2 7.17 7.17 0 0 0 .81-3.73c.26-7.1.74-14.33.78-21.37-2.38.62-4.16 2.39-6 4.15z"/></defs><path d="M673.75 246.31c-10.91 36.64-31 69.75-50.42 102.65-8.94 15.06-18 30.77-19.93 48.17-1.41 12.92 1.17 26 .24 38.94-2.61 36.97-34.23 67.09-69.61 78.19s-73.7 6.64-110-1-72.2-18.36-109.25-19.61c-26.66-.89-53.16 3.1-79.5 7.21-31.94 5-64.56 10-96.37 4.39s-63.24-23.99-75.6-53.88c-15.39-37.17 2-80.42-7.5-119.53-2.78-11.58-7.78-22.23-13.69-32.58-4.43-7.81-9.38-15.42-14.29-23-8.58-13.33-17-26.82-22.19-41.64-13.61-38.86-1.98-85.29 28.39-113.16 55-50.54 139.66-33.46 203-66.49 69.88-36.48 128-76.35 210.8-41.6 22.91 9.63 43.65 23.89 66.65 33.39 19.29 8 39.91 12.36 59.76 18.88l1.79.62a224.84 224.84 0 0 1 28.52 11.76c26 13 49 31.49 62.66 56.78 18.22 33.58 17.42 74.86 6.54 111.51z" class="B C"/><path d="M590.39 71.9l-1.14 82.21-20.12 11.05-5.1-61.23-204.23 136-106.49-88.67-211.19 148c-4.43-7.81-9.38-15.42-14.29-23l226.89-159.11 106.92 89.11L547.3 85.51c.2.06-53.29-18.71-53.29-18.71 1.58-1.13 11.3-12 13-13.23l69 12.68c9.75 3.26 5.16 1.06 14.38 5.65z" fill="#59f"/><g class="B"><rect x="539.97" y="146.03" width="100.68" height="35.27" rx="9.9" class="C"/><rect x="438.61" y="421.36" width="144.33" height="50.56" rx="14.19" class="C"/><rect x="61.58" y="304" width="131.43" height="46.56" rx="12.99" class="C"/><rect x="103.23" y="415.5" width="102.57" height="39.78" rx="10.61" class="C"/><path d="M408.46 242.81q0-36.75 18.85-57.22 18.85-20.47 52.51-20.47 34.5 0 53.16 20.11 18.66 20.11 18.67 56.35 0 26.31-8.16 43.15a61 61 0 0 1-23.57 26.2q-15.4 9.33-38.41 9.33-23.37 0-38.69-8.09-15.32-8.09-24.79-25.55-9.57-17.5-9.57-43.81zm42.7.21q0 22.73 7.78 32.65 7.78 9.92 21.16 9.93 13.76 0 21.3-9.73 7.54-9.73 7.54-34.9 0-21.19-7.87-31-7.87-9.81-21.35-9.71a25.1 25.1 0 0 0-20.69 9.9q-7.86 9.93-7.87 32.86z" opacity=".37"/></g><path d="M130.94 269.43l40.86-2.56q1.33 10 5.41 15.17 6.63 8.45 19 8.44 9.2 0 14.17-4.32 4.97-4.32 5-10 0-5.4-4.74-9.67-4.74-4.27-22-8.06-28.25-6.35-40.29-16.87a33.94 33.94 0 0 1-12.13-26.83 36.44 36.44 0 0 1 6.21-20.24q6.21-9.53 18.67-15 12.46-5.47 34.18-5.45 26.64 0 40.62 9.91 13.98 9.91 16.64 31.52l-40.51 2.39q-1.62-9.39-6.78-13.65-5.16-4.26-14.27-4.27-7.48 0-11.28 3.18a9.73 9.73 0 0 0-3.79 7.73 7.73 7.73 0 0 0 3.13 6q3 2.74 14.41 5.12 28.16 6.06 40.34 12.27 12.18 6.21 17.72 15.41a39 39 0 0 1 5.52 20.54 44.07 44.07 0 0 1-7.4 24.65 46.2 46.2 0 0 1-20.66 17.11q-13.27 5.83-33.47 5.83-35.44 0-49.1-13.65-13.66-13.65-15.46-34.7zm147.61-93h115.09v29.68h-72.05v22.08h66.83v28.35h-66.83v27.4h74.13v31.47H278.55z" opacity=".37" class="B"/><g class="D"><path d="M132.08 247.32l40.86-2.56q1.32 10 5.4 15.17 6.65 8.44 19 8.44 9.19 0 14.17-4.32 4.98-4.32 5-10 0-5.4-4.74-9.67-4.74-4.27-22-8.06-28.26-6.35-40.29-16.87a34 34 0 0 1-12.14-26.83 36.44 36.44 0 0 1 6.21-20.24q6.21-9.52 18.68-15 12.47-5.48 34.17-5.45 26.64 0 40.63 9.91 13.99 9.91 16.63 31.52l-40.48 2.37q-1.6-9.39-6.78-13.65-5.18-4.26-14.26-4.27-7.5 0-11.28 3.18a9.73 9.73 0 0 0-3.8 7.72 7.73 7.73 0 0 0 3.13 6q3 2.76 14.41 5.13 28.15 6.06 40.34 12.27 12.19 6.21 17.73 15.41a39.12 39.12 0 0 1 5.54 20.57 44.14 44.14 0 0 1-7.39 24.65 46.29 46.29 0 0 1-20.67 17.11q-13.27 5.84-33.46 5.83-35.46 0-49.11-13.65-13.65-13.65-15.5-34.71zm147.6-93h115.09v29.67h-72.05v22.09h66.84v28.35h-66.84v27.4h74.14v31.43H279.68z"/><rect x="138.15" y="358.59" width="397.62" height="46.87" rx="14.43"/></g><path d="M527.32 357.7a16.2 16.2 0 0 0-6-1.13H152.59c-9.078.005-16.442 7.352-16.47 16.43v18c.022 9.082 7.388 16.435 16.47 16.44h368.77c9.053-.06 16.375-7.387 16.43-16.44v-18a16.43 16.43 0 0 0-10.47-15.3zm6.45 33.34c-.016 6.847-5.563 12.394-12.41 12.41H152.59c-6.86 0-12.428-5.55-12.45-12.41v-18c.028-6.856 5.594-12.4 12.45-12.4h368.77c6.843.016 12.388 5.557 12.41 12.4z" class="B C"/><path d="M152.41 386.53a5.38 5.38 0 0 0 2.69.81c1.48 0 2.17-.74 2.17-1.67s-.58-1.5-2.08-2.06c-2-.72-3-1.83-3-3.17 0-1.81 1.46-3.29 3.87-3.29a5.62 5.62 0 0 1 2.76.69l-.51 1.49a4.34 4.34 0 0 0-2.29-.65c-1.21 0-1.88.69-1.88 1.53s.67 1.34 2.13 1.9c1.95.73 2.94 1.71 2.94 3.38 0 2-1.53 3.36-4.19 3.36a6.43 6.43 0 0 1-3.15-.77zm10.62-3.15a3.59 3.59 0 0 0 3.8 3.88 7.29 7.29 0 0 0 3.11-.58l.35 1.46a9 9 0 0 1-3.73.7c-3.46 0-5.52-2.27-5.52-5.66s2-6 5.26-6c3.66 0 4.63 3.22 4.63 5.28a9.05 9.05 0 0 1-.06.95zm6-1.46c0-1.3-.54-3.31-2.83-3.31-2.06 0-3 1.89-3.13 3.31zm10.63 6.69l-.16-1.41h-.07a4.19 4.19 0 0 1-3.43 1.67 3.2 3.2 0 0 1-3.43-3.22c0-2.71 2.41-4.19 6.74-4.17v-.22a2.31 2.31 0 0 0-2.54-2.6 5.55 5.55 0 0 0-2.92.84l-.47-1.35a7 7 0 0 1 3.69-1c3.43 0 4.26 2.34 4.26 4.58v4.2a15.62 15.62 0 0 0 .18 2.68zm-.3-5.72c-2.22-.05-4.75.35-4.75 2.53a1.8 1.8 0 0 0 1.92 1.94 2.78 2.78 0 0 0 2.71-1.87 2.13 2.13 0 0 0 .12-.65zm5.25-1.99l-.09-3.5h1.78l.07 2.2h.09a3.37 3.37 0 0 1 3.11-2.45 2.1 2.1 0 0 1 .58.07v1.92a2.91 2.91 0 0 0-.7-.07 2.86 2.86 0 0 0-2.73 2.62 5.29 5.29 0 0 0-.09.95v6h-2zm15.33 7.3a7.45 7.45 0 0 1-3.22.65c-3.38 0-5.58-2.3-5.58-5.73a5.69 5.69 0 0 1 6-5.95 6.83 6.83 0 0 1 2.83.58l-.47 1.58a4.67 4.67 0 0 0-2.36-.54c-2.57 0-4 1.9-4 4.24a3.85 3.85 0 0 0 3.89 4.2 5.84 5.84 0 0 0 2.5-.56zm2.38-16.03h2v7a3.88 3.88 0 0 1 1.46-1.44 4.29 4.29 0 0 1 2.09-.57c1.51 0 3.91.92 3.91 4.79v6.67h-2v-6.44c0-1.8-.67-3.33-2.59-3.33a2.93 2.93 0 0 0-2.73 2 2.37 2.37 0 0 0-.14 1v6.76h-2z" opacity=".56" class="B"/><path d="M537.79 373v18a16.23 16.23 0 0 1-6.56 13.09h-48V357.7h44.1a16.43 16.43 0 0 1 10.46 15.3z" class="B"/><g class="D"><path d="M504.41 390.1a14.13 14.13 0 0 1-10.001-24.121 14.13 14.13 0 0 1 24.121 10.001c-.017 7.791-6.329 14.103-14.12 14.12zm0-24.32a10.2 10.2 0 0 0-7.226 17.409 10.2 10.2 0 0 0 17.416-7.209c0-5.629-4.561-10.194-10.19-10.2z"/><path d="M509.397 385.878l3.326-2.63 9.373 11.851-3.326 2.63zM533.85 170.39q-18.26-18.9-51.91-18.93-32.87 0-51.31 19.25c-12.24 12.89-18.41 30.81-18.41 53.89q0 24.77 9.31 41.24 9.31 16.47 24.28 24.08 14.93 7.62 37.78 7.61 22.47 0 37.49-8.82a58.46 58.46 0 0 0 23-24.64q7.9-15.9 7.93-40.64.02-34.06-18.16-53.04zm-79.9 54.41q0-21.63 7.61-30.93a24.49 24.49 0 0 1 19-9.26 6.51 6.51 0 0 1 1.25-.08q13.15 0 20.86 9.18a31.51 31.51 0 0 1 6.12 13.45 70.66 70.66 0 0 1 1.57 15.71c0 3.54-.12 6.8-.36 9.86q-1.28 15.9-7 23-7.37 9.12-20.82 9.14-13 0-20.66-9.34c-5-6.2-7.53-16.27-7.57-30.33z"/></g><use xlink:href="#J" class="B"/><g transform="translate(-1.97 -47.74)"><use xlink:href="#J" x="1.97" y="47.74" fill="url(#A)"/><path d="M506.89 283.07q-1 15.89-5.25 23c-3.68 6.08-8.87 9.15-15.6 9.15q-9.78 0-15.48-9.35c-3.74-6.2-5.64-16.27-5.67-30.32q.67-4 1.63-7.73a25.16 25.16 0 0 0 6.88-8.5c2.62-5.2 4-11.56 7.27-16a26.11 26.11 0 0 0 3.23-4.55 11.46 11.46 0 0 0 .93-3.79 76.65 76.65 0 0 0-.09-8.29 33.79 33.79 0 0 1 3-14.22c6.24.12 12.4 3.91 18.52 5.4 2.69 6-2 13.73-.69 20.54.45 2.41 1.66 4.47 2.17 6.88.85 4.11-.45 8.14-1.72 12.25a53.49 53.49 0 0 0-1.45 5.67c-1.21 6.61.36 13.41 2.32 19.86z" fill="url(#B)"/><path d="M486.64 243.89l1.3-1.45a31.82 31.82 0 0 1-7 20.75c-2.17 2.68-4.87 5.16-5.71 8.51a39.79 39.79 0 0 0 17.16-25.7c.7-3.71 1-7.77 3.36-10.7l.49 5.11a104.84 104.84 0 0 0 5.37-12.24c.3-.81.54-1.85-.11-2.42a2.24 2.24 0 0 0-1.27-.41c-4-.39-8.44-1.72-10.5 2.34-2.35 4.66-2.89 11.11-3.09 16.21z" fill="url(#C)"/></g><path d="M482.81 164.74s-.57 8.22 1 10.63 12.19 7.09 16.3 5a27.8 27.8 0 0 0 6.95-5.24l2.07-7.6z" class="B"/><path d="M484.78,212.48s-.57,8.22,1,10.63,12.19,7.09,16.3,5a27.8,27.8,0,0,0,6.95-5.24l2.07-7.6Z" transform="translate(-1.97 -47.74)" fill="url(#D)"/><path d="M480.59 151.46s4.53-62 28.72-68.79 3 82.4 3 82.4-31.72 24.19-31.72-13.61z" class="B"/><path d="M482.56,199.2s4.53-62,28.72-68.79,3,82.4,3,82.4S482.56,237,482.56,199.2Z" transform="translate(-1.97 -47.74)" fill="url(#E)"/><use xlink:href="#K" class="B"/><use xlink:href="#K" x="1.97" y="47.74" transform="translate(-1.97 -47.74)" fill="url(#F)"/><path d="M521.23 146.96c4.15 6.44 8.42 13.24 8.94 20.87.39 5.69-1.36 11.28-3.08 16.71-.46 1.46-1.21 3.17-2.73 3.37-1.73.22-2.89-1.67-3.52-3.29-2.12-5.47-3.6-11.36-7.27-15.94a8.81 8.81 0 0 1-1.61-2.42 7.3 7.3 0 0 1 .09-3.82c1.43-7 2.67-14.09 4.31-21 2.19 1.24 3.5 3.38 4.87 5.52z" class="B"/><g transform="translate(-1.97 -47.74)"><path d="M523.17 194.88c4.14 6.43 8.41 13.23 8.93 20.87.39 5.68-1.35 11.27-3.08 16.71-.46 1.46-1.21 3.17-2.73 3.36-1.72.22-2.89-1.67-3.52-3.29-2.12-5.47-3.6-11.35-7.26-15.93a8.59 8.59 0 0 1-1.61-2.42 7.19 7.19 0 0 1 .08-3.82l4.31-21c2.2 1.24 3.5 3.38 4.88 5.52z" fill="url(#G)"/><path d="M495.72 248.4a33 33 0 0 0-2.42 7.78c-.36 2.66-.06 5.37-.3 8-.47 5.42-3.08 10.39-4.53 15.64-2.06 7.48-1.71 15.38-1.34 23.12L496 274.4a44.59 44.59 0 0 0 2-8 62.5 62.5 0 0 0-.05-9.28 93.07 93.07 0 0 1 1.1-16.17c-1.53 2.13-2.34 4.99-3.33 7.45z" fill="url(#H)"/></g><circle cx="504.43" cy="123.13" r="7.16" class="B"/><circle cx="504.38" cy="123.11" r="5.83" fill="url(#I)"/><rect x="444.05" y="428.95" width="138.72" height="48.59" rx="13.64" class="D"/><g class="B"><rect x="458.41" y="442.27" width="112.33" height="4.18" rx="2.09" class="C"/><rect x="458.41" y="453.83" width="79.06" height="3.95" rx="1.7" class="C"/></g><rect x="49.14" y="293.47" width="138.72" height="48.59" rx="13.64" class="D"/><g class="B"><rect x="63.51" y="306.79" width="112.33" height="4.18" rx="2.09" class="C"/><rect x="63.51" y="318.35" width="79.06" height="3.95" rx="1.7" class="C"/></g><rect x="100.83" y="420.54" width="100.68" height="35.27" rx="9.9" class="D"/><g class="B"><rect x="111.26" y="430.21" width="81.53" height="3.03" rx="1.52" class="C"/><rect x="111.26" y="438.6" width="57.39" height="2.87" rx="1.24" class="C"/></g><rect x="543.28" y="135.07" width="100.68" height="35.27" rx="9.9" class="D"/><g class="B"><rect x="553.71" y="144.74" width="81.53" height="3.03" rx="1.52" class="C"/><rect x="553.71" y="153.13" width="57.39" height="2.87" rx="1.24" class="C"/><path d="M216.01 365.39h1.51v29.48h-1.51z" class="C"/></g></svg>