<?xml version="1.0" encoding="UTF-8" standalone="no"?>
<svg
   xmlns:dc="http://purl.org/dc/elements/1.1/"
   xmlns:cc="http://creativecommons.org/ns#"
   xmlns:rdf="http://www.w3.org/1999/02/22-rdf-syntax-ns#"
   xmlns:svg="http://www.w3.org/2000/svg"
   xmlns="http://www.w3.org/2000/svg"
   xmlns:xlink="http://www.w3.org/1999/xlink"
   xmlns:sodipodi="http://sodipodi.sourceforge.net/DTD/sodipodi-0.dtd"
   xmlns:inkscape="http://www.inkscape.org/namespaces/inkscape"
   height="488.67432"
   viewBox="0 0 646.02431 474.35768"
   width="665.52203"
   version="1.1"
   id="svg5166"
   sodipodi:docname="Website-Design-Portfolio-JunTechPC-Aruba.svg"
   inkscape:version="1.0.2-2 (e86c870879, 2021-01-15)">
  <metadata
     id="metadata5170">
    <rdf:RDF>
      <cc:Work
         rdf:about="">
        <dc:format>image/svg+xml</dc:format>
        <dc:type
           rdf:resource="http://purl.org/dc/dcmitype/StillImage" />
        <dc:title></dc:title>
      </cc:Work>
    </rdf:RDF>
  </metadata>
  <sodipodi:namedview
     pagecolor="#ffffff"
     bordercolor="#666666"
     borderopacity="1"
     objecttolerance="10"
     gridtolerance="10"
     guidetolerance="10"
     inkscape:pageopacity="0"
     inkscape:pageshadow="2"
     inkscape:window-width="1920"
     inkscape:window-height="1001"
     id="namedview5168"
     showgrid="false"
     inkscape:zoom="0.5"
     inkscape:cx="-286.63173"
     inkscape:cy="-23.013279"
     inkscape:window-x="-9"
     inkscape:window-y="-9"
     inkscape:window-maximized="1"
     inkscape:current-layer="svg5166"
     inkscape:document-rotation="0" />
  <defs
     id="defs5164">
    <path
       id="B"
       d="m 142.806,254.967 h -41.037 c -3.333,0 -6.035,-2.603 -6.035,-5.814 0,-3.211 2.702,-5.814 6.035,-5.814 h 41.037 c 3.333,0 6.035,2.603 6.035,5.814 0,3.211 -2.702,5.814 -6.035,5.814 z" />
    <linearGradient
       inkscape:collect="always"
       xlink:href="#linearGradient8692"
       id="linearGradient11668"
       gradientUnits="userSpaceOnUse"
       x1="-506.28784"
       y1="135.10474"
       x2="490.36859"
       y2="244.60001" />
    <linearGradient
       inkscape:collect="always"
       id="linearGradient8692">
      <stop
         style="stop-color:#0684ff;stop-opacity:1;"
         offset="0"
         id="stop943" />
      <stop
         style="stop-color:#0684ff;stop-opacity:0;"
         offset="1"
         id="stop945" />
    </linearGradient>
    <linearGradient
       inkscape:collect="always"
       xlink:href="#linearGradient8692"
       id="linearGradient12884"
       gradientUnits="userSpaceOnUse"
       x1="-506.28784"
       y1="135.10474"
       x2="490.36859"
       y2="244.60001" />
    <linearGradient
       inkscape:collect="always"
       xlink:href="#linearGradient8692"
       id="linearGradient12886"
       gradientUnits="userSpaceOnUse"
       x1="-506.28784"
       y1="135.10474"
       x2="490.36859"
       y2="244.60001" />
    <linearGradient
       inkscape:collect="always"
       xlink:href="#linearGradient8692"
       id="linearGradient12888"
       gradientUnits="userSpaceOnUse"
       x1="-506.28784"
       y1="135.10474"
       x2="490.36859"
       y2="244.60001" />
    <linearGradient
       inkscape:collect="always"
       xlink:href="#linearGradient8692"
       id="linearGradient12890"
       gradientUnits="userSpaceOnUse"
       x1="-506.28784"
       y1="135.10474"
       x2="490.36859"
       y2="244.60001" />
    <linearGradient
       inkscape:collect="always"
       xlink:href="#linearGradient8692"
       id="linearGradient12892"
       gradientUnits="userSpaceOnUse"
       x1="-506.28784"
       y1="135.10474"
       x2="490.36859"
       y2="244.60001" />
    <linearGradient
       inkscape:collect="always"
       xlink:href="#linearGradient8692"
       id="linearGradient12894"
       gradientUnits="userSpaceOnUse"
       x1="-506.28784"
       y1="135.10474"
       x2="490.36859"
       y2="244.60001" />
    <linearGradient
       inkscape:collect="always"
       xlink:href="#linearGradient8692"
       id="linearGradient12896"
       gradientUnits="userSpaceOnUse"
       x1="-506.28784"
       y1="135.10474"
       x2="490.36859"
       y2="244.60001" />
  </defs>
  <path
     d="m 494.39919,101.40094 v 239.266 H 213.68615 l -46.00201,-4.295 -45.72999,4.294 h -16.057 c -6.311005,0.001 -11.428005,-4.929 -11.428005,-11.01 v -228.255 L 296.75119,91.034944 Z"
     fill="#ddeafb"
     id="path5119-3-1" />
  <path
     d="M 475.28819,94.268944 V 340.66694 h 19.111 v -239.266 z"
     fill="#cbe2ff"
     id="path5121-4-5" />
  <path
     d="m 456.17619,71.298944 6.914,15.051 -6.914,15.050996 H 94.469145 V 82.308944 c 0,-6.081 5.117,-11.01 11.428005,-11.01 z"
     fill="#2a7fff"
     id="path5123-0-3" />
  <path
     d="m 494.39919,82.308944 v 19.091996 h -38.223 V 71.298944 h 26.794 c 6.311,0 11.428,4.929 11.428,11.01 z"
     fill="#5599ff"
     id="path5125-9-9" />
  <path
     d="m 482.97119,71.298944 h -19.111 c 6.312,0 11.428,4.93 11.428,11.011 v 19.091996 h 19.111 V 82.308944 c 0,-6.081 -5.117,-11.01 -11.428,-11.01 z"
     fill="#80b3ff"
     id="path5127-8-3" />
  <path
     d="m 213.68415,131.89094 v 88.539 l -46.00001,5.603 -45.73399,-5.603 v -88.539 c 0,-2.636 2.229,-4.775 4.965,-4.775 h 81.813 c 2.736,0 4.957,2.14 4.957,4.775 z"
     fill="#5599ff"
     id="path5129-7-0" />
  <path
     d="m 213.68415,220.42894 v 35.281 c 0,3.132 -2.631,5.675 -5.882,5.675 h -79.962 c -3.251,0 -5.89,-2.543 -5.89,-5.675 v -35.281 z"
     fill="#fff9df"
     id="path5131-5-5" />
  <path
     d="m 213.55015,340.66694 h -91.733 v -51.414 c 0,-2.64 2.221,-4.779 4.961,-4.779 h 81.81 c 2.74,0 4.961,2.14 4.961,4.779 v 51.414 z m 127.17804,-208.776 v 38.04 l -45.863,6.642 -45.86304,-6.642 v -38.04 c 0,-2.636 2.221,-4.775 4.957,-4.775 h 81.81304 c 2.736,0 4.957,2.14 4.957,4.775 z"
     fill="#06f"
     id="path5133-5-4"
     style="fill:#2a7fff" />
  <path
     d="m 340.72819,240.05794 v 38.04 l -43.977,4.483 -47.74904,-4.483 v -38.04 c 0,-2.644 2.221,-4.783 4.957,-4.783 h 81.81304 c 2.736,0 4.957,2.14 4.957,4.783 z"
     fill="#80b3ff"
     id="path5135-04-6" />
  <path
     d="m 467.78819,131.89094 v 38.04 l -45.919,6.642 -45.816,-6.642 v -38.04 c 0,-2.636 2.221,-4.775 4.965,-4.775 h 81.805 c 2.744,0 4.965,2.14 4.965,4.775 z"
     fill="#5599ff"
     id="path5137-1-0" />
  <path
     d="m 340.72819,169.93094 v 35.281 c 0,3.132 -2.631,5.675 -5.882,5.675 h -79.96204 c -3.251,0 -5.882,-2.543 -5.882,-5.675 v -35.281 z m 127.06,0 v 35.281 c 0,3.132 -2.639,5.675 -5.89,5.675 h -79.962 c -3.251,0 -5.882,-2.543 -5.882,-5.675 v -35.281 z m -127.06,108.167 v 35.281 c 0,3.132 -2.631,5.667 -5.882,5.667 h -79.96204 c -3.251,0 -5.882,-2.535 -5.882,-5.667 v -35.281 z"
     fill="#fff9df"
     id="path5139-6-9" />
  <g
     fill="#ffd15b"
     id="g5145-0-8"
     transform="translate(45.934145,-7.8650563)">
    <path
       d="m 244.782,312.25 h -15.967 c -3.333,0 -6.035,-2.603 -6.035,-5.814 0,-3.211 2.702,-5.814 6.035,-5.814 h 15.967 c 3.333,0 6.035,2.603 6.035,5.814 0,3.211 -2.702,5.814 -6.035,5.814 z"
       id="path5141-0-9"
       style="fill:#2a7fff" />
  </g>
  <g
     fill="#ffd15b"
     id="g5159-5-0"
     transform="translate(45.934145,-7.8650563)">
    <use
       xlink:href="#B"
       id="use5153-1-5"
       style="fill:#2a7fff"
       x="0"
       y="0"
       width="100%"
       height="100%" />
    <use
       xlink:href="#B"
       x="127.046"
       y="-50.880001"
       id="use5155-8-2"
       style="fill:#2a7fff"
       width="100%"
       height="100%" />
    <path
       d="M 396.906,204.087 H 355.87 c -3.333,0 -6.035,-2.603 -6.035,-5.814 0,-3.211 2.702,-5.814 6.035,-5.814 h 41.037 c 3.333,0 6.035,2.603 6.035,5.814 0,3.211 -2.703,5.814 -6.036,5.814 z"
       id="path5157-47-2"
       style="fill:#2a7fff" />
  </g>
  <g
     transform="matrix(0.45611789,0,0,0.43740335,373.00559,213.89106)"
     style="fill:url(#linearGradient11668);fill-opacity:1;stroke:#0066ff;stroke-width:2.0264;stroke-miterlimit:4;stroke-dasharray:none;stroke-opacity:1"
     id="g263-36-4">
    <g
       style="fill:url(#linearGradient12896);fill-opacity:1;stroke:#0066ff;stroke-width:2.0264;stroke-miterlimit:4;stroke-dasharray:none;stroke-opacity:1"
       id="g261-7-9">
      <g
         style="fill:url(#linearGradient12894);fill-opacity:1;stroke:#0066ff;stroke-width:2.0264;stroke-miterlimit:4;stroke-dasharray:none;stroke-opacity:1"
         id="g259-0-0">
        <polygon
           style="fill:url(#linearGradient12884);fill-opacity:1;stroke:#0066ff;stroke-width:2.0264;stroke-miterlimit:4;stroke-dasharray:none;stroke-opacity:1"
           id="polygon249-4-1"
           points="136.7,367.7 182.1,288.9 136.7,210 45.4,210 0,288.9 45.4,367.7 " />
        <polygon
           style="fill:url(#linearGradient12886);fill-opacity:1;stroke:#0066ff;stroke-width:2.0264;stroke-miterlimit:4;stroke-dasharray:none;stroke-opacity:1"
           id="polygon251-6-5"
           points="335.8,200.3 290,121.5 199.2,121.5 153.7,200.3 199.2,279.2 290,279.2 " />
        <polygon
           style="fill:url(#linearGradient12888);fill-opacity:1;stroke:#0066ff;stroke-width:2.0264;stroke-miterlimit:4;stroke-dasharray:none;stroke-opacity:1"
           id="polygon253-4-1"
           points="290,298.6 199.2,298.6 153.7,377.4 199.2,456.6 290,456.6 335.8,377.4 " />
        <polygon
           style="fill:url(#linearGradient12890);fill-opacity:1;stroke:#0066ff;stroke-width:2.0264;stroke-miterlimit:4;stroke-dasharray:none;stroke-opacity:1"
           id="polygon255-3-7"
           points="45.4,190.6 136.7,190.6 182.1,111.8 136.7,32.6 45.4,32.6 0,111.8 " />
        <polygon
           style="fill:url(#linearGradient12892);fill-opacity:1;stroke:#0066ff;stroke-width:2.0264;stroke-miterlimit:4;stroke-dasharray:none;stroke-opacity:1"
           id="polygon257-66-5"
           points="443.8,32.6 352.5,32.6 307.1,111.4 352.5,190.6 443.8,190.6 489.2,111.8 " />
      </g>
    </g>
  </g>
</svg>
