<?xml version="1.0" encoding="UTF-8" standalone="no"?>
<svg
   xmlns:dc="http://purl.org/dc/elements/1.1/"
   xmlns:cc="http://creativecommons.org/ns#"
   xmlns:rdf="http://www.w3.org/1999/02/22-rdf-syntax-ns#"
   xmlns:svg="http://www.w3.org/2000/svg"
   xmlns="http://www.w3.org/2000/svg"
   xmlns:sodipodi="http://sodipodi.sourceforge.net/DTD/sodipodi-0.dtd"
   xmlns:inkscape="http://www.inkscape.org/namespaces/inkscape"
   version="1.1"
   id="Layer_1"
   x="0px"
   y="0px"
   viewBox="0 0 512 512"
   style="enable-background:new 0 0 512 512;"
   xml:space="preserve"
   sodipodi:docname="JunTechPC Aruba-Website-Redesign-Services.svg"
   inkscape:version="1.0.2-2 (e86c870879, 2021-01-15)"><metadata
   id="metadata23164"><rdf:RDF><cc:Work
       rdf:about=""><dc:format>image/svg+xml</dc:format><dc:type
         rdf:resource="http://purl.org/dc/dcmitype/StillImage" /><dc:title></dc:title></cc:Work></rdf:RDF></metadata><defs
   id="defs23162" /><sodipodi:namedview
   pagecolor="#ffffff"
   bordercolor="#666666"
   borderopacity="1"
   objecttolerance="10"
   gridtolerance="10"
   guidetolerance="10"
   inkscape:pageopacity="0"
   inkscape:pageshadow="2"
   inkscape:window-width="1920"
   inkscape:window-height="1001"
   id="namedview23160"
   showgrid="false"
   inkscape:zoom="1.5644531"
   inkscape:cx="256"
   inkscape:cy="222.7159"
   inkscape:window-x="-9"
   inkscape:window-y="-9"
   inkscape:window-maximized="1"
   inkscape:current-layer="Layer_1" />
<path
   style="fill:#cccccc;stroke-width:0.784611"
   d="M 429.20214,204.62101 V 353.82662 H 124.29398 95.709871 c -7.899618,0 -15.048461,-3.04101 -20.221797,-7.95942 -5.173336,-4.91842 -8.371969,-11.71499 -8.371969,-19.22534 0,-15.01229 57.177875,-202.04508 57.177875,-202.04508 h 304.90816 v 29.47451 z"
   id="path23093" />
<polygon
   style="fill:#f7b239"
   points="198.945,43.202 198.945,127.871 198.945,332.324 143.274,332.324 143.274,294.611 143.274,251.87 143.274,209.128 143.274,166.387 143.274,127.871 143.274,123.657 143.274,80.916 143.274,43.202 "
   id="polygon23095"
   transform="matrix(0.8046875,0,0,0.76503539,67.116105,26.770167)" />
<g
   id="g23109"
   transform="matrix(0.8046875,0,0,0.76503539,67.116105,26.770167)">
	<rect
   x="143.274"
   y="71.942001"
   style="fill:#b27214"
   width="21.549999"
   height="17.959"
   id="rect23097" />
	<rect
   x="143.274"
   y="200.155"
   style="fill:#b27214"
   width="21.549999"
   height="17.959"
   id="rect23099" />
	<rect
   x="143.274"
   y="157.401"
   style="fill:#b27214"
   width="21.549999"
   height="17.959"
   id="rect23101" />
	<rect
   x="143.274"
   y="114.672"
   style="fill:#b27214"
   width="21.549999"
   height="17.959"
   id="rect23103" />
	<rect
   x="143.274"
   y="285.62601"
   style="fill:#b27214"
   width="21.549999"
   height="17.959"
   id="rect23105" />
	<rect
   x="143.274"
   y="242.884"
   style="fill:#b27214"
   width="21.549999"
   height="17.959"
   id="rect23107" />
</g>
<g
   id="g23115"
   transform="matrix(0.8046875,0,0,0.76503539,67.116105,26.770167)">
	<path
   style="fill:#f95428"
   d="m 477.184,199.43 h 0.419 c 0,11.326 -2.574,22.628 -7.722,33.044 h -19.91 -113.223 v -0.012 c 4.549,-10.536 -4.25,-21.778 -4.25,-33.032 z"
   id="path23111" />
	<path
   style="fill:#f95428"
   d="m 332.498,199.43 c 0,-11.242 8.8,-22.484 4.25,-33.02 v -0.012 h 113.223 19.91 c 5.148,10.404 7.722,21.73 7.722,33.032 h -0.419 z"
   id="path23113" />
</g>
<rect
   x="334.6731"
   y="174.7571"
   style="fill:#e54728;stroke-width:0.784611"
   width="125.34858"
   height="9.1590033"
   id="rect23117" />
<path
   style="fill:#2ba5f7;stroke-width:0.784611"
   d="m 472.9023,154.07129 c 4.14253,7.95943 6.2138,16.62422 6.2138,25.27065 0,8.66479 -2.07127,17.31122 -6.2138,25.27983 h -30.56847 c 4.14254,-7.96861 6.2138,-16.61504 6.2138,-25.27983 0,-8.64643 -2.07126,-17.31122 -6.2138,-25.27065 z"
   id="path23119" />
<path
   style="fill:#f95428;stroke-width:0.784611"
   d="m 319.48944,165.9324 c 2.71662,3.82824 15.18284,8.44523 15.18284,13.40954 0,4.9735 -12.45656,9.58054 -15.18284,13.41872 l -21.05063,-13.41872 z"
   id="path23121" />
<path
   style="fill:#f2f2f2;stroke-width:0.784611"
   d="m 338.09301,154.07971 c 3.66052,8.06041 5.50084,16.66094 5.50084,25.26147 0,8.60971 -1.84032,17.21023 -5.50084,25.27065 v 0.009 l -18.60357,-11.86111 c 2.72628,-3.83742 4.29703,-8.44523 4.29703,-13.41872 0,-4.96432 -1.5796,-9.58054 -4.29703,-13.40954 l 18.60357,-11.86111 z"
   id="path23123" />
<path
   style="fill:#e6e6e6;stroke-width:0.784611"
   d="M 124.29398,124.59601 V 299.45632 H 95.709871 c -15.790383,7.7e-4 -28.593766,12.17325 -28.593766,27.18554 V 97.41124 c 0,-3.746379 0.799859,-7.327509 2.245078,-10.57891 1.445219,-3.2514 3.545453,-6.182251 6.126891,-8.64643 5.173336,-4.918412 12.322179,-7.959428 20.221797,-7.959428 h 28.584109 z"
   id="path23125" />
<path
   style="fill:#2ba5f7;stroke-width:0.784611"
   d="M 423.06559,385.41723 H 259.2964 V 352.86956 229.71799 L 388.83097,352.86956 Z M 287.0895,358.99291 h 68.87642 L 287.0895,293.51047 Z"
   id="path23127" />
<g
   id="g23129">
</g>
<g
   id="g23131">
</g>
<g
   id="g23133">
</g>
<g
   id="g23135">
</g>
<g
   id="g23137">
</g>
<g
   id="g23139">
</g>
<g
   id="g23141">
</g>
<g
   id="g23143">
</g>
<g
   id="g23145">
</g>
<g
   id="g23147">
</g>
<g
   id="g23149">
</g>
<g
   id="g23151">
</g>
<g
   id="g23153">
</g>
<g
   id="g23155">
</g>
<g
   id="g23157">
</g>
</svg>
