<svg xmlns="http://www.w3.org/2000/svg" xmlns:svg="http://www.w3.org/2000/svg" xmlns:xlink="http://www.w3.org/1999/xlink" id="svg5166" width="665.522" height="488.674" version="1.1" viewBox="0 0 646.024 474.358"><metadata id="metadata5170"/><defs id="defs5164"><path id="B" d="m 142.806,254.967 h -41.037 c -3.333,0 -6.035,-2.603 -6.035,-5.814 0,-3.211 2.702,-5.814 6.035,-5.814 h 41.037 c 3.333,0 6.035,2.603 6.035,5.814 0,3.211 -2.702,5.814 -6.035,5.814 z"/><linearGradient id="linearGradient11668" x1="-506.288" x2="490.369" y1="135.105" y2="244.6" gradientUnits="userSpaceOnUse" xlink:href="#linearGradient8692"/><linearGradient id="linearGradient8692"><stop style="stop-color:#0684ff;stop-opacity:1" id="stop943" offset="0"/><stop style="stop-color:#0684ff;stop-opacity:0" id="stop945" offset="1"/></linearGradient><linearGradient id="linearGradient12884" x1="-506.288" x2="490.369" y1="135.105" y2="244.6" gradientUnits="userSpaceOnUse" xlink:href="#linearGradient8692"/><linearGradient id="linearGradient12886" x1="-506.288" x2="490.369" y1="135.105" y2="244.6" gradientUnits="userSpaceOnUse" xlink:href="#linearGradient8692"/><linearGradient id="linearGradient12888" x1="-506.288" x2="490.369" y1="135.105" y2="244.6" gradientUnits="userSpaceOnUse" xlink:href="#linearGradient8692"/><linearGradient id="linearGradient12890" x1="-506.288" x2="490.369" y1="135.105" y2="244.6" gradientUnits="userSpaceOnUse" xlink:href="#linearGradient8692"/><linearGradient id="linearGradient12892" x1="-506.288" x2="490.369" y1="135.105" y2="244.6" gradientUnits="userSpaceOnUse" xlink:href="#linearGradient8692"/><linearGradient id="linearGradient12894" x1="-506.288" x2="490.369" y1="135.105" y2="244.6" gradientUnits="userSpaceOnUse" xlink:href="#linearGradient8692"/><linearGradient id="linearGradient12896" x1="-506.288" x2="490.369" y1="135.105" y2="244.6" gradientUnits="userSpaceOnUse" xlink:href="#linearGradient8692"/></defs><path id="path5119-3-1" fill="#ddeafb" d="m 494.39919,101.40094 v 239.266 H 213.68615 l -46.00201,-4.295 -45.72999,4.294 h -16.057 c -6.311005,0.001 -11.428005,-4.929 -11.428005,-11.01 v -228.255 L 296.75119,91.034944 Z"/><path id="path5121-4-5" fill="#cbe2ff" d="M 475.28819,94.268944 V 340.66694 h 19.111 v -239.266 z"/><path id="path5123-0-3" fill="#2a7fff" d="m 456.17619,71.298944 6.914,15.051 -6.914,15.050996 H 94.469145 V 82.308944 c 0,-6.081 5.117,-11.01 11.428005,-11.01 z"/><path id="path5125-9-9" fill="#59f" d="m 494.39919,82.308944 v 19.091996 h -38.223 V 71.298944 h 26.794 c 6.311,0 11.428,4.929 11.428,11.01 z"/><path id="path5127-8-3" fill="#80b3ff" d="m 482.97119,71.298944 h -19.111 c 6.312,0 11.428,4.93 11.428,11.011 v 19.091996 h 19.111 V 82.308944 c 0,-6.081 -5.117,-11.01 -11.428,-11.01 z"/><path id="path5129-7-0" fill="#59f" d="m 213.68415,131.89094 v 88.539 l -46.00001,5.603 -45.73399,-5.603 v -88.539 c 0,-2.636 2.229,-4.775 4.965,-4.775 h 81.813 c 2.736,0 4.957,2.14 4.957,4.775 z"/><path id="path5131-5-5" fill="#fff9df" d="m 213.68415,220.42894 v 35.281 c 0,3.132 -2.631,5.675 -5.882,5.675 h -79.962 c -3.251,0 -5.89,-2.543 -5.89,-5.675 v -35.281 z"/><path id="path5133-5-4" fill="#06f" d="m 213.55015,340.66694 h -91.733 v -51.414 c 0,-2.64 2.221,-4.779 4.961,-4.779 h 81.81 c 2.74,0 4.961,2.14 4.961,4.779 v 51.414 z m 127.17804,-208.776 v 38.04 l -45.863,6.642 -45.86304,-6.642 v -38.04 c 0,-2.636 2.221,-4.775 4.957,-4.775 h 81.81304 c 2.736,0 4.957,2.14 4.957,4.775 z" style="fill:#2a7fff"/><path id="path5135-04-6" fill="#80b3ff" d="m 340.72819,240.05794 v 38.04 l -43.977,4.483 -47.74904,-4.483 v -38.04 c 0,-2.644 2.221,-4.783 4.957,-4.783 h 81.81304 c 2.736,0 4.957,2.14 4.957,4.783 z"/><path id="path5137-1-0" fill="#59f" d="m 467.78819,131.89094 v 38.04 l -45.919,6.642 -45.816,-6.642 v -38.04 c 0,-2.636 2.221,-4.775 4.965,-4.775 h 81.805 c 2.744,0 4.965,2.14 4.965,4.775 z"/><path id="path5139-6-9" fill="#fff9df" d="m 340.72819,169.93094 v 35.281 c 0,3.132 -2.631,5.675 -5.882,5.675 h -79.96204 c -3.251,0 -5.882,-2.543 -5.882,-5.675 v -35.281 z m 127.06,0 v 35.281 c 0,3.132 -2.639,5.675 -5.89,5.675 h -79.962 c -3.251,0 -5.882,-2.543 -5.882,-5.675 v -35.281 z m -127.06,108.167 v 35.281 c 0,3.132 -2.631,5.667 -5.882,5.667 h -79.96204 c -3.251,0 -5.882,-2.535 -5.882,-5.667 v -35.281 z"/><g id="g5145-0-8" fill="#ffd15b" transform="translate(45.934145,-7.8650563)"><path id="path5141-0-9" d="m 244.782,312.25 h -15.967 c -3.333,0 -6.035,-2.603 -6.035,-5.814 0,-3.211 2.702,-5.814 6.035,-5.814 h 15.967 c 3.333,0 6.035,2.603 6.035,5.814 0,3.211 -2.702,5.814 -6.035,5.814 z" style="fill:#2a7fff"/></g><g id="g5159-5-0" fill="#ffd15b" transform="translate(45.934145,-7.8650563)"><use id="use5153-1-5" width="100%" height="100%" x="0" y="0" xlink:href="#B" style="fill:#2a7fff"/><use id="use5155-8-2" width="100%" height="100%" x="127.046" y="-50.88" xlink:href="#B" style="fill:#2a7fff"/><path id="path5157-47-2" d="M 396.906,204.087 H 355.87 c -3.333,0 -6.035,-2.603 -6.035,-5.814 0,-3.211 2.702,-5.814 6.035,-5.814 h 41.037 c 3.333,0 6.035,2.603 6.035,5.814 0,3.211 -2.703,5.814 -6.036,5.814 z" style="fill:#2a7fff"/></g><g style="fill:url(#linearGradient11668);fill-opacity:1;stroke:#06f;stroke-width:2.0264;stroke-miterlimit:4;stroke-dasharray:none;stroke-opacity:1" id="g263-36-4" transform="matrix(0.45611789,0,0,0.43740335,373.00559,213.89106)"><g style="fill:url(#linearGradient12896);fill-opacity:1;stroke:#06f;stroke-width:2.0264;stroke-miterlimit:4;stroke-dasharray:none;stroke-opacity:1" id="g261-7-9"><g style="fill:url(#linearGradient12894);fill-opacity:1;stroke:#06f;stroke-width:2.0264;stroke-miterlimit:4;stroke-dasharray:none;stroke-opacity:1" id="g259-0-0"><polygon style="fill:url(#linearGradient12884);fill-opacity:1;stroke:#06f;stroke-width:2.0264;stroke-miterlimit:4;stroke-dasharray:none;stroke-opacity:1" id="polygon249-4-1" points="136.7 367.7 182.1 288.9 136.7 210 45.4 210 0 288.9 45.4 367.7"/><polygon style="fill:url(#linearGradient12886);fill-opacity:1;stroke:#06f;stroke-width:2.0264;stroke-miterlimit:4;stroke-dasharray:none;stroke-opacity:1" id="polygon251-6-5" points="335.8 200.3 290 121.5 199.2 121.5 153.7 200.3 199.2 279.2 290 279.2"/><polygon style="fill:url(#linearGradient12888);fill-opacity:1;stroke:#06f;stroke-width:2.0264;stroke-miterlimit:4;stroke-dasharray:none;stroke-opacity:1" id="polygon253-4-1" points="290 298.6 199.2 298.6 153.7 377.4 199.2 456.6 290 456.6 335.8 377.4"/><polygon style="fill:url(#linearGradient12890);fill-opacity:1;stroke:#06f;stroke-width:2.0264;stroke-miterlimit:4;stroke-dasharray:none;stroke-opacity:1" id="polygon255-3-7" points="45.4 190.6 136.7 190.6 182.1 111.8 136.7 32.6 45.4 32.6 0 111.8"/><polygon style="fill:url(#linearGradient12892);fill-opacity:1;stroke:#06f;stroke-width:2.0264;stroke-miterlimit:4;stroke-dasharray:none;stroke-opacity:1" id="polygon257-66-5" points="443.8 32.6 352.5 32.6 307.1 111.4 352.5 190.6 443.8 190.6 489.2 111.8"/></g></g></g></svg>