<svg xmlns="http://www.w3.org/2000/svg" xmlns:xlink="http://www.w3.org/1999/xlink" viewBox="0 0 1329.835 845.45" xmlns:v="https://vecta.io/nano"><style><![CDATA[.E{stroke-width:2.026}.F{fill:url(#B)}.G{stroke-width:2.017}]]></style><defs><linearGradient id="A" gradientUnits="userSpaceOnUse"><stop offset="0" stop-color="#0684ff"/><stop offset="1" stop-color="#0684ff" stop-opacity="0"/></linearGradient><linearGradient id="B" x1="-506.288" x2="490.369" y1="135.105" y2="244.6" xlink:href="#A"/><linearGradient id="C" x1="0" x2="489.2" y1="244.6" y2="244.6" xlink:href="#A"/><linearGradient xlink:href="#A" id="D" x1="0" y1="244.6" x2="489.2" y2="244.6"/><path id="E" d="M136.7 367.7l45.4-78.8-45.4-78.9H45.4L0 288.9l45.4 78.8z"/><path id="F" d="M335.8 200.3L290 121.5h-90.8l-45.5 78.8 45.5 78.9H290z"/><path id="G" d="M290 298.6h-90.8l-45.5 78.8 45.5 79.2H290l45.8-79.2z"/><path id="H" d="M45.4 190.6h91.3l45.4-78.8-45.4-79.2H45.4L0 111.8z"/><path id="I" d="M443.8 32.6h-91.3l-45.4 78.8 45.4 79.2h91.3l45.4-78.8z"/><path id="J" d="M182.1 288.9L136.7 210H45.4L0 288.9l45.4 78.8h91.3z"/><path id="K" d="M290 121.5h-90.8l-45.5 78.8 45.5 78.9H290l45.8-78.9z"/><path id="L" d="M199.2 298.6l-45.5 78.8 45.5 79.2H290l45.8-79.2-45.8-78.8z"/><path id="M" d="M136.7 190.6l45.4-78.8-45.4-79.2H45.4L0 111.8l45.4 78.8z"/><path id="N" d="M352.5 32.6l-45.4 78.8 45.4 79.2h91.3l45.4-78.8-45.4-79.2z"/><path id="O" d="M136.7 210H45.4L0 288.9l45.4 78.8h91.3l45.4-78.8z"/><path id="P" d="M199.2 121.5l-45.5 78.8 45.5 78.9H290l45.8-78.9-45.8-78.8z"/><path id="Q" d="M153.7 377.4l45.5 79.2H290l45.8-79.2-45.8-78.8h-90.8z"/><path id="R" d="M182.1 111.8l-45.4-79.2H45.4L0 111.8l45.4 78.8h91.3z"/><path id="S" d="M307.1 111.4l45.4 79.2h91.3l45.4-78.8-45.4-79.2h-91.3z"/><path id="T" d="M45.4 210L0 288.9l45.4 78.8h91.3l45.4-78.8-45.4-78.9z"/><path id="U" d="M153.7 200.3l45.5 78.9H290l45.8-78.9-45.8-78.8h-90.8z"/><path id="V" d="M199.2 456.6H290l45.8-79.2-45.8-78.8h-90.8l-45.5 78.8z"/><path id="W" d="M136.7 32.6H45.4L0 111.8l45.4 78.8h91.3l45.4-78.8z"/><path id="X" d="M352.5 190.6h91.3l45.4-78.8-45.4-79.2h-91.3l-45.4 78.8z"/><path id="Y" d="M45.4 367.7h91.3l45.4-78.8-45.4-78.9H45.4L0 288.9z"/><path id="Z" d="M290 279.2l45.8-78.9-45.8-78.8h-90.8l-45.5 78.8 45.5 78.9z"/><path id="a" d="M335.8 377.4L290 298.6h-90.8l-45.5 78.8 45.5 79.2H290z"/><path id="b" d="M0 111.8l45.4 78.8h91.3l45.4-78.8-45.4-79.2H45.4z"/><path id="c" d="M489.2 111.8l-45.4-79.2h-91.3l-45.4 78.8 45.4 79.2h91.3z"/><path id="d" d="M0 288.9l45.4 78.8h91.3l45.4-78.8-45.4-78.9H45.4z"/><path id="e" d="M199.2 279.2H290l45.8-78.9-45.8-78.8h-90.8l-45.5 78.8z"/><path id="f" d="M290 456.6l45.8-79.2-45.8-78.8h-90.8l-45.5 78.8 45.5 79.2z"/><path id="g" d="M45.4 32.6L0 111.8l45.4 78.8h91.3l45.4-78.8-45.4-79.2z"/><path id="h" d="M443.8 190.6l45.4-78.8-45.4-79.2h-91.3l-45.4 78.8 45.4 79.2z"/><linearGradient xlink:href="#A" id="i" x1="-506.288" y1="135.105" x2="490.369" y2="244.6"/></defs><g stroke="#06f"><path stroke-width="1.326" d="M-32.171.663h1361.343v844.124H-32.171z"/><g transform="matrix(.41354 0 0 .39713 45.405 61.873)" class="E F"><use xlink:href="#E"/><use xlink:href="#F"/><use xlink:href="#G"/><use xlink:href="#H"/><use xlink:href="#I"/></g><g transform="matrix(.41354 0 0 .39713 172.402 -8.578)" class="E F"><use xlink:href="#J"/><use xlink:href="#K"/><use xlink:href="#L"/><use xlink:href="#M"/><use xlink:href="#N"/></g><g transform="matrix(.41354 0 0 .39713 45.087 556.177)" class="E F"><use xlink:href="#J"/><use xlink:href="#K"/><use xlink:href="#L"/><use xlink:href="#M"/><use xlink:href="#N"/></g><g transform="matrix(.41354 0 0 .39713 -18.032 167.509)" class="E F"><use xlink:href="#E"/><use xlink:href="#F"/><use xlink:href="#G"/><use xlink:href="#H"/><use xlink:href="#I"/></g><g transform="matrix(.41354 0 0 .39713 1159.9618 -34.760979)" class="E F"><use xlink:href="#J"/><use xlink:href="#K"/><use xlink:href="#L"/><use xlink:href="#M"/><use xlink:href="#N"/></g><g transform="matrix(.41354 0 0 .39713 1096.5661 70.875601)" class="E F"><use xlink:href="#J"/><use xlink:href="#K"/><use xlink:href="#L"/><use xlink:href="#M"/><use xlink:href="#N"/></g><g transform="matrix(.41354 0 0 .39713 1159.9611 176.5116)" class="E F"><use xlink:href="#O"/><use xlink:href="#P"/><use xlink:href="#Q"/><use xlink:href="#R"/><use xlink:href="#S"/></g><g transform="matrix(.41354 0 0 .39713 1032.9651 247.0016)" class="E F"><use xlink:href="#T"/><use xlink:href="#U"/><use xlink:href="#V"/><use xlink:href="#W"/><use xlink:href="#X"/></g><g transform="matrix(.41354 0 0 .39713 778.97009 598.9366)" class="E F"><use xlink:href="#J"/><use xlink:href="#K"/><use xlink:href="#L"/><use xlink:href="#M"/><use xlink:href="#N"/></g><g transform="matrix(.41354 0 0 .39713 905.96709 528.6046)" class="E F"><use xlink:href="#J"/><use xlink:href="#K"/><use xlink:href="#L"/><use xlink:href="#M"/><use xlink:href="#N"/></g><g transform="matrix(.41354 0 0 .39713 1159.9611 387.8226)" class="E F"><use xlink:href="#Y"/><use xlink:href="#Z"/><use xlink:href="#a"/><use xlink:href="#b"/><use xlink:href="#c"/></g><g transform="matrix(.41354 0 0 .39713 1096.3601 563.9096)" class="E F"><use xlink:href="#T"/><use xlink:href="#U"/><use xlink:href="#V"/><use xlink:href="#W"/><use xlink:href="#X"/></g><g transform="matrix(.41354 0 0 .39713 1032.9651 458.2736)" class="E F"><use xlink:href="#T"/><use xlink:href="#U"/><use xlink:href="#V"/><use xlink:href="#W"/><use xlink:href="#X"/></g><g transform="matrix(.41354 0 0 .39713 1159.7551 669.5456)" class="E F"><use xlink:href="#O"/><use xlink:href="#P"/><use xlink:href="#Q"/><use xlink:href="#R"/><use xlink:href="#S"/></g><g transform="matrix(.41354 0 0 .39713 969.36209 634.2416)" class="E F"><use xlink:href="#E"/><use xlink:href="#F"/><use xlink:href="#G"/><use xlink:href="#H"/><use xlink:href="#I"/></g><g transform="matrix(.41354 0 0 .39713 299.399 61.873)" class="E F"><use xlink:href="#O"/><use xlink:href="#P"/><use xlink:href="#Q"/><use xlink:href="#R"/><use xlink:href="#S"/></g><g transform="matrix(.41354 0 0 .39713 651.97309 669.4266)" class="E F"><use xlink:href="#T"/><use xlink:href="#U"/><use xlink:href="#V"/><use xlink:href="#W"/><use xlink:href="#X"/></g><g transform="matrix(.41354 0 0 .39713 426.396 -8.459)" class="E F"><use xlink:href="#J"/><use xlink:href="#K"/><use xlink:href="#L"/><use xlink:href="#M"/><use xlink:href="#N"/></g><g transform="matrix(.41354 0 0 .39713 -81.91 626.508)" class="E F"><use xlink:href="#O"/><use xlink:href="#P"/><use xlink:href="#Q"/><use xlink:href="#R"/><use xlink:href="#S"/></g><g transform="matrix(.41354 0 0 .39713 172.084 556.177)" class="E F"><use xlink:href="#O"/><use xlink:href="#P"/><use xlink:href="#Q"/><use xlink:href="#R"/><use xlink:href="#S"/></g><g transform="matrix(.41354 0 0 .39713 -18.515 450.541)" class="E F"><use xlink:href="#J"/><use xlink:href="#K"/><use xlink:href="#L"/><use xlink:href="#M"/><use xlink:href="#N"/></g><g transform="matrix(.41354 0 0 .39713 553.393 -78.79)" class="E F"><use xlink:href="#O"/><use xlink:href="#P"/><use xlink:href="#Q"/><use xlink:href="#R"/><use xlink:href="#S"/></g><g transform="matrix(.41354 0 0 .39713 299.363 626.92)" class="E F"><use xlink:href="#T"/><use xlink:href="#U"/><use xlink:href="#V"/><use xlink:href="#W"/><use xlink:href="#X"/></g><g transform="matrix(.41354 0 0 .39713 -18.197 -43.764)" class="E F"><use xlink:href="#Y"/><use xlink:href="#Z"/><use xlink:href="#a"/><use xlink:href="#b"/><use xlink:href="#c"/></g><g opacity=".725" transform="matrix(.41551 0 0 .39903 -82.51 344.338)" fill="url(#C)" class="G"><use xlink:href="#d"/><use xlink:href="#e"/><use xlink:href="#f"/><use xlink:href="#g"/><use xlink:href="#h"/></g><g opacity=".725" transform="matrix(.41551 0 0 .39903 1223.1635 281.77691)" fill="url(#D)" class="G"><use xlink:href="#d"/><use xlink:href="#e"/><use xlink:href="#f"/><use xlink:href="#g"/><use xlink:href="#h"/></g><g transform="matrix(.531032 0 0 .50472 192.4443 278.23227)" class="E"><path d="M0 288.9l45.4 78.8h91.3l45.4-78.8-45.4-78.9H45.4z" fill="url(#i)"/><path d="M199.2 279.2H290l45.8-78.9-45.8-78.8h-90.8l-45.5 78.8z" fill="url(#i)"/><path d="M290 456.6l45.8-79.2-45.8-78.8h-90.8l-45.5 78.8 45.5 79.2z" fill="url(#i)"/><path d="M45.4 32.6L0 111.8l45.4 78.8h91.3l45.4-78.8-45.4-79.2z" fill="url(#i)"/><path d="M443.8 190.6l45.4-78.8-45.4-79.2h-91.3l-45.4 78.8 45.4 79.2z" fill="url(#i)"/></g></g></svg>