<?xml version="1.0" encoding="UTF-8" standalone="no"?>
<svg
   xmlns:dc="http://purl.org/dc/elements/1.1/"
   xmlns:cc="http://creativecommons.org/ns#"
   xmlns:rdf="http://www.w3.org/1999/02/22-rdf-syntax-ns#"
   xmlns:svg="http://www.w3.org/2000/svg"
   xmlns="http://www.w3.org/2000/svg"
   xmlns:xlink="http://www.w3.org/1999/xlink"
   xmlns:sodipodi="http://sodipodi.sourceforge.net/DTD/sodipodi-0.dtd"
   xmlns:inkscape="http://www.inkscape.org/namespaces/inkscape"
   inkscape:version="1.0.2-2 (e86c870879, 2021-01-15)"
   sodipodi:docname="What is JunTechPC all about.svg"
   xml:space="preserve"
   viewBox="0 0 468.01268 429.54055"
   y="0px"
   x="0px"
   id="Capa_1"
   version="1.1"
   width="468.0127"
   height="429.54056"><metadata
   id="metadata300"><rdf:RDF><cc:Work
       rdf:about=""><dc:format>image/svg+xml</dc:format><dc:type
         rdf:resource="http://purl.org/dc/dcmitype/StillImage" /><dc:title></dc:title></cc:Work></rdf:RDF></metadata><defs
   id="defs298"><linearGradient
     inkscape:collect="always"
     xlink:href="#linearGradient8692"
     id="linearGradient8694"
     x1="-506.28784"
     y1="135.10474"
     x2="490.36859"
     y2="244.60001"
     gradientUnits="userSpaceOnUse" /><linearGradient
     inkscape:collect="always"
     id="linearGradient8692"><stop
       style="stop-color:#0684ff;stop-opacity:1;"
       offset="0"
       id="stop943" /><stop
       style="stop-color:#0684ff;stop-opacity:0;"
       offset="1"
       id="stop945" /></linearGradient><linearGradient
     inkscape:collect="always"
     xlink:href="#linearGradient8692"
     id="linearGradient3643"
     gradientUnits="userSpaceOnUse"
     x1="-506.28784"
     y1="135.10474"
     x2="490.36859"
     y2="244.60001" /><linearGradient
     inkscape:collect="always"
     xlink:href="#linearGradient8692"
     id="linearGradient3645"
     gradientUnits="userSpaceOnUse"
     x1="-506.28784"
     y1="135.10474"
     x2="490.36859"
     y2="244.60001" /><linearGradient
     inkscape:collect="always"
     xlink:href="#linearGradient8692"
     id="linearGradient3647"
     gradientUnits="userSpaceOnUse"
     x1="-506.28784"
     y1="135.10474"
     x2="490.36859"
     y2="244.60001" /><linearGradient
     inkscape:collect="always"
     xlink:href="#linearGradient8692"
     id="linearGradient3649"
     gradientUnits="userSpaceOnUse"
     x1="-506.28784"
     y1="135.10474"
     x2="490.36859"
     y2="244.60001" /><linearGradient
     inkscape:collect="always"
     xlink:href="#linearGradient8692"
     id="linearGradient3651"
     gradientUnits="userSpaceOnUse"
     x1="-506.28784"
     y1="135.10474"
     x2="490.36859"
     y2="244.60001" /><linearGradient
     inkscape:collect="always"
     xlink:href="#linearGradient8692"
     id="linearGradient3653"
     gradientUnits="userSpaceOnUse"
     x1="-506.28784"
     y1="135.10474"
     x2="490.36859"
     y2="244.60001" /><linearGradient
     inkscape:collect="always"
     xlink:href="#linearGradient8692"
     id="linearGradient3655"
     gradientUnits="userSpaceOnUse"
     x1="-506.28784"
     y1="135.10474"
     x2="490.36859"
     y2="244.60001" /></defs><sodipodi:namedview
   inkscape:current-layer="Capa_1"
   inkscape:window-maximized="1"
   inkscape:window-y="-9"
   inkscape:window-x="-9"
   inkscape:cy="261.20381"
   inkscape:cx="74.542443"
   inkscape:zoom="1.6373671"
   showgrid="false"
   id="namedview296"
   inkscape:window-height="1001"
   inkscape:window-width="1920"
   inkscape:pageshadow="2"
   inkscape:pageopacity="0"
   guidetolerance="10"
   gridtolerance="10"
   objecttolerance="10"
   borderopacity="1"
   bordercolor="#666666"
   pagecolor="#ffffff"
   inkscape:document-rotation="0" />

<g
   id="g265"
   transform="translate(-3.5701851,-65.474398)">
</g>
<g
   id="g267"
   transform="translate(-3.5701851,-65.474398)">
</g>
<g
   id="g269"
   transform="translate(-3.5701851,-65.474398)">
</g>
<g
   id="g271"
   transform="translate(-3.5701851,-65.474398)">
</g>
<g
   id="g273"
   transform="translate(-3.5701851,-65.474398)">
</g>
<g
   id="g275"
   transform="translate(-3.5701851,-65.474398)">
</g>
<g
   id="g277"
   transform="translate(-3.5701851,-65.474398)">
</g>
<g
   id="g279"
   transform="translate(-3.5701851,-65.474398)">
</g>
<g
   id="g281"
   transform="translate(-3.5701851,-65.474398)">
</g>
<g
   id="g283"
   transform="translate(-3.5701851,-65.474398)">
</g>
<g
   id="g285"
   transform="translate(-3.5701851,-65.474398)">
</g>
<g
   id="g287"
   transform="translate(-3.5701851,-65.474398)">
</g>
<g
   id="g289"
   transform="translate(-3.5701851,-65.474398)">
</g>
<g
   id="g291"
   transform="translate(-3.5701851,-65.474398)">
</g>
<g
   id="g293"
   transform="translate(-3.5701851,-65.474398)">
</g>
<g
   transform="matrix(0.73452604,0,0,0.71590575,58.790691,66.841621)"
   style="fill:url(#linearGradient8694);fill-opacity:1;stroke:#0066ff;stroke-width:2.0264;stroke-miterlimit:4;stroke-dasharray:none;stroke-opacity:1"
   id="g263"><g
     style="fill:url(#linearGradient3655);fill-opacity:1;stroke:#0066ff;stroke-width:2.0264;stroke-miterlimit:4;stroke-dasharray:none;stroke-opacity:1"
     id="g261"><g
       style="fill:url(#linearGradient3653);fill-opacity:1;stroke:#0066ff;stroke-width:2.0264;stroke-miterlimit:4;stroke-dasharray:none;stroke-opacity:1"
       id="g259"><polygon
         style="fill:url(#linearGradient3643);fill-opacity:1;stroke:#0066ff;stroke-width:2.0264;stroke-miterlimit:4;stroke-dasharray:none;stroke-opacity:1"
         id="polygon249"
         points="45.4,367.7 136.7,367.7 182.1,288.9 136.7,210 45.4,210 0,288.9 " /><polygon
         style="fill:url(#linearGradient3645);fill-opacity:1;stroke:#0066ff;stroke-width:2.0264;stroke-miterlimit:4;stroke-dasharray:none;stroke-opacity:1"
         id="polygon251"
         points="290,279.2 335.8,200.3 290,121.5 199.2,121.5 153.7,200.3 199.2,279.2 " /><polygon
         style="fill:url(#linearGradient3647);fill-opacity:1;stroke:#0066ff;stroke-width:2.0264;stroke-miterlimit:4;stroke-dasharray:none;stroke-opacity:1"
         id="polygon253"
         points="335.8,377.4 290,298.6 199.2,298.6 153.7,377.4 199.2,456.6 290,456.6 " /><polygon
         style="fill:url(#linearGradient3649);fill-opacity:1;stroke:#0066ff;stroke-width:2.0264;stroke-miterlimit:4;stroke-dasharray:none;stroke-opacity:1"
         id="polygon255"
         points="0,111.8 45.4,190.6 136.7,190.6 182.1,111.8 136.7,32.6 45.4,32.6 " /><polygon
         style="fill:url(#linearGradient3651);fill-opacity:1;stroke:#0066ff;stroke-width:2.0264;stroke-miterlimit:4;stroke-dasharray:none;stroke-opacity:1"
         id="polygon257"
         points="489.2,111.8 443.8,32.6 352.5,32.6 307.1,111.4 352.5,190.6 443.8,190.6 " /></g></g></g><g
   id="g359"
   transform="matrix(0.21875,0,0,0.21875,292.73059,237.15356)"
   style="fill:#ffffff"><path
     style="fill:#ffffff"
     d="M 379.586,44.138 H 194.207 c -9.751,0 -17.655,-7.904 -17.655,-17.655 v 0 c 0,-9.751 7.904,-17.655 17.655,-17.655 h 185.379 c 9.751,0 17.655,7.904 17.655,17.655 v 0 c 0,9.751 -7.904,17.655 -17.655,17.655 z"
     id="path355" /><path
     style="fill:#ffffff"
     d="M 70.621,0 C 31.618,0 0,31.618 0,70.621 c 0,39.003 31.618,70.621 70.621,70.621 39.003,0 70.621,-31.618 70.621,-70.621 C 141.242,31.618 109.623,0 70.621,0 Z m 41.551,53.323 -47.082,47.078 c -1.725,1.725 -3.982,2.586 -6.241,2.586 -2.259,0 -4.518,-0.862 -6.241,-2.586 L 29.069,76.862 c -3.448,-3.448 -3.448,-9.035 0,-12.483 3.448,-3.448 9.035,-3.448 12.483,0 L 58.849,81.678 99.69,40.841 c 3.448,-3.448 9.035,-3.448 12.483,0 3.449,3.448 3.447,9.034 -0.001,12.482 z"
     id="path357" /></g><g
   id="g365"
   transform="matrix(0.21875,0,0,0.21875,292.73059,237.15356)"><path
     style="fill:#afb9d2"
     d="M 467.862,88.276 H 291.31 c -4.875,0 -8.828,-3.953 -8.828,-8.828 0,-4.875 3.953,-8.828 8.828,-8.828 h 176.552 c 4.875,0 8.828,3.953 8.828,8.828 0,4.875 -3.953,8.828 -8.828,8.828 z"
     id="path361" /><path
     style="fill:#afb9d2"
     d="m 256.004,88.276 h -70.625 c -4.875,0 -8.828,-3.953 -8.828,-8.828 0,-4.875 3.953,-8.828 8.828,-8.828 h 70.625 c 4.875,0 8.828,3.953 8.828,8.828 0,4.875 -3.953,8.828 -8.828,8.828 z"
     id="path363" /></g><g
   id="g371"
   transform="matrix(0.21875,0,0,0.21875,292.73059,237.15356)"><path
     style="fill:#c7cfe2"
     d="m 503.172,123.586 h -52.966 c -4.875,0 -8.828,-3.953 -8.828,-8.828 0,-4.875 3.953,-8.828 8.828,-8.828 h 52.966 c 4.875,0 8.828,3.953 8.828,8.828 0,4.876 -3.953,8.828 -8.828,8.828 z"
     id="path367" /><path
     style="fill:#c7cfe2"
     d="M 414.892,123.586 H 185.379 c -4.875,0 -8.828,-3.953 -8.828,-8.828 0,-4.875 3.953,-8.828 8.828,-8.828 h 229.513 c 4.875,0 8.828,3.953 8.828,8.828 0,4.876 -3.953,8.828 -8.828,8.828 z"
     id="path369" /></g><g
   id="g377"
   transform="matrix(0.21875,0,0,0.21875,292.73059,237.15356)"
   style="fill:#ffffff"><path
     style="fill:#ffffff"
     d="M 379.586,229.517 H 194.207 c -9.751,0 -17.655,-7.904 -17.655,-17.655 v 0 c 0,-9.751 7.904,-17.655 17.655,-17.655 h 185.379 c 9.751,0 17.655,7.904 17.655,17.655 v 0 c 0,9.751 -7.904,17.655 -17.655,17.655 z"
     id="path373" /><path
     style="fill:#ffffff"
     d="M 70.621,185.379 C 31.618,185.379 0,216.998 0,256 c 0,39.002 31.618,70.621 70.621,70.621 39.003,0 70.621,-31.618 70.621,-70.621 0,-39.003 -31.619,-70.621 -70.621,-70.621 z m 41.551,53.323 -47.082,47.078 c -1.725,1.725 -3.982,2.586 -6.241,2.586 -2.259,0 -4.518,-0.862 -6.241,-2.586 L 29.069,262.241 c -3.448,-3.448 -3.448,-9.035 0,-12.483 3.448,-3.448 9.035,-3.448 12.483,0 L 58.85,267.056 99.691,226.22 c 3.448,-3.448 9.035,-3.448 12.483,0 3.449,3.447 3.446,9.034 -0.002,12.482 z"
     id="path375" /></g><g
   id="g383"
   transform="matrix(0.21875,0,0,0.21875,292.73059,237.15356)"><path
     style="fill:#afb9d2"
     d="M 467.862,273.655 H 291.31 c -4.875,0 -8.828,-3.953 -8.828,-8.828 0,-4.875 3.953,-8.827 8.828,-8.827 h 176.552 c 4.875,0 8.828,3.953 8.828,8.828 0,4.875 -3.953,8.827 -8.828,8.827 z"
     id="path379" /><path
     style="fill:#afb9d2"
     d="m 256.004,273.655 h -70.625 c -4.875,0 -8.828,-3.953 -8.828,-8.828 0,-4.875 3.953,-8.828 8.828,-8.828 h 70.625 c 4.875,0 8.828,3.953 8.828,8.828 0,4.875 -3.953,8.828 -8.828,8.828 z"
     id="path381" /></g><g
   id="g389"
   transform="matrix(0.21875,0,0,0.21875,292.73059,237.15356)"><path
     style="fill:#c7cfe2"
     d="m 503.172,308.966 h -52.966 c -4.875,0 -8.828,-3.953 -8.828,-8.828 0,-4.875 3.953,-8.828 8.828,-8.828 h 52.966 c 4.875,0 8.828,3.953 8.828,8.828 0,4.875 -3.953,8.828 -8.828,8.828 z"
     id="path385" /><path
     style="fill:#c7cfe2"
     d="M 414.892,308.966 H 185.379 c -4.875,0 -8.828,-3.953 -8.828,-8.828 0,-4.875 3.953,-8.828 8.828,-8.828 h 229.513 c 4.875,0 8.828,3.953 8.828,8.828 0,4.875 -3.953,8.828 -8.828,8.828 z"
     id="path387" /></g><g
   id="g395"
   transform="matrix(0.21875,0,0,0.21875,292.73059,237.15356)"><path
     style="fill:#eff2fa"
     d="M 353.103,414.897 H 194.207 c -9.751,0 -17.655,-7.904 -17.655,-17.655 v 0 c 0,-9.751 7.904,-17.655 17.655,-17.655 h 158.897 c 9.751,0 17.655,7.904 17.655,17.655 v 0 c 0,9.751 -7.904,17.655 -17.656,17.655 z"
     id="path391" /><path
     style="fill:#eff2fa"
     d="M 70.621,370.759 C 31.618,370.759 0,402.377 0,441.379 0,480.381 31.618,512 70.621,512 c 39.003,0 70.621,-31.618 70.621,-70.621 0,-39.003 -31.619,-70.62 -70.621,-70.62 z"
     id="path393" /></g><g
   id="g401"
   transform="matrix(0.21875,0,0,0.21875,292.73059,237.15356)"><path
     style="fill:#afb9d2"
     d="M 467.862,459.034 H 291.31 c -4.875,0 -8.828,-3.953 -8.828,-8.828 0,-4.875 3.953,-8.828 8.828,-8.828 h 176.552 c 4.875,0 8.828,3.953 8.828,8.828 0,4.876 -3.953,8.828 -8.828,8.828 z"
     id="path397" /><path
     style="fill:#afb9d2"
     d="m 256.004,459.034 h -70.625 c -4.875,0 -8.828,-3.953 -8.828,-8.828 0,-4.875 3.953,-8.828 8.828,-8.828 h 70.625 c 4.875,0 8.828,3.953 8.828,8.828 0,4.876 -3.953,8.828 -8.828,8.828 z"
     id="path399" /></g><g
   id="g407"
   transform="matrix(0.21875,0,0,0.21875,292.73059,237.15356)"><path
     style="fill:#c7cfe2"
     d="m 503.172,494.345 h -52.966 c -4.875,0 -8.828,-3.953 -8.828,-8.828 0,-4.875 3.953,-8.828 8.828,-8.828 h 52.966 c 4.875,0 8.828,3.953 8.828,8.828 0,4.875 -3.953,8.828 -8.828,8.828 z"
     id="path403" /><path
     style="fill:#c7cfe2"
     d="M 414.892,494.345 H 185.379 c -4.875,0 -8.828,-3.953 -8.828,-8.828 0,-4.875 3.953,-8.828 8.828,-8.828 h 229.513 c 4.875,0 8.828,3.953 8.828,8.828 0,4.875 -3.953,8.828 -8.828,8.828 z"
     id="path405" /></g></svg>
